<svg width="49" height="49" viewBox="0 0 49 49" fill="none" xmlns="http://www.w3.org/2000/svg">
<g clip-path="url(#clip0)">
<path d="M43.308 15.7543H42.1271V13.8736C42.1271 13.3451 41.6981 12.9166 41.1691 12.9166H16.594L14.0655 2.19708C14.0623 2.1833 14.0587 2.16962 14.0549 2.15603C13.6101 0.585156 11.969 -0.331201 10.3963 0.113053C9.63455 0.328385 9.00225 0.827094 8.61598 1.5174C8.23392 2.20024 8.13773 2.9896 8.34428 3.74317L10.4624 12.9166H7.87667C7.34755 12.9166 6.91864 13.3451 6.91864 13.8736V15.7543H5.73778C3.96504 15.7543 2.52283 17.195 2.52283 18.9659C2.52283 20.7368 3.96504 22.1775 5.73778 22.1775H6.91854V35.8759C6.91854 38.4872 9.00043 40.622 11.5932 40.7108C11.5465 40.8937 11.5204 41.0739 11.5204 41.2485C11.5204 41.6696 11.6049 42.0715 11.7577 42.4381H10.2176C7.90895 42.4381 6.03084 44.3143 6.03084 46.6206V48.0438C6.03084 48.5723 6.45974 49.0008 6.98886 49.0008H42.0568C42.5858 49.0008 43.0148 48.5723 43.0148 48.0438V46.6205C43.0148 44.3142 41.1367 42.438 38.828 42.438H37.2878C37.4406 42.0715 37.5251 41.6696 37.5251 41.2484C37.5251 41.0738 37.4992 40.8936 37.4523 40.7107C40.0451 40.622 42.127 38.4872 42.127 35.8758V22.1775H43.3079C45.0806 22.1775 46.5228 20.7368 46.5228 18.9659C46.5228 17.195 45.0807 15.7543 43.308 15.7543ZM8.8346 21.9596H40.211V29.7054H8.8346V21.9596ZM10.2066 3.29231C10.203 3.27709 10.1992 3.26197 10.1949 3.24685C10.1187 2.97783 10.152 2.69531 10.2885 2.45127C10.425 2.20723 10.6485 2.03094 10.9178 1.95486C11.4682 1.79934 12.042 2.11516 12.2061 2.6599L14.6254 12.9166H12.4286L10.2066 3.29231ZM8.8346 14.8308H40.211V20.0455H8.8346V14.8308ZM4.43898 18.9659C4.43898 18.2504 5.02165 17.6684 5.73787 17.6684H6.91864V20.2633H5.73778C5.02165 20.2634 4.43898 19.6814 4.43898 18.9659ZM13.4366 41.2484C13.4366 40.9405 13.9521 40.1653 14.6275 39.4077C15.3029 40.1654 15.8184 40.9405 15.8184 41.2484C15.8184 41.9043 15.2842 42.438 14.6275 42.438C13.9708 42.438 13.4366 41.9044 13.4366 41.2484ZM31.5487 42.438H27.3925C27.5453 42.0715 27.6298 41.6696 27.6298 41.2484C27.6298 41.0748 27.6041 40.8955 27.5577 40.7137H31.3834C31.337 40.8956 31.3114 41.0748 31.3114 41.2484C31.3114 41.6696 31.3959 42.0715 31.5487 42.438ZM25.7137 41.2484C25.7137 41.9043 25.1795 42.438 24.5228 42.438C23.8661 42.438 23.3319 41.9044 23.3319 41.2484C23.3319 40.9405 23.8474 40.1653 24.5228 39.4077C25.1983 40.1654 25.7137 40.9405 25.7137 41.2484ZM21.6532 42.438H17.497C17.6498 42.0715 17.7343 41.6696 17.7343 41.2484C17.7343 41.0748 17.7086 40.8955 17.6622 40.7137H21.4878C21.4415 40.8956 21.4158 41.0748 21.4158 41.2484C21.4159 41.6696 21.5004 42.0715 21.6532 42.438ZM41.0988 46.6205V47.0867H7.94689V46.6205C7.94689 45.3697 8.96556 44.3521 10.2176 44.3521H38.828C40.0801 44.3521 41.0988 45.3697 41.0988 46.6205ZM33.2274 41.2484C33.2274 40.9405 33.7429 40.1653 34.4182 39.4077C35.0937 40.1654 35.6092 40.9405 35.6092 41.2484C35.6092 41.9043 35.075 42.438 34.4182 42.438C33.7616 42.438 33.2274 41.9044 33.2274 41.2484ZM37.2844 38.7996H36.4093C35.8971 38.1376 35.3449 37.5906 35.0766 37.337C34.7073 36.988 34.1292 36.9879 33.7599 37.337C33.4915 37.5906 32.9393 38.1375 32.4272 38.7995H26.5139C26.0018 38.1375 25.4496 37.5905 25.1812 37.3369C24.8119 36.9879 24.2339 36.9879 23.8645 37.3369C23.5961 37.5905 23.0439 38.1374 22.5317 38.7995H16.6186C16.1064 38.1375 15.5542 37.5905 15.2858 37.3369C14.9164 36.9879 14.3385 36.9879 13.9691 37.3369C13.7007 37.5905 13.1485 38.1374 12.6363 38.7995H11.7615C10.1477 38.7995 8.8347 37.4879 8.8347 35.8758V31.6194H40.2111V35.8758C40.2111 37.488 38.8982 38.7996 37.2844 38.7996ZM43.308 20.2634H42.1271V17.6685H43.308C44.0242 17.6685 44.6069 18.2505 44.6069 18.966C44.6069 19.6815 44.0241 20.2634 43.308 20.2634Z" fill="#F05542"/>
<path d="M30.1888 10.2243C30.2226 10.6993 30.6005 11.0772 31.0755 11.111C31.102 11.1129 31.2415 11.1219 31.4642 11.1219C32.4223 11.1219 34.917 10.9542 36.5455 9.32577C38.5525 7.31878 38.3408 3.99625 38.3307 3.85576C38.2969 3.38069 37.919 3.00286 37.444 2.96907C37.3032 2.95874 33.9809 2.74742 31.974 4.75432C29.9671 6.76131 30.1788 10.0839 30.1888 10.2243ZM33.3275 6.10785C34.1897 5.24566 35.5139 4.97999 36.3953 4.90256C36.3165 5.78581 36.0498 7.11445 35.1919 7.97234C34.3299 8.83443 33.0055 9.1002 32.1242 9.17762C32.203 8.29438 32.4696 6.96573 33.3275 6.10785Z" fill="#2B4255"/>
<path d="M27.4679 6.47958C29.2543 6.47958 30.7077 5.02623 30.7077 3.23984C30.7077 1.45335 29.2544 0 27.4679 0C25.6814 0 24.228 1.45335 24.228 3.23984C24.2281 5.02623 25.6815 6.47958 27.4679 6.47958ZM27.4679 1.91406C28.1989 1.91406 28.7936 2.50876 28.7936 3.23984C28.7936 3.97091 28.1989 4.56552 27.4679 4.56552C26.7368 4.56552 26.1421 3.97082 26.1421 3.23984C26.1421 2.50886 26.7369 1.91406 27.4679 1.91406Z" fill="#2B4255"/>
<path d="M22.5 11.1844C24.0253 11.1844 25.2663 9.94338 25.2663 8.41806C25.2663 6.89274 24.0253 5.65186 22.5 5.65186C20.9747 5.65186 19.7338 6.89274 19.7338 8.41806C19.7338 9.94338 20.9747 11.1844 22.5 11.1844ZM22.5 7.56592C22.9699 7.56592 23.3522 7.94825 23.3522 8.41806C23.3522 8.88796 22.9699 9.27029 22.5 9.27029C22.0301 9.27029 21.6478 8.88796 21.6478 8.41806C21.6478 7.94816 22.0302 7.56592 22.5 7.56592Z" fill="#2B4255"/>
<g clip-path="url(#clip1)">
<path d="M43.6529 15.7533H42.4469V13.8727C42.4469 13.3441 42.0088 12.9156 41.4685 12.9156H16.3705L13.7883 2.19611C13.785 2.18233 13.7813 2.16864 13.7774 2.15505C13.3232 0.58418 11.6471 -0.332178 10.041 0.112076C9.26304 0.327408 8.61729 0.826117 8.22279 1.51642C7.8326 2.19927 7.73437 2.98863 7.94532 3.74219L10.1085 12.9156H7.46775C6.92738 12.9156 6.48934 13.3441 6.48934 13.8727V15.7533H5.28335C3.4729 15.7533 2 17.194 2 18.9649C2 20.7358 3.4729 22.1765 5.28335 22.1765H6.48924V35.8749C6.48924 38.4863 8.61543 40.621 11.2634 40.7098C11.2157 40.8927 11.189 41.0729 11.189 41.2475C11.189 41.6687 11.2753 42.0705 11.4314 42.4372H9.8585C7.50073 42.4372 5.58265 44.3133 5.58265 46.6196V48.0428C5.58265 48.5714 6.02068 48.9998 6.56106 48.9998H42.3751C42.9154 48.9998 43.3535 48.5714 43.3535 48.0428V46.6195C43.3535 44.3132 41.4354 42.4371 39.0777 42.4371H37.5047C37.6607 42.0705 37.747 41.6687 37.747 41.2474C37.747 41.0728 37.7205 40.8926 37.6727 40.7097C40.3206 40.621 42.4468 38.4863 42.4468 35.8748V22.1765H43.6528C45.4633 22.1765 46.9362 20.7358 46.9362 18.9649C46.9362 17.194 45.4634 15.7533 43.6529 15.7533ZM8.44607 21.9586H40.49V29.7044H8.44607V21.9586ZM9.84725 3.29133C9.84363 3.27612 9.83971 3.261 9.83531 3.24588C9.75753 2.97685 9.79148 2.69434 9.9309 2.45029C10.0703 2.20625 10.2986 2.02997 10.5736 1.95388C11.1357 1.79837 11.7217 2.11419 11.8893 2.65893L14.3601 12.9156H12.1166L9.84725 3.29133ZM8.44607 14.8298H40.49V20.0445H8.44607V14.8298ZM3.95692 18.9649C3.95692 18.2494 4.55199 17.6674 5.28345 17.6674H6.48934V20.2624H5.28335C4.55199 20.2625 3.95692 19.6804 3.95692 18.9649ZM13.146 41.2474C13.146 40.9395 13.6724 40.1643 14.3622 39.4067C15.052 40.1644 15.5785 40.9395 15.5785 41.2474C15.5785 41.9033 15.0329 42.4371 14.3622 42.4371C13.6915 42.4371 13.146 41.9034 13.146 41.2474ZM31.6434 42.4371H27.3988C27.5548 42.0705 27.6411 41.6687 27.6411 41.2474C27.6411 41.0738 27.6149 40.8945 27.5675 40.7127H31.4746C31.4273 40.8946 31.4011 41.0738 31.4011 41.2474C31.4011 41.6686 31.4874 42.0705 31.6434 42.4371ZM25.6843 41.2474C25.6843 41.9033 25.1387 42.4371 24.468 42.4371C23.7973 42.4371 23.2518 41.9034 23.2518 41.2474C23.2518 40.9395 23.7783 40.1643 24.468 39.4067C25.1579 40.1644 25.6843 40.9395 25.6843 41.2474ZM21.5374 42.4371H17.2928C17.4488 42.0705 17.5351 41.6687 17.5351 41.2474C17.5351 41.0738 17.5089 40.8945 17.4615 40.7127H21.3685C21.3212 40.8946 21.295 41.0738 21.295 41.2474C21.295 41.6686 21.3813 42.0705 21.5374 42.4371ZM41.3967 46.6195V47.0858H7.53947V46.6195C7.53947 45.3687 8.57981 44.3511 9.8585 44.3511H39.0777C40.3564 44.3511 41.3967 45.3687 41.3967 46.6195ZM33.3579 41.2474C33.3579 40.9395 33.8844 40.1643 34.574 39.4067C35.2638 40.1644 35.7903 40.9395 35.7903 41.2474C35.7903 41.9033 35.2447 42.4371 34.574 42.4371C33.9034 42.4371 33.3579 41.9034 33.3579 41.2474ZM37.5012 38.7986H36.6075C36.0844 38.1367 35.5205 37.5896 35.2464 37.336C34.8692 36.9871 34.2789 36.987 33.9017 37.336C33.6276 37.5896 33.0637 38.1366 32.5406 38.7985H26.5016C25.9785 38.1366 25.4146 37.5895 25.1405 37.3359C24.7633 36.987 24.173 36.987 23.7958 37.3359C23.5216 37.5895 22.9577 38.1365 22.4346 38.7985H16.3957C15.8726 38.1366 15.3086 37.5895 15.0345 37.3359C14.6573 36.987 14.067 36.987 13.6899 37.3359C13.4157 37.5895 12.8518 38.1365 12.3287 38.7985H11.4352C9.78708 38.7985 8.44616 37.4869 8.44616 35.8748V31.6184H40.4901V35.8748C40.4901 37.487 39.1493 38.7986 37.5012 38.7986ZM43.6529 20.2625H42.4469V17.6675H43.6529C44.3844 17.6675 44.9795 18.2495 44.9795 18.965C44.9795 19.6805 44.3843 20.2625 43.6529 20.2625Z" fill="#2B4255"/>
</g>
</g>
<defs>
<clipPath id="clip0">
<rect width="49" height="49" fill="white"/>
</clipPath>
<clipPath id="clip1">
<rect width="48" height="2" fill="white" transform="translate(2 47)"/>
</clipPath>
</defs>
</svg>
