<svg width="31" height="31" viewBox="0 0 31 31" fill="none" xmlns="http://www.w3.org/2000/svg">
<path d="M15.5 0C7.21186 0 0.46875 6.74311 0.46875 15.0312C0.46875 23.3194 7.21186 30.0625 15.5 30.0625C23.7881 30.0625 30.5312 23.3194 30.5312 15.0312C30.5312 6.74311 23.7881 0 15.5 0ZM15.6445 6.9375C16.6736 6.9375 17.6796 7.24266 18.5352 7.81438C19.3909 8.38611 20.0578 9.19873 20.4516 10.1495C20.8454 11.1002 20.9484 12.1464 20.7477 13.1557C20.5469 14.165 20.0514 15.0921 19.3237 15.8198C18.596 16.5475 17.6689 17.043 16.6596 17.2438C15.6503 17.4445 14.6041 17.3415 13.6534 16.9477C12.7026 16.5539 11.89 15.887 11.3183 15.0313C10.7466 14.1757 10.4414 13.1697 10.4414 12.1406C10.4414 10.7607 10.9896 9.43724 11.9654 8.46146C12.9411 7.48569 14.2646 6.9375 15.6445 6.9375ZM15.5 27.75C13.7457 27.7507 12.0104 27.3876 10.4035 26.6836C8.79673 25.9796 7.3534 24.9499 6.16473 23.6598C6.80355 20.3514 12.5414 19.6562 15.5 19.6562C18.4586 19.6562 24.1964 20.3514 24.8353 23.659C23.6467 24.9495 22.2035 25.9793 20.5966 26.6834C18.9898 27.3876 17.2544 27.7508 15.5 27.75Z" fill="#11D028"/>
</svg>
