<svg width="22" height="25" viewBox="0 0 22 25" fill="none" xmlns="http://www.w3.org/2000/svg">
<path d="M11 10.875C12.0445 10.875 13.0656 10.5653 13.9341 9.98495C14.8026 9.40464 15.4795 8.57982 15.8792 7.6148C16.279 6.64978 16.3836 5.58789 16.1798 4.56343C15.976 3.53897 15.473 2.59794 14.7344 1.85934C13.9958 1.12075 13.0548 0.617758 12.0303 0.41398C11.0059 0.210202 9.94398 0.314788 8.97895 0.714514C8.01393 1.11424 7.18911 1.79115 6.6088 2.65965C6.02849 3.52814 5.71875 4.54922 5.71875 5.59375C5.71875 6.99443 6.27517 8.33773 7.26559 9.32816C8.25602 10.3186 9.59933 10.875 11 10.875ZM14.25 12.0938H7.75C5.91835 12.0938 4.16172 12.8214 2.86654 14.1165C1.57137 15.4117 0.84375 17.1684 0.84375 19V24.2813C0.84375 24.389 0.886551 24.4923 0.962738 24.5685C1.03892 24.6447 1.14226 24.6875 1.25 24.6875H20.75C20.8577 24.6875 20.9611 24.6447 21.0373 24.5685C21.1134 24.4923 21.1562 24.389 21.1562 24.2813V19C21.1562 17.1684 20.4286 15.4117 19.1335 14.1165C17.8383 12.8214 16.0817 12.0938 14.25 12.0938ZM6.125 21.0313H4.5C4.39226 21.0313 4.28892 20.9885 4.21274 20.9123C4.13655 20.8361 4.09375 20.7327 4.09375 20.625C4.09375 20.5173 4.13655 20.4139 4.21274 20.3377C4.28892 20.2616 4.39226 20.2188 4.5 20.2188H6.125C6.23274 20.2188 6.33608 20.2616 6.41226 20.3377C6.48845 20.4139 6.53125 20.5173 6.53125 20.625C6.53125 20.7327 6.48845 20.8361 6.41226 20.9123C6.33608 20.9885 6.23274 21.0313 6.125 21.0313ZM7.75 19.4063H4.5C4.39226 19.4063 4.28892 19.3635 4.21274 19.2873C4.13655 19.2111 4.09375 19.1077 4.09375 19C4.09375 18.8923 4.13655 18.7889 4.21274 18.7127C4.28892 18.6366 4.39226 18.5938 4.5 18.5938H6.125H7.75C7.85774 18.5938 7.96108 18.6366 8.03726 18.7127C8.11345 18.7889 8.15625 18.8923 8.15625 19C8.15625 19.1077 8.11345 19.2111 8.03726 19.2873C7.96108 19.3635 7.85774 19.4063 7.75 19.4063Z" fill="#7DE935"/>
</svg>
