<svg width="163" height="168" viewBox="0 0 163 168" fill="none" xmlns="http://www.w3.org/2000/svg">
<circle cx="81.3077" cy="86.692" r="81.3077" fill="#484848"/>
<path d="M38.8381 128.48C38.8381 128.48 30.3027 128.48 30.3027 120.019C30.3027 111.559 38.8381 86.1771 81.515 86.1771C124.192 86.1771 132.727 111.559 132.727 120.019C132.727 128.48 124.192 128.48 124.192 128.48H38.8381ZM81.515 77.7166C88.3061 77.7166 94.8192 75.0425 99.6212 70.2825C104.423 65.5226 107.121 59.0667 107.121 52.3351C107.121 45.6035 104.423 39.1476 99.6212 34.3877C94.8192 29.6277 88.3061 26.9536 81.515 26.9536C74.7238 26.9536 68.2108 29.6277 63.4087 34.3877C58.6066 39.1476 55.9089 45.6035 55.9089 52.3351C55.9089 59.0667 58.6066 65.5226 63.4087 70.2825C68.2108 75.0425 74.7238 77.7166 81.515 77.7166Z" fill="white"/>
</svg>
