<svg width="30" height="30" viewBox="0 0 30 30" fill="none" xmlns="http://www.w3.org/2000/svg">
<path d="M0.511098 1.9122C0.634288 1.45245 0.943245 1.06266 1.37 0.828576C1.79676 0.594492 2.30636 0.535291 2.7867 0.663997L28.1422 7.458C28.6226 7.5867 29.0343 7.89277 29.2869 8.30887C29.5394 8.72498 29.6121 9.21702 29.4889 9.67677C29.3657 10.1365 29.0567 10.5263 28.63 10.7604C28.2032 10.9945 27.6936 11.0537 27.2133 10.925L1.85772 4.13098C1.37738 4.00227 0.965659 3.6962 0.713118 3.2801C0.460577 2.864 0.387908 2.37195 0.511098 1.9122Z" fill="white"/>
<path d="M0 27.3303C0 26.8543 0.197544 26.3978 0.549175 26.0613C0.900806 25.7247 1.37772 25.5356 1.875 25.5356H28.125C28.6223 25.5356 29.0992 25.7247 29.4508 26.0613C29.8025 26.3978 30 26.8543 30 27.3303C30 27.8063 29.8025 28.2627 29.4508 28.5993C29.0992 28.9359 28.6223 29.1249 28.125 29.1249H1.875C1.37772 29.1249 0.900806 28.9359 0.549175 28.5993C0.197544 28.2627 0 27.8063 0 27.3303Z" fill="white"/>
<path d="M2.59625 14.8875C1.90768 14.8875 1.24732 15.0639 0.760425 15.378C0.273533 15.6922 0 16.1182 0 16.5625C0 17.0067 0.273533 17.4327 0.760425 17.7469C1.24732 18.061 1.90768 18.2375 2.59625 18.2375H23.3663C24.0548 18.2375 24.7152 18.061 25.2021 17.7469C25.689 17.4327 25.9625 17.0067 25.9625 16.5625C25.9625 16.1182 25.689 15.6922 25.2021 15.378C24.7152 15.0639 24.0548 14.8875 23.3663 14.8875H2.59625Z" fill="white"/>
</svg>
