<svg width="120" height="112" viewBox="0 0 120 112" fill="none" xmlns="http://www.w3.org/2000/svg">
<g opacity="0.1" filter="url(#filter0_f)">
<path fill-rule="evenodd" clip-rule="evenodd" d="M7.11538 21.9475C6.55437 21.9475 6.01634 22.1705 5.61964 22.5672C5.22294 22.9639 5.00006 23.5019 5 24.0629V91.7557C5.00006 92.3167 5.22294 92.8546 5.61964 93.2513C6.01634 93.648 6.55437 93.871 7.11538 93.8711H45.5146V89.6403H9.23077V26.1783H74.8077V21.9475H7.11538ZM24.0385 5.02441V9.25518H91.7308V5.02441H24.0385Z" fill="#F05542"/>
<path fill-rule="evenodd" clip-rule="evenodd" d="M23.9973 5.00104C23.4472 5.01846 22.9255 5.24979 22.543 5.64558L5.61993 22.5686C5.22325 22.9653 5.00033 23.5033 5.00021 24.0643V91.7571C4.99625 92.0374 5.04803 92.3155 5.15256 92.5757C5.25709 92.8358 5.41228 93.0727 5.6091 93.2724C5.80593 93.472 6.04047 93.6305 6.29909 93.7387C6.55771 93.8469 6.83525 93.9024 7.1156 93.9024C7.39594 93.9024 7.67348 93.8469 7.9321 93.7387C8.19072 93.6305 8.42526 93.472 8.62209 93.2724C8.81891 93.0727 8.9741 92.8358 9.07863 92.5757C9.18316 92.3155 9.23494 92.0374 9.23098 91.7571V24.9407L25.5343 8.63686C25.8414 8.33997 26.0514 7.95689 26.1367 7.53837C26.2221 7.11985 26.1787 6.68559 26.0124 6.29217C25.8461 5.89876 25.5646 5.56454 25.2049 5.33416C24.8452 5.10377 24.4242 4.98763 23.9973 5.00104ZM91.6649 5.04339C91.1268 5.0606 90.6156 5.28218 90.2353 5.66313L73.3122 22.5862C72.9157 22.9826 72.6928 23.5207 72.6925 24.0813V61.5881C72.6885 61.8684 72.7403 62.1471 72.8448 62.4072C72.9494 62.6673 73.1046 62.9037 73.3014 63.1034C73.4982 63.303 73.7328 63.4615 73.9914 63.5697C74.25 63.6779 74.5275 63.7339 74.8079 63.7339C75.0882 63.7339 75.3658 63.6779 75.6244 63.5697C75.883 63.4615 76.1175 63.303 76.3144 63.1034C76.5112 62.9037 76.6664 62.6673 76.7709 62.4072C76.8754 62.1471 76.9272 61.8684 76.9233 61.5881V24.9572L89.6156 12.2649V60.7452C89.6116 61.0256 89.6634 61.3042 89.7679 61.5643C89.8724 61.8245 90.0276 62.0609 90.2245 62.2605C90.4213 62.4601 90.6558 62.6187 90.9144 62.7269C91.1731 62.8351 91.4506 62.8911 91.7309 62.8911C92.0113 62.8911 92.2888 62.8351 92.5475 62.7269C92.8061 62.6187 93.0406 62.4601 93.2374 62.2605C93.4343 62.0609 93.5895 61.8245 93.694 61.5643C93.7985 61.3042 93.8503 61.0256 93.8463 60.7452V7.15826C93.8464 6.87482 93.7896 6.59401 93.6792 6.33297C93.5687 6.07193 93.407 5.83566 93.2035 5.63835C93 5.44103 92.759 5.28673 92.4947 5.18438C92.2304 5.08204 91.9482 5.03405 91.6649 5.04288V5.04339Z" fill="#F05542"/>
<path fill-rule="evenodd" clip-rule="evenodd" d="M13.4614 64.2578V68.4886H38.846V64.2578H13.4614ZM13.4614 72.7193V76.9501H30.3845V72.7193H13.4614Z" fill="#F05542"/>
<path d="M48.2166 60.0498C45.4073 60.0498 43.0769 62.3804 43.0769 65.19V101.457C43.0769 104.266 45.407 106.588 48.2166 106.588H109.86C112.67 106.588 115 104.266 115 101.457V65.19C115 62.3804 112.669 60.0498 109.86 60.0498H48.2166ZM48.2166 64.2806H109.86C110.399 64.2806 110.769 64.6489 110.769 65.19V101.457C110.769 101.996 110.399 102.357 109.86 102.357H48.2166C47.6778 102.357 47.3077 101.994 47.3077 101.457V65.19C47.3077 64.6506 47.6774 64.2806 48.2166 64.2806Z" fill="#2B4255"/>
<path d="M43.0769 68.5112V70.6266V81.2035H115V68.5112H43.0769ZM47.3077 72.742H110.769V76.9728H47.3077V72.742ZM53.6538 89.6651V93.8958H79.0384V89.6651H53.6538ZM100.192 85.4343C96.7125 85.4343 93.8461 88.3006 93.8461 91.7805C93.8461 95.2603 96.7125 98.1266 100.192 98.1266C103.672 98.1266 106.538 95.2603 106.538 91.7805C106.538 88.3006 103.672 85.4343 100.192 85.4343ZM100.192 89.6651C101.386 89.6651 102.308 90.5874 102.308 91.7805C102.308 92.974 101.386 93.8958 100.192 93.8958C98.9989 93.8958 98.0769 92.974 98.0769 91.7805C98.0769 90.5874 98.9989 89.6651 100.192 89.6651Z" fill="#2B4255"/>
<path d="M91.7307 85.4346C88.2509 85.4346 85.3845 88.3009 85.3845 91.7807C85.3845 95.2605 88.2509 98.1269 91.7307 98.1269C95.2105 98.1269 98.0768 95.2605 98.0768 91.7807C98.0768 88.3009 95.2105 85.4346 91.7307 85.4346ZM91.7307 89.6653C92.924 89.6653 93.8461 90.5876 93.8461 91.7807C93.8461 92.9742 92.924 93.8961 91.7307 93.8961C90.5373 93.8961 89.6153 92.9742 89.6153 91.7807C89.6153 90.5876 90.5373 89.6653 91.7307 89.6653Z" fill="#2B4255"/>
</g>
<defs>
<filter id="filter0_f" x="0" y="0" width="120" height="111.588" filterUnits="userSpaceOnUse" color-interpolation-filters="sRGB">
<feFlood flood-opacity="0" result="BackgroundImageFix"/>
<feBlend mode="normal" in="SourceGraphic" in2="BackgroundImageFix" result="shape"/>
<feGaussianBlur stdDeviation="2.5" result="effect1_foregroundBlur"/>
</filter>
</defs>
</svg>
