<svg width="120" height="120" viewBox="0 0 120 120" fill="none" xmlns="http://www.w3.org/2000/svg">
<rect width="120" height="120" rx="9" fill="white"/>
<path d="M22.4638 22.6811V22.1811H21.9638H12.5498V15.4852H39.7677V22.1811H30.2438H29.7438V22.6811V55.0172H22.4638V22.6811Z" fill="#4CDC5D" stroke="#4CDC5D"/>
<path d="M56.2348 42.86L44.192 15.4349L52.4414 15.4247L57.6631 29.7128L57.6639 29.7149C58.1838 31.1183 58.6158 32.4326 59.0293 33.7087C59.0774 33.8574 59.1253 34.0056 59.1731 34.1534C59.5349 35.2719 59.8892 36.3675 60.2805 37.4631L60.399 37.7949H60.7514H60.9137H61.3039L61.3987 37.4164C61.5926 36.6429 61.8318 35.6681 62.1148 34.5156C62.4634 33.0954 62.8783 31.4052 63.3561 29.4888L67.2336 15.4069H74.918L68.2305 34.7677C68.2302 34.7686 68.2299 34.7694 68.2296 34.7703C65.9896 41.0458 63.778 47.0963 61.0573 50.7518L61.0573 50.7518L61.0536 50.7568C58.7248 53.9679 55.8142 55.9045 51.7067 55.9045H51.6965L51.6862 55.9049C50.4905 55.9541 49.296 55.7827 48.1513 55.3978L48.6706 49.0414C49.423 49.185 50.1868 49.2488 50.9515 49.2317C52.1323 49.2146 53.2783 48.8177 54.2492 48.0964C55.22 47.3751 55.9725 46.362 56.4212 45.1864L56.424 45.1791L56.4266 45.1718C56.5584 44.7911 56.6082 44.3836 56.5731 43.9803C56.5387 43.5859 56.4238 43.2029 56.2348 42.86Z" fill="#4CDC5D" stroke="#4CDC5D"/>
<path d="M88.8039 22.6826V22.1826H88.3039H78.8899V15.4867H106.103V22.1826H96.5839H96.0839V22.6826V55.0187H88.8039V22.6826Z" fill="#4CDC5D" stroke="#4CDC5D"/>
<path d="M20.3298 80.57H33.3365V87.0289H20.3298H19.8298V87.5289V97.1501V97.6501H20.3298H34.9181V104.167H12.5498V64.6348H34.1535V71.1514H20.3298H19.8298V71.6514V80.07V80.57H20.3298Z" fill="#4CDC5D" stroke="#4CDC5D"/>
<path d="M52.2379 64.3338H52.2399C59.1984 64.3338 63.6463 65.758 67.0089 68.5492L67.0111 68.5511C70.6864 71.5664 73.0395 76.3786 73.0395 83.4348C73.0395 91.0769 70.5215 96.2911 67.1496 99.4901C63.4136 102.914 57.6208 104.589 50.5011 104.589L50.4952 104.589C47.5146 104.624 44.535 104.451 41.5743 104.072L41.5794 65.1607C45.1089 64.596 48.6714 64.3195 52.2379 64.3338ZM48.8594 97.7511V98.1753L49.2779 98.2445C50.2623 98.4072 51.2583 98.4695 52.2532 98.4305C56.1369 98.4577 59.4132 97.2972 61.7145 94.8273C64.0131 92.3603 65.2725 88.6581 65.2725 83.7355C65.2725 79.4417 64.1339 76.0885 62.0086 73.8053C59.8799 71.5186 56.8231 70.3716 53.1253 70.3705C51.8266 70.3422 50.5289 70.4661 49.2544 70.7401L48.8594 70.825V71.229V97.7511Z" fill="#4CDC5D" stroke="#4CDC5D"/>
<path d="M86.6686 93.7653H86.2788L86.1837 94.1433L83.6602 104.173H76.1593L87.0495 64.6409H97.1835L108.339 104.173H100.395L97.6674 94.1341L97.5671 93.7653H97.1849H86.6686ZM95.9855 87.9078H96.636L96.4687 87.2792L94.1801 78.6813L94.1793 78.6786C93.6308 76.663 93.0819 74.2217 92.5958 72.0594C92.5051 71.6558 92.4165 71.2618 92.3306 70.8822L92.2424 70.4926H91.8429H91.7382H91.3353L91.2496 70.8862C91.0702 71.7102 90.8868 72.6034 90.6996 73.5151C90.3346 75.2928 89.955 77.1413 89.562 78.6867L87.3677 87.2841L87.2086 87.9078H87.8522H95.9855Z" fill="#4CDC5D" stroke="#4CDC5D"/>
</svg>
