<svg width="201" height="181" viewBox="0 0 201 181" fill="none" xmlns="http://www.w3.org/2000/svg">
<g clip-path="url(#clip0)">
<path d="M6.16863 77.1146C27.2958 109.629 25.0501 142.957 35.2338 158.627C45.4175 174.297 75.7674 201.314 147.478 154.236C219.188 107.158 200.949 55.9814 189.743 38.7503C137.3 -41.9422 -31.2535 19.5317 6.16863 77.1146Z" fill="#F4FCF9"/>
<path fill-rule="evenodd" clip-rule="evenodd" d="M123.938 46.6457C123.565 46.6515 123.21 46.8052 122.95 47.073C122.691 47.3409 122.548 47.7007 122.554 48.0737V72.8419C122.552 73.0282 122.586 73.2135 122.656 73.3863C122.725 73.5592 122.828 73.7165 122.959 73.8492C123.09 73.9818 123.246 74.087 123.418 74.1588C123.59 74.2307 123.774 74.2677 123.96 74.2677C124.147 74.2677 124.331 74.2307 124.503 74.1588C124.675 74.087 124.831 73.9818 124.962 73.8492C125.092 73.7165 125.196 73.5592 125.265 73.3863C125.335 73.2135 125.369 73.0282 125.367 72.8419V48.0737C125.37 47.8853 125.335 47.6982 125.264 47.5236C125.193 47.349 125.088 47.1906 124.955 47.0574C124.822 46.9241 124.663 46.819 124.488 46.7483C124.314 46.6776 124.127 46.6427 123.938 46.6457ZM108.063 95.6663C107.891 95.6755 107.721 95.7165 107.563 95.7871L90.5674 103.055C90.3962 103.126 90.2409 103.231 90.1104 103.363C89.9799 103.495 89.8768 103.651 89.8071 103.823C89.7373 103.995 89.7022 104.179 89.7038 104.365C89.7055 104.55 89.7438 104.734 89.8167 104.904C89.8895 105.075 89.9953 105.229 90.1282 105.359C90.261 105.488 90.4181 105.591 90.5906 105.659C90.763 105.728 90.9472 105.761 91.1328 105.758C91.3183 105.755 91.5014 105.716 91.6716 105.642L108.667 98.3745C108.976 98.2498 109.231 98.0193 109.386 97.7244C109.541 97.4295 109.586 97.0893 109.513 96.7642C109.441 96.4392 109.255 96.1504 108.99 95.9494C108.724 95.7483 108.396 95.648 108.063 95.6663ZM106.014 87.6961C105.842 87.7053 105.672 87.7463 105.514 87.8169L104.383 88.3001L96.1814 91.8103C96.0014 91.8754 95.8365 91.9764 95.697 92.1075C95.5574 92.2385 95.4461 92.3969 95.3698 92.5725C95.2935 92.7481 95.2539 92.9374 95.2533 93.1288C95.2528 93.3203 95.2913 93.5097 95.3665 93.6858C95.4418 93.8618 95.5523 94.0205 95.6911 94.1524C95.8299 94.2842 95.9942 94.3865 96.1738 94.4526C96.3535 94.5188 96.5447 94.5474 96.7359 94.5371C96.9271 94.5267 97.1141 94.4776 97.2856 94.3924L105.487 90.8875L106.618 90.404C106.927 90.2791 107.181 90.0486 107.336 89.7538C107.491 89.459 107.536 89.119 107.463 88.794C107.391 88.4691 107.206 88.1805 106.94 87.9794C106.675 87.7784 106.347 87.678 106.014 87.6961ZM58.2566 46.7059C57.9282 46.6992 57.6078 46.8077 57.3509 47.0125C57.0941 47.2173 56.917 47.5054 56.8505 47.827C56.7839 48.1487 56.8321 48.4835 56.9866 48.7734C57.1411 49.0633 57.3922 49.29 57.6963 49.4141L68.6497 54.0998C68.8198 54.1736 69.0028 54.213 69.1883 54.2158C69.3737 54.2187 69.5579 54.185 69.7302 54.1164C69.9025 54.0478 70.0595 53.9456 70.1923 53.8161C70.325 53.6866 70.4308 53.5323 70.5036 53.3618C70.5764 53.1912 70.6147 53.0078 70.6164 52.8224C70.6181 52.6369 70.5831 52.453 70.5134 52.2811C70.4437 52.1092 70.3408 51.9527 70.2104 51.8208C70.08 51.6889 69.9248 51.5841 69.7538 51.5124L58.8005 46.8321C58.6294 46.7542 58.4445 46.7115 58.2566 46.7062V46.7059ZM81.1741 56.5111C80.8458 56.5045 80.5255 56.6132 80.2688 56.818C80.0121 57.0228 79.8352 57.3107 79.7686 57.6322C79.7021 57.9538 79.7502 58.2888 79.9045 58.5786C80.0589 58.8684 80.3098 59.0951 80.6138 59.2193L90.507 63.449C90.6769 63.5215 90.8594 63.56 91.0441 63.562C91.2288 63.564 91.4121 63.5295 91.5835 63.4606C91.7549 63.3918 91.911 63.2899 92.043 63.1607C92.175 63.0315 92.2803 62.8775 92.3528 62.7076C92.4253 62.5377 92.4636 62.3551 92.4656 62.1704C92.4675 61.9857 92.4331 61.8024 92.3642 61.631C92.2953 61.4596 92.1934 61.3033 92.0642 61.1713C91.935 61.0393 91.781 60.9341 91.6111 60.8616L81.7179 56.6319C81.5465 56.5558 81.3616 56.5147 81.1741 56.5111Z" fill="#FFC107"/>
<path fill-rule="evenodd" clip-rule="evenodd" d="M112.815 42.4875C112.64 42.496 112.469 42.537 112.309 42.6083L80.1579 56.3576C79.988 56.4305 79.8341 56.536 79.7051 56.6683C79.576 56.8006 79.4742 56.9569 79.4056 57.1286C79.337 57.3002 79.3029 57.4838 79.3052 57.6686C79.3075 57.8534 79.3462 58.0362 79.419 58.2061C79.4919 58.376 79.5975 58.5298 79.7298 58.6589C79.8621 58.788 80.0186 58.8896 80.1902 58.9582C80.3619 59.0268 80.5454 59.0609 80.7302 59.0586C80.915 59.0563 81.0977 59.0179 81.2675 58.945L113.414 45.1957C113.722 45.0708 113.975 44.8409 114.13 44.5468C114.285 44.2526 114.33 43.913 114.258 43.5885C114.187 43.264 114.002 42.9755 113.738 42.7739C113.474 42.5724 113.147 42.4708 112.815 42.4875ZM101.444 37.137C101.269 37.1455 101.098 37.1864 100.939 37.2578L68.7651 51.0181C68.5848 51.083 68.4197 51.1842 68.2798 51.3153C68.14 51.4463 68.0285 51.6043 67.952 51.78C67.8755 51.9557 67.8357 52.1453 67.8351 52.3369C67.8345 52.5285 67.873 52.7183 67.9484 52.8945C68.0237 53.0707 68.1343 53.2295 68.2733 53.3614C68.4123 53.4933 68.5767 53.5956 68.7566 53.6617C68.9365 53.7277 69.128 53.7564 69.3193 53.7458C69.5106 53.7352 69.6978 53.6854 69.8692 53.5999L102.048 39.8395C102.353 39.7122 102.603 39.4815 102.755 39.1881C102.907 38.8947 102.951 38.5573 102.879 38.2349C102.807 37.9124 102.623 37.6255 102.361 37.4247C102.099 37.2239 101.774 37.122 101.444 37.1366V37.137Z" fill="#2B4255"/>
<path d="M132.24 76.2412C127.621 72.4984 121.174 71.3996 115.402 73.7906C107.706 76.978 103.555 85.4029 105.711 93.4484C107.867 101.494 115.677 106.709 123.936 105.622C132.194 104.534 138.385 97.4745 138.385 89.1449V87.7386L135.573 87.7389L135.573 89.1449C135.573 96.0847 130.447 101.931 123.567 102.837C116.686 103.743 110.226 99.4217 108.43 92.7182C106.634 86.0147 110.066 79.0445 116.478 76.389C122.89 73.7332 130.25 76.2322 133.72 82.2425L134.423 83.4584L136.862 82.0523L136.159 80.8365C135.118 79.033 133.78 77.4889 132.24 76.2412Z" fill="#2B4255"/>
<path fill-rule="evenodd" clip-rule="evenodd" d="M91.0673 60.7135C90.6953 60.7194 90.3408 60.8724 90.0814 61.139C89.822 61.4056 89.6787 61.7642 89.683 62.1362V104.334C89.6805 104.521 89.7149 104.706 89.7845 104.878C89.854 105.051 89.9572 105.209 90.088 105.341C90.2188 105.474 90.3747 105.579 90.5466 105.651C90.7185 105.723 90.9029 105.76 91.0893 105.76C91.2756 105.76 91.46 105.723 91.6319 105.651C91.8038 105.579 91.9597 105.474 92.0906 105.341C92.2214 105.209 92.3246 105.051 92.3941 104.878C92.4636 104.706 92.4981 104.521 92.4955 104.334V62.1362C92.4977 61.9483 92.4622 61.762 92.3911 61.588C92.32 61.4141 92.2148 61.2559 92.0817 61.1233C91.9486 60.9907 91.7902 60.8862 91.616 60.8158C91.4417 60.7454 91.2552 60.7106 91.0673 60.7135ZM58.1962 46.6457C57.8233 46.6515 57.4679 46.8052 57.2083 47.073C56.9487 47.3409 56.8061 47.7007 56.8119 48.0737V90.2666C56.8094 90.4529 56.8438 90.6378 56.9134 90.8106C56.9829 90.9835 57.0861 91.1408 57.2169 91.2735C57.3477 91.4061 57.5036 91.5116 57.6755 91.5835C57.8474 91.6554 58.0319 91.6924 58.2182 91.6924C58.4045 91.6924 58.589 91.6554 58.7608 91.5835C58.9327 91.5116 59.0886 91.4061 59.2195 91.2735C59.3503 91.1408 59.4535 90.9835 59.523 90.8106C59.5925 90.6378 59.627 90.4529 59.6244 90.2666V48.0737C59.6274 47.8853 59.5924 47.6982 59.5217 47.5236C59.451 47.349 59.3459 47.1906 59.2126 47.0574C59.0794 46.9241 58.9208 46.819 58.7462 46.7483C58.5716 46.6776 58.3846 46.6427 58.1962 46.6457Z" fill="#FFC107"/>
<path fill-rule="evenodd" clip-rule="evenodd" d="M58.2573 88.9047C57.9289 88.8979 57.6085 89.0061 57.3517 89.2109C57.0948 89.4157 56.9177 89.7041 56.8512 90.0258C56.7846 90.3475 56.8328 90.6822 56.9873 90.9721C57.1418 91.262 57.3929 91.4887 57.6971 91.6129L90.5077 105.642C90.8503 105.786 91.2357 105.788 91.5798 105.648C91.9239 105.508 92.1988 105.238 92.3445 104.897C92.4903 104.555 92.495 104.17 92.3578 103.825C92.2205 103.48 91.9524 103.203 91.6119 103.055L58.8012 89.0258C58.6298 88.9496 58.4449 88.9083 58.2573 88.9047ZM123.884 46.7115C123.71 46.72 123.538 46.761 123.379 46.8323L90.5681 60.8618C90.3983 60.9343 90.2443 61.0395 90.1151 61.1715C89.9859 61.3035 89.8839 61.4598 89.815 61.6312C89.7462 61.8026 89.7117 61.9859 89.7137 62.1706C89.7157 62.3553 89.754 62.5379 89.8265 62.7078C89.899 62.8777 90.0042 63.0317 90.1362 63.1609C90.2682 63.2901 90.4244 63.392 90.5958 63.4608C90.7672 63.5297 90.9505 63.5642 91.1352 63.5622C91.3199 63.5602 91.5024 63.5217 91.6723 63.4492L124.488 49.4143C124.793 49.287 125.044 49.0567 125.196 48.7632C125.348 48.4698 125.391 48.1321 125.319 47.8097C125.247 47.4872 125.064 47.2006 124.801 46.9998C124.539 46.799 124.214 46.6968 123.884 46.7115ZM91.0131 32.6436C90.8386 32.6521 90.6672 32.6931 90.5077 32.7644L57.6971 46.794C57.5271 46.8665 57.3732 46.9717 57.244 47.1037C57.1147 47.2357 57.0128 47.392 56.9439 47.5634C56.875 47.7348 56.8405 47.918 56.8425 48.1027C56.8444 48.2875 56.8828 48.47 56.9553 48.6399C57.0278 48.8098 57.133 48.9638 57.265 49.093C57.397 49.2223 57.5532 49.3241 57.7246 49.393C57.896 49.4619 58.0793 49.4966 58.264 49.4947C58.4488 49.4927 58.6313 49.4542 58.8012 49.3817L91.6119 35.3465C91.916 35.2192 92.1657 34.9891 92.3174 34.6963C92.4691 34.4036 92.5131 34.0669 92.4418 33.745C92.3705 33.4231 92.1884 33.1367 91.9272 32.9354C91.6661 32.7342 91.3425 32.6309 91.0131 32.6439V32.6436Z" fill="#FFC107"/>
<path fill-rule="evenodd" clip-rule="evenodd" d="M90.985 32.6436C90.6703 32.6697 90.3737 32.801 90.1427 33.0163C89.9117 33.2316 89.7599 33.5185 89.7117 33.8306C89.6635 34.1426 89.7217 34.4618 89.8769 34.7368C90.0322 35.0117 90.2754 35.2262 90.5675 35.3461L123.378 49.3813C123.721 49.5285 124.109 49.5334 124.456 49.3948C124.802 49.2562 125.08 48.9855 125.227 48.6424C125.374 48.2992 125.379 47.9116 125.24 47.5649C125.102 47.2182 124.831 46.9408 124.488 46.7936L91.6716 32.7641C91.4565 32.6668 91.2204 32.6253 90.985 32.6433V32.6436Z" fill="#FFC107"/>
<path fill-rule="evenodd" clip-rule="evenodd" d="M69.4462 50.9028C69.0733 50.9086 68.7179 51.0623 68.4583 51.3301C68.1987 51.598 68.0561 51.9581 68.0619 52.3311V72.0187C68.0622 72.258 68.1236 72.4931 68.2402 72.7021C68.3568 72.9111 68.5248 73.087 68.7283 73.2129C68.9318 73.3388 69.1641 73.4108 69.4031 73.4219C69.6422 73.433 69.8801 73.3828 70.0944 73.2763L74.6098 71.0187L79.5482 78.4235C79.6491 78.5804 79.7803 78.7156 79.9341 78.8213C80.0879 78.9271 80.2611 79.001 80.4438 79.0391C80.6265 79.0772 80.8149 79.0786 80.9982 79.0432C81.1814 79.0077 81.3557 78.9361 81.5109 78.8326C81.6662 78.7291 81.7993 78.5956 81.9025 78.4401C82.0057 78.2846 82.077 78.1103 82.1121 77.9271C82.1472 77.7438 82.1455 77.5552 82.1071 77.3726C82.0686 77.19 81.9942 77.0169 81.8882 76.8634L76.2632 68.4259C76.073 68.1401 75.7848 67.9335 75.4529 67.8454C75.121 67.7574 74.7684 67.794 74.4615 67.948L70.8744 69.7441V52.3311C70.8774 52.1427 70.8424 51.9556 70.7717 51.781C70.701 51.6064 70.5959 51.4476 70.4626 51.3144C70.3294 51.1812 70.1708 51.0761 69.9962 51.0054C69.8216 50.9346 69.6346 50.8998 69.4462 50.9028Z" fill="#2B4255"/>
<path fill-rule="evenodd" clip-rule="evenodd" d="M80.6962 56.5278C80.3233 56.5336 79.9679 56.6873 79.7083 56.9551C79.4487 57.223 79.3061 57.5828 79.3119 57.9558V77.6433C79.3094 77.8296 79.3438 78.0146 79.4134 78.1874C79.4829 78.3603 79.5861 78.5176 79.7169 78.6502C79.8477 78.7829 80.0036 78.8884 80.1755 78.9603C80.3474 79.0321 80.5319 79.0691 80.7182 79.0691C80.9045 79.0691 81.089 79.0321 81.2608 78.9603C81.4327 78.8884 81.5886 78.7829 81.7195 78.6502C81.8503 78.5176 81.9535 78.3603 82.023 78.1874C82.0925 78.0146 82.127 77.8296 82.1244 77.6433V57.9558C82.1274 57.7674 82.0924 57.5803 82.0217 57.4057C81.951 57.2311 81.8459 57.0726 81.7126 56.9394C81.5794 56.8062 81.4208 56.7011 81.2462 56.6304C81.0716 56.5596 80.8846 56.5248 80.6962 56.5278Z" fill="#2B4255"/>
<path fill-rule="evenodd" clip-rule="evenodd" d="M102.834 83.4443C102.661 83.4535 102.491 83.4945 102.334 83.5651L100.279 84.4437L98.2303 85.3229L96.1813 86.1962C96.0114 86.2687 95.8575 86.3739 95.7283 86.5059C95.599 86.6379 95.4971 86.7938 95.4282 86.9652C95.3593 87.1366 95.3249 87.3199 95.3269 87.5046C95.3288 87.6893 95.3672 87.8719 95.4397 88.0418C95.5122 88.2117 95.6174 88.3657 95.7494 88.4949C95.8814 88.6241 96.0376 88.726 96.209 88.7949C96.3804 88.8637 96.5636 88.8982 96.7483 88.8962C96.9331 88.8942 97.1156 88.8561 97.2855 88.7836L99.3344 87.9044L101.389 87.0311L103.438 86.1522C103.747 86.0275 104.001 85.7973 104.156 85.5024C104.311 85.2075 104.356 84.8673 104.284 84.5422C104.211 84.2172 104.025 83.9281 103.76 83.7271C103.494 83.526 103.166 83.4257 102.834 83.444V83.4443Z" fill="#FFC107"/>
<path d="M118.281 85.1901C118.281 89.7812 113.327 90.5536 113.327 95.2357V97.1902H120.554V94.9175H115.827C115.803 94.8044 115.804 94.6888 115.804 94.5764C115.804 91.9628 120.781 90.0992 120.781 85.0991C120.781 82.5536 119.508 81.0991 117.054 81.0991C114.599 81.0991 113.326 82.5536 113.326 85.0991V86.6448H115.69V84.9401C115.69 83.8039 116.19 83.3718 116.985 83.3718C117.781 83.3718 118.281 83.7581 118.281 85.1901H118.281ZM121.747 94.3041H126.565V97.1902H129.02V94.3041H130.202V92.0311H129.02V81.2811H126.292L121.747 92.0311V94.3041ZM124.042 92.0311L126.565 86.054V92.0311H124.042Z" fill="#2B4255"/>
<path fill-rule="evenodd" clip-rule="evenodd" d="M136.787 85.4106L131.815 90.3821L133.804 92.3708L136.787 89.3881L139.77 92.3708L141.758 90.3821L136.787 85.4106Z" fill="#2B4255"/>
</g>
<defs>
<clipPath id="clip0">
<rect width="199.602" height="180.674" fill="white" transform="translate(0.797852)"/>
</clipPath>
</defs>
</svg>
