<svg width="263" height="243" viewBox="0 0 263 243" fill="none" xmlns="http://www.w3.org/2000/svg">
<g clip-path="url(#clip0)">
<path d="M43.2086 163.899C77.7622 181.493 92.4814 211.479 109.136 219.958C125.79 228.437 165.583 236.66 204.147 160.033C242.711 83.4074 201.327 48.2066 183.007 38.887C97.2431 -4.77301 -17.9914 132.742 43.2086 163.899Z" fill="#F4FCF9"/>
<path d="M94.8763 76.4187H169.126C169.126 76.4187 169.126 76.4187 169.126 76.4187V123.995C169.126 123.995 169.126 123.995 169.126 123.995H94.8763C94.8762 123.995 94.8762 123.995 94.8762 123.995V76.4187C94.8762 76.4187 94.8762 76.4187 94.8763 76.4187Z" fill="#F4FCF9"/>
<path d="M103.125 122.596C102.76 122.596 102.41 122.743 102.153 123.006C101.895 123.268 101.75 123.624 101.75 123.995V129.592C101.751 129.888 101.844 130.176 102.016 130.415C102.187 130.653 102.429 130.83 102.706 130.92C102.745 130.933 102.784 130.945 102.824 130.954C102.837 130.954 102.849 130.954 102.862 130.954C102.883 130.954 102.905 130.954 102.926 130.954C102.986 130.967 103.047 130.977 103.109 130.982C103.114 130.982 103.119 130.982 103.125 130.982H114.125C114.49 130.982 114.839 130.835 115.097 130.572C115.355 130.31 115.5 129.954 115.5 129.583V123.985L115.478 124.013C115.481 123.83 115.448 123.647 115.382 123.476C115.315 123.306 115.217 123.15 115.091 123.018C114.965 122.886 114.815 122.78 114.649 122.707C114.484 122.634 114.305 122.595 114.125 122.592H103.125L103.125 122.596ZM104.5 125.394H112.75V128.193H104.5V125.394Z" fill="#FFC107"/>
<path d="M94.8748 75.019C94.5101 75.0191 94.1604 75.1666 93.9025 75.429C93.6447 75.6914 93.4998 76.0472 93.4998 76.4183V123.995C93.4998 124.366 93.6447 124.722 93.9025 124.984C94.1604 125.246 94.5101 125.394 94.8748 125.394H169.125C169.489 125.394 169.839 125.246 170.097 124.984C170.355 124.722 170.5 124.366 170.5 123.995V76.4183C170.5 76.0472 170.355 75.6914 170.097 75.429C169.839 75.1666 169.489 75.0191 169.125 75.019H94.8748ZM96.2498 77.8177H167.75V122.595H96.2498V77.8177Z" fill="#FFC107"/>
<path d="M148.5 122.595C148.135 122.595 147.785 122.743 147.528 123.005C147.27 123.268 147.125 123.624 147.125 123.995V129.592C147.126 129.888 147.219 130.176 147.391 130.414C147.562 130.653 147.804 130.83 148.081 130.92C148.12 130.933 148.159 130.944 148.199 130.954C148.212 130.954 148.224 130.954 148.237 130.954C148.258 130.954 148.28 130.954 148.301 130.954C148.361 130.967 148.422 130.976 148.484 130.982C148.489 130.982 148.494 130.982 148.5 130.982H159.5C159.865 130.982 160.214 130.834 160.472 130.572C160.73 130.31 160.875 129.953 160.875 129.582V123.985L160.853 124.013C160.856 123.829 160.823 123.647 160.757 123.476C160.69 123.305 160.592 123.149 160.466 123.017C160.34 122.885 160.19 122.78 160.024 122.707C159.859 122.634 159.68 122.595 159.5 122.592H148.5L148.5 122.595ZM149.875 125.394H158.125V128.193H149.875V125.394ZM100.375 80.6162C100.01 80.6162 99.6604 80.7638 99.4025 81.0262C99.1447 81.2886 98.9998 81.6444 98.9998 82.0155V115.599C98.9998 115.97 99.1447 116.326 99.4025 116.588C99.6604 116.851 100.01 116.998 100.375 116.998H147.125C147.489 116.998 147.839 116.851 148.097 116.588C148.355 116.326 148.5 115.97 148.5 115.599V82.0155C148.5 81.6444 148.355 81.2886 148.097 81.0262C147.839 80.7638 147.489 80.6162 147.125 80.6162H100.375ZM101.75 83.4148H145.75V114.2H101.75V83.4148ZM152.625 80.6162C152.26 80.6162 151.91 80.7638 151.653 81.0262C151.395 81.2886 151.25 81.6444 151.25 82.0155V90.4113C151.25 90.7825 151.395 91.1383 151.653 91.4007C151.91 91.6631 152.26 91.8106 152.625 91.8107H163.625C163.989 91.8106 164.339 91.6631 164.597 91.4007C164.855 91.1383 165 90.7825 165 90.4113V82.0155C165 81.6444 164.855 81.2886 164.597 81.0262C164.339 80.7638 163.989 80.6162 163.625 80.6162H152.625ZM154 83.4148H162.25V89.012H154V83.4148Z" fill="#2B4255"/>
<path fill-rule="evenodd" clip-rule="evenodd" d="M152.517 94.6095C152.335 94.6069 152.154 94.6412 151.985 94.7103C151.816 94.7794 151.662 94.8821 151.532 95.0123C151.403 95.1425 151.3 95.2976 151.229 95.4687C151.159 95.6398 151.123 95.8234 151.123 96.0088C151.123 96.1943 151.159 96.3779 151.229 96.5489C151.3 96.72 151.403 96.8751 151.532 97.0053C151.662 97.1355 151.816 97.2382 151.985 97.3073C152.154 97.3765 152.335 97.4107 152.517 97.4081H155.59C155.772 97.4107 155.953 97.3765 156.122 97.3073C156.291 97.2382 156.445 97.1355 156.575 97.0053C156.704 96.8751 156.807 96.72 156.878 96.5489C156.948 96.3779 156.984 96.1943 156.984 96.0088C156.984 95.8234 156.948 95.6398 156.878 95.4687C156.807 95.2976 156.704 95.1425 156.575 95.0123C156.445 94.8821 156.291 94.7794 156.122 94.7103C155.953 94.6412 155.772 94.6069 155.59 94.6095H152.517ZM160.692 94.6095C160.51 94.6069 160.329 94.6412 160.16 94.7103C159.991 94.7794 159.837 94.8821 159.707 95.0123C159.578 95.1425 159.474 95.2976 159.404 95.4687C159.334 95.6398 159.298 95.8234 159.298 96.0088C159.298 96.1943 159.334 96.3779 159.404 96.5489C159.474 96.72 159.578 96.8751 159.707 97.0053C159.837 97.1355 159.991 97.2382 160.16 97.3073C160.329 97.3765 160.51 97.4107 160.692 97.4081H163.807C163.99 97.4107 164.171 97.3765 164.34 97.3073C164.509 97.2382 164.663 97.1355 164.792 97.0053C164.922 96.8751 165.025 96.72 165.095 96.5489C165.166 96.3779 165.202 96.1943 165.202 96.0088C165.202 95.8234 165.166 95.6398 165.095 95.4687C165.025 95.2976 164.922 95.1425 164.792 95.0123C164.663 94.8821 164.509 94.7794 164.34 94.7103C164.171 94.6412 163.99 94.6069 163.807 94.6095H160.692Z" fill="#FFC107"/>
<path d="M158.125 105.804C154.344 105.804 151.25 108.953 151.25 112.8C151.25 116.647 154.344 119.797 158.125 119.797C161.905 119.797 165 116.647 165 112.8C165 108.953 161.905 105.804 158.125 105.804ZM158.125 108.602C160.419 108.602 162.25 110.465 162.25 112.8C162.25 115.135 160.419 116.998 158.125 116.998C155.83 116.998 154 115.135 154 112.8C154 110.465 155.83 108.602 158.125 108.602Z" fill="#FFC107"/>
<path fill-rule="evenodd" clip-rule="evenodd" d="M160.306 108.602L153.028 116.009L154.972 117.988L162.25 110.581L160.306 108.602ZM160.692 100.207C160.51 100.204 160.329 100.238 160.16 100.307C159.991 100.377 159.837 100.479 159.707 100.609C159.578 100.74 159.475 100.895 159.404 101.066C159.334 101.237 159.298 101.42 159.298 101.606C159.298 101.791 159.334 101.975 159.404 102.146C159.475 102.317 159.578 102.472 159.707 102.602C159.837 102.733 159.991 102.835 160.16 102.904C160.329 102.974 160.51 103.008 160.692 103.005H163.808C163.99 103.008 164.171 102.974 164.34 102.904C164.509 102.835 164.663 102.733 164.792 102.602C164.922 102.472 165.025 102.317 165.096 102.146C165.166 101.975 165.202 101.791 165.202 101.606C165.202 101.42 165.166 101.237 165.096 101.066C165.025 100.895 164.922 100.74 164.792 100.609C164.663 100.479 164.509 100.377 164.34 100.307C164.171 100.238 163.99 100.204 163.808 100.207H160.692ZM152.646 100.207C152.464 100.204 152.283 100.238 152.114 100.307C151.945 100.377 151.791 100.479 151.661 100.609C151.532 100.74 151.429 100.895 151.358 101.066C151.288 101.237 151.252 101.42 151.252 101.606C151.252 101.791 151.288 101.975 151.358 102.146C151.429 102.317 151.532 102.472 151.661 102.602C151.791 102.733 151.945 102.835 152.114 102.904C152.283 102.974 152.464 103.008 152.646 103.005H155.762C155.944 103.008 156.125 102.974 156.294 102.904C156.463 102.835 156.617 102.733 156.747 102.602C156.876 102.472 156.979 102.317 157.05 102.146C157.12 101.975 157.156 101.791 157.156 101.606C157.156 101.42 157.12 101.237 157.05 101.066C156.979 100.895 156.876 100.74 156.747 100.609C156.617 100.479 156.463 100.377 156.294 100.307C156.125 100.238 155.944 100.204 155.762 100.207H152.646ZM141.603 91.7944C141.24 91.8002 140.893 91.9523 140.639 92.2176C140.386 92.483 140.246 92.8399 140.25 93.2101V104.405C140.247 104.59 140.281 104.774 140.349 104.946C140.417 105.118 140.518 105.275 140.646 105.407C140.774 105.539 140.926 105.644 141.094 105.715C141.262 105.787 141.443 105.824 141.625 105.824C141.807 105.824 141.988 105.787 142.156 105.715C142.324 105.644 142.476 105.539 142.604 105.407C142.732 105.275 142.833 105.118 142.901 104.946C142.969 104.774 143.002 104.59 143 104.405V93.2101C143.002 93.0231 142.967 92.8376 142.898 92.6645C142.828 92.4914 142.726 92.3342 142.595 92.2023C142.465 92.0703 142.31 91.9662 142.14 91.8962C141.97 91.8261 141.787 91.7914 141.603 91.7944Z" fill="#FFC107"/>
<path d="M94.8748 75.019C94.5101 75.0191 94.1604 75.1666 93.9025 75.429C93.6447 75.6914 93.4998 76.0472 93.4998 76.4183V123.995C93.4998 124.366 93.6447 124.722 93.9025 124.984C94.1604 125.246 94.5101 125.394 94.8748 125.394H169.125C169.489 125.394 169.839 125.246 170.097 124.984C170.355 124.722 170.5 124.366 170.5 123.995V76.4183C170.5 76.0472 170.355 75.6914 170.097 75.429C169.839 75.1666 169.489 75.0191 169.125 75.019H94.8748ZM96.2498 77.8177H167.75V122.595H96.2498V77.8177Z" fill="#FFC107"/>
</g>
<defs>
<clipPath id="clip0">
<rect width="263" height="243" fill="white"/>
</clipPath>
</defs>
</svg>
