<svg width="191" height="234" viewBox="0 0 191 234" fill="none" xmlns="http://www.w3.org/2000/svg">
<g clip-path="url(#clip0)">
<path d="M85.4205 19.1466C59.4826 47.9691 26.7089 54.4259 14.2084 68.3183C1.7078 82.2108 -16.5337 118.519 47.5003 175.601C111.534 232.684 156.247 201.821 169.99 186.537C234.36 114.995 131.356 -31.9039 85.4205 19.1466Z" fill="#F4FCF9"/>
<g clip-path="url(#clip1)">
<path d="M127.872 113.817C127.524 113.818 127.191 113.958 126.945 114.205C126.7 114.452 126.563 114.786 126.565 115.135L126.565 120.384C126.565 120.732 126.703 121.066 126.949 121.312C127.195 121.558 127.529 121.697 127.877 121.697H132.455C132.804 121.695 133.137 121.556 133.382 121.309C133.627 121.061 133.764 120.727 133.763 120.379L133.763 115.129C133.763 114.781 133.624 114.447 133.378 114.201C133.132 113.955 132.798 113.817 132.45 113.817H127.872H127.872ZM129.185 116.442H131.138L131.138 119.067H129.185L129.185 116.442ZM126.452 84.9417C126.278 84.9397 126.106 84.9721 125.945 85.0372C125.784 85.1023 125.637 85.1986 125.514 85.3207C125.39 85.4428 125.292 85.5883 125.225 85.7486C125.158 85.9088 125.124 86.0807 125.124 86.2543C125.124 86.428 125.158 86.5999 125.225 86.7601C125.292 86.9203 125.39 87.0659 125.514 87.188C125.637 87.31 125.784 87.4064 125.945 87.4714C126.106 87.5365 126.278 87.5689 126.452 87.5669H133.917C134.09 87.5689 134.263 87.5365 134.424 87.4714C134.585 87.4064 134.731 87.31 134.855 87.188C134.978 87.0659 135.076 86.9203 135.143 86.7601C135.21 86.5999 135.244 86.428 135.244 86.2543C135.244 86.0807 135.21 85.9088 135.143 85.7486C135.076 85.5883 134.978 85.4428 134.855 85.3207C134.731 85.1986 134.585 85.1023 134.424 85.0372C134.263 84.9721 134.09 84.9397 133.917 84.9417H126.452Z" fill="#FFC107"/>
<path d="M126.208 68.4579C125.86 68.463 125.528 68.606 125.285 68.8556C125.043 69.1051 124.909 69.4407 124.914 69.7886V115.132C124.914 115.48 125.053 115.814 125.299 116.06C125.545 116.306 125.878 116.444 126.226 116.444H134.103C134.451 116.444 134.785 116.306 135.031 116.06C135.277 115.814 135.415 115.48 135.415 115.132V69.7886C135.42 69.6129 135.391 69.438 135.327 69.274C135.264 69.1101 135.168 68.9604 135.045 68.8342C134.923 68.708 134.777 68.6078 134.615 68.5393C134.453 68.4707 134.279 68.4353 134.103 68.4353C133.927 68.4353 133.753 68.4707 133.591 68.5393C133.429 68.6078 133.283 68.708 133.161 68.8342C133.038 68.9604 132.942 69.1101 132.879 69.274C132.816 69.438 132.786 69.6129 132.791 69.7886V113.82H127.538V69.7886C127.541 69.6132 127.508 69.4389 127.442 69.2764C127.376 69.1138 127.278 68.9661 127.154 68.8421C127.03 68.718 126.882 68.6202 126.72 68.5542C126.557 68.4882 126.383 68.4554 126.208 68.4579Z" fill="#2B4255" fill-opacity="0.973"/>
<path fill-rule="evenodd" clip-rule="evenodd" d="M120.971 69.1941C120.246 69.1941 119.661 69.7872 119.664 70.512V86.2668C119.642 88.0378 122.31 88.0378 122.289 86.2668L122.289 71.8245H123.788H134.083C135.857 71.8509 135.857 69.1742 134.083 69.1994H123.788H120.976L120.971 69.1941Z" fill="#FFC107"/>
<path d="M126.226 63.9417C125.878 63.9417 125.544 64.08 125.298 64.3262C125.052 64.5723 124.914 64.9061 124.914 65.2542V69.7915C124.911 69.9654 124.943 70.1382 125.008 70.2996C125.073 70.461 125.169 70.608 125.291 70.7319C125.414 70.8557 125.559 70.954 125.72 71.0212C125.88 71.0884 126.052 71.1228 126.226 71.1228C126.4 71.1228 126.572 71.0884 126.733 71.0212C126.893 70.954 127.039 70.8557 127.161 70.7319C127.283 70.608 127.379 70.461 127.444 70.2996C127.509 70.1382 127.541 69.9654 127.539 69.7915V66.5668H132.789V69.7915C132.786 69.9654 132.818 70.1382 132.883 70.2996C132.948 70.461 133.044 70.608 133.166 70.7319C133.289 70.8557 133.434 70.954 133.595 71.0212C133.755 71.0884 133.927 71.1228 134.101 71.1228C134.275 71.1228 134.447 71.0884 134.608 71.0212C134.768 70.954 134.914 70.8557 135.036 70.7319C135.158 70.608 135.254 70.461 135.319 70.2996C135.384 70.1382 135.416 69.9654 135.414 69.7915V65.2542C135.414 64.9061 135.275 64.5723 135.029 64.3262C134.783 64.08 134.449 63.9417 134.101 63.9417H126.226Z" fill="#FFC107"/>
<path fill-rule="evenodd" clip-rule="evenodd" d="M128.851 121.432L128.851 126.944L131.476 126.944L131.476 121.432H128.851Z" fill="#FFC107"/>
<path d="M65.8506 63.9407C65.5027 63.9408 65.169 64.0792 64.923 64.3252C64.677 64.5712 64.5387 64.9048 64.5386 65.2527V125.628C64.5387 125.976 64.677 126.31 64.923 126.556C65.169 126.802 65.5027 126.94 65.8506 126.94H115.725C116.073 126.94 116.407 126.802 116.653 126.556C116.899 126.31 117.037 125.976 117.037 125.628V65.2527C117.037 64.9048 116.899 64.5712 116.653 64.3252C116.407 64.0792 116.073 63.9408 115.725 63.9407H102.863C102.515 63.9407 102.18 64.079 101.934 64.3255C101.687 64.572 101.549 64.9064 101.549 65.255C101.549 65.6036 101.687 65.9378 101.934 66.1843C102.18 66.4307 102.515 66.5694 102.863 66.5694H114.413V124.316H67.1626V66.5694H78.7129C79.0615 66.5694 79.3958 66.4307 79.6423 66.1843C79.8888 65.9378 80.0272 65.6036 80.0272 65.255C80.0272 64.9064 79.8888 64.572 79.6423 64.3255C79.3958 64.079 79.0615 63.9407 78.7129 63.9407H65.8506Z" fill="#FFC107"/>
<path d="M71.1033 69.1936C70.9307 69.193 70.7596 69.2266 70.5999 69.2922C70.4403 69.3579 70.2951 69.4545 70.1728 69.5763C70.0505 69.6982 69.9534 69.843 69.8871 70.0024C69.8209 70.1619 69.7867 70.3329 69.7866 70.5056V120.38C69.7867 120.553 69.8208 120.724 69.8871 120.884C69.9533 121.043 70.0504 121.188 70.1727 121.31C70.295 121.432 70.4402 121.528 70.5999 121.594C70.7596 121.659 70.9306 121.693 71.1033 121.692H110.477C110.825 121.692 111.159 121.554 111.405 121.308C111.651 121.062 111.789 120.728 111.789 120.38V70.5056C111.789 70.1577 111.651 69.8241 111.405 69.5781C111.159 69.3321 110.825 69.1937 110.477 69.1936H102.863C102.687 69.1879 102.512 69.2178 102.348 69.2811C102.184 69.3445 102.034 69.4402 101.908 69.5626C101.781 69.6849 101.681 69.8313 101.612 69.9934C101.543 70.1554 101.508 70.3296 101.508 70.5056C101.508 70.6815 101.543 70.8558 101.612 71.0178C101.681 71.1798 101.781 71.3262 101.908 71.4486C102.034 71.5709 102.184 71.6666 102.348 71.73C102.512 71.7934 102.687 71.8233 102.863 71.8176H109.165V119.068H72.4153V71.8176H78.7129C78.8888 71.8233 79.064 71.7934 79.2281 71.73C79.3923 71.6666 79.542 71.5709 79.6684 71.4486C79.7948 71.3262 79.8954 71.1798 79.964 71.0178C80.0327 70.8558 80.068 70.6815 80.068 70.5056C80.068 70.3296 80.0327 70.1554 79.964 69.9934C79.8954 69.8313 79.7948 69.6849 79.6684 69.5626C79.542 69.4402 79.3923 69.3445 79.2281 69.2811C79.064 69.2178 78.8888 69.1879 78.7129 69.1936H71.1033Z" fill="#FFC107"/>
<path d="M78.9753 61.3166C78.6274 61.3168 78.2939 61.4552 78.0479 61.7011C77.8018 61.9471 77.6635 62.2807 77.6633 62.6286V73.1293C77.6642 73.4287 77.7674 73.7187 77.9557 73.9514C78.1441 74.184 78.4063 74.3453 78.6989 74.4085C78.7375 74.4183 78.7766 74.4263 78.8159 74.4325C78.8207 74.4326 78.8255 74.4326 78.8303 74.4325C78.8475 74.4329 78.8647 74.4329 78.8819 74.4325C78.9069 74.4333 78.9318 74.4333 78.9568 74.4325C78.9632 74.4326 78.9696 74.4326 78.976 74.4325H102.601C102.949 74.4324 103.283 74.294 103.529 74.048C103.775 73.802 103.913 73.4685 103.913 73.1205V62.6195C103.913 62.2716 103.775 61.9383 103.529 61.6923C103.283 61.4464 102.949 61.308 102.601 61.3078H95.3854C95.2095 61.3021 95.0343 61.3317 94.8702 61.3951C94.706 61.4585 94.5563 61.5544 94.4299 61.6768C94.3034 61.7992 94.2029 61.9456 94.1343 62.1076C94.0656 62.2696 94.0303 62.4439 94.0303 62.6198C94.0303 62.7958 94.0656 62.97 94.1343 63.132C94.2029 63.294 94.3034 63.4404 94.4299 63.5628C94.5563 63.6852 94.706 63.7809 94.8702 63.8443C95.0343 63.9076 95.2095 63.9375 95.3854 63.9318H101.289V71.8085H80.288V63.9318H86.1967C86.3725 63.9375 86.5477 63.9076 86.7119 63.8443C86.876 63.7809 87.0257 63.6852 87.1522 63.5628C87.2786 63.4404 87.3791 63.294 87.4478 63.132C87.5164 62.97 87.5518 62.7958 87.5518 62.6198C87.5518 62.4439 87.5164 62.2696 87.4478 62.1076C87.3791 61.9456 87.2786 61.7992 87.1522 61.6768C87.0257 61.5544 86.876 61.4585 86.7119 61.3951C86.5477 61.3317 86.3725 61.3021 86.1967 61.3078H78.976L78.9753 61.3166Z" fill="#2B4255" fill-opacity="0.973"/>
<path d="M91.041 53.4493C89.5703 53.3918 88.0789 53.8306 86.8379 54.766C84.356 56.6371 83.5266 60.0136 84.8606 62.8208C84.9311 62.9817 85.0332 63.1268 85.1608 63.2475C85.2884 63.3682 85.439 63.4619 85.6035 63.5234C85.7681 63.5848 85.9433 63.6126 86.1188 63.6051C86.2943 63.5976 86.4665 63.555 86.6252 63.4797C86.7839 63.4045 86.9259 63.2981 87.0428 63.167C87.1597 63.0358 87.249 62.8826 87.3055 62.7162C87.3621 62.5499 87.3846 62.374 87.3719 62.1988C87.3592 62.0236 87.3115 61.8526 87.2315 61.6962C86.4257 60.0003 86.9178 57.9908 88.417 56.8606C89.9163 55.7303 91.9848 55.8111 93.3933 57.0524C94.8017 58.2939 95.137 60.3338 94.2039 61.963C94.1108 62.1128 94.0489 62.2798 94.0218 62.4541C93.9947 62.6284 94.003 62.8065 94.0462 62.9775C94.0894 63.1485 94.1667 63.3091 94.2734 63.4496C94.3801 63.5901 94.5139 63.7075 94.667 63.7951C94.8201 63.8827 94.9893 63.9387 95.1645 63.9594C95.3397 63.9802 95.5172 63.9655 95.6866 63.9161C95.8559 63.8667 96.0136 63.7836 96.1501 63.6718C96.2866 63.5601 96.3992 63.4221 96.4812 63.2659C98.0259 60.5686 97.4586 57.135 95.127 55.08C93.9612 54.0522 92.5118 53.5052 91.041 53.4491V53.4493Z" fill="#2B4255" fill-opacity="0.973"/>
<path fill-rule="evenodd" clip-rule="evenodd" d="M84.2515 79.6942C83.9103 79.7029 83.5859 79.844 83.3471 80.0878L78.9988 84.4034L77.2885 82.7072C77.1677 82.5798 77.0225 82.4779 76.8616 82.4076C76.7007 82.3373 76.5273 82.3001 76.3518 82.298C76.1762 82.2959 76.002 82.3291 75.8395 82.3956C75.6769 82.462 75.5294 82.5601 75.4056 82.6846C75.2817 82.8091 75.1841 82.9572 75.1185 83.1201C75.0529 83.283 75.0206 83.4573 75.0236 83.6329C75.0266 83.8084 75.0648 83.9816 75.1359 84.1422C75.207 84.3027 75.3096 84.4472 75.4376 84.5674L78.0757 87.1867C78.3216 87.4312 78.6543 87.5686 79.0011 87.5686C79.3479 87.5686 79.6806 87.4312 79.9265 87.1867L85.198 81.9481C85.3874 81.7642 85.5169 81.5276 85.5697 81.2689C85.6225 81.0103 85.596 80.7415 85.4938 80.4981C85.3916 80.2547 85.2184 80.0479 84.9968 79.9045C84.7751 79.7611 84.5154 79.6878 84.2515 79.6942ZM84.2515 92.819C83.9103 92.8276 83.5859 92.9688 83.3471 93.2126L78.9988 97.5281L77.2885 95.8319C77.1677 95.7045 77.0225 95.6026 76.8616 95.5323C76.7007 95.462 76.5273 95.4249 76.3518 95.4228C76.1762 95.4207 76.002 95.4539 75.8395 95.5203C75.6769 95.5867 75.5294 95.6849 75.4056 95.8093C75.2817 95.9338 75.1841 96.0819 75.1185 96.2448C75.0529 96.4077 75.0206 96.5821 75.0236 96.7576C75.0266 96.9332 75.0648 97.1063 75.1359 97.2669C75.207 97.4274 75.3096 97.5719 75.4376 97.6921L78.0757 100.311C78.3216 100.556 78.6543 100.693 79.0011 100.693C79.3479 100.693 79.6806 100.556 79.9265 100.311L85.198 95.0728C85.3874 94.8889 85.5169 94.6523 85.5697 94.3937C85.6225 94.135 85.596 93.8663 85.4938 93.6229C85.3916 93.3795 85.2184 93.1727 84.9968 93.0292C84.7751 92.8858 84.5154 92.8125 84.2515 92.819Z" fill="#FFC107"/>
<path fill-rule="evenodd" clip-rule="evenodd" d="M89.4947 79.6942C89.3191 79.689 89.1443 79.719 88.9806 79.7826C88.8169 79.8462 88.6676 79.942 88.5416 80.0643C88.4156 80.1867 88.3155 80.3331 88.2471 80.4948C88.1787 80.6566 88.1434 80.8306 88.1434 81.0062C88.1434 81.1818 88.1787 81.3557 88.2471 81.5175C88.3155 81.6793 88.4156 81.8257 88.5416 81.948C88.6676 82.0704 88.8169 82.1661 88.9806 82.2297C89.1443 82.2934 89.3191 82.3233 89.4947 82.3182H97.3714C97.5469 82.3233 97.7218 82.2934 97.8855 82.2297C98.0492 82.1661 98.1984 82.0704 98.3244 81.948C98.4504 81.8257 98.5506 81.6793 98.619 81.5175C98.6874 81.3557 98.7226 81.1818 98.7226 81.0062C98.7226 80.8306 98.6874 80.6566 98.619 80.4948C98.5506 80.3331 98.4504 80.1867 98.3244 80.0643C98.1984 79.942 98.0492 79.8462 97.8855 79.7826C97.7218 79.719 97.5469 79.689 97.3714 79.6942H89.4947ZM89.5275 84.9422C89.3519 84.937 89.1771 84.967 89.0134 85.0306C88.8497 85.0942 88.7005 85.19 88.5745 85.3124C88.4485 85.4347 88.3483 85.5811 88.2799 85.7429C88.2115 85.9046 88.1763 86.0786 88.1763 86.2542C88.1763 86.4298 88.2115 86.6038 88.2799 86.7655C88.3483 86.9273 88.4485 87.0737 88.5745 87.196C88.7005 87.3184 88.8497 87.4141 89.0134 87.4778C89.1771 87.5414 89.3519 87.5714 89.5275 87.5662H105.173C105.349 87.5714 105.523 87.5414 105.687 87.4778C105.851 87.4141 106 87.3184 106.126 87.196C106.252 87.0737 106.352 86.9273 106.421 86.7655C106.489 86.6038 106.524 86.4298 106.524 86.2542C106.524 86.0786 106.489 85.9046 106.421 85.7429C106.352 85.5811 106.252 85.4347 106.126 85.3124C106 85.19 105.851 85.0942 105.687 85.0306C105.523 84.967 105.349 84.937 105.173 84.9422H89.5275ZM89.4947 92.8189C89.3191 92.8137 89.1443 92.8437 88.9806 92.9073C88.8169 92.971 88.6676 93.0667 88.5416 93.1891C88.4156 93.3114 88.3155 93.4578 88.2471 93.6196C88.1787 93.7813 88.1434 93.9553 88.1434 94.1309C88.1434 94.3065 88.1787 94.4805 88.2471 94.6422C88.3155 94.804 88.4156 94.9504 88.5416 95.0727C88.6676 95.1951 88.8169 95.2908 88.9806 95.3545C89.1443 95.4181 89.3191 95.4481 89.4947 95.4429H97.3714C97.5469 95.4481 97.7218 95.4181 97.8855 95.3545C98.0492 95.2908 98.1984 95.1951 98.3244 95.0727C98.4504 94.9504 98.5506 94.804 98.619 94.6422C98.6874 94.4805 98.7226 94.3065 98.7226 94.1309C98.7226 93.9553 98.6874 93.7813 98.619 93.6196C98.5506 93.4578 98.4504 93.3114 98.3244 93.1891C98.1984 93.0667 98.0492 92.971 97.8855 92.9073C97.7218 92.8437 97.5469 92.8137 97.3714 92.8189H89.4947ZM89.5275 98.0669C89.3519 98.0617 89.1771 98.0917 89.0134 98.1554C88.8497 98.219 88.7005 98.3147 88.5745 98.4371C88.4485 98.5594 88.3483 98.7058 88.2799 98.8676C88.2115 99.0293 88.1763 99.2033 88.1763 99.3789C88.1763 99.5545 88.2115 99.7285 88.2799 99.8902C88.3483 100.052 88.4485 100.198 88.5745 100.321C88.7005 100.443 88.8497 100.539 89.0134 100.602C89.1771 100.666 89.3519 100.696 89.5275 100.691H105.173C105.349 100.696 105.523 100.666 105.687 100.602C105.851 100.539 106 100.443 106.126 100.321C106.252 100.198 106.352 100.052 106.421 99.8902C106.489 99.7285 106.524 99.5545 106.524 99.3789C106.524 99.2033 106.489 99.0293 106.421 98.8676C106.352 98.7058 106.252 98.5594 106.126 98.4371C106 98.3147 105.851 98.219 105.687 98.1554C105.523 98.0917 105.349 98.0617 105.173 98.0669H89.5275ZM89.4947 105.944C89.3191 105.938 89.1443 105.968 88.9806 106.032C88.8169 106.096 88.6676 106.191 88.5416 106.314C88.4156 106.436 88.3155 106.583 88.2471 106.744C88.1787 106.906 88.1434 107.08 88.1434 107.256C88.1434 107.431 88.1787 107.605 88.2471 107.767C88.3155 107.929 88.4156 108.075 88.5416 108.197C88.6676 108.32 88.8169 108.416 88.9806 108.479C89.1443 108.543 89.3191 108.573 89.4947 108.568H97.3714C97.5469 108.573 97.7218 108.543 97.8855 108.479C98.0492 108.416 98.1984 108.32 98.3244 108.197C98.4504 108.075 98.5506 107.929 98.619 107.767C98.6874 107.605 98.7226 107.431 98.7226 107.256C98.7226 107.08 98.6874 106.906 98.619 106.744C98.5506 106.583 98.4504 106.436 98.3244 106.314C98.1984 106.191 98.0492 106.096 97.8855 106.032C97.7218 105.968 97.5469 105.938 97.3714 105.944H89.4947ZM89.5275 111.192C89.3519 111.186 89.1771 111.216 89.0134 111.28C88.8497 111.344 88.7005 111.439 88.5745 111.562C88.4485 111.684 88.3483 111.831 88.2799 111.992C88.2115 112.154 88.1763 112.328 88.1763 112.504C88.1763 112.679 88.2115 112.853 88.2799 113.015C88.3483 113.177 88.4485 113.323 88.5745 113.445C88.7005 113.568 88.8497 113.664 89.0134 113.727C89.1771 113.791 89.3519 113.821 89.5275 113.816H105.173C105.349 113.821 105.523 113.791 105.687 113.727C105.851 113.664 106 113.568 106.126 113.445C106.252 113.323 106.352 113.177 106.421 113.015C106.489 112.853 106.524 112.679 106.524 112.504C106.524 112.328 106.489 112.154 106.421 111.992C106.352 111.831 106.252 111.684 106.126 111.562C106 111.439 105.851 111.344 105.687 111.28C105.523 111.216 105.349 111.186 105.173 111.192H89.5275Z" fill="#2B4255" fill-opacity="0.973"/>
<path fill-rule="evenodd" clip-rule="evenodd" d="M84.2515 105.944C83.9103 105.952 83.5859 106.093 83.3471 106.337L78.9988 110.653L77.2885 108.956C77.1677 108.829 77.0225 108.727 76.8616 108.657C76.7007 108.587 76.5273 108.549 76.3518 108.547C76.1762 108.545 76.002 108.578 75.8395 108.645C75.6769 108.711 75.5294 108.809 75.4056 108.934C75.2817 109.058 75.1841 109.206 75.1185 109.369C75.0529 109.532 75.0206 109.707 75.0236 109.882C75.0266 110.058 75.0648 110.231 75.1359 110.391C75.207 110.552 75.3096 110.696 75.4376 110.817L78.0757 113.436C78.3216 113.68 78.6543 113.818 79.0011 113.818C79.3479 113.818 79.6806 113.68 79.9265 113.436L85.198 108.197C85.3874 108.013 85.5169 107.777 85.5697 107.518C85.6225 107.26 85.596 106.991 85.4938 106.747C85.3916 106.504 85.2184 106.297 84.9968 106.154C84.7751 106.01 84.5154 105.937 84.2515 105.944Z" fill="#FFC107"/>
</g>
</g>
<defs>
<clipPath id="clip0">
<rect width="191" height="234" fill="white"/>
</clipPath>
<clipPath id="clip1">
<rect width="84" height="84" fill="white" transform="translate(59.2886 53.4443)"/>
</clipPath>
</defs>
</svg>
