<svg width="231" height="244" viewBox="0 0 231 244" fill="none" xmlns="http://www.w3.org/2000/svg">
<g clip-path="url(#clip0)">
<path d="M130.39 215.427C155.154 185.767 187.547 178.14 199.482 163.844C211.416 149.547 228.241 112.71 162.383 58.1755C96.5251 3.64107 53.144 36.0185 40.023 51.7461C-21.4316 125.366 86.535 267.961 130.39 215.427Z" fill="#F4FCF9"/>
<path fill-rule="evenodd" clip-rule="evenodd" d="M146.564 91.8664L147.92 94.1213L148.023 94.0588L146.667 91.8042L146.564 91.8664ZM139.805 95.9291L141.156 98.1836L145.665 95.477L144.309 93.2227L139.805 95.9291ZM113.822 120.711L113.831 123.34L119.09 123.314L119.081 120.684L113.822 120.711ZM107.319 126.304L109.333 127.994L112.712 123.962L110.699 122.277L107.319 126.304ZM102.25 132.349L104.269 134.039L107.643 130.012L105.63 128.322L102.25 132.349ZM95.5785 134.521L96.3078 137.049L101.362 135.595L100.632 133.068L95.5785 134.521ZM89.0095 136.406L89.7337 138.933L93.7757 137.773L93.0516 135.246L89.0095 136.406Z" fill="#2B4255"/>
<path d="M134.869 115.657C134.562 115.658 134.265 115.766 134.03 115.963C133.795 116.16 133.636 116.432 133.58 116.734C133.525 117.036 133.576 117.347 133.726 117.615C133.876 117.882 134.115 118.089 134.401 118.199C136.264 118.947 137.17 120.088 137.17 121.07C137.17 121.842 136.658 122.677 135.485 123.402C134.312 124.127 132.554 124.629 130.596 124.629C128.637 124.629 126.884 124.127 125.711 123.402C124.538 122.677 124.021 121.842 124.021 121.07C124.021 120.09 124.925 118.953 126.78 118.204C126.943 118.142 127.092 118.048 127.218 117.928C127.345 117.807 127.446 117.663 127.516 117.502C127.586 117.342 127.623 117.17 127.626 116.995C127.629 116.821 127.596 116.647 127.531 116.485C127.466 116.323 127.369 116.175 127.246 116.051C127.124 115.927 126.977 115.828 126.816 115.761C126.655 115.694 126.482 115.66 126.307 115.661C126.132 115.661 125.959 115.697 125.799 115.765C123.341 116.757 121.392 118.629 121.392 121.07C121.392 122.991 122.648 124.597 124.33 125.636C126.012 126.676 128.198 127.259 130.596 127.259C132.994 127.259 135.185 126.676 136.867 125.636C138.549 124.597 139.799 122.991 139.799 121.07C139.799 118.624 137.848 116.75 135.382 115.76C135.22 115.691 135.045 115.656 134.869 115.656V115.657Z" fill="#2B4255"/>
<path d="M147.424 68.0952C141.654 68.0952 136.905 72.6601 136.905 78.3094C136.905 79.9484 137.589 81.6019 138.501 83.3085C139.413 85.0151 140.597 86.7492 141.773 88.3217C144.124 91.4667 146.467 93.9733 146.467 93.9733C146.59 94.1047 146.738 94.2094 146.904 94.281C147.069 94.3526 147.247 94.3896 147.427 94.3896C147.607 94.3896 147.785 94.3526 147.95 94.281C148.115 94.2094 148.264 94.1047 148.387 93.9733C148.387 93.9733 150.729 91.4667 153.081 88.3217C154.256 86.7492 155.44 85.0151 156.352 83.3085C157.264 81.6019 157.944 79.9484 157.944 78.3094C157.944 72.6601 153.194 68.0952 147.424 68.0952ZM147.424 70.7239C151.82 70.7239 155.315 74.13 155.315 78.3094C155.315 79.1275 154.847 80.546 154.033 82.0693C153.22 83.5925 152.098 85.244 150.973 86.7492C149.201 89.1198 148.1 90.2804 147.424 91.0254C146.748 90.2794 145.647 89.1189 143.876 86.7492C142.75 85.244 141.634 83.5925 140.82 82.0693C140.006 80.546 139.538 79.1275 139.538 78.3094C139.538 74.13 143.028 70.7239 147.424 70.7239Z" fill="#FFC107"/>
<path d="M147.425 74.0286C145.262 74.0286 143.482 75.8085 143.482 77.9715C143.482 80.1343 145.262 81.9145 147.425 81.9145C149.587 81.9145 151.372 80.1343 151.372 77.9715C151.372 75.8085 149.588 74.0286 147.425 74.0286ZM147.425 76.6572C148.166 76.6572 148.739 77.2299 148.739 77.9715C148.739 78.7132 148.166 79.2859 147.425 79.2859C146.683 79.2859 146.11 78.7132 146.11 77.9715C146.11 77.2299 146.683 76.6572 147.425 76.6572ZM89.5757 112.796C83.8056 112.796 79.0564 117.361 79.0564 123.011C79.0564 124.65 79.7358 126.308 80.6477 128.014C81.5595 129.721 82.7438 131.455 83.9194 133.028C86.2705 136.173 88.6134 138.679 88.6134 138.679C88.7364 138.81 88.885 138.915 89.0502 138.987C89.2153 139.058 89.3933 139.095 89.5733 139.095C89.7533 139.095 89.9313 139.058 90.0964 138.987C90.2616 138.915 90.4102 138.81 90.5332 138.679C90.5332 138.679 92.8761 136.173 95.2273 133.028C96.4028 131.455 97.5871 129.721 98.499 128.014C99.4108 126.308 100.095 124.65 100.095 123.011C100.095 117.361 95.3458 112.796 89.5757 112.796ZM89.5757 115.43C93.9717 115.43 97.4616 118.831 97.4616 123.011C97.4616 123.829 96.994 125.247 96.1801 126.77C95.3663 128.294 94.2497 129.945 93.1243 131.45C91.3528 133.82 90.2519 134.981 89.5757 135.727C88.9001 134.982 87.7993 133.821 86.027 131.45C84.9017 129.945 83.7804 128.294 82.9665 126.77C82.1526 125.247 81.685 123.829 81.685 123.011C81.685 118.831 85.1796 115.43 89.5757 115.43Z" fill="#FFC107"/>
<path d="M89.5758 118.729C87.4129 118.729 85.6281 120.514 85.6282 122.677C85.6281 124.84 87.4129 126.62 89.5758 126.62C91.7388 126.62 93.5189 124.84 93.5188 122.677C93.5189 120.514 91.7388 118.729 89.5758 118.729ZM89.5758 121.358C90.3176 121.358 90.8902 121.935 90.8902 122.677C90.8902 123.419 90.3176 123.991 89.5758 123.991C88.8341 123.991 88.2615 123.419 88.2615 122.677C88.2615 121.935 88.8341 121.358 89.5758 121.358ZM130.597 97.0195C124.827 97.0195 120.077 101.584 120.077 107.234C120.077 108.873 120.762 110.526 121.673 112.233C122.585 113.939 123.765 115.674 124.94 117.246C127.292 120.391 129.634 122.898 129.634 122.898C129.758 123.03 129.906 123.135 130.072 123.207C130.238 123.279 130.416 123.316 130.597 123.316C130.777 123.316 130.956 123.279 131.121 123.207C131.287 123.135 131.436 123.03 131.559 122.898C131.559 122.898 133.902 120.391 136.253 117.246C137.429 115.674 138.608 113.939 139.52 112.233C140.432 110.526 141.116 108.873 141.116 107.234C141.116 101.584 136.367 97.0195 130.597 97.0195ZM130.597 99.6482C134.993 99.6482 138.487 103.054 138.487 107.234C138.487 108.052 138.015 109.47 137.201 110.994C136.387 112.517 135.271 114.168 134.145 115.674C132.375 118.042 131.274 119.198 130.597 119.945C129.92 119.198 128.818 118.042 127.048 115.674C125.923 114.168 124.806 112.517 123.992 110.994C123.178 109.47 122.706 108.052 122.706 107.234C122.706 103.054 126.201 99.6482 130.597 99.6482Z" fill="#FFC107"/>
<path d="M130.596 102.953C128.433 102.953 126.653 104.733 126.653 106.896C126.653 109.059 128.433 110.844 130.596 110.844C132.759 110.844 134.539 109.059 134.539 106.896C134.539 104.733 132.759 102.953 130.596 102.953ZM130.596 105.582C131.338 105.582 131.911 106.154 131.911 106.896C131.911 107.638 131.338 108.21 130.596 108.21C129.855 108.21 129.282 107.638 129.282 106.896C129.282 106.154 129.855 105.582 130.596 105.582Z" fill="#FFC107"/>
</g>
<defs>
<clipPath id="clip0">
<rect width="230.574" height="243.144" fill="white"/>
</clipPath>
</defs>
</svg>
