<svg width="51" height="57" viewBox="0 0 51 57" fill="none" xmlns="http://www.w3.org/2000/svg">
<path fill-rule="evenodd" clip-rule="evenodd" d="M30.7585 0C22.4876 3.39621 18.8168 9.48129 17.2819 14.9795C15.6764 20.7307 16.3411 25.6556 16.3411 25.6556C16.5257 26.7409 14.8816 27.015 14.6973 25.9296C14.6973 25.9296 14.4727 24.7711 13.3822 23.209C12.4512 21.8756 10.6961 20.361 8.11523 19.1216C8.18857 20.6684 7.9864 22.2532 7.5 23.8988C6.83992 26.1319 5.90263 28.471 5.21484 30.8841C3.86466 35.6212 3.45491 40.5144 7.78646 45.7088H14.987C13.6915 41.3531 14.203 37.3788 16.1003 33.2018C18.1605 28.6658 21.7699 23.8244 26.403 17.5357C26.5567 17.3273 26.8 17.2022 27.0605 17.1972C27.498 17.189 27.8676 17.5167 27.9069 17.9483C28.1124 20.1988 28.4665 21.5188 28.8639 22.4031C29.2614 23.2875 29.703 23.7682 30.2441 24.4146C30.7853 25.0609 31.4025 25.8628 31.888 27.1706C32.1126 27.7755 32.2136 29.0277 32.3861 29.8913C33.1244 27.9783 33.9039 26.4533 34.8372 25.5428C36.223 24.1909 37.8168 23.7833 39.4987 23.3347C40.0855 23.1783 40.6386 23.6762 40.5371 24.2695C39.7286 28.9837 40.9456 32.3197 41.3835 35.7805C41.7721 38.8525 41.3701 42.0155 38.2422 45.7088H43.0762C47.8595 37.2809 48.1397 31.568 47.2721 26.5485C46.4663 21.886 44.7909 17.648 44.7201 12.636C41.5122 13.8475 38.9562 16.4299 36.3965 20.843C35.9017 21.6876 34.5969 21.1315 34.8763 20.1951C35.8648 16.9387 36.0484 14.7071 35.8268 13.0357C35.6053 11.3643 34.9896 10.2201 34.2122 9.04829C32.8007 6.92039 30.909 4.56986 30.7585 0ZM26.6667 20.0113C22.624 25.5078 19.3893 29.9843 17.6204 33.8787C15.7665 37.9603 15.4437 41.5333 16.8164 45.7088H35.9375C39.7415 41.8058 40.1246 39.107 39.7298 35.9868C39.3678 33.1251 38.4774 29.7197 38.8802 25.4074C37.8229 25.7275 36.7784 25.9656 36.0059 26.7194C34.9506 27.7488 33.9343 29.623 32.9362 33.3307C32.6966 34.2334 31.3655 34.1102 31.2988 33.1792C31.0918 30.5001 30.7319 28.8446 30.3223 27.7412C29.9126 26.6378 29.4737 26.0771 28.9616 25.4654C28.4495 24.8538 27.8382 24.1811 27.3405 23.0736C27.0342 22.3922 26.8735 21.102 26.6667 20.0113ZM0.625 47.3496V49H50.625V47.3496H0.625Z" fill="#FDC10C"/>
</svg>
