<svg width="23" height="23" viewBox="0 0 23 23" fill="none" xmlns="http://www.w3.org/2000/svg">
<path d="M9.5975 5.20411C9.8343 5.2041 10.0615 5.11058 10.2297 4.94392C10.398 4.77726 10.4937 4.55093 10.4959 4.31414C10.4982 4.07734 10.4067 3.84924 10.2417 3.67944C10.0766 3.50964 9.85128 3.41189 9.61452 3.40741" stroke="#4CDC5D" stroke-linecap="round" stroke-linejoin="round"/>
<path d="M9.5203 6.99207C9.28348 6.99208 9.05631 6.89859 8.88806 6.73193C8.71982 6.56527 8.6241 6.33891 8.62187 6.1021C8.61963 5.8653 8.71106 5.63721 8.87613 5.46741C9.0412 5.2976 9.26651 5.19983 9.50328 5.19537" stroke="#4CDC5D" stroke-linecap="round" stroke-linejoin="round"/>
<path d="M13.1912 5.20411C13.4281 5.2041 13.6553 5.11058 13.8235 4.94392C13.9917 4.77726 14.0874 4.55093 14.0897 4.31414C14.0919 4.07734 14.0005 3.84924 13.8354 3.67944C13.6704 3.50964 13.445 3.41189 13.2083 3.40741M9.59749 8.78895C9.8343 8.78895 10.0615 8.69543 10.2297 8.52877C10.398 8.36211 10.4937 8.13578 10.4959 7.89898C10.4982 7.66219 10.4067 7.43409 10.2417 7.26429C10.0766 7.09448 9.85128 6.99673 9.61451 6.99225L9.59749 8.78895Z" stroke="#4CDC5D" stroke-linecap="round" stroke-linejoin="round"/>
<path d="M13.1141 6.99207C12.8772 6.99208 12.6501 6.89859 12.4818 6.73193C12.3136 6.56527 12.2178 6.33891 12.2156 6.1021C12.2134 5.8653 12.3048 5.63721 12.4699 5.46741C12.635 5.2976 12.8603 5.19983 13.097 5.19537" stroke="#4CDC5D" stroke-linecap="round" stroke-linejoin="round"/>
<path d="M6.28222 5.20411C6.51904 5.20412 6.74622 5.11063 6.91446 4.94397C7.08271 4.7773 7.17843 4.55095 7.18066 4.31414C7.1829 4.07733 7.09147 3.84925 6.9264 3.67944C6.76133 3.50964 6.53585 3.41187 6.29907 3.40741M13.1912 8.78895C13.4281 8.78895 13.6553 8.69543 13.8235 8.52877C13.9917 8.36211 14.0874 8.13578 14.0897 7.89898C14.0919 7.66219 14.0005 7.43409 13.8354 7.26429C13.6704 7.09448 13.445 6.99673 13.2083 6.99225L13.1912 8.78895Z" stroke="#4CDC5D" stroke-linecap="round" stroke-linejoin="round"/>
<path d="M6.20512 6.99207C5.96831 6.99206 5.74111 6.89855 5.57288 6.73189C5.40465 6.56523 5.30891 6.3389 5.30668 6.1021C5.30445 5.86531 5.39589 5.63721 5.56095 5.46741C5.726 5.2976 5.95133 5.19985 6.1881 5.19537" stroke="#4CDC5D" stroke-linecap="round" stroke-linejoin="round"/>
<path d="M6.28219 8.78895C6.51901 8.78896 6.74618 8.69547 6.91443 8.5288C7.08268 8.36214 7.17839 8.13579 7.18062 7.89898C7.18286 7.66217 7.09143 7.43409 6.92636 7.26428C6.76129 7.09448 6.53581 6.99671 6.29903 6.99225" stroke="#4CDC5D" stroke-linecap="round" stroke-linejoin="round"/>
<path d="M6.63232 19.3963H13.0998V17.2576C11.7215 17.8657 10.9188 17.9606 9.80212 17.9836C8.40538 18.0124 7.45874 17.7707 6.63232 17.5639V19.3963Z" stroke="#383747" stroke-linecap="round" stroke-linejoin="round"/>
<path d="M18.0062 11.6523C16.798 16.1616 12.183 18.8376 7.67367 17.6294C4.75669 16.8478 2.48965 14.5807 1.70801 11.6637L18.0062 11.6523Z" fill="#4CDC5D" stroke="#383747" stroke-linecap="round" stroke-linejoin="round"/>
<path d="M18.0086 10.2114H1.70374V11.6913H18.0086V10.2114Z" stroke="#383747" stroke-linecap="round" stroke-linejoin="round"/>
<path d="M12.2355 10.2074C17.8413 10.4284 16.4323 6.43378 20.576 6.07254C20.9856 6.0366 21.2014 6.02869 21.7758 6.06535L21.798 6.05815C21.0828 5.63265 19.7648 4.91303 18.6647 5.2185C18.101 5.37504 17.2246 5.97952 16.6375 7.13347C15.1586 10.3711 13.7192 10.2005 12.5478 10.2067L12.2355 10.2074Z" stroke="#383747" stroke-linecap="round" stroke-linejoin="round"/>
<path d="M15.686 12.9229C15.177 14.4748 13.8149 15.5537 12.2335 15.8466" stroke="white" stroke-linecap="round" stroke-linejoin="round"/>
</svg>
