<svg width="28" height="28" viewBox="0 0 28 28" fill="none" xmlns="http://www.w3.org/2000/svg">
<circle cx="14" cy="14" r="13.85" stroke="#FFC107" stroke-width="0.3"/>
<circle cx="14" cy="13.9999" r="12.6326" stroke="#FFC107" stroke-width="0.3"/>
<circle cx="16.7971" cy="5.63796" r="0.102899" stroke="#FFC107" stroke-width="0.2"/>
<circle cx="9.5942" cy="3.30435" r="0.204348" stroke="#FFC107" stroke-width="0.2"/>
<circle cx="5.94198" cy="11.8258" r="0.204348" stroke="#FFC107" stroke-width="0.2"/>
<circle cx="20.3478" cy="14.464" r="0.204348" stroke="#FFC107" stroke-width="0.2"/>
<circle cx="16.5072" cy="23.5072" r="0.407246" stroke="#FFC107" stroke-width="0.2"/>
<circle cx="3.30435" cy="18.9274" r="0.204348" stroke="#FFC107" stroke-width="0.2"/>
<circle cx="9.08693" cy="23.8982" r="0.102899" stroke="#FFC107" stroke-width="0.2"/>
<circle cx="24.2029" cy="10.2029" r="0.102899" stroke="#FFC107" stroke-width="0.2"/>
<circle cx="16.3043" cy="6.30435" r="0.204348" stroke="#FFC107" stroke-width="0.2"/>
<path d="M17.3579 12.2583C15.5277 11.6822 14.4353 9.16909 14.118 7.98454C14.1528 7.40389 15.2793 8.05425 15.3745 8.40961C15.4507 8.6939 17.6824 9.44168 18.7887 9.78004C19.9384 10.0433 22.418 10.6739 23.139 11.0901C24.0401 11.6104 23.3898 12.7369 22.6442 13.5079C21.8986 14.279 18.4844 12.9086 17.3579 12.2583Z" fill="white" stroke="#FFC107" stroke-width="0.3"/>
<path d="M16.0518 10.1296C15.958 9.96064 15.7449 9.89969 15.5759 9.99351C15.4069 10.0873 15.3459 10.3004 15.4398 10.4694L16.0518 10.1296ZM18.7698 12.3458L18.6647 12.6797L18.7698 12.3458ZM17.7903 11.9611L17.9415 11.6455L17.7903 11.9611ZM15.4398 10.4694C15.6787 10.8998 16.3902 11.6785 17.6391 12.2768L17.9415 11.6455C16.7968 11.0971 16.2071 10.4094 16.0518 10.1296L15.4398 10.4694ZM17.6391 12.2768C17.9472 12.4243 18.2886 12.5613 18.6647 12.6797L18.8749 12.012C18.5306 11.9036 18.22 11.7788 17.9415 11.6455L17.6391 12.2768ZM18.6647 12.6797C18.9507 12.7697 19.1428 12.8296 19.2605 12.8656C19.3186 12.8834 19.3612 12.8962 19.3885 12.9039C19.3982 12.9066 19.4182 12.9123 19.4369 12.9161C19.4412 12.9169 19.4562 12.92 19.4753 12.9219C19.4829 12.9226 19.5074 12.9249 19.5386 12.9223C19.5558 12.9204 19.599 12.9119 19.6247 12.904C19.666 12.8866 19.7607 12.8174 19.8058 12.7602C19.8439 12.6778 19.8552 12.517 19.8366 12.448C19.8184 12.4083 19.7795 12.3502 19.762 12.3306C19.7313 12.2986 19.7014 12.2802 19.6951 12.2763C19.6755 12.264 19.6587 12.2563 19.6551 12.2546C19.6293 12.2426 19.5888 12.2285 19.5663 12.2205C19.5335 12.209 19.49 12.194 19.4391 12.1765C19.3369 12.1416 19.2007 12.0956 19.0517 12.0452C18.7525 11.9441 18.4014 11.8254 18.1582 11.7398C18.0334 11.6959 17.947 11.6641 17.909 11.6483C17.8986 11.644 17.9014 11.6448 17.91 11.6493C17.9106 11.6496 17.9333 11.661 17.9595 11.682C17.968 11.6888 18.0107 11.7224 18.0443 11.782C18.0627 11.8147 18.0898 11.8754 18.0891 11.9563C18.0883 12.0468 18.0529 12.1283 17.9982 12.1883C17.912 12.2832 17.8053 12.2964 17.7949 12.2981C17.7644 12.3028 17.7405 12.3023 17.7317 12.302C17.712 12.3013 17.6982 12.299 17.6976 12.2989C17.6933 12.2982 17.6958 12.2984 17.7101 12.3018L17.8706 11.6204C17.8518 11.616 17.8297 11.6111 17.8086 11.6077C17.7996 11.6063 17.7794 11.6032 17.7551 11.6024C17.7441 11.602 17.7183 11.6015 17.6864 11.6065C17.6747 11.6083 17.5671 11.622 17.4804 11.7173C17.4256 11.7776 17.39 11.8594 17.3892 11.9502C17.3885 12.0314 17.4157 12.0924 17.4343 12.1255C17.4684 12.1859 17.5119 12.2204 17.5217 12.2283C17.5505 12.2513 17.5776 12.2654 17.5841 12.2688C17.6046 12.2796 17.6259 12.2887 17.6399 12.2945C17.6993 12.3193 17.8048 12.3575 17.9258 12.4001C18.1741 12.4875 18.5299 12.6077 18.8276 12.7084C18.9771 12.7589 19.1119 12.8044 19.2126 12.8389C19.263 12.8561 19.3039 12.8702 19.3334 12.8806C19.3732 12.8947 19.3728 12.8953 19.3599 12.8893C19.358 12.8884 19.3423 12.8813 19.3235 12.8695C19.3176 12.8658 19.288 12.8476 19.2574 12.8158C19.24 12.7963 19.2011 12.7383 19.183 12.6986C19.1644 12.6297 19.1757 12.469 19.2138 12.3866C19.2589 12.3294 19.3535 12.2603 19.3947 12.2429C19.4203 12.2351 19.4634 12.2265 19.4805 12.2247C19.5114 12.2221 19.5355 12.2244 19.5426 12.2251C19.5606 12.2268 19.5742 12.2297 19.5765 12.2301C19.5875 12.2324 19.5923 12.234 19.5788 12.2302C19.5595 12.2248 19.5233 12.214 19.4652 12.1962C19.3505 12.1611 19.1608 12.102 18.8749 12.012L18.6647 12.6797Z" fill="#FFC107"/>
<path d="M16.9322 10.2789C18.6303 11.164 21.1746 10.1614 22.2346 9.54944C22.6197 9.11508 21.3658 8.77909 21.0479 8.96267C20.7935 9.10954 18.6909 8.06233 17.6713 7.52037C16.6742 6.89482 14.4794 5.58995 13.6769 5.37492C12.6738 5.10614 12.3378 6.36003 12.3198 7.43035C12.3018 8.50066 15.6783 9.94296 16.9322 10.2789Z" fill="white" stroke="#FFC107" stroke-width="0.3"/>
<path d="M19.3559 9.69757C19.5417 9.64441 19.7355 9.75197 19.7887 9.93782C19.8418 10.1237 19.7343 10.3174 19.5484 10.3706L19.3559 9.69757ZM15.8741 9.34411L15.7123 9.65448L15.8741 9.34411ZM16.8367 9.76381L16.953 9.43369L16.8367 9.76381ZM19.5484 10.3706C19.0759 10.5057 18.0241 10.5531 16.7205 10.0939L16.953 9.43369C18.1477 9.8545 19.049 9.78536 19.3559 9.69757L19.5484 10.3706ZM16.7205 10.0939C16.3989 9.98067 16.0613 9.83638 15.7123 9.65448L16.0358 9.03374C16.3552 9.2002 16.6624 9.33134 16.953 9.43369L16.7205 10.0939ZM15.7123 9.65448C15.4469 9.51617 15.2691 9.4229 15.1607 9.36527C15.1071 9.33679 15.068 9.31572 15.0433 9.30192C15.0345 9.297 15.0164 9.28686 15.0005 9.27631C14.9968 9.27392 14.984 9.26544 14.9692 9.25325C14.9633 9.24841 14.9444 9.2327 14.9242 9.20881C14.9133 9.19536 14.8888 9.15874 14.8762 9.13501C14.8593 9.09349 14.8413 8.97763 14.8499 8.9053C14.8812 8.82005 14.9868 8.69834 15.0488 8.66275C15.0898 8.64747 15.1583 8.63396 15.1846 8.63247C15.2289 8.6316 15.2631 8.6397 15.2703 8.64135C15.2928 8.64653 15.3102 8.65296 15.3139 8.65431C15.3406 8.66406 15.3792 8.68269 15.4007 8.69297C15.432 8.70794 15.4733 8.72803 15.5215 8.75171C15.6183 8.79914 15.7469 8.86278 15.8876 8.93238C16.1701 9.07218 16.5016 9.23616 16.7337 9.34741C16.8527 9.40446 16.9361 9.44306 16.974 9.4587C16.9844 9.46298 16.9819 9.46154 16.9725 9.45865C16.9719 9.45845 16.9478 9.45047 16.9144 9.44679C16.9036 9.44559 16.8496 9.43914 16.7837 9.45755C16.7476 9.46765 16.6855 9.49138 16.6288 9.54906C16.5654 9.61359 16.5328 9.69633 16.529 9.77744C16.5229 9.90547 16.589 9.99031 16.5952 9.99878C16.6134 10.0237 16.6307 10.0403 16.6371 10.0463C16.6515 10.0597 16.6629 10.0678 16.6634 10.0682C16.667 10.0707 16.6651 10.0692 16.6526 10.0614L17.0209 9.46618C17.0372 9.47629 17.0563 9.48845 17.0736 9.50096C17.081 9.5063 17.0975 9.51841 17.1152 9.535C17.1233 9.54255 17.1419 9.5604 17.1609 9.58648C17.1678 9.59605 17.2343 9.68178 17.2282 9.81048C17.2244 9.89193 17.1917 9.97494 17.1281 10.0397C17.0712 10.0976 17.0087 10.1215 16.9721 10.1317C16.9054 10.1504 16.8502 10.144 16.8377 10.1426C16.801 10.1385 16.772 10.1293 16.7649 10.1272C16.7428 10.1203 16.7214 10.1117 16.7074 10.1059C16.648 10.0814 16.5465 10.034 16.4311 9.97863C16.1942 9.86507 15.8582 9.69886 15.5771 9.55978C15.436 9.48994 15.3087 9.42697 15.2134 9.38021C15.1656 9.35679 15.1268 9.33789 15.0986 9.32441C15.0606 9.30625 15.0605 9.30699 15.0738 9.31185C15.0758 9.31259 15.0919 9.31862 15.1136 9.32359C15.1203 9.32514 15.1542 9.3332 15.1983 9.33233C15.2244 9.33084 15.2929 9.31735 15.3338 9.3021C15.3957 9.26653 15.5013 9.14486 15.5326 9.05968C15.5412 8.98739 15.5232 8.87161 15.5063 8.83017C15.4937 8.80652 15.4693 8.77 15.4586 8.75666C15.4385 8.73298 15.4198 8.71754 15.4144 8.71303C15.4004 8.70149 15.3888 8.69388 15.3868 8.69257C15.3774 8.68638 15.3728 8.68416 15.3851 8.69102C15.4025 8.70078 15.4357 8.71873 15.4892 8.74715C15.5949 8.80334 15.7706 8.89547 16.0358 9.03374L15.7123 9.65448Z" fill="#FFC107"/>
<path d="M4.18051 11.4084L10.7244 4.64909C11.7757 3.83367 12.5125 5.50724 12.1979 7.99623C11.9463 9.98743 10.0668 11.52 9.15851 12.0374C8.70435 12.2961 7.27466 12.9373 5.18911 13.4324C3.10355 13.9274 3.64773 12.2893 4.18051 11.4084Z" fill="white"/>
<path d="M15.0015 5.82174C14.9098 4.54579 16.4175 3.78803 17.1827 3.56865C17.5332 3.29684 18.5418 5.32085 18.8136 5.67133C19.0854 6.02181 20.2906 6.49013 20.8735 6.87989C21.4564 7.26964 22.3505 7.69872 20.094 8.04575C17.8375 8.39278 15.116 7.41668 15.0015 5.82174Z" fill="white"/>
<path d="M4.18051 11.4084L10.7244 4.64909C11.7757 3.83367 12.5125 5.50724 12.1979 7.99623C11.9463 9.98743 10.0668 11.52 9.15851 12.0374C8.70435 12.2961 7.27466 12.9373 5.18911 13.4324C3.10355 13.9274 3.64773 12.2893 4.18051 11.4084Z" stroke="#FFC107" stroke-width="0.3"/>
<path d="M15.0015 5.82174C14.9098 4.54579 16.4175 3.78803 17.1827 3.56865C17.5332 3.29684 18.5418 5.32085 18.8136 5.67133C19.0854 6.02181 20.2906 6.49013 20.8735 6.87989C21.4564 7.26964 22.3505 7.69872 20.094 8.04575C17.8375 8.39278 15.116 7.41668 15.0015 5.82174Z" stroke="#FFC107" stroke-width="0.3"/>
<path d="M16.2235 16.4441C16.3151 15.1681 14.8075 14.4104 14.0422 14.191C13.6918 13.9192 12.6832 15.9432 12.4114 16.2936C12.1396 16.6441 10.9344 17.1124 10.3515 17.5022C9.76853 17.892 8.87448 18.321 11.131 18.6681C13.3875 19.0151 16.109 18.039 16.2235 16.4441Z" fill="white" stroke="#FFC107" stroke-width="0.3"/>
<path d="M10.1749 9.31682C10.0688 7.83938 11.8145 6.96197 12.7007 6.70794C13.1064 6.39321 14.2743 8.73684 14.589 9.14266C14.9038 9.54848 16.2993 10.0908 16.9742 10.5421C17.6492 10.9934 18.6845 11.4902 16.0716 11.892C13.4588 12.2939 10.3076 11.1636 10.1749 9.31682Z" fill="white" stroke="#FFC107" stroke-width="0.3"/>
<path d="M16.4469 13.7074C16.3408 12.23 18.0865 11.3526 18.9726 11.0986C19.3784 10.7838 20.5463 13.1275 20.861 13.5333C21.1757 13.9391 22.5712 14.4814 23.2462 14.9327C23.9212 15.384 24.9564 15.8808 22.3436 16.2826C19.7308 16.6845 16.5795 15.5542 16.4469 13.7074Z" fill="white" stroke="#FFC107" stroke-width="0.3"/>
<path d="M12.0565 13.08C11.9504 11.6026 13.6961 10.7252 14.5823 10.4711C14.988 10.1564 16.1559 12.5 16.4706 12.9058C16.7853 13.3117 18.1808 13.8539 18.8558 14.3052C19.5308 14.7565 20.566 15.2534 17.9532 15.6552C15.3404 16.057 12.1892 14.9268 12.0565 13.08Z" fill="white" stroke="#FFC107" stroke-width="0.3"/>
<path d="M14.3493 14.8985C13.8475 12.6406 15.8127 9.98549 16.8581 8.94016C17.4853 8.62656 17.4853 10.1946 17.1717 10.5082C16.9208 10.759 17.4853 13.5396 17.7989 14.8985C18.217 16.2575 19.0533 19.2262 19.0533 20.2297C19.0533 21.4841 17.4853 21.4841 16.2309 21.1705C14.9765 20.8569 14.3493 16.4665 14.3493 14.8985Z" fill="white" stroke="#FFC107" stroke-width="0.3"/>
<path d="M15.7225 12.2152C15.822 12.0495 15.7682 11.8345 15.6025 11.735C15.4367 11.6356 15.2217 11.6893 15.1223 11.8551L15.7225 12.2152ZM15.1088 16.4255L14.7671 16.5015L15.1088 16.4255ZM14.9201 15.1711L15.269 15.1443L14.9201 15.1711ZM15.1223 11.8551C14.8261 12.3487 14.4438 13.5454 14.5711 15.198L15.269 15.1443C15.1506 13.6069 15.5149 12.5612 15.7225 12.2152L15.1223 11.8551ZM14.5711 15.198C14.6025 15.6052 14.6648 16.0408 14.7671 16.5015L15.4505 16.3496C15.3553 15.9216 15.2979 15.5187 15.269 15.1443L14.5711 15.198ZM14.7671 16.5015C14.8455 16.8543 14.8987 17.0907 14.932 17.2349C14.9485 17.3063 14.9607 17.3578 14.9688 17.3901C14.9719 17.4023 14.9775 17.424 14.9838 17.4429C14.9852 17.4472 14.9902 17.4619 14.9982 17.4795C15.0013 17.4865 15.0116 17.5089 15.0295 17.5346C15.0397 17.5486 15.0687 17.5817 15.0884 17.6001C15.1241 17.6272 15.2314 17.6746 15.3035 17.685C15.3939 17.6768 15.5388 17.6062 15.5892 17.5556C15.6146 17.52 15.6454 17.4572 15.6536 17.4322C15.666 17.3896 15.667 17.3545 15.6673 17.3471C15.6681 17.3239 15.6664 17.3053 15.666 17.3012C15.6634 17.2714 15.6546 17.2249 15.649 17.1947C15.6414 17.1539 15.6309 17.0997 15.6184 17.0361C15.5933 16.9085 15.5593 16.7387 15.5221 16.5528C15.4473 16.1796 15.3595 15.7411 15.3022 15.435C15.2729 15.2787 15.2535 15.1673 15.2468 15.1157C15.245 15.1019 15.2455 15.1026 15.2459 15.111C15.246 15.1139 15.2462 15.1197 15.246 15.1275C15.2458 15.1341 15.2453 15.1492 15.2423 15.1686C15.2407 15.1792 15.233 15.2329 15.1982 15.2917C15.1791 15.3239 15.1402 15.3778 15.0698 15.4176C14.9911 15.4621 14.9028 15.4721 14.8235 15.4548C14.6983 15.4276 14.6335 15.3419 14.627 15.3338C14.6077 15.3099 14.5963 15.2891 14.5923 15.2815C14.5871 15.2718 14.5837 15.2641 14.5821 15.2604C14.5803 15.2563 14.5792 15.2534 14.5788 15.2523C14.5778 15.2498 14.5797 15.2546 14.5849 15.272L15.2552 15.0703C15.2487 15.0485 15.2411 15.0245 15.2328 15.0029C15.2293 14.9935 15.2216 14.9738 15.2099 14.952C15.2046 14.942 15.1921 14.9193 15.1717 14.8941C15.1642 14.8848 15.0985 14.7984 14.9725 14.7709C14.8928 14.7535 14.8041 14.7636 14.7251 14.8083C14.6544 14.8483 14.6151 14.9025 14.5958 14.9352C14.5604 14.9949 14.5523 15.05 14.5504 15.0626C14.5447 15.0994 14.5461 15.1304 14.5464 15.1385C14.5474 15.163 14.5503 15.188 14.5526 15.2058C14.5623 15.2803 14.5856 15.4115 14.6141 15.5639C14.6725 15.8752 14.7613 16.3187 14.8357 16.6903C14.873 16.8767 14.9067 17.0451 14.9315 17.1711C14.9439 17.2342 14.9539 17.2857 14.9609 17.3231C14.9699 17.3712 14.9699 17.3755 14.9687 17.3629C14.9686 17.3609 14.9669 17.344 14.9677 17.3218C14.968 17.315 14.9689 17.2802 14.9812 17.2379C14.9894 17.213 15.0201 17.1504 15.0454 17.1148C15.0958 17.0643 15.2407 16.9937 15.331 16.9855C15.4031 16.9959 15.5103 17.0433 15.5459 17.0703C15.5655 17.0886 15.5944 17.1217 15.6045 17.1355C15.6222 17.1609 15.6323 17.1829 15.6352 17.1893C15.6427 17.2057 15.6469 17.2188 15.6476 17.2208C15.6509 17.2307 15.6515 17.2341 15.6474 17.2181C15.6412 17.1938 15.6305 17.1489 15.6141 17.0776C15.5815 16.9363 15.5289 16.7024 15.4505 16.3496L14.7671 16.5015Z" fill="#FFC107"/>
<path d="M4.94132 15.526C4.43956 13.2681 6.40477 10.6129 7.4501 9.5676C8.07729 9.254 8.07731 10.822 7.76371 11.1356C7.51283 11.3865 8.07731 14.167 8.3909 15.526C8.80904 16.8849 9.6453 19.8536 9.6453 20.8571C9.6453 22.1115 8.07731 22.1115 6.82291 21.7979C5.56852 21.4843 4.94132 17.094 4.94132 15.526Z" fill="white" stroke="#FFC107" stroke-width="0.3"/>
<path d="M6.31456 12.8422C6.41401 12.6764 6.36026 12.4614 6.19451 12.362C6.02876 12.2625 5.81377 12.3163 5.71432 12.482L6.31456 12.8422ZM5.70084 17.0525L5.35917 17.1284L5.70084 17.0525ZM5.51212 15.7981L5.86109 15.7712L5.51212 15.7981ZM5.71432 12.482C5.41812 12.9757 5.03588 14.1723 5.16315 15.825L5.86109 15.7712C5.74269 14.2338 6.10699 13.1881 6.31456 12.8422L5.71432 12.482ZM5.16315 15.825C5.19451 16.2321 5.25681 16.6678 5.35917 17.1284L6.0425 16.9766C5.94738 16.5485 5.88992 16.1457 5.86109 15.7712L5.16315 15.825ZM5.35917 17.1284C5.43759 17.4813 5.49075 17.7177 5.52402 17.8619C5.5405 17.9333 5.55271 17.9848 5.56088 18.017C5.56398 18.0292 5.56951 18.051 5.57583 18.0699C5.57728 18.0742 5.5822 18.0889 5.59019 18.1064C5.59337 18.1134 5.60365 18.1358 5.62152 18.1616C5.63172 18.1755 5.66074 18.2087 5.68041 18.227C5.71615 18.2541 5.82339 18.3015 5.8955 18.3119C5.98595 18.3037 6.13087 18.2332 6.18128 18.1825C6.20665 18.1469 6.23745 18.0842 6.24569 18.0592C6.25801 18.0166 6.25903 17.9814 6.2593 17.974C6.26013 17.9508 6.25841 17.9322 6.25805 17.9281C6.25541 17.8983 6.24666 17.8518 6.24104 17.8217C6.23342 17.7808 6.22294 17.7267 6.21042 17.663C6.18535 17.5355 6.15133 17.3657 6.11409 17.1798C6.03935 16.8066 5.95156 16.368 5.8942 16.0619C5.86492 15.9057 5.84556 15.7942 5.83886 15.7427C5.83707 15.7288 5.83758 15.7296 5.83791 15.7379C5.83802 15.7408 5.8382 15.7466 5.83802 15.7544C5.83787 15.761 5.83734 15.7761 5.83436 15.7956C5.83273 15.8062 5.82504 15.8598 5.79025 15.9186C5.77117 15.9509 5.73219 16.0047 5.66183 16.0445C5.58311 16.0891 5.49481 16.0991 5.4155 16.0818C5.29034 16.0545 5.22556 15.9688 5.21907 15.9608C5.19975 15.9368 5.18838 15.916 5.18436 15.9085C5.17916 15.8987 5.17576 15.8911 5.17415 15.8874C5.17237 15.8833 5.17124 15.8804 5.17081 15.8792C5.16988 15.8768 5.17172 15.8815 5.17696 15.8989L5.84728 15.6972C5.84072 15.6755 5.8331 15.6514 5.82487 15.6298C5.82131 15.6205 5.81361 15.6008 5.80195 15.5789C5.79663 15.569 5.78409 15.5463 5.76373 15.5211C5.7562 15.5117 5.69051 15.4253 5.56456 15.3979C5.48486 15.3805 5.39619 15.3906 5.31713 15.4353C5.24644 15.4753 5.20716 15.5295 5.18781 15.5622C5.15247 15.6219 5.14436 15.677 5.14243 15.6896C5.13679 15.7264 5.13813 15.7573 5.13845 15.7654C5.13942 15.79 5.14238 15.815 5.14468 15.8327C5.15435 15.9073 5.17762 16.0384 5.20618 16.1909C5.26452 16.5022 5.3533 16.9456 5.42772 17.3172C5.46507 17.5037 5.49879 17.672 5.52356 17.798C5.53597 17.8611 5.54593 17.9126 5.55292 17.9501C5.56189 17.9982 5.56189 18.0025 5.56078 17.9898C5.5606 17.9879 5.55896 17.9709 5.55975 17.9488C5.56 17.9419 5.56097 17.9072 5.57322 17.8648C5.58142 17.84 5.61217 17.7773 5.63748 17.7418C5.68785 17.6912 5.8327 17.6207 5.92309 17.6125C5.99512 17.6229 6.10229 17.6703 6.13795 17.6973C6.15753 17.7155 6.18647 17.7486 6.19657 17.7624C6.21424 17.7879 6.2243 17.8099 6.22722 17.8163C6.2347 17.8327 6.23899 17.8457 6.23967 17.8478C6.24297 17.8576 6.24349 17.8611 6.23942 17.845C6.23328 17.8208 6.22256 17.7758 6.20611 17.7045C6.17353 17.5633 6.12089 17.3293 6.0425 16.9766L5.35917 17.1284Z" fill="#FFC107"/>
<path d="M5.35987 16.0718L11.6487 9.07458C12.6691 8.22075 13.4674 9.86587 13.2453 12.3648C13.0677 14.364 11.2463 15.9652 10.3578 16.5159C9.91351 16.7912 8.50857 17.485 6.44279 18.057C4.37702 18.629 4.86011 16.9718 5.35987 16.0718Z" fill="white" stroke="#FFC107" stroke-width="0.3"/>
<path d="M12.0735 12.6621C11.969 13.4984 11.2582 15.3591 9.25116 16.1117" stroke="#FFC107" stroke-width="0.7" stroke-linecap="round"/>
<path d="M12.4025 20.0046L12.7078 12.2842C12.9049 11.2095 14.2722 11.8306 15.4424 13.5265C16.3785 14.8831 16.067 16.8503 15.7942 17.6643C15.6579 18.0713 15.1337 19.2465 14.128 20.6914C13.1224 22.1363 12.5587 20.8355 12.4025 20.0046Z" fill="white" stroke="#FFC107" stroke-width="0.3"/>
<path d="M14.8578 14.329C15.2303 14.9123 15.7568 16.4611 14.883 17.9893" stroke="#FFC107" stroke-width="0.7" stroke-linecap="round"/>
<path d="M18.7322 15.6856L24.664 18.7012C25.4342 19.242 24.4564 20.0886 22.7084 20.3944C21.31 20.639 19.8826 19.6877 19.3437 19.1815C19.0743 18.9284 18.3431 18.0955 17.5741 16.7889C16.8051 15.4822 18.0258 15.5089 18.7322 15.6856Z" fill="white" stroke="#FFC107" stroke-width="0.3"/>
<path d="M22.2905 19.648C21.7001 19.7297 20.2987 19.5847 19.4171 18.3512" stroke="#FFC107" stroke-width="0.7" stroke-linecap="round"/>
<path d="M10.2342 20.7451C8.69488 19.9553 8.10541 17.5556 8.0031 16.4546C8.12222 15.9437 9.02477 16.6928 9.05546 17.0231C9.08002 17.2874 10.9502 18.2908 11.8822 18.7595C12.8642 19.168 14.9725 20.1049 15.5501 20.5843C16.2722 21.1836 15.5231 22.0861 14.7433 22.6584C13.9636 23.2306 11.1368 21.4942 10.2342 20.7451Z" fill="white" stroke="#FFC107" stroke-width="0.3"/>
<path d="M9.42885 18.6435C9.36482 18.4611 9.16506 18.3652 8.98267 18.4292C8.80029 18.4933 8.70434 18.693 8.76837 18.8754L9.42885 18.6435ZM11.4759 21.0374L11.3161 21.3488L11.4759 21.0374ZM10.6637 20.5468L10.8659 20.2611L10.6637 20.5468ZM8.76837 18.8754C8.91821 19.3022 9.43759 20.1078 10.4615 20.8324L10.8659 20.2611C9.9363 19.6032 9.52164 18.9078 9.42885 18.6435L8.76837 18.8754ZM10.4615 20.8324C10.7143 21.0113 10.9983 21.1857 11.3161 21.3488L11.6357 20.726C11.3476 20.5782 11.0918 20.421 10.8659 20.2611L10.4615 20.8324ZM11.3161 21.3488C11.5567 21.4722 11.7185 21.5547 11.8177 21.6046C11.8667 21.6293 11.9029 21.6472 11.9263 21.6584C11.9344 21.6622 11.9525 21.6708 11.9699 21.6776C11.9739 21.6791 11.9881 21.6847 12.0066 21.6897C12.0139 21.6917 12.0377 21.6981 12.0688 21.7007C12.0861 21.7018 12.1301 21.7007 12.1568 21.6972C12.2004 21.687 12.3054 21.6348 12.3594 21.586C12.4109 21.5111 12.4492 21.3546 12.4424 21.2835C12.4312 21.2412 12.4026 21.1774 12.3886 21.1552C12.3637 21.1185 12.3374 21.0953 12.3319 21.0904C12.3147 21.075 12.2994 21.0646 12.2963 21.0624C12.2734 21.0466 12.2377 21.0269 12.2197 21.0169C12.1921 21.0015 12.1557 20.9815 12.113 20.9583C12.0274 20.9117 11.9133 20.8501 11.7885 20.7827C11.5378 20.6474 11.244 20.4887 11.041 20.3758C10.9366 20.3178 10.8655 20.2769 10.835 20.2577C10.8266 20.2523 10.8301 20.2541 10.8383 20.2605C10.8391 20.2611 10.8598 20.2763 10.8822 20.3015C10.8895 20.3097 10.9259 20.3501 10.949 20.4145C10.9617 20.4499 10.9782 20.5143 10.9639 20.5939C10.9479 20.683 10.8992 20.7574 10.8352 20.8074C10.7342 20.8863 10.6267 20.8815 10.6162 20.8813C10.5852 20.8809 10.5616 20.8763 10.5529 20.8745C10.5334 20.8705 10.5199 20.8658 10.5189 20.8654C10.514 20.8638 10.5153 20.864 10.5273 20.8691L10.8002 20.2244C10.784 20.2176 10.7642 20.2095 10.7447 20.2029C10.7365 20.2001 10.7174 20.1937 10.6938 20.1888C10.6831 20.1866 10.6579 20.1818 10.6257 20.1814C10.6139 20.1812 10.5056 20.1766 10.4041 20.2559C10.3399 20.3061 10.291 20.3807 10.2749 20.4701C10.2606 20.55 10.2772 20.6147 10.29 20.6504C10.3133 20.7156 10.3504 20.7569 10.3587 20.7663C10.3831 20.7937 10.4072 20.812 10.4128 20.8163C10.4307 20.83 10.4493 20.8419 10.461 20.8493C10.511 20.881 10.5998 20.9314 10.7008 20.9876C10.9084 21.103 11.2067 21.2641 11.4559 21.3987C11.5812 21.4663 11.694 21.5272 11.7782 21.573C11.8204 21.596 11.8545 21.6147 11.879 21.6284C11.913 21.6473 11.9107 21.6468 11.8984 21.6384C11.8966 21.6371 11.8823 21.6274 11.8657 21.6126C11.8605 21.608 11.8344 21.585 11.8096 21.5485C11.7957 21.5263 11.7671 21.4626 11.7559 21.4204C11.7492 21.3493 11.7874 21.1928 11.8388 21.118C11.8929 21.0692 11.9978 21.017 12.0413 21.0068C12.0679 21.0034 12.1119 21.0023 12.129 21.0033C12.1599 21.006 12.1833 21.0123 12.1902 21.0142C12.2077 21.019 12.2207 21.0241 12.223 21.0249C12.2338 21.0291 12.239 21.0319 12.2273 21.0264C12.2114 21.0188 12.1811 21.0039 12.1322 20.9793C12.0357 20.9307 11.8762 20.8494 11.6357 20.726L11.3161 21.3488Z" fill="#FFC107"/>
<circle cx="17.3043" cy="6.30435" r="0.204348" stroke="#FFC107" stroke-width="0.2"/>
<circle cx="9.30435" cy="9.30435" r="0.204348" stroke="#FFC107" stroke-width="0.2"/>
<circle cx="5.30435" cy="8.30435" r="0.204348" stroke="#FFC107" stroke-width="0.2"/>
</svg>
