<svg width="28" height="28" viewBox="0 0 28 28" fill="none" xmlns="http://www.w3.org/2000/svg">
<path d="M9.52 20.6099C9.52 20.6099 10.19 22.9099 6.63 21.9599C5.08 21.3299 4.85 15.4999 4.8 13.7299C4.75 11.9599 6.88999 9.28986 7.38999 9.72986C7.88999 10.1699 7.62999 10.7899 7.63999 11.1199C7.64999 11.4499 7.80999 13.1199 7.80999 13.1199" stroke="#FFC107" stroke-width="0.3" stroke-linecap="round"/>
<path d="M13.22 12C13.21 11.3279 13.1363 10.6582 13 10C12.24 8.12002 11.32 9.71002 11.32 9.71002L8.67 12.53C4.88 15.88 5 17.6 5 17.6C5.13 18.12 5.23 18.83 8.11 17.72" stroke="#FFC107" stroke-width="0.3"/>
<path d="M12.57 14.4902C12.57 14.4902 10.84 16.8102 9.06 17.3402" stroke="#FFC107" stroke-width="0.3"/>
<path d="M12.38 20.0798L12.68 12.3598C12.88 11.2898 14.25 11.9098 15.42 13.5998C15.7621 14.2279 15.9698 14.9203 16.0301 15.633C16.0904 16.3457 16.0018 17.0631 15.77 17.7398C15.3374 18.804 14.7766 19.8114 14.1 20.7398C13.1 22.2098 12.53 20.9098 12.38 20.0798Z" stroke="#FFC107" stroke-width="0.3"/>
<path d="M14.83 14.4102C15.1503 14.9669 15.3188 15.5979 15.3188 16.2402C15.3188 16.8824 15.1503 17.5134 14.83 18.0702" stroke="#FFC107" stroke-width="0.7" stroke-linecap="round"/>
<path d="M21.4141 15.8301C20.7718 15.8291 20.141 15.6595 19.5848 15.3384C19.0286 15.0173 18.5664 14.5558 18.2444 14.0001" stroke="#FFC107" stroke-width="0.7" stroke-linecap="round"/>
<path d="M14.49 20.19C14.37 20.38 14.24 20.5699 14.1 20.7699C13.1 22.2099 12.53 20.9099 12.38 20.0799V19.2099L11.86 18.9999C10.93 18.5299 9.06003 17.5299 9.03003 17.2599C9.00003 16.9899 8.10003 16.18 8.03003 16.69C8.13003 17.79 8.72003 20.1899 10.26 20.9799C11.16 21.7299 13.99 23.4699 14.77 22.8999C15.55 22.3299 16.3 21.4199 15.58 20.8199C15.2359 20.5784 14.8712 20.3675 14.49 20.19V20.19Z" stroke="#FFC107" stroke-width="0.3"/>
<path d="M4.68 13.72C4.68 13.72 2.74 14.05 4.04 11.72C5.34 9.39002 9.27 6.50002 10.27 5.23002C11.27 3.96002 12.35 4.73002 12.21 6.86002" stroke="#FFC107" stroke-width="0.3"/>
<path d="M10.44 10.42C10.44 10.42 8.59998 8.29004 12.68 6.79004C12.68 6.79004 13.33 6.79004 13.76 8.19004C13.9394 8.64344 14.2158 9.05207 14.57 9.38722C14.9241 9.72237 15.3474 9.97591 15.81 10.13" stroke="#FFC107" stroke-width="0.3" stroke-linecap="round"/>
<path d="M14.49 12.53C15.0138 11.5277 15.6051 10.5621 16.26 9.64005C16.82 9.01005 17.33 8.64005 17.17 10.41C16.9235 12.1662 17.1443 13.9563 17.81 15.6" stroke="#FFC107" stroke-width="0.3"/>
<path d="M14.9 19.5801L15.46 20.7501" stroke="#FFC107" stroke-width="0.3" stroke-linecap="round"/>
<path d="M15.78 21.1701C16.2169 21.3502 16.6791 21.4615 17.15 21.5001C17.93 21.5601 18.93 21.2601 19.01 20.3501C19.045 19.9476 19.045 19.5427 19.01 19.1401" stroke="#FFC107" stroke-width="0.3"/>
<path d="M18.08 17.89C18.08 17.89 14.21 13.38 20 16.57L24 18.57C24 18.57 26.79 19.5 23 20.51C23 20.53 20.13 21.32 18.08 17.89Z" stroke="#FFC107" stroke-width="0.3"/>
<path d="M17.08 12.2199C17.08 12.2199 19.08 10.1299 19.79 12.1599C19.9724 12.712 20.2688 13.2196 20.66 13.6499C20.7779 13.7786 20.9165 13.8867 21.07 13.9699C21.28 14.0799 21.54 14.1099 21.76 14.1999C21.98 14.2899 22.27 14.4399 22.52 14.5699C22.8294 14.7318 23.1268 14.9156 23.41 15.1199C23.6412 15.2613 23.8229 15.4709 23.93 15.7199C24.13 16.3899 22.63 16.4599 22.28 16.4899H19.79" stroke="#FFC107" stroke-width="0.3"/>
<path d="M17.17 10.8402C17.17 10.8402 17.69 10.7802 17.73 11.6802" stroke="#FFC107" stroke-width="0.3"/>
<path d="M12.22 6.50976C12.22 6.50976 12.62 4.42976 14.71 5.94976C16.8 7.46976 19.71 8.94976 20.52 9.05976C21.33 9.16976 23.52 9.44976 21.66 10.1598C20.3802 10.7378 18.983 11.0083 17.58 10.9498" stroke="#FFC107" stroke-width="0.3" stroke-linecap="round"/>
<path d="M21 10.4199C21 10.4199 25.05 10.6699 23.34 12.7799C23.0798 13.1838 22.6946 13.4913 22.2432 13.6556C21.7917 13.82 21.2989 13.832 20.84 13.6899" stroke="#FFC107" stroke-width="0.3" stroke-linecap="round"/>
<path d="M14.94 6C14.94 6 14.47 4.66 17.12 3.75C17.19 3.75 17.32 3.8 17.38 3.83C17.6756 4.01397 17.928 4.25956 18.12 4.55C18.3442 4.84368 18.5449 5.15465 18.72 5.48C18.96 5.92 19.34 6.01 19.72 6.22C20.1 6.43 20.28 6.51 20.55 6.67C20.82 6.83 21.55 7.25 21.55 7.67C21.55 7.89 21.37 8.02 21.19 8.1C20.7709 8.25793 20.3278 8.3425 19.88 8.35C19.53 8.35 19.19 8.35 18.88 8.35" stroke="#FFC107" stroke-width="0.3" stroke-linecap="round"/>
<path d="M12 12.6899C11.993 13.4745 11.732 14.2357 11.256 14.8595C10.7801 15.4832 10.1149 15.936 9.35999 16.1499" stroke="#FFC107" stroke-width="0.7" stroke-linecap="round"/>
<path d="M22.32 19.5999C21.5762 19.6437 20.8374 19.453 20.2077 19.0548C19.578 18.6565 19.0892 18.0707 18.81 17.3799" stroke="#FFC107" stroke-width="0.7" stroke-linecap="round"/>
<path d="M5.92998 15.0002C5.62688 14.5891 5.46924 14.0888 5.48191 13.5782C5.49458 13.0676 5.67686 12.5757 5.99998 12.1802" stroke="#FFC107" stroke-width="0.7" stroke-linecap="round"/>
<path d="M13.77 6.89014C14.0373 7.7467 14.5233 8.51876 15.18 9.13014" stroke="#FFC107" stroke-width="0.7" stroke-linecap="round"/>
<path d="M9.82003 3.89006C9.98019 3.89006 10.11 3.76022 10.11 3.60006C10.11 3.4399 9.98019 3.31006 9.82003 3.31006C9.65987 3.31006 9.53003 3.4399 9.53003 3.60006C9.53003 3.76022 9.65987 3.89006 9.82003 3.89006Z" stroke="#FFC107" stroke-width="0.3" stroke-linecap="round"/>
<path d="M5.27998 8.79982C5.41253 8.79982 5.51998 8.69237 5.51998 8.55982C5.51998 8.42728 5.41253 8.31982 5.27998 8.31982C5.14743 8.31982 5.03998 8.42728 5.03998 8.55982C5.03998 8.69237 5.14743 8.79982 5.27998 8.79982Z" stroke="#FFC107" stroke-width="0.3" stroke-linecap="round"/>
<path d="M17.31 6.64986C17.4591 6.64986 17.58 6.52898 17.58 6.37986C17.58 6.23075 17.4591 6.10986 17.31 6.10986C17.1609 6.10986 17.04 6.23075 17.04 6.37986C17.04 6.52898 17.1609 6.64986 17.31 6.64986Z" stroke="#FFC107" stroke-width="0.3" stroke-linecap="round"/>
<path d="M24.25 10.5101C24.3053 10.5101 24.35 10.4653 24.35 10.4101C24.35 10.3548 24.3053 10.3101 24.25 10.3101C24.1948 10.3101 24.15 10.3548 24.15 10.4101C24.15 10.4653 24.1948 10.5101 24.25 10.5101Z" stroke="#FFC107" stroke-width="0.3" stroke-linecap="round"/>
<path d="M16.58 24.57C16.8782 24.57 17.12 24.3774 17.12 24.14C17.12 23.9025 16.8782 23.71 16.58 23.71C16.2817 23.71 16.04 23.9025 16.04 24.14C16.04 24.3774 16.2817 24.57 16.58 24.57Z" stroke="#FFC107" stroke-width="0.3" stroke-linecap="round"/>
<path d="M9.05999 24.2698C9.13179 24.2698 9.18999 24.2116 9.18999 24.1398C9.18999 24.068 9.13179 24.0098 9.05999 24.0098C8.9882 24.0098 8.92999 24.068 8.92999 24.1398C8.92999 24.2116 8.9882 24.2698 9.05999 24.2698Z" stroke="#FFC107" stroke-width="0.3" stroke-linecap="round"/>
<path d="M3.45 18.9498C3.56046 18.9498 3.65 18.8603 3.65 18.7498C3.65 18.6393 3.56046 18.5498 3.45 18.5498C3.33954 18.5498 3.25 18.6393 3.25 18.7498C3.25 18.8603 3.33954 18.9498 3.45 18.9498Z" stroke="#FFC107" stroke-width="0.3" stroke-linecap="round"/>
<path d="M9.22998 9.88977C9.33491 9.88977 9.41998 9.8047 9.41998 9.69977C9.41998 9.59483 9.33491 9.50977 9.22998 9.50977C9.12504 9.50977 9.03998 9.59483 9.03998 9.69977C9.03998 9.8047 9.12504 9.88977 9.22998 9.88977Z" stroke="#FFC107" stroke-width="0.3" stroke-linecap="round"/>
<path d="M14 27.4598C21.5 27.4598 27.58 21.3798 27.58 13.8798C27.58 6.37978 21.5 0.299805 14 0.299805C6.49996 0.299805 0.419983 6.37978 0.419983 13.8798C0.419983 21.3798 6.49996 27.4598 14 27.4598Z" stroke="#FFC107" stroke-width="0.3"/>
<path d="M14 26.26C20.8373 26.26 26.38 20.7173 26.38 13.88C26.38 7.04272 20.8373 1.5 14 1.5C7.16271 1.5 1.62 7.04272 1.62 13.88C1.62 20.7173 7.16271 26.26 14 26.26Z" stroke="#FFC107" stroke-width="0.3"/>
</svg>
