<svg width="28" height="28" viewBox="0 0 28 28" fill="none" xmlns="http://www.w3.org/2000/svg">
<g clip-path="url(#clip0)">
<path d="M5.86642 9.42041C4.19976 12.2104 1.76642 19.2552 5.36642 25.1142C7.86639 26.1605 16.3664 28.7761 22.3664 25.1142C25.3664 18.3136 23.3664 12.5592 22.3664 9.94354" stroke="#FFC107" stroke-width="0.3"/>
<path d="M21.8664 1.05018C18 -0.51904 8.36636 -0.170449 6.36636 1.05018C5.56634 1.88729 6.03304 4.1889 6.36639 5.23506C7 5.75848 4.56637 5.96744 3.36637 8.89695C2.16637 11.8265 4.1997 10.1176 5.36636 8.89695C5.53303 8.72257 5.86636 8.47844 5.86636 8.89695C5.86636 9.42007 6.36636 11.5126 8.36636 9.42007C10.3664 7.32757 10.8664 8.89695 11.3664 9.9432C11.8664 10.9895 14.3664 12.5588 14.3664 9.9432C14.3664 7.32757 16.3664 8.89695 16.3664 9.9432C16.5 10.9895 18.3664 12.0357 18.8664 9.9432C19.3664 7.85069 19.8664 9.17755 21.3664 9.70067C27.3664 11.7932 22.3664 6.56192 21.3664 5.51566C21.8664 4.46941 23.431 1.68519 21.8664 1.05018Z" stroke="#FFC107" stroke-width="0.3"/>
<path d="M12.7724 7.85068C13.2643 7.20737 13.825 6.23735 14.0581 5.25521M14.0581 5.25521C14.3666 3.95547 14.1014 2.63452 12.3438 2.02155C9.2581 0.945406 12.201 3.72893 14.0581 5.25521Z" stroke="#FFC107" stroke-width="0.7" stroke-linecap="round"/>
<path d="M15.8831 7.64365C15.3912 7.00034 14.8305 6.03031 14.5974 5.04818M14.5974 5.04818C14.2888 3.74844 14.554 2.42749 16.3116 1.81452C19.3974 0.738374 16.4545 3.5219 14.5974 5.04818Z" stroke="#FFC107" stroke-width="0.7" stroke-linecap="round"/>
<path d="M6.62446 4.90823C6.44379 4.83949 6.24161 4.93023 6.17288 5.1109C6.10414 5.29156 6.19488 5.49374 6.37554 5.56248L6.62446 4.90823ZM21.5753 5.57716C21.7641 5.53558 21.8834 5.34884 21.8418 5.16006C21.8002 4.97129 21.6135 4.85196 21.4247 4.89354L21.5753 5.57716ZM6.37554 5.56248C8.64382 6.42545 11.6604 6.59697 14.4777 6.47434C17.3039 6.35131 19.9741 5.92984 21.5753 5.57716L21.4247 4.89354C19.8592 5.23836 17.2294 5.6539 14.4473 5.775C11.6562 5.89649 8.75618 5.71925 6.62446 4.90823L6.37554 5.56248Z" fill="#FFC107"/>
<path d="M9.835 20.1061C9.65167 20.1061 9.50167 20.0745 9.385 20.0111C9.34833 19.9911 9.33 19.9661 9.33 19.9361C9.33 19.9061 9.34333 19.8761 9.37 19.8461C9.39333 19.8161 9.42167 19.7978 9.455 19.7911C9.56833 19.8345 9.71 19.8561 9.88 19.8561C10.2433 19.8561 10.5367 19.6561 10.76 19.2561C10.9833 18.8561 11.1483 18.3978 11.255 17.8811C11.3617 17.3611 11.4617 16.7378 11.555 16.0111C11.565 15.9245 11.5733 15.8478 11.58 15.7811C11.59 15.7145 11.5983 15.6578 11.605 15.6111C11.615 15.5745 11.6333 15.5461 11.66 15.5261C11.6867 15.5061 11.715 15.4961 11.745 15.4961C11.8017 15.4961 11.83 15.5261 11.83 15.5861L11.725 16.3361C11.5383 17.6395 11.3667 18.5328 11.21 19.0161C11.0833 19.4095 10.905 19.6895 10.675 19.8561C10.4417 20.0228 10.1617 20.1061 9.835 20.1061ZM11.805 15.0661C11.7517 15.0661 11.7117 15.0595 11.685 15.0461H11.665C11.5683 15.0461 11.52 14.9895 11.52 14.8761C11.52 14.8195 11.5433 14.7678 11.59 14.7211C11.64 14.6745 11.6933 14.6511 11.75 14.6511C11.8067 14.6511 11.86 14.6711 11.91 14.7111C11.9667 14.7678 11.995 14.8228 11.995 14.8761C11.995 14.9261 11.975 14.9711 11.935 15.0111C11.8983 15.0478 11.855 15.0661 11.805 15.0661ZM13.7809 18.0461C13.7042 18.0461 13.6325 18.0061 13.5659 17.9261C13.5025 17.8428 13.4709 17.7545 13.4709 17.6611C13.4709 17.4545 13.5259 17.1045 13.6359 16.6111C13.5525 16.7911 13.4442 16.9761 13.3109 17.1661C13.1809 17.3528 13.0525 17.5178 12.9259 17.6611C12.7992 17.8045 12.7059 17.8978 12.6459 17.9411C12.5625 18.0045 12.4709 18.0361 12.3709 18.0361C12.1809 18.0361 12.0859 17.9161 12.0859 17.6761C12.0859 17.4428 12.1742 17.1528 12.3509 16.8061C12.5275 16.4561 12.7375 16.1528 12.9809 15.8961C13.2242 15.6428 13.4209 15.5161 13.5709 15.5161C13.7242 15.5161 13.8109 15.5828 13.8309 15.7161C13.8409 15.7561 13.8459 15.7995 13.8459 15.8461C13.8625 15.8361 13.8809 15.8311 13.9009 15.8311C13.9775 15.8311 14.0159 15.8678 14.0159 15.9411V15.9611L13.9559 16.1811C13.9092 16.3478 13.8609 16.5945 13.8109 16.9211C13.7609 17.2478 13.7359 17.5195 13.7359 17.7361L13.7859 17.7661C13.8659 17.8161 13.9059 17.8661 13.9059 17.9161C13.9059 17.9495 13.8942 17.9795 13.8709 18.0061C13.8475 18.0328 13.8175 18.0461 13.7809 18.0461ZM12.4109 17.7761C12.4475 17.7761 12.4775 17.7645 12.5009 17.7411C12.8409 17.4511 13.1425 17.0495 13.4059 16.5361C13.5192 16.3228 13.5892 16.1828 13.6159 16.1161C13.6459 16.0495 13.6609 15.9845 13.6609 15.9211C13.6609 15.8878 13.6525 15.8578 13.6359 15.8311C13.6192 15.8045 13.5975 15.7911 13.5709 15.7911C13.5375 15.7911 13.4942 15.8061 13.4409 15.8361C13.3075 15.9061 13.1492 16.0545 12.9659 16.2811C12.7859 16.5078 12.6375 16.7478 12.5209 17.0011C12.3975 17.2578 12.3359 17.4861 12.3359 17.6861C12.3359 17.7461 12.3609 17.7761 12.4109 17.7761ZM14.572 18.1061C14.5386 18.1061 14.5103 18.0995 14.487 18.0861C14.4636 18.0728 14.452 18.0561 14.452 18.0361C14.482 17.9428 14.5053 17.8461 14.522 17.7461C14.5453 17.6228 14.572 17.5195 14.602 17.4361C14.732 16.9228 14.8453 16.3378 14.942 15.6811L14.957 15.5961C14.957 15.5728 14.9803 15.5345 15.027 15.4811C15.057 15.4678 15.082 15.4611 15.102 15.4611C15.1453 15.4611 15.1753 15.4895 15.192 15.5461V15.5861C15.1886 15.8061 15.152 16.0645 15.082 16.3611L14.957 16.8861L15.077 16.6261C15.2503 16.2195 15.417 15.9261 15.577 15.7461C15.727 15.5761 15.8936 15.4911 16.077 15.4911C16.1736 15.4911 16.2536 15.5311 16.317 15.6111C16.3836 15.6911 16.417 15.7861 16.417 15.8961V15.9361C16.4136 15.9461 16.412 15.9595 16.412 15.9761C16.592 15.7561 16.7803 15.6061 16.977 15.5261C17.0403 15.4995 17.102 15.4861 17.162 15.4861C17.2253 15.4861 17.2836 15.5161 17.337 15.5761C17.3903 15.6361 17.417 15.7128 17.417 15.8061C17.417 15.9895 17.3803 16.2078 17.307 16.4611C17.2603 16.6145 17.2236 16.7295 17.197 16.8061C17.037 17.2795 16.9486 17.5995 16.932 17.7661C16.9286 17.7961 16.9236 17.8345 16.917 17.8811C16.9103 17.9245 16.9053 17.9511 16.902 17.9611C16.8753 18.0411 16.8303 18.0811 16.767 18.0811C16.6903 18.0811 16.652 17.9995 16.652 17.8361C16.652 17.7361 16.6703 17.6261 16.707 17.5061C16.737 17.4161 16.7686 17.3145 16.802 17.2011C16.812 17.1611 16.8436 17.0645 16.897 16.9111C16.9736 16.6945 17.0336 16.5111 17.077 16.3611C17.1203 16.2111 17.1503 16.0461 17.167 15.8661C17.167 15.8028 17.1586 15.7645 17.142 15.7511C17.1286 15.7345 17.0986 15.7261 17.052 15.7261C17.002 15.7261 16.932 15.7561 16.842 15.8161C16.7553 15.8761 16.6686 15.9561 16.582 16.0561C16.382 16.2828 16.2286 16.5761 16.122 16.9361C16.0886 17.0595 16.0603 17.1478 16.037 17.2011C15.927 17.5345 15.8586 17.7511 15.832 17.8511C15.8053 17.9578 15.7836 18.0211 15.767 18.0411C15.747 18.0678 15.717 18.0811 15.677 18.0811C15.6003 18.0811 15.5586 18.0395 15.552 17.9561C15.5853 17.7228 15.632 17.5161 15.692 17.3361C15.752 17.1561 15.827 16.9545 15.917 16.7311C15.9736 16.5845 16.022 16.4378 16.062 16.2911C16.1053 16.1411 16.127 16.0145 16.127 15.9111C16.127 15.7978 16.092 15.7411 16.022 15.7411C15.9053 15.7411 15.772 15.8511 15.622 16.0711C15.472 16.2878 15.3336 16.5295 15.207 16.7961C15.0803 17.0595 14.9986 17.2461 14.962 17.3561C14.9386 17.4195 14.9203 17.4711 14.907 17.5111C14.8936 17.5478 14.8836 17.5778 14.877 17.6011C14.7703 17.9378 14.6686 18.1061 14.572 18.1061Z" fill="#FFC107"/>
<path d="M8.85 23.0217C8.85 23.0311 8.84484 23.0616 8.7867 23.1096C8.72956 23.1567 8.63783 23.2058 8.51127 23.2499C8.25953 23.3377 7.90199 23.3948 7.5 23.3948C7.09801 23.3948 6.74047 23.3377 6.48873 23.2499C6.36217 23.2058 6.27044 23.1567 6.2133 23.1096C6.15516 23.0616 6.15 23.0311 6.15 23.0217C6.15 23.0122 6.15516 22.9817 6.2133 22.9338C6.27044 22.8867 6.36217 22.8375 6.48873 22.7934C6.74047 22.7056 7.09801 22.6485 7.5 22.6485C7.90199 22.6485 8.25953 22.7056 8.51127 22.7934C8.63783 22.8375 8.72956 22.8867 8.7867 22.9338C8.84484 22.9817 8.85 23.0122 8.85 23.0217Z" stroke="#FFC107" stroke-width="0.3"/>
<path d="M6.85 20.9294C6.85 21.1419 6.68698 21.3025 6.5 21.3025C6.31302 21.3025 6.15 21.1419 6.15 20.9294C6.15 20.7168 6.31302 20.5563 6.5 20.5563C6.68698 20.5563 6.85 20.7168 6.85 20.9294Z" stroke="#FFC107" stroke-width="0.3"/>
<path d="M9.85 21.9753C9.85 22.1878 9.68698 22.3484 9.5 22.3484C9.31302 22.3484 9.15 22.1878 9.15 21.9753C9.15 21.7627 9.31302 21.6021 9.5 21.6021C9.68698 21.6021 9.85 21.7627 9.85 21.9753Z" stroke="#FFC107" stroke-width="0.3"/>
</g>
<defs>
<clipPath id="clip0">
<rect width="28" height="28" fill="white"/>
</clipPath>
</defs>
</svg>
