<svg width="28" height="28" viewBox="0 0 28 28" fill="none" xmlns="http://www.w3.org/2000/svg">
<circle cx="14" cy="14" r="13.85" stroke="#FFC107" stroke-width="0.3"/>
<circle cx="14" cy="13.9999" r="12.6326" stroke="#FFC107" stroke-width="0.3"/>
<path d="M9.0707 4.14794C8.88732 4.08681 8.6891 4.18592 8.62798 4.3693C8.56685 4.55268 8.66596 4.75089 8.84934 4.81202L9.0707 4.14794ZM13.2599 24.3801C13.4257 24.4796 13.6407 24.4258 13.7401 24.2601C13.8396 24.0943 13.7858 23.8793 13.6201 23.7799L13.2599 24.3801ZM8.96002 4.47998C8.84934 4.81202 8.84928 4.812 8.84925 4.81199C8.84925 4.81199 8.84922 4.81198 8.84923 4.81198C8.84924 4.81199 8.84931 4.81201 8.84943 4.81205C8.84966 4.81213 8.85009 4.81227 8.85071 4.81248C8.85197 4.8129 8.854 4.81359 8.85679 4.81454C8.86238 4.81644 8.87098 4.81939 8.88235 4.82336C8.90511 4.83128 8.93894 4.84325 8.98195 4.85899C9.06805 4.89049 9.19051 4.93693 9.33425 4.99612C9.62366 5.11529 9.99092 5.28269 10.3199 5.4801C10.6606 5.68452 10.9116 5.89287 11.0224 6.07755C11.0731 6.16214 11.0822 6.22134 11.0775 6.26352C11.0729 6.3043 11.0507 6.37435 10.9525 6.47249L11.4475 6.96747C11.6294 6.78561 11.7471 6.57566 11.7732 6.34082C11.7991 6.10737 11.7294 5.89533 11.6226 5.71741C11.4184 5.37709 11.0394 5.09544 10.6801 4.87986C10.3091 4.65727 9.90637 4.47467 9.60078 4.34884C9.44702 4.28553 9.31573 4.23573 9.22246 4.2016C9.17578 4.18452 9.13852 4.17134 9.1126 4.16231C9.09964 4.15779 9.08951 4.15432 9.08245 4.15191C9.07892 4.15071 9.07615 4.14977 9.07418 4.14911C9.0732 4.14878 9.07241 4.14852 9.07183 4.14832C9.07154 4.14822 9.0713 4.14814 9.07111 4.14808C9.07102 4.14805 9.07091 4.14801 9.07086 4.148C9.07077 4.14797 9.0707 4.14794 8.96002 4.47998ZM10.9525 6.47249C10.7236 6.70141 10.2562 6.95859 9.637 7.24166C9.01465 7.52617 8.35705 7.78718 7.69787 8.08015C7.07257 8.35806 6.46791 8.65576 6.09207 8.97226C5.90675 9.12832 5.72708 9.32937 5.66831 9.58011C5.60128 9.86612 5.70951 10.1244 5.91253 10.3275L6.4075 9.83249C6.36522 9.79021 6.35335 9.76372 6.35033 9.75505C6.34847 9.74969 6.34809 9.74734 6.34984 9.73985C6.3567 9.71059 6.39578 9.63164 6.54296 9.5077C6.83212 9.2642 7.34746 9.0019 7.98216 8.71981C8.58299 8.45278 9.32538 8.1538 9.92803 7.8783C10.5338 7.60137 11.1164 7.29855 11.4475 6.96747L10.9525 6.47249ZM5.91253 10.3275C6.05077 10.4657 6.24688 10.5395 6.42844 10.5855C6.62058 10.6342 6.85117 10.6646 7.10633 10.6828C7.61757 10.7194 8.273 10.7098 9.01166 10.6746C10.4883 10.6043 12.3566 10.4282 14.1669 10.2889C15.9887 10.1488 17.7523 10.0459 19.0566 10.1145C19.7129 10.149 20.2219 10.2259 20.5567 10.3477C20.9078 10.4754 20.93 10.5937 20.93 10.64H21.63C21.63 10.1263 21.2147 9.8421 20.7959 9.6898C20.3607 9.53154 19.7671 9.45092 19.0934 9.41546C17.7377 9.34411 15.9313 9.45115 14.1132 9.59101C12.2834 9.73176 10.4417 9.90569 8.97837 9.97538C8.24703 10.0102 7.62496 10.0181 7.1562 9.98462C6.92137 9.96785 6.73632 9.9414 6.60034 9.90695C6.53282 9.88984 6.48369 9.87231 6.44962 9.85646C6.41463 9.84017 6.40507 9.83006 6.4075 9.83249L5.91253 10.3275ZM20.93 10.64C20.93 10.6677 20.9166 10.7352 20.8222 10.8493C20.729 10.962 20.5792 11.0924 20.3656 11.2376C19.9392 11.5277 19.3168 11.8387 18.5528 12.1642C17.0279 12.8141 15.0128 13.4917 13.0476 14.1585C11.0942 14.8213 9.18346 15.4753 7.90236 16.0714C7.27224 16.3646 6.74432 16.6656 6.44917 16.9752C6.30141 17.1302 6.16439 17.3366 6.16439 17.586C6.16439 17.8533 6.31946 18.0571 6.51001 18.2L6.93001 17.64C6.84057 17.5729 6.86439 17.5535 6.86439 17.586C6.86439 17.6005 6.85861 17.5602 6.95586 17.4582C7.15071 17.2538 7.56778 16.9991 8.19766 16.7061C9.43656 16.1296 11.3058 15.4887 13.2725 14.8214C15.2272 14.1582 17.2721 13.4709 18.8272 12.8082C19.6033 12.4775 20.2758 12.1454 20.7594 11.8164C21.0008 11.6521 21.2098 11.479 21.3616 11.2955C21.5122 11.1135 21.63 10.8923 21.63 10.64H20.93ZM6.51001 18.2C6.86629 18.4672 7.39843 18.6069 7.99198 18.6818C8.59835 18.7583 9.32515 18.7732 10.116 18.7511C11.6975 18.7069 13.5845 18.5128 15.3642 18.3383C17.1558 18.1627 18.8303 18.0079 20.0212 18.0336C20.624 18.0467 21.058 18.1059 21.3143 18.2072C21.4407 18.2571 21.4859 18.3028 21.499 18.3218C21.5023 18.3265 21.5146 18.3384 21.5005 18.3951L22.1796 18.5649C22.2354 18.3416 22.2084 18.1172 22.0752 17.9242C21.9518 17.7455 21.7636 17.6321 21.5716 17.5562C21.1914 17.4059 20.6498 17.3471 20.0363 17.3338C18.7947 17.307 17.0742 17.4673 15.2959 17.6417C13.5055 17.8172 11.6476 18.008 10.0965 18.0514C9.32113 18.073 8.6348 18.0573 8.07961 17.9873C7.5116 17.9156 7.13373 17.7928 6.93001 17.64L6.51001 18.2ZM21.5005 18.3951C21.4592 18.5601 21.3077 18.7704 20.9886 19.0185C20.6778 19.2601 20.2524 19.5036 19.7453 19.7486C18.73 20.239 17.4548 20.7043 16.255 21.1631C15.0785 21.6129 13.9473 22.0657 13.2918 22.5245C13.1242 22.6418 12.9737 22.7688 12.8583 22.9075C12.7433 23.0458 12.6486 23.2138 12.6263 23.4092C12.5777 23.836 12.881 24.1527 13.2599 24.3801L13.6201 23.7799C13.4677 23.6884 13.3886 23.6127 13.3508 23.5603C13.3181 23.5149 13.3211 23.4952 13.3218 23.4885C13.3236 23.4729 13.335 23.4292 13.3966 23.355C13.4579 23.2813 13.5545 23.195 13.6932 23.098C14.2627 22.6993 15.3016 22.277 16.505 21.8169C17.6852 21.3657 19 20.886 20.0497 20.3789C20.5752 20.1251 21.051 19.8567 21.4183 19.5711C21.7773 19.292 22.0808 18.9599 22.1796 18.5649L21.5005 18.3951Z" fill="#FFC107"/>
<circle cx="19.2753" cy="6.2903" r="0.102899" stroke="#FFC107" stroke-width="0.2"/>
<circle cx="12.0725" cy="3.95669" r="0.204348" stroke="#FFC107" stroke-width="0.2"/>
<circle cx="8.42025" cy="12.4782" r="0.204348" stroke="#FFC107" stroke-width="0.2"/>
<circle cx="22.8261" cy="15.1164" r="0.204348" stroke="#FFC107" stroke-width="0.2"/>
<circle cx="18.5652" cy="22.9071" r="0.407246" stroke="#FFC107" stroke-width="0.2"/>
<circle cx="5.78262" cy="19.5797" r="0.204348" stroke="#FFC107" stroke-width="0.2"/>
<circle cx="11.5652" cy="24.5506" r="0.102899" stroke="#FFC107" stroke-width="0.2"/>
</svg>
