<svg width="50" height="50" viewBox="0 0 50 50" fill="none" xmlns="http://www.w3.org/2000/svg">
<path d="M9.5625 0C8.71039 0 8 0.710469 8 1.5625V7.8125C8 7.9618 8.04795 8.09611 8.0885 8.23364C8.08748 8.23466 8.08647 8.23567 8.08545 8.23669C8.02901 8.34724 7.99972 8.46963 8 8.59375V41.4062C8.00066 41.5306 8.03101 41.653 8.0885 41.7633C8.04779 41.9011 8 42.0379 8 42.1875V48.4375C8 49.2897 8.71039 50 9.5625 50H40.8369C41.689 50 42.3994 49.2897 42.3994 48.4375V42.1875C42.3994 42.0251 42.3525 41.8749 42.3048 41.7267C42.3506 41.626 42.3745 41.5168 42.375 41.4062V8.59375C42.3754 8.48112 42.3515 8.36973 42.3048 8.26721C42.3518 8.12006 42.3994 7.97363 42.3994 7.8125V1.5625C42.3994 0.710469 41.689 0 40.8369 0H9.5625ZM9.5625 1.5625H40.8369V7.8125H9.5625V1.5625ZM15.8125 3.125C14.9588 3.125 14.25 3.83391 14.25 4.6875C14.25 5.54125 14.9588 6.25 15.8125 6.25C16.6662 6.25 17.375 5.54125 17.375 4.6875C17.375 3.83391 16.6662 3.125 15.8125 3.125ZM22.0625 3.125C21.2088 3.125 20.5 3.83391 20.5 4.6875C20.5 5.54125 21.2088 6.25 22.0625 6.25C22.9162 6.25 23.625 5.54125 23.625 4.6875C23.625 3.83391 22.9162 3.125 22.0625 3.125ZM28.3125 3.125C27.4588 3.125 26.75 3.83391 26.75 4.6875C26.75 5.54125 27.4588 6.25 28.3125 6.25C29.1662 6.25 29.875 5.54125 29.875 4.6875C29.875 3.83391 29.1662 3.125 28.3125 3.125ZM34.5625 3.125C33.7088 3.125 33 3.83391 33 4.6875C33 5.54125 33.7088 6.25 34.5625 6.25C35.4162 6.25 36.125 5.54125 36.125 4.6875C36.125 3.83391 35.4162 3.125 34.5625 3.125ZM9.5625 9.375H40.8125V40.625H9.5625V9.375ZM15.7332 12.5488C15.6306 12.554 15.53 12.5794 15.4372 12.6235C15.3444 12.6676 15.2612 12.7295 15.1923 12.8057C15.1235 12.8819 15.0703 12.971 15.0359 13.0678C15.0014 13.1645 14.9864 13.2672 14.9916 13.3698C14.9968 13.4723 15.0222 13.5729 15.0662 13.6657C15.1103 13.7585 15.1722 13.8417 15.2485 13.9106C15.3247 13.9794 15.4137 14.0326 15.5105 14.067C15.6073 14.1015 15.7099 14.1165 15.8125 14.1113H34.5625C34.666 14.1128 34.7688 14.0937 34.8649 14.0551C34.961 14.0165 35.0484 13.9591 35.1221 13.8865C35.1958 13.8138 35.2544 13.7271 35.2943 13.6316C35.3343 13.5361 35.3549 13.4336 35.3549 13.3301C35.3549 13.2265 35.3343 13.124 35.2943 13.0285C35.2544 12.933 35.1958 12.8464 35.1221 12.7737C35.0484 12.701 34.961 12.6437 34.8649 12.6051C34.7688 12.5665 34.666 12.5474 34.5625 12.5488H15.8125C15.7861 12.5475 15.7596 12.5475 15.7332 12.5488ZM13.4688 15.625C13.2616 15.625 13.0629 15.7073 12.9163 15.8538C12.7698 16.0004 12.6875 16.1991 12.6875 16.4062V36.7188C12.6875 36.9259 12.7698 37.1246 12.9163 37.2712C13.0629 37.4177 13.2616 37.5 13.4688 37.5H36.8818C37.089 37.5 37.2877 37.4177 37.4342 37.2712C37.5808 37.1246 37.6631 36.9259 37.6631 36.7188V16.4062C37.6631 16.1991 37.5808 16.0004 37.4342 15.8538C37.2877 15.7073 37.089 15.625 36.8818 15.625H13.4688ZM14.25 17.1875H36.1006V35.9375H14.25V17.1875ZM9.5625 42.1875H40.8369V48.4375H9.5625V42.1875Z" fill="#F05542"/>
<ellipse cx="15.5171" cy="4.59767" rx="1.72414" ry="1.72414" fill="#2B4255"/>
<ellipse cx="21.839" cy="4.59767" rx="1.72414" ry="1.72414" fill="#2B4255"/>
<ellipse cx="28.161" cy="4.59767" rx="1.72414" ry="1.72414" fill="#2B4255"/>
<ellipse cx="34.4828" cy="4.59767" rx="1.72414" ry="1.72414" fill="#2B4255"/>
</svg>
