<svg width="37" height="31" viewBox="0 0 37 31" fill="none" xmlns="http://www.w3.org/2000/svg">
<path d="M4.2166 2.67267V2.17267H3.7166H0.5V0.527344H10.0785V2.17267H6.82063H6.32063V2.67267V13.4595H4.2166V2.67267Z" fill="#11D028" stroke="#11D028"/>
<path d="M16.8374 9.44835L12.5563 0.50904L14.9345 0.506348L16.8115 5.21542L16.8115 5.21542L16.8123 5.2176C17.0043 5.69261 17.1641 6.13842 17.3189 6.57641C17.3369 6.62732 17.3548 6.67819 17.3727 6.72903C17.5081 7.11293 17.6429 7.49495 17.7917 7.87699L17.9158 8.19549H18.2576H18.3185H18.7001L18.8008 7.82731C18.8728 7.56364 18.963 7.22692 19.0695 6.82905C19.2005 6.33986 19.3562 5.75822 19.5335 5.1062L20.9168 0.5H23.1089L20.771 6.70575C19.9249 8.87923 19.1144 10.9013 18.1344 12.1086L18.1344 12.1085L18.1305 12.1135C17.3086 13.1526 16.3018 13.7641 14.8669 13.7641H14.8575L14.8481 13.7644C14.5189 13.7768 14.19 13.7451 13.87 13.6704L14.0097 12.1029C14.2018 12.1226 14.3952 12.1306 14.5887 12.1266C15.0888 12.1198 15.5757 11.9656 15.9898 11.6836C16.4043 11.4012 16.7275 11.0032 16.9208 10.5389L16.924 10.5312L16.9269 10.5235C16.9946 10.3442 17.0203 10.1518 17.0022 9.96115C16.9851 9.78027 16.9289 9.60524 16.8374 9.44835Z" fill="#11D028" stroke="#11D028"/>
<path d="M29.0861 2.67267V2.17267H28.5861H25.3695V0.527344H34.946V2.17267H31.6901H31.1901V2.67267V13.4595H29.0861V2.67267Z" fill="#11D028" stroke="#11D028"/>
<path d="M7.97377 17.4209V19.0046H3.10404H2.60404V19.5046V22.3984V22.8984H3.10404H7.66749V24.4622H3.10404H2.60404V24.9622V28.2694V28.7694H3.10404H8.26042V30.3531H0.5V17.4209H7.97377Z" fill="#11D028" stroke="#11D028"/>
<path d="M15.0647 17.3176H15.0666C17.64 17.3176 19.2333 17.8007 20.4201 18.704L20.4201 18.7041L20.4224 18.7057C21.7096 19.6741 22.5515 21.2239 22.5515 23.5551C22.5515 26.0906 21.6447 27.7869 20.4589 28.8195C19.1383 29.928 17.0512 30.4982 14.4147 30.4982V30.4981L14.4093 30.4982C13.3978 30.5092 12.3866 30.461 11.3808 30.3538L11.3826 17.5605C12.6029 17.3943 13.8332 17.3131 15.0647 17.3176ZM13.4867 28.4761V28.906L13.9118 28.9704C14.297 29.0288 14.6867 29.0513 15.0759 29.0377C16.5809 29.0463 17.8942 28.6331 18.832 27.7103C19.7734 26.7839 20.2648 25.4143 20.2648 23.6584C20.2648 22.1155 19.8169 20.8674 18.9424 20.006C18.0703 19.147 16.8397 18.7373 15.4015 18.7363C14.8944 18.7264 14.3878 18.7709 13.89 18.869L13.4867 18.9485V19.3595V28.4761Z" fill="#11D028" stroke="#11D028"/>
<path d="M27.9736 26.7776H27.5923L27.4914 27.1453L26.6106 30.355H24.46L28.3454 17.4229H31.688L35.6682 30.355H33.3495L32.3953 27.1355L32.2893 26.7776H31.9159H27.9736ZM31.4663 25.4204H32.1321L31.9465 24.781L31.0885 21.8257L31.0885 21.8257L31.0877 21.8228C30.8846 21.1386 30.6812 20.3092 30.4989 19.5655C30.4647 19.4262 30.4313 19.2899 30.3987 19.1581L30.3049 18.778H29.9133H29.8741H29.4789L29.3876 19.1625C29.3181 19.4553 29.2482 19.7674 29.1775 20.0833C29.0419 20.6887 28.9033 21.3079 28.7581 21.8314L27.9356 24.7863L27.7591 25.4204H28.4173H31.4663Z" fill="#11D028" stroke="#11D028"/>
</svg>
