<svg width="34" height="21" viewBox="0 0 34 21" fill="none" xmlns="http://www.w3.org/2000/svg">
<path d="M23.4935 0.00141763C21.3401 0.00141763 19.3411 0.647048 17.6778 1.75425C17.7628 1.82646 17.8478 1.893 17.9116 1.96663C19.1388 3.02488 20.1235 4.33501 20.7985 5.80781C21.4735 7.2806 21.823 8.88147 21.8232 10.5014C21.8223 12.1201 21.4743 13.7197 20.8027 15.1927C20.1312 16.6656 19.1516 17.9777 17.93 19.0404C17.8478 19.1098 17.76 19.1792 17.6736 19.2471C19.3969 20.3938 21.4218 21.0038 23.4921 21C24.8719 21.0005 26.2384 20.7294 27.5133 20.202C28.7882 19.6746 29.9467 18.9014 30.9225 17.9264C31.8984 16.9515 32.6724 15.7939 33.2005 14.5199C33.7285 13.2459 34.0002 11.8804 34 10.5014C33.9996 7.71675 32.8926 5.04626 30.9223 3.07721C28.952 1.10816 26.2799 0.00179305 23.4935 0.00141763Z" fill="#E0E0E0"/>
<path d="M16.3248 19.247C14.6014 20.3933 12.5766 21.0033 10.5063 20.9999C8.86688 20.9999 7.25021 20.6165 5.7856 19.8803C4.321 19.1441 3.0491 18.0755 2.07165 16.7602C1.09419 15.4448 0.438294 13.9191 0.156438 12.3051C-0.125417 10.6911 -0.02542 9.03373 0.44843 7.46525C0.922281 5.89676 1.75684 4.46084 2.88535 3.27238C4.01386 2.08391 5.405 1.17552 6.9475 0.620521C8.49 0.0655193 10.1411 -0.120731 11.7686 0.0760874C13.3962 0.272905 14.9551 0.847645 16.3206 1.75431L16.9992 2.25236C18.2508 3.23252 19.2624 4.48519 19.9574 5.91447C20.6523 7.34374 21.0123 8.9123 21.01 10.5014C21.0123 12.0907 20.6523 13.6598 19.9574 15.0893C19.2625 16.5188 18.2508 17.7709 16.9992 18.7514L16.3248 19.247Z" fill="white"/>
</svg>
