<svg width="20" height="17" viewBox="0 0 20 17" fill="none" xmlns="http://www.w3.org/2000/svg">
<path d="M0 1.19643C0 0.879116 0.131696 0.5748 0.366117 0.350426C0.600537 0.126052 0.918479 0 1.25 0H18.75C19.0815 0 19.3995 0.126052 19.6339 0.350426C19.8683 0.5748 20 0.879116 20 1.19643C20 1.51374 19.8683 1.81806 19.6339 2.04243C19.3995 2.2668 19.0815 2.39286 18.75 2.39286H1.25C0.918479 2.39286 0.600537 2.2668 0.366117 2.04243C0.131696 1.81806 0 1.51374 0 1.19643Z" fill="#181725"/>
<path d="M0 15.5536C0 15.2363 0.131696 14.9319 0.366117 14.7076C0.600537 14.4832 0.918479 14.3571 1.25 14.3571H18.75C19.0815 14.3571 19.3995 14.4832 19.6339 14.7076C19.8683 14.9319 20 15.2363 20 15.5536C20 15.8709 19.8683 16.1752 19.6339 16.3996C19.3995 16.624 19.0815 16.75 18.75 16.75H1.25C0.918479 16.75 0.600537 16.624 0.366117 16.3996C0.131696 16.1752 0 15.8709 0 15.5536Z" fill="#181725"/>
<path d="M1.25 7.17857C0.918479 7.17857 0.600537 7.30463 0.366117 7.529C0.131696 7.75337 0 8.05769 0 8.375C0 8.69231 0.131696 8.99663 0.366117 9.221C0.600537 9.44538 0.918479 9.57143 1.25 9.57143H11.25C11.5815 9.57143 11.8995 9.44538 12.1339 9.221C12.3683 8.99663 12.5 8.69231 12.5 8.375C12.5 8.05769 12.3683 7.75337 12.1339 7.529C11.8995 7.30463 11.5815 7.17857 11.25 7.17857H1.25Z" fill="#181725"/>
</svg>
