<svg width="56" height="15" viewBox="0 0 56 15" fill="none" xmlns="http://www.w3.org/2000/svg">
<path d="M31.1783 1.58503L27.6416 8.86313H27.2822V0H22.257V14.9981H26.5223C27.6416 14.9981 28.6588 14.3809 29.1301 13.4131L32.6688 6.13501H33.0281V14.9981H38.0534V0H33.7881C32.6668 0 31.6476 0.619095 31.1783 1.58503Z" fill="white"/>
<path d="M12.3244 1.97103L10.2311 8.86313H9.87173L7.77838 1.97103C7.42294 0.803705 6.29772 0 5.01932 0H0V15H5.02521V6.13501H5.38458L8.25557 14.9981H11.8453L14.7182 6.13501H15.0776V14.9981H20.1028V0H15.0835C13.8051 0 12.6799 0.803705 12.3244 1.97103Z" fill="white"/>
<path d="M40.2056 6.81763V14.9983H45.221V10.2264H50.6154C52.9582 10.2264 54.9474 8.80171 55.6878 6.81763H40.2056Z" fill="white"/>
<path d="M50.6154 0H39.4869C40.1624 3.4908 43.379 6.13501 47.2495 6.13501H55.892C55.9627 5.80495 56 5.46183 56 5.11126C56 2.28991 53.5885 0 50.6154 0Z" fill="url(#paint0_linear)"/>
<defs>
<linearGradient id="paint0_linear" x1="39.4869" y1="3.06827" x2="56.0001" y2="3.06827" gradientUnits="userSpaceOnUse">
<stop offset="0.00985222" stop-color="#E0E0E0"/>
<stop offset="0.3366" stop-color="#DDDBDB"/>
<stop offset="0.8748" stop-color="#ECECEC"/>
<stop offset="1" stop-color="#E4E4E4"/>
</linearGradient>
</defs>
</svg>
