<svg width="25" height="80" viewBox="0 0 25 80" fill="none" xmlns="http://www.w3.org/2000/svg">
<path opacity="0.2" d="M0.785215 0.588948L0.785215 0.588948L0.785606 0.589586L24.2583 38.8642C24.2583 38.8642 24.2584 38.8643 24.2584 38.8644C24.4013 39.0988 24.5 39.5214 24.5 40.0015C24.5 40.4815 24.4013 40.9042 24.2584 41.1385C24.2584 41.1386 24.2583 41.1387 24.2583 41.1387L0.786679 79.4116C0.786481 79.4119 0.786283 79.4122 0.786085 79.4126C0.779036 79.4239 0.772382 79.4341 0.766145 79.4432C0.64325 79.2708 0.500004 78.8722 0.500004 78.277V68.1921C0.500004 66.0296 0.95932 64.0676 1.68567 62.8843L1.68577 62.8842L15.5598 40.2629L15.7201 40.0015L15.5598 39.74L1.68577 17.1188L1.68567 17.1186C0.959497 15.9356 0.500004 13.9523 0.500004 11.8109L0.500005 1.72589L0.500004 1.72517C0.499597 1.44614 0.533751 1.17903 0.594143 0.955665C0.646183 0.763196 0.709691 0.632448 0.763352 0.555358C0.77025 0.565269 0.777561 0.576425 0.785215 0.588948ZM0.703639 79.5147C0.703627 79.5146 0.704393 79.5141 0.705958 79.5132C0.704435 79.5143 0.70365 79.5147 0.703639 79.5147ZM0.826427 79.5112C0.828398 79.5123 0.829384 79.513 0.829385 79.5131C0.829386 79.5132 0.828401 79.5127 0.826427 79.5112Z" stroke="black"/>
</svg>
