<svg width="28" height="28" viewBox="0 0 28 28" fill="none" xmlns="http://www.w3.org/2000/svg">
<path d="M3.9027 2.30524C2.17353 2.61735 1.65118 3.9091 1.60615 4.51597C-0.420214 4.77605 3.22724 9.19751 3.9027 9.84772C3.9027 10.4979 17.5469 25.0627 18.8978 26.7532C19.9785 28.1057 21.8698 27.3168 22.6803 26.7532L24.7067 22.2018C25.7874 21.985 27.7057 19.991 26.7331 13.749C25.7604 7.50695 22.6353 4.21251 21.1943 3.34554C19.6633 2.52194 15.6286 0.900743 11.738 1.00478C6.8747 1.13482 8.22561 2.30524 7.55015 2.30524C6.8747 2.30524 6.06415 1.91512 3.9027 2.30524Z" stroke="#FFC107" stroke-width="0.3"/>
<path d="M7.44402 8.80872C7.44402 8.88879 7.36639 8.97399 7.24402 8.97399C7.12165 8.97399 7.04403 8.88879 7.04403 8.80872C7.04403 8.72866 7.12165 8.64346 7.24402 8.64346C7.36639 8.64346 7.44402 8.72866 7.44402 8.80872Z" stroke="#FFC107" stroke-width="0.2"/>
<path d="M10.2577 8.38636C10.2577 8.46643 10.1801 8.55163 10.0577 8.55163C9.93537 8.55163 9.85775 8.46643 9.85775 8.38636C9.85775 8.30629 9.93537 8.22109 10.0577 8.22109C10.1801 8.22109 10.2577 8.30629 10.2577 8.38636Z" stroke="#FFC107" stroke-width="0.2"/>
<path d="M12.954 15.5485C12.954 15.6285 12.8763 15.7137 12.754 15.7137C12.6316 15.7137 12.554 15.6285 12.554 15.5485C12.554 15.4684 12.6316 15.3832 12.754 15.3832C12.8763 15.3832 12.954 15.4684 12.954 15.5485Z" stroke="#FFC107" stroke-width="0.2"/>
<path d="M6.36327 4.93812C6.36327 5.01819 6.28564 5.10338 6.16327 5.10338C6.0409 5.10338 5.96328 5.01819 5.96328 4.93812C5.96328 4.85805 6.0409 4.77285 6.16327 4.77285C6.28564 4.77285 6.36327 4.85805 6.36327 4.93812Z" stroke="#FFC107" stroke-width="0.2"/>
<path d="M7.86113 3.34681C7.86113 3.42688 7.78351 3.51208 7.66114 3.51208C7.53877 3.51208 7.46115 3.42688 7.46115 3.34681C7.46115 3.26674 7.53877 3.18154 7.66114 3.18154C7.78351 3.18154 7.86113 3.26674 7.86113 3.34681Z" stroke="#FFC107" stroke-width="0.2"/>
<path d="M3.93156 6.20765C3.93156 6.28772 3.85394 6.37292 3.73157 6.37292C3.6092 6.37292 3.53158 6.28772 3.53158 6.20765C3.53158 6.12758 3.6092 6.04238 3.73157 6.04238C3.85394 6.04238 3.93156 6.12758 3.93156 6.20765Z" stroke="#FFC107" stroke-width="0.2"/>
<path d="M17.4476 12.3654C17.4476 12.4454 17.37 12.5306 17.2476 12.5306C17.1253 12.5306 17.0476 12.4454 17.0476 12.3654C17.0476 12.2853 17.1253 12.2001 17.2476 12.2001C17.37 12.2001 17.4476 12.2853 17.4476 12.3654Z" stroke="#FFC107" stroke-width="0.2"/>
<path d="M16.0898 3.60658C16.0898 3.68664 16.0122 3.77184 15.8898 3.77184C15.7675 3.77184 15.6898 3.68664 15.6898 3.60658C15.6898 3.52651 15.7675 3.44131 15.8898 3.44131C16.0122 3.44131 16.0898 3.52651 16.0898 3.60658Z" stroke="#FFC107" stroke-width="0.2"/>
<mask id="path-10-inside-1" fill="white">
<ellipse cx="8.70944" cy="4.27521" rx="0.149996" ry="0.132633"/>
</mask>
<path d="M8.65944 4.27521C8.65944 4.24803 8.67236 4.2286 8.68302 4.21917C8.69332 4.21007 8.70324 4.20784 8.70944 4.20784V4.60784C8.87891 4.60784 9.05944 4.48133 9.05944 4.27521H8.65944ZM8.70944 4.20784C8.71565 4.20784 8.72557 4.21007 8.73586 4.21917C8.74653 4.2286 8.75945 4.24803 8.75945 4.27521H8.35945C8.35945 4.48133 8.53998 4.60784 8.70944 4.60784V4.20784ZM8.75945 4.27521C8.75945 4.30239 8.74653 4.32182 8.73586 4.33125C8.72557 4.34035 8.71565 4.34258 8.70944 4.34258V3.94258C8.53998 3.94258 8.35945 4.06909 8.35945 4.27521H8.75945ZM8.70944 4.34258C8.70324 4.34258 8.69332 4.34035 8.68302 4.33125C8.67236 4.32182 8.65944 4.30239 8.65944 4.27521H9.05944C9.05944 4.06909 8.87891 3.94258 8.70944 3.94258V4.34258Z" fill="#FFC107" mask="url(#path-10-inside-1)"/>
<mask id="path-12-inside-2" fill="white">
<ellipse cx="9.79581" cy="14.137" rx="0.149996" ry="0.132633"/>
</mask>
<path d="M9.74581 14.137C9.74581 14.1098 9.75872 14.0904 9.76939 14.081C9.77968 14.0719 9.78961 14.0697 9.79581 14.0697V14.4697C9.96527 14.4697 10.1458 14.3432 10.1458 14.137H9.74581ZM9.79581 14.0697C9.80201 14.0697 9.81194 14.0719 9.82223 14.081C9.8329 14.0904 9.84581 14.1098 9.84581 14.137H9.44581C9.44581 14.3432 9.62635 14.4697 9.79581 14.4697V14.0697ZM9.84581 14.137C9.84581 14.1642 9.8329 14.1836 9.82223 14.1931C9.81194 14.2022 9.80201 14.2044 9.79581 14.2044V13.8044C9.62635 13.8044 9.44581 13.9309 9.44581 14.137H9.84581ZM9.79581 14.2044C9.78961 14.2044 9.77968 14.2022 9.76939 14.1931C9.75872 14.1836 9.74581 14.1642 9.74581 14.137H10.1458C10.1458 13.9309 9.96527 13.8044 9.79581 13.8044V14.2044Z" fill="#FFC107" mask="url(#path-12-inside-2)"/>
<mask id="path-14-inside-3" fill="white">
<ellipse cx="13.2032" cy="13.8245" rx="0.149996" ry="0.132633"/>
</mask>
<path d="M13.1532 13.8245C13.1532 13.7973 13.1661 13.7779 13.1767 13.7685C13.187 13.7594 13.197 13.7572 13.2032 13.7572V14.1572C13.3726 14.1572 13.5532 14.0307 13.5532 13.8245H13.1532ZM13.2032 13.7572C13.2094 13.7572 13.2193 13.7594 13.2296 13.7685C13.2402 13.7779 13.2532 13.7973 13.2532 13.8245H12.8532C12.8532 14.0307 13.0337 14.1572 13.2032 14.1572V13.7572ZM13.2532 13.8245C13.2532 13.8517 13.2402 13.8711 13.2296 13.8806C13.2193 13.8897 13.2094 13.8919 13.2032 13.8919V13.4919C13.0337 13.4919 12.8532 13.6184 12.8532 13.8245H13.2532ZM13.2032 13.8919C13.197 13.8919 13.187 13.8897 13.1767 13.8806C13.1661 13.8711 13.1532 13.8517 13.1532 13.8245H13.5532C13.5532 13.6184 13.3726 13.4919 13.2032 13.4919V13.8919Z" fill="#FFC107" mask="url(#path-14-inside-3)"/>
<mask id="path-16-inside-4" fill="white">
<ellipse cx="12.0049" cy="4.27521" rx="0.149996" ry="0.132633"/>
</mask>
<path d="M11.9549 4.27521C11.9549 4.24803 11.9678 4.2286 11.9784 4.21917C11.9887 4.21007 11.9987 4.20784 12.0049 4.20784V4.60784C12.1743 4.60784 12.3549 4.48133 12.3549 4.27521H11.9549ZM12.0049 4.20784C12.0111 4.20784 12.021 4.21007 12.0313 4.21917C12.0419 4.2286 12.0549 4.24803 12.0549 4.27521H11.6549C11.6549 4.48133 11.8354 4.60784 12.0049 4.60784V4.20784ZM12.0549 4.27521C12.0549 4.30239 12.0419 4.32182 12.0313 4.33125C12.021 4.34035 12.0111 4.34258 12.0049 4.34258V3.94258C11.8354 3.94258 11.6549 4.06909 11.6549 4.27521H12.0549ZM12.0049 4.34258C11.9987 4.34258 11.9887 4.34035 11.9784 4.33125C11.9678 4.32182 11.9549 4.30239 11.9549 4.27521H12.3549C12.3549 4.06909 12.1743 3.94258 12.0049 3.94258V4.34258Z" fill="#FFC107" mask="url(#path-16-inside-4)"/>
<mask id="path-18-inside-5" fill="white">
<ellipse cx="16.4986" cy="6.13117" rx="0.149996" ry="0.132633"/>
</mask>
<path d="M16.4486 6.13117C16.4486 6.10399 16.4615 6.08456 16.4722 6.07513C16.4825 6.06603 16.4924 6.0638 16.4986 6.0638V6.4638C16.6681 6.4638 16.8486 6.33729 16.8486 6.13117H16.4486ZM16.4986 6.0638C16.5048 6.0638 16.5148 6.06603 16.525 6.07513C16.5357 6.08456 16.5486 6.10399 16.5486 6.13117H16.1486C16.1486 6.33729 16.3292 6.4638 16.4986 6.4638V6.0638ZM16.5486 6.13117C16.5486 6.15835 16.5357 6.17778 16.525 6.18721C16.5148 6.19631 16.5048 6.19854 16.4986 6.19854V5.79854C16.3292 5.79854 16.1486 5.92505 16.1486 6.13117H16.5486ZM16.4986 6.19854C16.4924 6.19854 16.4825 6.19631 16.4722 6.18721C16.4615 6.17778 16.4486 6.15835 16.4486 6.13117H16.8486C16.8486 5.92505 16.6681 5.79854 16.4986 5.79854V6.19854Z" fill="#FFC107" mask="url(#path-18-inside-5)"/>
<mask id="path-20-inside-6" fill="white">
<ellipse cx="19.1947" cy="9.04914" rx="0.149996" ry="0.132633"/>
</mask>
<path d="M19.1447 9.04914C19.1447 9.02196 19.1576 9.00253 19.1683 8.9931C19.1786 8.984 19.1885 8.98177 19.1947 8.98177V9.38177C19.3642 9.38177 19.5447 9.25526 19.5447 9.04914H19.1447ZM19.1947 8.98177C19.2009 8.98177 19.2109 8.984 19.2212 8.9931C19.2318 9.00253 19.2447 9.02196 19.2447 9.04914H18.8447C18.8447 9.25526 19.0253 9.38177 19.1947 9.38177V8.98177ZM19.2447 9.04914C19.2447 9.07632 19.2318 9.09574 19.2212 9.10518C19.2109 9.11428 19.2009 9.1165 19.1947 9.1165V8.7165C19.0253 8.7165 18.8447 8.84301 18.8447 9.04914H19.2447ZM19.1947 9.1165C19.1885 9.1165 19.1786 9.11428 19.1683 9.10518C19.1576 9.09574 19.1447 9.07632 19.1447 9.04914H19.5447C19.5447 8.84301 19.3642 8.7165 19.1947 8.7165V9.1165Z" fill="#FFC107" mask="url(#path-20-inside-6)"/>
<mask id="path-22-inside-7" fill="white">
<ellipse cx="7.21164" cy="11.7025" rx="0.149996" ry="0.132633"/>
</mask>
<path d="M7.16164 11.7025C7.16164 11.6753 7.17455 11.6559 7.18522 11.6464C7.19551 11.6373 7.20544 11.6351 7.21164 11.6351V12.0351C7.38111 12.0351 7.56164 11.9086 7.56164 11.7025H7.16164ZM7.21164 11.6351C7.21784 11.6351 7.22777 11.6373 7.23806 11.6464C7.24873 11.6559 7.26165 11.6753 7.26165 11.7025H6.86165C6.86165 11.9086 7.04218 12.0351 7.21164 12.0351V11.6351ZM7.26165 11.7025C7.26165 11.7296 7.24873 11.7491 7.23806 11.7585C7.22777 11.7676 7.21784 11.7698 7.21164 11.7698V11.3698C7.04218 11.3698 6.86165 11.4963 6.86165 11.7025H7.26165ZM7.21164 11.7698C7.20544 11.7698 7.19551 11.7676 7.18522 11.7585C7.17455 11.7491 7.16164 11.7296 7.16164 11.7025H7.56164C7.56164 11.4963 7.38111 11.3698 7.21164 11.3698V11.7698Z" fill="#FFC107" mask="url(#path-22-inside-7)"/>
<mask id="path-24-inside-8" fill="white">
<ellipse cx="5.74307" cy="7.63507" rx="0.149996" ry="0.132633"/>
</mask>
<path d="M5.69307 7.63507C5.69307 7.6079 5.70599 7.58847 5.71665 7.57903C5.72695 7.56993 5.73687 7.56771 5.74307 7.56771V7.96771C5.91254 7.96771 6.09307 7.8412 6.09307 7.63507H5.69307ZM5.74307 7.56771C5.74928 7.56771 5.7592 7.56993 5.7695 7.57903C5.78016 7.58847 5.79308 7.6079 5.79308 7.63507H5.39308C5.39308 7.8412 5.57361 7.96771 5.74307 7.96771V7.56771ZM5.79308 7.63507C5.79308 7.66225 5.78016 7.68168 5.7695 7.69112C5.7592 7.70022 5.74928 7.70244 5.74307 7.70244V7.30244C5.57361 7.30244 5.39308 7.42895 5.39308 7.63507H5.79308ZM5.74307 7.70244C5.73687 7.70244 5.72695 7.70022 5.71665 7.69112C5.70599 7.68168 5.69307 7.66225 5.69307 7.63507H6.09307C6.09307 7.42895 5.91254 7.30244 5.74307 7.30244V7.70244Z" fill="#FFC107" mask="url(#path-24-inside-8)"/>
<mask id="path-26-inside-9" fill="white">
<ellipse cx="15.1994" cy="19.8582" rx="0.149996" ry="0.132633"/>
</mask>
<path d="M15.1494 19.8582C15.1494 19.831 15.1623 19.8116 15.173 19.8022C15.1833 19.7931 15.1932 19.7909 15.1994 19.7909V20.1909C15.3689 20.1909 15.5494 20.0643 15.5494 19.8582H15.1494ZM15.1994 19.7909C15.2056 19.7909 15.2156 19.7931 15.2259 19.8022C15.2365 19.8116 15.2494 19.831 15.2494 19.8582H14.8494C14.8494 20.0643 15.03 20.1909 15.1994 20.1909V19.7909ZM15.2494 19.8582C15.2494 19.8854 15.2365 19.9048 15.2259 19.9143C15.2156 19.9234 15.2056 19.9256 15.1994 19.9256V19.5256C15.03 19.5256 14.8494 19.6521 14.8494 19.8582H15.2494ZM15.1994 19.9256C15.1932 19.9256 15.1833 19.9234 15.173 19.9143C15.1623 19.9048 15.1494 19.8854 15.1494 19.8582H15.5494C15.5494 19.6521 15.3689 19.5256 15.1994 19.5256V19.9256Z" fill="#FFC107" mask="url(#path-26-inside-9)"/>
<path d="M19.6307 17.2636C19.6307 17.4171 19.4861 17.5615 19.2813 17.5615C19.0766 17.5615 18.932 17.4171 18.932 17.2636C18.932 17.1102 19.0766 16.9657 19.2813 16.9657C19.4861 16.9657 19.6307 17.1102 19.6307 17.2636Z" stroke="#FFC107" stroke-width="0.2"/>
<path d="M11.7954 2.69868C11.7954 2.85212 11.6508 2.99658 11.4461 2.99658C11.2413 2.99658 11.0967 2.85212 11.0967 2.69868C11.0967 2.54524 11.2413 2.40078 11.4461 2.40078C11.6508 2.40078 11.7954 2.54524 11.7954 2.69868Z" stroke="#FFC107" stroke-width="0.2"/>
<path d="M12.0657 12.062C12.0657 12.2154 11.9211 12.3599 11.7163 12.3599C11.5116 12.3599 11.367 12.2154 11.367 12.062C11.367 11.9085 11.5116 11.7641 11.7163 11.7641C11.9211 11.7641 12.0657 11.9085 12.0657 12.062Z" stroke="#FFC107" stroke-width="0.2"/>
<path d="M19.3606 22.2045C19.3606 22.358 19.2159 22.5024 19.0112 22.5024C18.8065 22.5024 18.6618 22.358 18.6618 22.2045C18.6618 22.0511 18.8065 21.9066 19.0112 21.9066C19.2159 21.9066 19.3606 22.0511 19.3606 22.2045Z" stroke="#FFC107" stroke-width="0.2"/>
<path d="M25.0343 15.7026C25.0343 15.856 24.8897 16.0005 24.685 16.0005C24.4802 16.0005 24.3356 15.856 24.3356 15.7026C24.3356 15.5491 24.4802 15.4047 24.685 15.4047C24.8897 15.4047 25.0343 15.5491 25.0343 15.7026Z" stroke="#FFC107" stroke-width="0.2"/>
<path d="M22.4173 6.99701C21.8714 4.36924 14.0915 4.50063 11.0887 5.81452C6.72108 10.0189 14.0915 10.2818 11.0887 12.2526C8.08597 14.2234 15.4564 15.4059 19.1416 18.2965C22.8268 21.187 24.0552 13.0409 22.8268 12.2526C21.5984 11.4643 22.9633 9.62478 22.4173 6.99701Z" stroke="#FFC107" stroke-width="0.7"/>
<path d="M20.7063 10.442C20.7063 12.4249 19.1798 14.0027 17.3323 14.0027C15.4848 14.0027 13.9583 12.4249 13.9583 10.442C13.9583 8.45911 15.4848 6.88125 17.3323 6.88125C19.1798 6.88125 20.7063 8.45911 20.7063 10.442Z" stroke="#FFC107" stroke-width="0.7"/>
<path d="M15.6959 8.81201C15.0846 9.51812 14.2852 11.2888 15.9781 12.7227" stroke="#FFC107" stroke-width="0.7"/>
</svg>
