<svg width="149" height="146" viewBox="0 0 149 146" fill="none" xmlns="http://www.w3.org/2000/svg">
<g opacity="0.1" filter="url(#filter0_f)">
<path fill-rule="evenodd" clip-rule="evenodd" d="M73.1834 73.588C73.0022 73.4871 72.8029 73.4228 72.5969 73.3989C72.3908 73.3751 72.182 73.3921 71.9825 73.449C71.783 73.5058 71.5966 73.6014 71.434 73.7302C71.2714 73.8591 71.1359 74.0186 71.035 74.1998L47.3409 115.239C47.2337 115.419 47.1634 115.618 47.1339 115.825C47.1043 116.032 47.1162 116.244 47.169 116.446C47.2217 116.649 47.3142 116.839 47.441 117.005C47.5678 117.172 47.7266 117.311 47.9078 117.416C48.0891 117.521 48.2893 117.588 48.4969 117.615C48.7045 117.642 48.9154 117.627 49.1171 117.571C49.3189 117.515 49.5077 117.42 49.6724 117.291C49.8371 117.162 49.9744 117.001 50.0765 116.819L73.7706 75.7792C73.8792 75.5976 73.9503 75.3961 73.9795 75.1865C74.0088 74.977 73.9957 74.7635 73.9409 74.5592C73.8862 74.3548 73.7909 74.1635 73.6608 73.9967C73.5307 73.8298 73.3683 73.6909 73.1834 73.588ZM39.0871 60.0589C38.2631 59.5831 37.2405 59.8333 36.8151 60.5923L23.708 83.2945C22.6113 85.1277 25.6614 86.8888 26.7008 85.0224L39.808 62.3202C40.2635 61.5564 39.9365 60.5332 39.0871 60.0589ZM101.944 96.3494C101.12 95.8736 100.098 96.1239 99.6721 96.8828L86.565 119.585C85.4696 121.418 88.5183 123.178 89.5579 121.313L102.665 98.6107C103.121 97.847 102.794 96.8237 101.944 96.3494Z" fill="#F05542"/>
<path fill-rule="evenodd" clip-rule="evenodd" d="M25.7155 83.0026C25.4036 82.8139 25.0355 82.7403 24.6751 82.7946C24.3146 82.8489 23.9847 83.0275 23.7423 83.2997C23.4998 83.5719 23.3602 83.9205 23.3478 84.2848C23.3354 84.6492 23.4509 85.0063 23.6743 85.2944L47.4302 116.989C47.5475 117.167 47.6998 117.318 47.8778 117.435C48.0558 117.551 48.2557 117.63 48.4653 117.666C48.6748 117.703 48.8897 117.696 49.0965 117.646C49.3033 117.596 49.4978 117.505 49.668 117.377C49.8382 117.25 49.9805 117.089 50.0862 116.904C50.1919 116.72 50.2589 116.516 50.2829 116.304C50.3069 116.093 50.2874 115.879 50.2257 115.675C50.164 115.472 50.0614 115.283 49.9241 115.121L26.1763 83.4236C26.053 83.2532 25.8967 83.1093 25.7164 83.0009L25.7155 83.0026Z" fill="#F05542"/>
<path fill-rule="evenodd" clip-rule="evenodd" d="M88.7606 119.401C88.5899 119.314 88.4046 119.259 88.2139 119.239L48.8833 114.518C48.6755 114.485 48.4631 114.494 48.2589 114.544C48.0546 114.595 47.8627 114.687 47.6948 114.814C47.5268 114.94 47.3862 115.1 47.2815 115.282C47.1768 115.465 47.1101 115.667 47.0854 115.876C47.0606 116.085 47.0785 116.297 47.1377 116.499C47.197 116.701 47.2965 116.888 47.4303 117.051C47.564 117.213 47.7291 117.347 47.9159 117.444C48.1027 117.541 48.3072 117.6 48.517 117.616L87.8393 122.338C88.2055 122.39 88.578 122.31 88.8906 122.112C89.2032 121.915 89.4355 121.613 89.5462 121.26C89.6569 120.907 89.6388 120.527 89.4951 120.186C89.3514 119.845 89.0913 119.567 88.7614 119.4L88.7606 119.401ZM112.96 78.3949C112.787 78.3069 112.599 78.2519 112.405 78.2321L72.6081 73.4496C72.4019 73.4251 72.193 73.4413 71.9932 73.4976C71.7933 73.5538 71.6065 73.6488 71.4434 73.7772C71.2803 73.9057 71.144 74.065 71.0425 74.2461C70.9409 74.4272 70.876 74.6265 70.8515 74.8327C70.8269 75.0388 70.8432 75.2478 70.8995 75.4477C70.9557 75.6475 71.0507 75.8343 71.1792 75.9974C71.3076 76.1605 71.467 76.2966 71.6481 76.3981C71.8291 76.4997 72.0283 76.5648 72.2344 76.5893L112.03 81.3633C112.398 81.4107 112.771 81.327 113.083 81.1269C113.396 80.9268 113.628 80.623 113.739 80.2689C113.85 79.9148 113.832 79.5331 113.69 79.1904C113.547 78.8478 113.289 78.566 112.96 78.3949ZM72.4195 44.4326C72.2502 44.3349 72.0582 44.2824 71.8632 44.2611L48.5412 41.3102C46.4486 41.0518 46.0612 44.1907 48.1538 44.449L71.4704 47.3968C73.225 47.6402 73.9891 45.2539 72.4195 44.4326Z" fill="#F05542"/>
<path fill-rule="evenodd" clip-rule="evenodd" d="M98.8231 59.8316C97.3218 59.1253 95.8853 60.9128 96.8993 62.2259L110.974 80.7107C112.239 82.395 114.765 80.499 113.501 78.8142L99.4231 60.3348C99.2691 60.1182 99.0616 59.9474 98.8231 59.8316ZM49.1274 41.5408C48.8123 41.3542 48.442 41.2833 48.0801 41.3395C47.7183 41.3957 47.3873 41.5758 47.1436 41.8491C46.8999 42.1225 46.7587 42.4722 46.7443 42.8381C46.7299 43.2041 46.8432 43.5635 47.0646 43.8552L55.0925 54.5669L63.8545 66.2651L71.1019 75.9349C71.2264 76.1008 71.3825 76.2404 71.561 76.346C71.7396 76.4516 71.9371 76.5211 72.1425 76.5504C72.3479 76.5796 72.5571 76.5681 72.758 76.5166C72.9589 76.465 73.1477 76.3746 73.3136 76.2501C73.4795 76.1255 73.6192 75.9697 73.7248 75.7911C73.8305 75.6126 73.8999 75.415 73.9292 75.2096C73.9584 75.0042 73.9471 74.7949 73.8955 74.594C73.8439 74.393 73.7533 74.2043 73.6287 74.0384L66.3813 64.3686L57.6163 52.6757L49.5937 41.9671C49.4685 41.7952 49.31 41.65 49.1274 41.5408ZM81.1473 109.262C80.9727 109.172 80.7831 109.115 80.5879 109.095L70.6427 107.899L60.689 106.704C60.4828 106.68 60.2739 106.696 60.0741 106.752C59.8742 106.809 59.6874 106.904 59.5243 107.032C59.3612 107.16 59.2249 107.32 59.1234 107.501C59.0218 107.682 58.9569 107.881 58.9323 108.087C58.9078 108.294 58.9243 108.502 58.9805 108.702C59.0368 108.902 59.1316 109.089 59.2601 109.252C59.3885 109.415 59.5479 109.551 59.7289 109.653C59.91 109.754 60.1094 109.819 60.3155 109.844L70.2636 111.035L80.2173 112.23C80.5852 112.277 80.958 112.193 81.2703 111.993C81.5826 111.793 81.8145 111.489 81.9254 111.135C82.0363 110.781 82.019 110.4 81.8767 110.057C81.7345 109.715 81.4761 109.433 81.1471 109.262L81.1473 109.262ZM74.3465 102.606C74.1734 102.518 73.9854 102.463 73.7923 102.443L63.8418 101.244C63.6357 101.219 63.4268 101.235 63.2269 101.291C63.0271 101.348 62.8403 101.443 62.6771 101.571C62.514 101.7 62.3777 101.859 62.2762 102.04C62.1746 102.221 62.1097 102.42 62.0852 102.627C62.0606 102.833 62.0769 103.042 62.1332 103.242C62.1894 103.441 62.2845 103.628 62.4129 103.791C62.5413 103.954 62.7007 104.09 62.8817 104.192C63.0628 104.294 63.262 104.359 63.4682 104.383L73.4133 105.58C73.7837 105.632 74.1607 105.551 74.4769 105.351C74.7931 105.151 75.028 104.846 75.14 104.489C75.2519 104.132 75.2338 103.747 75.0884 103.402C74.9431 103.057 74.6802 102.775 74.3465 102.606Z" fill="#F05542"/>
<path fill-rule="evenodd" clip-rule="evenodd" d="M112.461 78.086C112.168 77.9382 111.837 77.8853 111.512 77.9345C111.188 77.9837 110.887 78.1324 110.651 78.3604C110.416 78.5885 110.257 78.8844 110.197 79.2069C110.137 79.5294 110.178 79.8626 110.316 80.1602C112.851 85.8612 115.39 91.5609 117.925 97.2621C106.011 95.9017 94.1004 94.5453 82.1868 93.1849L73.8238 74.3793C73.7434 74.1842 73.6245 74.0073 73.4745 73.8589C73.3244 73.7104 73.1463 73.5932 72.9504 73.5148C72.7544 73.4364 72.5446 73.3983 72.3336 73.4023C72.1225 73.4063 71.9144 73.4525 71.7216 73.5383C71.5287 73.6241 71.355 73.7478 71.2107 73.9018C71.0664 74.0559 70.9544 74.2372 70.8814 74.4353C70.8084 74.6333 70.776 74.8438 70.7858 75.0546C70.7956 75.2655 70.8475 75.4724 70.9385 75.6628L79.6667 95.2919C79.778 95.5439 79.9534 95.7624 80.1752 95.9257C80.3971 96.089 80.6578 96.1916 80.9315 96.2229C94.0568 97.7216 107.179 99.2186 120.304 100.717C120.581 100.749 120.861 100.708 121.116 100.596C121.372 100.485 121.593 100.308 121.758 100.084C121.923 99.8593 122.026 99.5953 122.056 99.3184C122.086 99.0414 122.043 98.7611 121.929 98.5065C119.02 91.9636 116.111 85.4204 113.201 78.8774C113.056 78.5346 112.794 78.2542 112.461 78.0857L112.461 78.086ZM80.3193 26.63C80.1174 26.5134 79.8978 26.4305 79.6668 26.4029C66.5414 24.9042 53.4198 23.4073 40.2944 21.9085C39.0799 21.7679 38.1728 23.0016 38.6691 24.119C41.5785 30.6619 44.4878 37.2051 47.3973 43.748C48.2225 45.7491 51.2163 44.4174 50.2826 42.4646C47.7475 36.7637 45.2094 31.0637 42.6742 25.3627C54.5878 26.7232 66.4984 28.0794 78.412 29.4399L83.9807 42.4361C84.806 44.4373 87.7997 43.1055 86.866 41.1527L80.9322 27.3329C80.8029 27.0431 80.5904 26.7961 80.3199 26.629L80.3193 26.63Z" fill="#F05542"/>
<path fill-rule="evenodd" clip-rule="evenodd" d="M49.5788 41.9434C49.2756 41.7583 48.9188 41.6807 48.5661 41.7234C41.445 42.4752 34.3237 43.2272 27.2027 43.9791C26.9256 44.0084 26.6613 44.1104 26.4364 44.2749C26.2116 44.4394 26.0341 44.6606 25.9222 44.9157C25.8104 45.1709 25.7681 45.4509 25.7994 45.7277C25.8308 46.0046 25.9349 46.2682 26.101 46.4918C33.9617 57.1094 41.8188 67.7246 49.6794 78.3421C49.8435 78.5635 50.0625 78.7383 50.3148 78.8488C50.5672 78.9593 50.8441 79.0019 51.118 78.9723L72.4813 76.7166C72.6918 76.7002 72.8969 76.6417 73.0844 76.5447C73.2719 76.4478 73.4381 76.3142 73.5731 76.1519C73.7082 75.9897 73.8092 75.802 73.8705 75.6001C73.9318 75.3981 73.9518 75.1861 73.9297 74.9762C73.9076 74.7663 73.8437 74.5626 73.7417 74.3779C73.6396 74.1931 73.5015 74.0308 73.3356 73.9003C73.1697 73.7698 72.9794 73.6738 72.7758 73.6181C72.5722 73.5624 72.3594 73.5482 72.1502 73.5761L51.6828 75.736C44.5478 66.0987 37.4177 56.4623 30.2827 46.825C36.4876 46.1698 42.6929 45.5182 48.8976 44.8632C49.2279 44.8328 49.5404 44.699 49.7905 44.4811C50.0406 44.2632 50.2158 43.9721 50.2912 43.649C50.3665 43.326 50.3383 42.9873 50.2105 42.6812C50.0826 42.3751 49.8614 42.1172 49.5787 41.9438L49.5788 41.9434ZM108.964 43.2386C108.648 43.0561 108.282 42.9796 107.921 43.035L94.5638 45.3753C92.4822 45.6982 92.9666 48.8203 95.048 48.4974L107.459 46.3021C114.583 55.9247 121.71 65.5475 128.834 75.1704C122.626 75.8256 116.418 76.479 110.211 77.1345C108.053 77.3023 108.396 80.5609 110.542 80.275C117.663 79.5232 124.784 78.7711 131.905 78.0193C133.121 77.8929 133.739 76.4929 133.012 75.5097C125.152 64.8921 117.289 54.2739 109.429 43.6563C109.303 43.4887 109.145 43.3465 108.964 43.2387L108.964 43.2386Z" fill="#F05542"/>
<path d="M95.1883 25.0578C94.7877 24.8265 94.3116 24.7639 93.8647 24.8836C93.4179 25.0033 93.037 25.2954 92.8056 25.696L79.7058 48.3856L78.9386 47.9426L72.1802 43.9899C71.8879 43.8191 71.5522 43.7369 71.2141 43.7536C70.8759 43.7703 70.5499 43.8849 70.2759 44.0837C70.0018 44.2825 69.7914 44.5568 69.6705 44.8731C69.5496 45.1894 69.5234 45.5338 69.595 45.8647L74.5045 68.8422C74.5556 69.0808 74.6562 69.306 74.7998 69.5033C74.9434 69.7007 75.1267 69.8657 75.338 69.9878C75.5494 70.1098 75.784 70.186 76.0267 70.2117C76.2693 70.2374 76.5147 70.2119 76.7469 70.1369L98.9822 62.9419C99.3034 62.8387 99.5878 62.6444 99.801 62.3829C100.014 62.1214 100.147 61.8039 100.183 61.4685C100.219 61.1331 100.158 60.7943 100.005 60.4933C99.853 60.1922 99.6167 59.9418 99.325 59.7723L92.5634 55.8249L91.7901 55.3384L104.894 32.6425C105.125 32.2418 105.187 31.7658 105.068 31.319C104.948 30.8721 104.655 30.4912 104.255 30.2598L95.2024 25.0334L95.1883 25.0578ZM94.9548 28.9511L100.986 32.4331L87.9064 55.0873C87.6795 55.4798 87.6142 55.9455 87.7246 56.3853C87.8349 56.825 88.1122 57.2044 88.4975 57.4433L90.745 58.8246C90.7567 58.8315 90.7685 58.8383 90.7803 58.845L94.1872 60.8485L77.5003 66.2422L73.8176 49.0168L77.1814 50.9995C77.1931 51.0064 77.2049 51.0132 77.2168 51.0198L79.5113 52.2787C79.9141 52.5009 80.3884 52.555 80.8309 52.4293C81.2734 52.3035 81.6483 52.008 81.8741 51.6072L94.9571 28.9467L94.9548 28.9511Z" fill="#2B4255"/>
</g>
<defs>
<filter id="filter0_f" x="9.57056" y="2.64111" width="138.643" height="139.032" filterUnits="userSpaceOnUse" color-interpolation-filters="sRGB">
<feFlood flood-opacity="0" result="BackgroundImageFix"/>
<feBlend mode="normal" in="SourceGraphic" in2="BackgroundImageFix" result="shape"/>
<feGaussianBlur stdDeviation="2.5" result="effect1_foregroundBlur"/>
</filter>
</defs>
</svg>
