<svg width="99" height="37" viewBox="0 0 99 37" fill="none" xmlns="http://www.w3.org/2000/svg">
<g clip-path="url(#clip0)">
<path fill-rule="evenodd" clip-rule="evenodd" d="M6.76405 18.6177L12.032 13.3357L6.76405 8.05371C8.08105 8.05371 9.38501 8.05371 10.702 8.05371L15.97 13.3357L10.702 18.6177C9.38501 18.6177 8.06801 18.6177 6.76405 18.6177ZM-0.186035 18.6177L5.08195 13.3357L-0.186035 8.05371C1.13096 8.05371 2.43492 8.05371 3.75192 8.05371L9.0199 13.3357L3.75192 18.6177C2.44796 18.6177 1.13096 18.6177 -0.186035 18.6177Z" fill="white"/>
<path fill-rule="evenodd" clip-rule="evenodd" d="M49.9138 29.3714C50.9309 29.3714 51.7263 28.8615 51.7263 27.8417C51.7263 26.9396 50.9178 26.6258 50.2137 26.4035C50.1876 26.3905 50.1485 26.3905 50.1224 26.3774C49.5878 26.2074 49.1184 26.0505 49.1184 25.7237C49.1184 25.423 49.3661 25.2138 49.7964 25.2138C50.2006 25.2138 50.6961 25.3838 51.1656 25.6714L51.6089 24.8739C51.0873 24.5339 50.4223 24.3247 49.8225 24.3247C48.8576 24.3247 48.0882 24.8869 48.0882 25.8152C48.0882 26.7696 48.8967 27.0573 49.6139 27.2795C49.6399 27.2926 49.666 27.2926 49.6921 27.3057C50.2267 27.4626 50.6961 27.5933 50.6961 27.9463C50.6961 28.2862 50.4223 28.4954 49.9398 28.4954C49.4443 28.4954 48.8706 28.2862 48.349 27.894L47.8535 28.6523C48.4533 29.123 49.2227 29.3714 49.9138 29.3714ZM55.0774 29.3845C55.9772 29.3845 56.6031 29.0184 57.0725 28.4693L56.4205 27.8809C56.0293 28.2601 55.6512 28.4693 55.1035 28.4693C54.3863 28.4693 53.8256 28.0247 53.7083 27.2272H57.2811C57.2942 27.1749 57.2942 26.9919 57.2942 26.9134C57.2942 25.5145 56.5118 24.2855 54.9601 24.2855C53.5648 24.2855 52.5869 25.4361 52.5869 26.8219C52.5869 28.3647 53.6692 29.3845 55.0774 29.3845ZM53.6952 26.4951C53.7865 25.7368 54.269 25.2007 54.947 25.2007C55.6903 25.2007 56.1076 25.7629 56.1858 26.482H53.6952V26.4951ZM60.6714 29.3845C61.6233 29.3845 62.184 29.0053 62.6665 28.4693L61.9884 27.8025C61.6363 28.1686 61.2451 28.417 60.7236 28.417C59.863 28.417 59.2631 27.711 59.2631 26.8481C59.2631 25.9721 59.8499 25.2792 60.6584 25.2792C61.2191 25.2792 61.5842 25.5276 61.9232 25.8937L62.6143 25.1484C62.1579 24.6516 61.5842 24.3117 60.6714 24.3117C59.211 24.3117 58.1417 25.4753 58.1417 26.8611C58.1548 28.247 59.224 29.3845 60.6714 29.3845ZM65.3657 29.3714C66.122 29.3714 66.5783 28.9792 66.8913 28.5085V29.2668H68.0127V24.3901H66.8913V27.1488C66.8913 27.9071 66.4349 28.3647 65.796 28.3647C65.1309 28.3647 64.7528 27.9332 64.7528 27.1749V24.4032H63.6314V27.5149C63.6314 28.6392 64.2703 29.3714 65.3657 29.3714ZM69.4079 29.2799H70.5293V27.4233C70.5293 26.129 71.2074 25.4884 72.1853 25.4884H72.2505V24.2986C71.3899 24.2594 70.8292 24.7562 70.5293 25.4884V24.3901H69.4079V29.2799ZM75.2757 29.3845C76.1755 29.3845 76.8014 29.0184 77.2708 28.4693L76.6188 27.8809C76.2276 28.2601 75.8495 28.4693 75.3018 28.4693C74.5846 28.4693 74.0239 28.0247 73.9066 27.2272H77.4794C77.4924 27.1749 77.4925 26.9919 77.4925 26.9134C77.4925 25.5145 76.7101 24.2855 75.1584 24.2855C73.7631 24.2855 72.7852 25.4361 72.7852 26.8219C72.7852 28.3647 73.8675 29.3845 75.2757 29.3845ZM73.8805 26.4951C73.9848 25.7368 74.4673 25.2138 75.1453 25.2138C75.8886 25.2138 76.3059 25.776 76.3841 26.4951H73.8805ZM80.6219 29.3714C81.4174 29.3714 81.9259 28.9661 82.278 28.4562V29.2668H83.3994V22.5205H82.278V25.1484C81.9259 24.6908 81.4174 24.2855 80.6219 24.2855C79.4614 24.2855 78.3661 25.2007 78.3661 26.8219C78.3661 28.4562 79.4875 29.3714 80.6219 29.3714ZM80.8958 28.4039C80.1395 28.4039 79.5005 27.7894 79.5005 26.835C79.5005 25.8414 80.1395 25.253 80.8958 25.253C81.639 25.253 82.3041 25.8675 82.3041 26.8219C82.3041 27.7763 81.639 28.4039 80.8958 28.4039ZM90.3234 29.3714C91.4839 29.3714 92.5923 28.4562 92.5923 26.835C92.5923 25.2007 91.4709 24.2855 90.3234 24.2855C89.541 24.2855 89.0325 24.6908 88.6674 25.2007V22.5205H87.546V29.2668H88.6674V28.5085C89.0194 28.9661 89.528 29.3714 90.3234 29.3714ZM90.0756 28.4039C89.3193 28.4039 88.6543 27.7894 88.6543 26.835C88.6543 25.8806 89.3193 25.253 90.0756 25.253C90.8319 25.253 91.4709 25.8675 91.4709 26.8219C91.4578 27.8025 90.8319 28.4039 90.0756 28.4039ZM94.5091 30.7834C95.2915 30.7834 95.7218 30.4173 96.113 29.4106L98.0558 24.3901H96.8953L95.6305 28.0117L94.2483 24.3901H93.0617L95.0959 29.2668C94.9133 29.6982 94.7177 29.829 94.4048 29.829C94.1701 29.829 93.9484 29.7505 93.7528 29.6459L93.3746 30.4827C93.7006 30.6657 94.0397 30.7834 94.5091 30.7834Z" fill="white"/>
<path fill-rule="evenodd" clip-rule="evenodd" d="M31.2402 17.0359C31.6705 17.0359 32.0878 16.9182 32.4398 16.696C33.157 16.2645 33.5482 15.5062 33.5482 14.6695C33.5482 13.8066 33.1309 13.0221 32.3746 12.5907C32.0226 12.3946 31.6314 12.29 31.2402 12.29C30.836 12.29 30.4448 12.3946 30.0927 12.6038C29.3495 13.0352 28.9452 13.8197 28.9452 14.6695C28.9452 15.4932 29.3234 16.2515 30.0275 16.6829C30.3926 16.9182 30.8099 17.0359 31.2402 17.0359ZM20.8477 13.7674V9.96276H22.8818C23.4034 9.96276 23.8468 10.1589 24.2249 10.525C24.6031 10.891 24.7856 11.3356 24.7856 11.8585C24.7856 12.3815 24.59 12.826 24.2249 13.2052C23.8598 13.5712 23.4034 13.7674 22.8818 13.7674H22.5167H20.8477ZM20.8477 15.6631H22.5298H22.8949C23.4034 15.6631 23.8989 15.5716 24.3684 15.3624C24.8247 15.1663 25.229 14.8917 25.568 14.5518C25.9201 14.1988 26.1809 13.7935 26.3764 13.349C26.5851 12.8783 26.6764 12.3815 26.6764 11.8716C26.6764 11.3617 26.5851 10.8649 26.3764 10.3942C26.1809 9.94969 25.907 9.54439 25.568 9.19139C25.2159 8.83838 24.8117 8.5769 24.3684 8.38078C23.8989 8.1716 23.4034 8.08008 22.8949 8.08008H18.97V18.6179H20.8607L20.8477 15.6631ZM33.6656 17.6896C33.0005 18.3956 32.0617 18.7748 31.0968 18.7748C28.8148 18.7748 27.1458 16.9313 27.1458 14.6695C27.1458 12.4207 28.8018 10.5511 31.0968 10.5511C32.0747 10.5511 33.0005 10.9433 33.6656 11.6493V10.6426H35.452V18.6833H33.6656V17.6896ZM43.041 17.572C42.4673 18.2649 41.5806 18.5917 40.6808 18.5917C38.3468 18.5917 37.1862 16.9705 37.1862 14.7348V10.6557H38.9857V14.6433C38.9857 15.9769 39.5203 16.8529 40.9286 16.8529C42.4412 16.8529 43.0671 15.7677 43.0671 14.3557V10.6557H44.8535V17.572C44.8535 19.9776 43.367 21.638 40.9156 21.638C39.6507 21.638 38.438 21.2327 37.4601 20.4091L37.3558 20.3306L38.3989 19.2193L38.4902 19.2716C39.2595 19.7423 40.0158 19.9776 40.9156 19.9776C42.2586 19.9776 43.0541 19.2585 43.0541 17.8988V17.572H43.041Z" fill="white"/>
<path fill-rule="evenodd" clip-rule="evenodd" d="M75.1845 12.8127L75.2366 12.7081C75.2366 12.6951 75.2497 12.682 75.2497 12.6689L75.3018 12.5643L75.3149 12.5382L75.3279 12.512L75.354 12.4728C75.367 12.4466 75.3931 12.4205 75.4061 12.3943L75.4192 12.3813C75.4322 12.3682 75.4322 12.3551 75.4453 12.342L75.4583 12.329L75.4844 12.2898L75.4974 12.2767C75.5235 12.2375 75.5626 12.1852 75.5887 12.1459C75.6017 12.1329 75.6148 12.1198 75.6278 12.1067C76.3841 11.1261 77.5446 10.5509 78.7834 10.5509H78.9399C81.1827 10.5901 82.7996 12.4205 82.7996 14.6562C82.7996 16.9049 81.1436 18.7746 78.8486 18.7746C77.9619 18.7746 77.1013 18.3954 76.5276 17.7286V21.5201H74.7411V14.4731C74.7672 13.9763 74.8715 13.4795 75.0671 13.0219V13.0088L75.0802 12.9696L75.0932 12.9435L75.1062 12.9042L75.1193 12.865L75.1845 12.8127ZM48.2317 8.05371H50.1224V18.5915H48.2317V8.05371ZM52.7173 13.3357L57.0986 18.6177H54.608L50.3832 13.3357L54.595 8.05371H57.0856L52.7173 13.3357ZM58.7025 15.1661C58.7677 16.4212 59.7717 17.0749 60.9974 17.0749C61.845 17.0749 62.6926 16.8396 63.4228 16.4081L63.5141 16.3558L64.5051 17.4279L64.4008 17.5064C63.4097 18.2647 62.2492 18.7223 60.9974 18.7223C58.5981 18.7223 56.8639 17.0357 56.8639 14.617C56.8639 12.2505 58.5199 10.4986 60.9062 10.4986C62.5231 10.4986 63.814 11.27 64.4529 12.7604C64.7267 13.4011 64.805 14.3947 64.5963 15.0484L64.5703 15.1399L58.7025 15.1661ZM67.5303 15.1661C67.5955 16.4212 68.5995 17.0749 69.8252 17.0749C70.6728 17.0749 71.5204 16.8396 72.2506 16.4081L72.3419 16.3558L73.3329 17.4279L73.2285 17.5064C72.2375 18.2647 71.077 18.7223 69.8252 18.7223C67.4259 18.7223 65.6917 17.0357 65.6917 14.617C65.6917 12.2505 67.3477 10.4986 69.7339 10.4986C71.3508 10.4986 72.6418 11.27 73.2807 12.7604C73.5545 13.4011 73.6328 14.3947 73.4241 15.0484L73.3981 15.1399L67.5303 15.1661ZM85.7204 15.1661C85.7856 16.4212 86.7897 17.0749 88.0154 17.0749C88.863 17.0749 89.7106 16.8396 90.4408 16.4081L90.5321 16.3558L91.5231 17.4279L91.4187 17.5064C90.4277 18.2647 89.2672 18.7223 88.0154 18.7223C85.6161 18.7223 83.8819 17.0357 83.8819 14.617C83.8819 12.2505 85.5379 10.4986 87.9241 10.4986C89.541 10.4986 90.832 11.27 91.4709 12.7604C91.7447 13.4011 91.823 14.3947 91.6143 15.0484L91.5883 15.1399H85.7204V15.1661ZM76.5276 14.6431C76.5276 17.9117 81.0132 17.6371 81.0132 14.6431C81.0132 11.6491 76.5276 11.3746 76.5276 14.6431ZM58.8068 13.741H62.9273C62.9012 13.5972 62.849 13.4664 62.7839 13.3357C62.4318 12.5905 61.7276 12.1852 60.9192 12.1852C60.0195 12.1852 59.1719 12.6689 58.872 13.5449C58.8329 13.6102 58.8198 13.6756 58.8068 13.741ZM67.6346 13.741H71.7551C71.729 13.5972 71.6768 13.4664 71.6116 13.3357C71.2596 12.5905 70.5554 12.1852 69.747 12.1852C68.8472 12.1852 67.9997 12.6689 67.6998 13.5449C67.6737 13.6102 67.6476 13.6756 67.6346 13.741ZM85.8248 13.741H89.9453C89.9192 13.5972 89.867 13.4664 89.8018 13.3357C89.4498 12.5905 88.7456 12.1852 87.9372 12.1852C87.0374 12.1852 86.1899 12.6689 85.89 13.5449C85.8508 13.6102 85.8378 13.6756 85.8248 13.741ZM94.8351 11.6883C95.5523 10.8908 96.5563 10.5378 97.6386 10.5378H98.0559V12.329H97.2865C95.5653 12.329 94.8612 13.5057 94.8612 15.1007V18.6307H92.9965V10.6163H94.8221V11.6883H94.8351Z" fill="#E0E0E0"/>
</g>
<defs>
<clipPath id="clip0">
<rect width="99" height="37" fill="white"/>
</clipPath>
</defs>
</svg>
