<svg width="65" height="41" viewBox="0 0 65 41" fill="none" xmlns="http://www.w3.org/2000/svg">
<path d="M17.4124 0C15.6617 0 14.2188 1.44273 14.2188 3.19366V9.37865H16.25V3.19366C16.25 2.5329 16.7517 2.03125 17.4124 2.03125H61.8063C62.467 2.03125 62.9687 2.5329 62.9687 3.19366V29.3103C62.9687 29.9706 62.4669 30.4687 61.8063 30.4687H46.0284V32.5H61.8063C63.5571 32.5 64.9999 31.061 64.9999 29.3103V3.19366C64.9999 1.44273 63.557 0 61.8063 0H17.4124Z" fill="#F05542"/>
<path d="M15.2344 4.0625V6.09375H62.9687V10.1562H45.3619V12.1875H64.9999V4.0625H15.2344ZM47.6788 16.254C46.9887 16.2552 46.3187 16.4064 45.7031 16.6745L46.5124 18.5391C46.8913 18.3746 47.2924 18.2852 47.6867 18.2852H47.6908H47.6987C48.4198 18.2852 49.034 18.6757 49.5832 19.1263C49.218 19.8364 48.7517 20.5141 48.75 21.3241C48.7511 22.1539 49.2212 22.854 49.603 23.5776C48.7082 24.3108 47.5176 24.5875 46.4411 24.0854L45.5842 25.9264C47.6241 26.8779 50.057 26.3673 51.543 24.6765L52.1341 24.006L51.543 23.3358C51.053 22.7803 50.7823 22.0653 50.7813 21.3241C50.7828 20.5848 51.0535 19.8718 51.543 19.3167L52.1341 18.6465L51.543 17.976C50.5678 16.8661 49.1561 16.2356 47.6789 16.2502L47.6788 16.254Z" fill="#F05542"/>
<path d="M53.8281 16.25C51.0356 16.25 48.75 18.5356 48.75 21.3281C48.75 24.1207 51.0356 26.4062 53.8281 26.4062C56.6207 26.4062 58.9062 24.1207 58.9062 21.3281C58.9062 18.5356 56.6207 16.25 53.8281 16.25ZM53.8281 18.2812C55.5229 18.2812 56.875 19.6334 56.875 21.3281C56.875 23.023 55.5229 24.375 53.8281 24.375C52.1333 24.375 50.7813 23.023 50.7812 21.3281C50.7813 19.6334 52.1333 18.2812 53.8281 18.2812Z" fill="#F05542"/>
<path d="M3.19366 8.12939C1.44282 8.12939 0 9.56836 0 11.3191V37.4357C0 39.1866 1.44294 40.6294 3.19366 40.6294H43.525C45.2758 40.6294 46.7187 39.1866 46.7187 37.4357V11.3191C46.7187 9.56836 45.2759 8.12939 43.525 8.12939H3.19366ZM3.19366 10.1606H43.525C44.1856 10.1606 44.6875 10.6583 44.6875 11.3191V37.4357C44.6875 38.0965 44.1857 38.5981 43.525 38.5981H3.19366C2.53296 38.5981 2.03125 38.0965 2.03125 37.4357V11.3191C2.03125 10.6583 2.53308 10.1606 3.19366 10.1606Z" fill="#2B4255"/>
<path d="M23.3594 16.2534C18.8842 16.2534 15.2344 19.9032 15.2344 24.3784C15.2343 28.8537 18.8841 32.5034 23.3594 32.5034C27.8346 32.5034 31.4844 28.8537 31.4844 24.3784C31.4843 19.9032 27.8345 16.2534 23.3594 16.2534ZM23.3594 18.2847C26.7368 18.2847 29.4531 21.0009 29.4531 24.3784C29.4532 27.7558 26.7369 30.4722 23.3594 30.4722C19.9819 30.4722 17.2656 27.7558 17.2656 24.3784C17.2657 21.0009 19.9819 18.2847 23.3594 18.2847Z" fill="#2B4255"/>
<path fill-rule="evenodd" clip-rule="evenodd" d="M33.5156 18.2812V20.3125H37.5781V18.2812H33.5156ZM35.5468 23.3594V25.3906H41.6406V23.3594H35.5468ZM33.5156 28.4375V30.4687H37.5781V28.4375H33.5156ZM9.14062 18.2812V20.3125H13.2031V18.2812H9.14062ZM5.07812 23.3594V25.3906H11.1719V23.3594H5.07812ZM9.14062 28.4375V30.4687H13.2031V28.4375H9.14062Z" fill="#2B4255"/>
</svg>
