<svg width="25" height="25" viewBox="0 0 25 25" fill="none" xmlns="http://www.w3.org/2000/svg">
<path d="M18.9141 15.7429L16.8231 16.9209C16.5722 17.0622 16.2819 17.1174 15.9966 17.0782C15.7113 17.0391 15.4467 16.9076 15.2431 16.7039L8.2641 9.7249C8.06056 9.52125 7.92919 9.25663 7.89001 8.97138C7.85084 8.68613 7.906 8.39589 8.0471 8.1449L9.2251 6.0539C9.43715 5.67756 9.52017 5.24216 9.46148 4.8142C9.40279 4.38624 9.20563 3.98926 8.9001 3.6839L5.7661 0.5499C5.58242 0.366123 5.36432 0.220338 5.12428 0.120874C4.88423 0.0214094 4.62694 -0.0297852 4.3671 -0.0297852C4.10727 -0.0297852 3.84998 0.0214094 3.60993 0.120874C3.36989 0.220338 3.15179 0.366123 2.9681 0.5499L1.5451 1.9719C0.712977 2.80401 0.182929 3.89044 0.0392408 5.05842C-0.104448 6.22641 0.146473 7.40891 0.752104 8.4179L1.4661 9.6079C5.11234 15.6848 10.2589 20.7229 16.4121 24.2389L16.5531 24.3199C18.6551 25.5209 21.2521 25.1709 22.9351 23.4889L24.4211 22.0029C24.6049 21.8192 24.7507 21.6011 24.8501 21.3611C24.9496 21.121 25.0008 20.8637 25.0008 20.6039C25.0008 20.3441 24.9496 20.0868 24.8501 19.8467C24.7507 19.6067 24.6049 19.3886 24.4211 19.2049L21.2851 16.0689C20.9798 15.763 20.5827 15.5655 20.1545 15.5066C19.7263 15.4477 19.2907 15.5307 18.9141 15.7429Z" fill="#7DE935"/>
</svg>
