<svg width="30" height="30" viewBox="0 0 30 30" fill="none" xmlns="http://www.w3.org/2000/svg">
<path d="M15 0C6.72909 0 0 6.72909 0 15C0 23.2709 6.72909 30 15 30C23.2709 30 30 23.2709 30 15C30 6.72909 23.2709 0 15 0Z" fill="#11D028"/>
<path d="M7 8.77778C7 8.30628 7.17559 7.8541 7.48816 7.5207C7.80072 7.1873 8.22464 7 8.66667 7H11.4C11.5748 7.00014 11.7452 7.05893 11.887 7.16804C12.0287 7.27716 12.1348 7.43107 12.19 7.608L13.4383 11.6018C13.5016 11.8047 13.4941 12.0252 13.4173 12.2228C13.3404 12.4204 13.1994 12.5817 13.02 12.6773L11.1392 13.6818C12.0611 15.8583 13.6954 17.6015 15.7358 18.5849L16.6775 16.5787C16.7671 16.3873 16.9184 16.2369 17.1036 16.1549C17.2888 16.073 17.4956 16.065 17.6858 16.1324L21.43 17.464C21.596 17.523 21.7404 17.6362 21.8427 17.7876C21.945 17.939 22 18.1209 22 18.3076V21.2222C22 21.6937 21.8244 22.1459 21.5118 22.4793C21.1993 22.8127 20.7754 23 20.3333 23H19.5C12.5967 23 7 17.0302 7 9.66667V8.77778Z" stroke="white" stroke-width="2" stroke-linecap="round" stroke-linejoin="round"/>
</svg>
