<svg width="25" height="80" viewBox="0 0 25 80" fill="none" xmlns="http://www.w3.org/2000/svg">
<path opacity="0.2" d="M24.2148 0.588948L24.2148 0.588948L24.2144 0.589586L0.741711 38.8642C0.741674 38.8642 0.741636 38.8643 0.7416 38.8644C0.598669 39.0988 0.500002 39.5214 0.500002 40.0015C0.500002 40.4815 0.598669 40.9042 0.7416 41.1385C0.741636 41.1386 0.741674 41.1387 0.741711 41.1387L24.2133 79.4116C24.2135 79.4119 24.2137 79.4122 24.2139 79.4126C24.221 79.4239 24.2276 79.4341 24.2339 79.4432C24.3567 79.2708 24.5 78.8722 24.5 78.277V68.1921C24.5 66.0296 24.0407 64.0676 23.3143 62.8843L23.3142 62.8842L9.44019 40.2629L9.27987 40.0015L9.44019 39.74L23.3142 17.1188L23.3143 17.1186C24.0405 15.9356 24.5 13.9523 24.5 11.8109L24.5 1.72589L24.5 1.72517C24.5004 1.44614 24.4662 1.17903 24.4059 0.955665C24.3538 0.763196 24.2903 0.632448 24.2366 0.555358C24.2298 0.565269 24.2224 0.576425 24.2148 0.588948ZM24.2964 79.5147C24.2964 79.5146 24.2956 79.5141 24.294 79.5132C24.2956 79.5143 24.2963 79.5147 24.2964 79.5147ZM24.1736 79.5112C24.1716 79.5123 24.1706 79.513 24.1706 79.5131C24.1706 79.5132 24.1716 79.5127 24.1736 79.5112Z" stroke="black"/>
</svg>
