<svg width="34" height="28" viewBox="0 0 34 28" fill="none" xmlns="http://www.w3.org/2000/svg">
<g clip-path="url(#clip0)">
<path d="M1.18998 10.6198C1.18998 10.6198 11.92 18.1098 32.26 10.5298C32.26 10.5298 31.02 25.0798 17.13 26.3998C4.83998 26.9498 0.72998 11.1498 1.18998 10.6198Z" stroke="#FFC107" stroke-width="0.3" stroke-linecap="round" stroke-linejoin="round"/>
<path d="M15.09 13.2102C15.09 13.2102 14.92 14.2102 13.7 13.6402C12.8224 13.2984 11.8578 13.2493 10.95 13.5002C10.7044 13.5269 10.4561 13.4903 10.2286 13.3941C10.0011 13.2978 9.80192 13.145 9.65002 12.9502" stroke="#FFC107" stroke-width="0.3" stroke-miterlimit="10"/>
<path d="M3.72002 11.67C3.57456 11.5788 3.43737 11.4751 3.31002 11.36C3.01536 11.0985 2.73495 10.8215 2.47002 10.53C1.97986 10.0675 1.63278 9.47395 1.47002 8.81998C1.28002 7.57998 2.40002 6.42998 4.19002 7.86998C4.48043 8.09722 4.75755 8.34095 5.02002 8.59998C5.23635 8.86488 5.49278 9.09432 5.78002 9.27998C6.09634 9.43389 6.4331 9.54165 6.78002 9.59998C7.07002 9.59998 7.35002 9.72998 7.64002 9.75998C8.03278 9.78977 8.42725 9.78977 8.82002 9.75998C9.31623 9.72994 9.8138 9.72994 10.31 9.75998C11.38 9.84998 12.99 10.62 10.63 12.6C10.63 12.6 9.83002 13.46 7.09002 12.91C6.7519 12.8471 6.41794 12.7636 6.09002 12.66C5.72002 12.55 5.35002 12.42 4.99002 12.28L4.30002 11.95C4.09933 11.8727 3.90534 11.7791 3.72002 11.67V11.67Z" stroke="#FFC107" stroke-width="0.3" stroke-miterlimit="10"/>
<path d="M4.19001 7.80982C4.13001 7.55982 4.09001 7.31982 4.05001 7.06982C3.94484 6.6057 3.94484 6.12394 4.05001 5.65982C4.12001 5.38982 4.25001 4.95982 4.60001 4.94982C4.95001 4.93982 5.37001 5.58982 5.60001 5.88982C5.79105 6.46141 5.89883 7.05752 5.92001 7.65982C5.96372 8.07642 6.10411 8.47706 6.33001 8.82982C6.4758 9.08767 6.63954 9.33494 6.82001 9.56982" stroke="#FFC107" stroke-width="0.3" stroke-miterlimit="10"/>
<path d="M17.98 10.8899C18.68 10.9599 19.26 10.9999 19.72 11.0299C21.48 9.88993 22.93 8.20993 23.02 6.68993C23.02 2.39993 20.56 5.68993 20.56 5.68993C20.56 5.68993 19.91 6.51993 18.63 7.87993C17.35 9.23993 16.19 8.82993 15.19 9.11993C15.88 9.80993 16.42 10.7499 17.98 10.8899Z" stroke="#FFC107" stroke-width="0.3" stroke-miterlimit="10"/>
<path d="M6.7 9.43001C6.85797 9.19987 7.06237 9.00535 7.30004 8.85895C7.53771 8.71256 7.8034 8.61754 8.08 8.58001C8.08 8.58001 5.8 7.83001 5.92 7.20001C6.04 6.57001 6.65 7.37001 6.65 7.37001C6.62277 7.11406 6.54298 6.86649 6.41565 6.64279C6.28832 6.4191 6.11617 6.2241 5.91 6.07001C5.29 5.72001 5.99 5.07001 6.82 5.36001C7.29272 5.54536 7.73446 5.80163 8.13 6.12001C7.89626 5.52809 7.60837 4.959 7.27 4.42001C7.27 4.42001 7.07 4.00001 7.34 3.77001C7.61 3.54001 7.89 3.86001 8.43 4.65001C8.50612 4.80297 8.63095 4.92626 8.78483 5.00049C8.93871 5.07472 9.11291 5.09566 9.28 5.06001C8.94113 4.6617 8.68604 4.19915 8.53 3.70001C8.45 3.15001 8.82 2.79001 9.68 3.02001C10.8634 3.39477 11.9707 3.97719 12.95 4.74001C12.95 4.74001 13.21 4.06001 13.3 4.18001C13.39 4.30001 12.6 6.29001 15.45 8.44001L15.67 7.84001C15.67 7.84001 15.5 7.65001 15.49 7.63001C15.3321 7.43732 15.1884 7.23346 15.06 7.02001C14.6951 6.46586 14.4877 5.82294 14.46 5.16001C14.7523 5.40509 15.0931 5.58569 15.46 5.69001C15.36 5.40001 15.17 5.12001 15.07 4.83001C14.7938 4.20046 14.7341 3.49714 14.9 2.83001C14.9098 2.7682 14.9364 2.71028 14.977 2.66264C15.0176 2.615 15.0705 2.57949 15.13 2.56001C15.179 2.5556 15.2284 2.56333 15.2737 2.58252C15.3191 2.6017 15.359 2.63175 15.39 2.67001C15.75 3.00001 15.74 3.44001 15.95 3.84001C15.9798 3.42946 16.0097 3.16292 16.0997 2.76125C16.1997 2.44125 17.0097 1.76125 16.9097 2.85125C16.8097 3.94125 16.82 3.71001 17.18 4.01001C17.18 4.01001 18.24 2.79001 18.32 4.08001C18.2101 4.40614 18.1265 4.74054 18.07 5.08001C17.9092 5.63532 17.9303 6.2275 18.13 6.77001C18.1908 6.63288 18.2755 6.50761 18.38 6.40001C18.4164 6.36904 18.4622 6.3514 18.51 6.35001C18.68 6.35001 18.81 6.54001 18.88 6.66001C19.34 7.45001 18.78 7.78001 18.78 7.78001" stroke="#FFC107" stroke-width="0.3" stroke-miterlimit="10"/>
<path d="M31.04 10.82C30.89 10.58 30.61 10.74 30.04 11.19C29.86 11.32 29.51 11.46 29.32 11.28C29.4515 11.1656 29.5919 11.0619 29.74 10.97C29.9265 10.8301 30.0858 10.6573 30.21 10.46C30.41 10.07 30.21 9.71003 29.52 9.66003C28.5448 9.6348 27.5729 9.78381 26.65 10.1C26.65 10.1 26.65 9.53003 26.53 9.59003C26.41 9.65003 26.53 11.34 23.83 12.22V11.72C23.83 11.72 23.95 11.65 23.97 11.64L24.3 11.41C24.6337 11.178 24.9219 10.8865 25.15 10.55C25.2735 10.4015 25.3623 10.2272 25.41 10.04C25.2844 10.0885 25.1535 10.1221 25.02 10.14C24.8754 10.1748 24.7246 10.1748 24.58 10.14L24.71 10C24.8536 9.86304 24.9873 9.716 25.11 9.56003C25.4621 9.16248 25.673 8.65978 25.71 8.13003C25.7117 8.09291 25.7055 8.05585 25.6917 8.02135C25.6779 7.98685 25.6569 7.95571 25.63 7.93003C25.56 7.87003 25.45 7.93003 25.36 7.93003C25.0888 8.10311 24.8571 8.3314 24.68 8.60003C24.68 8.30003 24.83 8.00003 24.84 7.69003C24.85 7.38003 24.42 6.69003 24.22 7.55003C24.02 8.41003 24.04 8.36003 23.7 8.46003C23.7 8.46003 23.22 7.28003 22.84 8.22003C22.8197 8.38942 22.8197 8.56063 22.84 8.73003C22.8212 8.91242 22.7878 9.09301 22.74 9.27003C22.6819 9.63388 22.5341 9.97754 22.31 10.27C22.2921 10.1563 22.2513 10.0475 22.19 9.95003C22.06 9.79003 21.87 9.95003 21.74 10.02C21.2 10.5 21.53 10.88 21.53 10.88" stroke="#FFC107" stroke-width="0.3" stroke-miterlimit="10" stroke-linecap="round"/>
<path d="M30.59 8.56016C30.59 8.56016 29.93 8.26016 28.81 7.62016C27.69 6.98016 27.81 6.04016 27.34 5.34016C26.87 4.64016 25.23 4.12016 25.34 6.08016C25.39 7.33016 26.64 8.87016 28.03 9.74016C28.4993 9.66395 28.9746 9.63048 29.45 9.64016C30.13 9.69016 30.32 10.0202 30.16 10.4002H30.36C33.19 9.65016 30.59 8.56016 30.59 8.56016Z" stroke="#FFC107" stroke-width="0.3" stroke-miterlimit="10"/>
<path d="M20.89 11.07C20.89 11.07 19.83 11.07 17.98 10.89C16.13 10.71 15.71 9.39996 14.69 8.75996C13.67 8.11996 11.19 8.41996 12.45 10.95C13.11 12.25 14.91 13.34 16.81 13.87C18.5358 13.7916 20.2554 13.6113 21.96 13.33C24.65 10.95 20.89 11.07 20.89 11.07Z" stroke="#FFC107" stroke-width="0.3" stroke-miterlimit="10"/>
<path d="M28.73 14.9502C28.73 14.9502 27.47 21.1702 19.44 23.7502" stroke="#FFC107" stroke-width="0.7" stroke-linecap="round" stroke-linejoin="round"/>
</g>
<defs>
<clipPath id="clip0">
<rect width="31.4" height="24.56" fill="white" transform="translate(1 2)"/>
</clipPath>
</defs>
</svg>
