<svg width="34" height="28" viewBox="0 0 34 28" fill="none" xmlns="http://www.w3.org/2000/svg">
<path d="M9.77409 21.4069C9.77409 21.548 9.68324 21.6976 9.49021 21.8195C9.2991 21.9402 9.02584 22.0198 8.7162 22.0198C8.40655 22.0198 8.1333 21.9402 7.94218 21.8195C7.74915 21.6976 7.6583 21.548 7.6583 21.4069C7.6583 21.2659 7.74915 21.1162 7.94218 20.9943C8.1333 20.8736 8.40655 20.794 8.7162 20.794C9.02584 20.794 9.2991 20.8736 9.49021 20.9943C9.68324 21.1162 9.77409 21.2659 9.77409 21.4069Z" stroke="#FFC107" stroke-width="0.3"/>
<path d="M9.77408 18.3557C9.77408 18.7287 9.54007 18.9685 9.32013 18.9685C9.1002 18.9685 8.86619 18.7287 8.86619 18.3557C8.86619 17.9826 9.1002 17.7428 9.32013 17.7428C9.54007 17.7428 9.77408 17.9826 9.77408 18.3557Z" stroke="#FFC107" stroke-width="0.3"/>
<path d="M12.1899 22.9328C12.1899 23.3059 11.9559 23.5457 11.736 23.5457C11.516 23.5457 11.282 23.3059 11.282 22.9328C11.282 22.5598 11.516 22.3199 11.736 22.3199C11.9559 22.3199 12.1899 22.5598 12.1899 22.9328Z" stroke="#FFC107" stroke-width="0.3"/>
<path d="M8.67954 9.15784C8.76104 9.14302 8.8151 9.06493 8.80029 8.98343C8.78547 8.90192 8.70738 8.84786 8.62587 8.86268L8.67954 9.15784ZM9.22484 12.4432L9.18846 12.5888L9.22484 12.4432ZM25.8175 5.57729L25.9137 5.46191L25.9075 5.45729L25.8175 5.57729ZM17.235 1L17.3841 0.983435L17.3387 0.574171L17.1102 0.916795L17.235 1ZM11.6383 6.63841C11.5924 6.56948 11.4992 6.55085 11.4303 6.59681C11.3614 6.64276 11.3427 6.73589 11.3887 6.80482L11.6383 6.63841ZM8.62587 8.86268C7.0515 9.14893 5.92707 9.41798 5.21962 9.68557C4.86806 9.81855 4.60403 9.95668 4.43991 10.1071C4.35669 10.1834 4.29203 10.2693 4.25938 10.3665C4.22563 10.4671 4.22972 10.5692 4.26743 10.667C4.33825 10.8507 4.52326 11.0086 4.76316 11.1515C5.00982 11.2985 5.34401 11.4464 5.75601 11.5979C6.58079 11.9011 7.74025 12.2267 9.18846 12.5888L9.26122 12.2977C7.8145 11.936 6.66825 11.6136 5.85954 11.3163C5.4548 11.1675 5.14031 11.027 4.91671 10.8938C4.68635 10.7565 4.57954 10.6426 4.54734 10.5591C4.53355 10.5233 4.53334 10.4931 4.54378 10.462C4.55531 10.4276 4.58335 10.3826 4.64262 10.3283C4.76348 10.2175 4.98361 10.0956 5.32576 9.96617C6.00575 9.70897 7.10699 9.44376 8.67954 9.15784L8.62587 8.86268ZM9.18846 12.5888C12.6403 13.4517 19.3851 13.8824 23.9856 13.0198C25.1372 12.8039 26.1619 12.5056 26.9699 12.1085C27.7759 11.7123 28.3832 11.2092 28.6718 10.5743C28.9639 9.93177 28.9161 9.18511 28.4762 8.3377C28.0384 7.4944 27.2079 6.54066 25.9136 5.46206L25.7215 5.69253C27.0019 6.75953 27.7984 7.6832 28.21 8.47592C28.6193 9.26453 28.6431 9.91252 28.3987 10.4501C28.151 10.9952 27.614 11.4576 26.8376 11.8393C26.0631 12.2199 25.0674 12.5117 23.9303 12.7249C19.3763 13.5788 12.6753 13.1512 9.26122 12.2977L9.18846 12.5888ZM25.9075 5.45729C25.1286 4.87307 22.9997 3.71081 20.6681 3.71081V4.01081C22.9138 4.01081 24.9807 5.13719 25.7275 5.69729L25.9075 5.45729ZM20.6681 3.71081C19.5481 3.71081 18.7783 3.4311 18.266 2.96331C17.7532 2.49513 17.477 1.81917 17.3841 0.983435L17.086 1.01656C17.1838 1.89732 17.4798 2.65176 18.0637 3.18486C18.648 3.71836 19.4994 4.01081 20.6681 4.01081V3.71081ZM17.1102 0.916795C16.3865 2.00232 14.6897 2.88085 14.2258 6.12824L14.5228 6.17067C14.9743 3.00984 16.5578 2.28632 17.3598 1.08321L17.1102 0.916795ZM14.2258 6.12824C14.1126 6.92052 13.9291 7.39679 13.7235 7.65892C13.6224 7.78772 13.5184 7.86179 13.4167 7.89972C13.3151 7.9376 13.2059 7.94313 13.0882 7.9192C12.8472 7.87018 12.5811 7.69924 12.3203 7.45589C12.0626 7.21531 11.8243 6.91734 11.6383 6.63841L11.3887 6.80482C11.5842 7.09805 11.837 7.41515 12.1156 7.67521C12.3913 7.93251 12.7069 8.14778 13.0284 8.21318C13.1921 8.24647 13.3594 8.24127 13.5215 8.18082C13.6836 8.1204 13.8305 8.00852 13.9595 7.84409C14.214 7.51975 14.4071 6.98044 14.5228 6.17067L14.2258 6.12824Z" fill="#FFC107"/>
<path d="M10.5369 9.70608L10.5136 9.85426L10.5369 9.70608ZM23.3085 6.02549C23.2265 6.03702 23.1693 6.11288 23.1809 6.19491C23.1924 6.27695 23.2683 6.3341 23.3503 6.32257L23.3085 6.02549ZM14.4911 4.9541C13.0245 5.16031 11.3606 5.44491 9.85917 5.78282C8.36191 6.11981 7.01235 6.51277 6.18348 6.93955C5.97522 7.04679 5.79554 7.15829 5.65315 7.27442C5.51178 7.38973 5.39936 7.5159 5.33673 7.65472C5.27186 7.79851 5.26291 7.95128 5.32287 8.10292C5.38067 8.2491 5.4972 8.38112 5.65814 8.50224C5.97837 8.74324 6.51834 8.97346 7.30546 9.19625C8.09654 9.42018 9.15155 9.64038 10.5136 9.85426L10.5602 9.55789C9.20443 9.34501 8.16232 9.12701 7.38716 8.9076C6.60803 8.68706 6.11264 8.46882 5.83853 8.26254C5.7023 8.16001 5.63193 8.06869 5.60185 7.99261C5.57393 7.922 5.57612 7.8536 5.61019 7.77809C5.6465 7.69761 5.72082 7.60636 5.84276 7.5069C5.96368 7.40828 6.12387 7.30768 6.32082 7.20627C7.11279 6.79848 8.42945 6.41211 9.92504 6.0755C11.4165 5.73983 13.072 5.45658 14.5328 5.25118L14.4911 4.9541ZM10.5136 9.85426C17.3215 10.9233 20.8519 10.0066 22.5411 8.80264C23.3864 8.2002 23.7748 7.5218 23.8674 6.98424C23.9134 6.71779 23.8878 6.47594 23.7955 6.29839C23.7004 6.11527 23.5267 5.99482 23.3085 6.02549L23.3503 6.32257C23.4155 6.31341 23.4791 6.34014 23.5294 6.43676C23.5825 6.53894 23.6104 6.70937 23.5718 6.93328C23.4954 7.37646 23.1628 7.99113 22.367 8.55834C20.774 9.6937 17.3415 10.6227 10.5602 9.55789L10.5136 9.85426Z" fill="#FFC107"/>
<path d="M1.21454 10.7266C1.59598 14.1595 3.73205 22.1698 9.2248 26.7471C11.5134 26.9378 17.8072 27.2048 24.6732 26.7471C30.6236 22.6275 32.4927 14.3503 32.6834 10.7266" stroke="#FFC107" stroke-width="0.3"/>
<path d="M9.79694 26.3971C9.60364 26.3971 9.44694 26.5538 9.44694 26.7471C9.44694 26.9404 9.60364 27.0971 9.79694 27.0971V26.3971ZM24.6731 27.0971C24.8664 27.0971 25.0231 26.9404 25.0231 26.7471C25.0231 26.5538 24.8664 26.3971 24.6731 26.3971V27.0971ZM9.79694 27.0971C9.80828 27.0971 9.81964 27.0971 9.83101 27.0971C9.84238 27.0971 9.85377 27.0971 9.86516 27.0971C9.87656 27.0971 9.88797 27.0971 9.89939 27.0971C9.91081 27.0971 9.92224 27.0971 9.93369 27.0971C9.94513 27.0971 9.95659 27.0971 9.96806 27.0971C9.97953 27.0971 9.99101 27.0971 10.0025 27.0971C10.014 27.0971 10.0255 27.0971 10.037 27.0971C10.0485 27.0971 10.0601 27.0971 10.0716 27.0971C10.0831 27.0971 10.0947 27.0971 10.1062 27.0971C10.1178 27.0971 10.1294 27.0971 10.141 27.0971C10.1526 27.0971 10.1642 27.0971 10.1758 27.0971C10.1874 27.0971 10.199 27.0971 10.2106 27.0971C10.2223 27.0971 10.2339 27.0971 10.2456 27.0971C10.2572 27.0971 10.2689 27.0971 10.2806 27.0971C10.2922 27.0971 10.3039 27.0971 10.3156 27.0971C10.3273 27.0971 10.339 27.0971 10.3507 27.0971C10.3625 27.0971 10.3742 27.0971 10.3859 27.0971C10.3977 27.0971 10.4094 27.0971 10.4212 27.0971C10.433 27.0971 10.4447 27.0971 10.4565 27.0971C10.4683 27.0971 10.4801 27.0971 10.4919 27.0971C10.5037 27.0971 10.5155 27.0971 10.5274 27.0971C10.5392 27.0971 10.551 27.0971 10.5629 27.0971C10.5747 27.0971 10.5866 27.0971 10.5985 27.0971C10.6103 27.0971 10.6222 27.0971 10.6341 27.0971C10.646 27.0971 10.6579 27.0971 10.6698 27.0971C10.6817 27.0971 10.6936 27.0971 10.7056 27.0971C10.7175 27.0971 10.7294 27.0971 10.7414 27.0971C10.7533 27.0971 10.7653 27.0971 10.7773 27.0971C10.7892 27.0971 10.8012 27.0971 10.8132 27.0971C10.8252 27.0971 10.8372 27.0971 10.8492 27.0971C10.8612 27.0971 10.8732 27.0971 10.8853 27.0971C10.8973 27.0971 10.9093 27.0971 10.9214 27.0971C10.9334 27.0971 10.9455 27.0971 10.9576 27.0971C10.9696 27.0971 10.9817 27.0971 10.9938 27.0971C11.0059 27.0971 11.018 27.0971 11.0301 27.0971C11.0422 27.0971 11.0543 27.0971 11.0664 27.0971C11.0785 27.0971 11.0907 27.0971 11.1028 27.0971C11.1149 27.0971 11.1271 27.0971 11.1392 27.0971C11.1514 27.0971 11.1636 27.0971 11.1758 27.0971C11.1879 27.0971 11.2001 27.0971 11.2123 27.0971C11.2245 27.0971 11.2367 27.0971 11.2489 27.0971C11.2611 27.0971 11.2733 27.0971 11.2856 27.0971C11.2978 27.0971 11.31 27.0971 11.3223 27.0971C11.3345 27.0971 11.3468 27.0971 11.359 27.0971C11.3713 27.0971 11.3836 27.0971 11.3959 27.0971C11.4081 27.0971 11.4204 27.0971 11.4327 27.0971C11.445 27.0971 11.4573 27.0971 11.4696 27.0971C11.4819 27.0971 11.4943 27.0971 11.5066 27.0971C11.5189 27.0971 11.5313 27.0971 11.5436 27.0971C11.5559 27.0971 11.5683 27.0971 11.5807 27.0971C11.593 27.0971 11.6054 27.0971 11.6178 27.0971C11.6301 27.0971 11.6425 27.0971 11.6549 27.0971C11.6673 27.0971 11.6797 27.0971 11.6921 27.0971C11.7045 27.0971 11.7169 27.0971 11.7293 27.0971C11.7418 27.0971 11.7542 27.0971 11.7666 27.0971C11.7791 27.0971 11.7915 27.0971 11.804 27.0971C11.8164 27.0971 11.8289 27.0971 11.8413 27.0971C11.8538 27.0971 11.8663 27.0971 11.8787 27.0971C11.8912 27.0971 11.9037 27.0971 11.9162 27.0971C11.9287 27.0971 11.9412 27.0971 11.9537 27.0971C11.9662 27.0971 11.9787 27.0971 11.9912 27.0971C12.0038 27.0971 12.0163 27.0971 12.0288 27.0971C12.0414 27.0971 12.0539 27.0971 12.0665 27.0971C12.079 27.0971 12.0916 27.0971 12.1041 27.0971C12.1167 27.0971 12.1292 27.0971 12.1418 27.0971C12.1544 27.0971 12.167 27.0971 12.1796 27.0971C12.1921 27.0971 12.2047 27.0971 12.2173 27.0971C12.2299 27.0971 12.2425 27.0971 12.2552 27.0971C12.2678 27.0971 12.2804 27.0971 12.293 27.0971C12.3056 27.0971 12.3183 27.0971 12.3309 27.0971C12.3435 27.0971 12.3562 27.0971 12.3688 27.0971C12.3815 27.0971 12.3941 27.0971 12.4068 27.0971C12.4194 27.0971 12.4321 27.0971 12.4448 27.0971C12.4575 27.0971 12.4701 27.0971 12.4828 27.0971C12.4955 27.0971 12.5082 27.0971 12.5209 27.0971C12.5336 27.0971 12.5463 27.0971 12.559 27.0971C12.5717 27.0971 12.5844 27.0971 12.5971 27.0971C12.6098 27.0971 12.6225 27.0971 12.6353 27.0971C12.648 27.0971 12.6607 27.0971 12.6735 27.0971C12.6862 27.0971 12.699 27.0971 12.7117 27.0971C12.7244 27.0971 12.7372 27.0971 12.75 27.0971C12.7627 27.0971 12.7755 27.0971 12.7882 27.0971C12.801 27.0971 12.8138 27.0971 12.8266 27.0971C12.8393 27.0971 12.8521 27.0971 12.8649 27.0971C12.8777 27.0971 12.8905 27.0971 12.9033 27.0971C12.9161 27.0971 12.9289 27.0971 12.9417 27.0971C12.9545 27.0971 12.9673 27.0971 12.9801 27.0971C12.9929 27.0971 13.0057 27.0971 13.0186 27.0971C13.0314 27.0971 13.0442 27.0971 13.057 27.0971C13.0699 27.0971 13.0827 27.0971 13.0955 27.0971C13.1084 27.0971 13.1212 27.0971 13.1341 27.0971C13.1469 27.0971 13.1598 27.0971 13.1726 27.0971C13.1855 27.0971 13.1983 27.0971 13.2112 27.0971C13.2241 27.0971 13.2369 27.0971 13.2498 27.0971C13.2627 27.0971 13.2756 27.0971 13.2884 27.0971C13.3013 27.0971 13.3142 27.0971 13.3271 27.0971C13.34 27.0971 13.3529 27.0971 13.3658 27.0971C13.3786 27.0971 13.3915 27.0971 13.4044 27.0971C13.4173 27.0971 13.4302 27.0971 13.4432 27.0971C13.4561 27.0971 13.469 27.0971 13.4819 27.0971C13.4948 27.0971 13.5077 27.0971 13.5206 27.0971C13.5336 27.0971 13.5465 27.0971 13.5594 27.0971C13.5723 27.0971 13.5853 27.0971 13.5982 27.0971C13.6111 27.0971 13.6241 27.0971 13.637 27.0971C13.6499 27.0971 13.6629 27.0971 13.6758 27.0971C13.6888 27.0971 13.7017 27.0971 13.7147 27.0971C13.7276 27.0971 13.7406 27.0971 13.7535 27.0971C13.7665 27.0971 13.7794 27.0971 13.7924 27.0971C13.8053 27.0971 13.8183 27.0971 13.8313 27.0971C13.8442 27.0971 13.8572 27.0971 13.8702 27.0971C13.8831 27.0971 13.8961 27.0971 13.9091 27.0971C13.9221 27.0971 13.935 27.0971 13.948 27.0971C13.961 27.0971 13.974 27.0971 13.987 27.0971C13.9999 27.0971 14.0129 27.0971 14.0259 27.0971C14.0389 27.0971 14.0519 27.0971 14.0649 27.0971C14.0779 27.0971 14.0909 27.0971 14.1038 27.0971C14.1168 27.0971 14.1298 27.0971 14.1428 27.0971C14.1558 27.0971 14.1688 27.0971 14.1818 27.0971C14.1948 27.0971 14.2078 27.0971 14.2208 27.0971C14.2338 27.0971 14.2468 27.0971 14.2599 27.0971C14.2729 27.0971 14.2859 27.0971 14.2989 27.0971C14.3119 27.0971 14.3249 27.0971 14.3379 27.0971C14.3509 27.0971 14.3639 27.0971 14.3769 27.0971C14.39 27.0971 14.403 27.0971 14.416 27.0971C14.429 27.0971 14.442 27.0971 14.455 27.0971C14.4681 27.0971 14.4811 27.0971 14.4941 27.0971C14.5071 27.0971 14.5201 27.0971 14.5332 27.0971C14.5462 27.0971 14.5592 27.0971 14.5722 27.0971C14.5853 27.0971 14.5983 27.0971 14.6113 27.0971C14.6243 27.0971 14.6374 27.0971 14.6504 27.0971C14.6634 27.0971 14.6764 27.0971 14.6895 27.0971C14.7025 27.0971 14.7155 27.0971 14.7285 27.0971C14.7416 27.0971 14.7546 27.0971 14.7676 27.0971C14.7806 27.0971 14.7937 27.0971 14.8067 27.0971C14.8197 27.0971 14.8328 27.0971 14.8458 27.0971C14.8588 27.0971 14.8718 27.0971 14.8849 27.0971C14.8979 27.0971 14.9109 27.0971 14.924 27.0971C14.937 27.0971 14.95 27.0971 14.963 27.0971C14.9761 27.0971 14.9891 27.0971 15.0021 27.0971C15.0151 27.0971 15.0282 27.0971 15.0412 27.0971C15.0542 27.0971 15.0672 27.0971 15.0803 27.0971C15.0933 27.0971 15.1063 27.0971 15.1193 27.0971C15.1324 27.0971 15.1454 27.0971 15.1584 27.0971C15.1714 27.0971 15.1845 27.0971 15.1975 27.0971C15.2105 27.0971 15.2235 27.0971 15.2365 27.0971C15.2496 27.0971 15.2626 27.0971 15.2756 27.0971C15.2886 27.0971 15.3016 27.0971 15.3147 27.0971C15.3277 27.0971 15.3407 27.0971 15.3537 27.0971C15.3667 27.0971 15.3797 27.0971 15.3927 27.0971C15.4057 27.0971 15.4188 27.0971 15.4318 27.0971C15.4448 27.0971 15.4578 27.0971 15.4708 27.0971C15.4838 27.0971 15.4968 27.0971 15.5098 27.0971C15.5228 27.0971 15.5358 27.0971 15.5488 27.0971C15.5618 27.0971 15.5748 27.0971 15.5878 27.0971C15.6008 27.0971 15.6138 27.0971 15.6268 27.0971C15.6398 27.0971 15.6528 27.0971 15.6657 27.0971C15.6787 27.0971 15.6917 27.0971 15.7047 27.0971C15.7177 27.0971 15.7307 27.0971 15.7437 27.0971C15.7566 27.0971 15.7696 27.0971 15.7826 27.0971C15.7956 27.0971 15.8085 27.0971 15.8215 27.0971C15.8345 27.0971 15.8475 27.0971 15.8604 27.0971C15.8734 27.0971 15.8864 27.0971 15.8993 27.0971C15.9123 27.0971 15.9252 27.0971 15.9382 27.0971C15.9512 27.0971 15.9641 27.0971 15.9771 27.0971C15.99 27.0971 16.003 27.0971 16.0159 27.0971C16.0289 27.0971 16.0418 27.0971 16.0547 27.0971C16.0677 27.0971 16.0806 27.0971 16.0936 27.0971C16.1065 27.0971 16.1194 27.0971 16.1324 27.0971C16.1453 27.0971 16.1582 27.0971 16.1711 27.0971C16.1841 27.0971 16.197 27.0971 16.2099 27.0971C16.2228 27.0971 16.2357 27.0971 16.2486 27.0971C16.2616 27.0971 16.2745 27.0971 16.2874 27.0971C16.3003 27.0971 16.3132 27.0971 16.3261 27.0971C16.339 27.0971 16.3519 27.0971 16.3648 27.0971C16.3776 27.0971 16.3905 27.0971 16.4034 27.0971C16.4163 27.0971 16.4292 27.0971 16.4421 27.0971C16.4549 27.0971 16.4678 27.0971 16.4807 27.0971C16.4935 27.0971 16.5064 27.0971 16.5193 27.0971C16.5321 27.0971 16.545 27.0971 16.5578 27.0971C16.5707 27.0971 16.5835 27.0971 16.5964 27.0971C16.6092 27.0971 16.6221 27.0971 16.6349 27.0971C16.6477 27.0971 16.6606 27.0971 16.6734 27.0971C16.6862 27.0971 16.6991 27.0971 16.7119 27.0971C16.7247 27.0971 16.7375 27.0971 16.7503 27.0971C16.7631 27.0971 16.7759 27.0971 16.7887 27.0971C16.8015 27.0971 16.8143 27.0971 16.8271 27.0971C16.8399 27.0971 16.8527 27.0971 16.8655 27.0971C16.8783 27.0971 16.8911 27.0971 16.9038 27.0971C16.9166 27.0971 16.9294 27.0971 16.9421 27.0971C16.9549 27.0971 16.9677 27.0971 16.9804 27.0971C16.9932 27.0971 17.0059 27.0971 17.0187 27.0971C17.0314 27.0971 17.0441 27.0971 17.0569 27.0971C17.0696 27.0971 17.0823 27.0971 17.0951 27.0971C17.1078 27.0971 17.1205 27.0971 17.1332 27.0971C17.1459 27.0971 17.1586 27.0971 17.1713 27.0971C17.184 27.0971 17.1967 27.0971 17.2094 27.0971C17.2221 27.0971 17.2348 27.0971 17.2475 27.0971C17.2601 27.0971 17.2728 27.0971 17.2855 27.0971C17.2981 27.0971 17.3108 27.0971 17.3235 27.0971C17.3361 27.0971 17.3488 27.0971 17.3614 27.0971C17.3741 27.0971 17.3867 27.0971 17.3993 27.0971C17.412 27.0971 17.4246 27.0971 17.4372 27.0971C17.4498 27.0971 17.4624 27.0971 17.475 27.0971C17.4877 27.0971 17.5003 27.0971 17.5129 27.0971C17.5254 27.0971 17.538 27.0971 17.5506 27.0971C17.5632 27.0971 17.5758 27.0971 17.5883 27.0971C17.6009 27.0971 17.6135 27.0971 17.626 27.0971C17.6386 27.0971 17.6511 27.0971 17.6637 27.0971C17.6762 27.0971 17.6888 27.0971 17.7013 27.0971C17.7138 27.0971 17.7263 27.0971 17.7389 27.0971C17.7514 27.0971 17.7639 27.0971 17.7764 27.0971C17.7889 27.0971 17.8014 27.0971 17.8139 27.0971C17.8264 27.0971 17.8388 27.0971 17.8513 27.0971C17.8638 27.0971 17.8763 27.0971 17.8887 27.0971C17.9012 27.0971 17.9136 27.0971 17.9261 27.0971C17.9385 27.0971 17.951 27.0971 17.9634 27.0971C17.9758 27.0971 17.9882 27.0971 18.0007 27.0971C18.0131 27.0971 18.0255 27.0971 18.0379 27.0971C18.0503 27.0971 18.0627 27.0971 18.0751 27.0971C18.0874 27.0971 18.0998 27.0971 18.1122 27.0971C18.1246 27.0971 18.1369 27.0971 18.1493 27.0971C18.1616 27.0971 18.174 27.0971 18.1863 27.0971C18.1987 27.0971 18.211 27.0971 18.2233 27.0971C18.2356 27.0971 18.2479 27.0971 18.2603 27.0971C18.2726 27.0971 18.2849 27.0971 18.2971 27.0971C18.3094 27.0971 18.3217 27.0971 18.334 27.0971C18.3463 27.0971 18.3585 27.0971 18.3708 27.0971C18.383 27.0971 18.3953 27.0971 18.4075 27.0971C18.4198 27.0971 18.432 27.0971 18.4442 27.0971C18.4564 27.0971 18.4687 27.0971 18.4809 27.0971C18.4931 27.0971 18.5053 27.0971 18.5174 27.0971C18.5296 27.0971 18.5418 27.0971 18.554 27.0971C18.5662 27.0971 18.5783 27.0971 18.5905 27.0971C18.6026 27.0971 18.6148 27.0971 18.6269 27.0971C18.639 27.0971 18.6512 27.0971 18.6633 27.0971C18.6754 27.0971 18.6875 27.0971 18.6996 27.0971C18.7117 27.0971 18.7238 27.0971 18.7359 27.0971C18.7479 27.0971 18.76 27.0971 18.7721 27.0971C18.7841 27.0971 18.7962 27.0971 18.8082 27.0971C18.8203 27.0971 18.8323 27.0971 18.8443 27.0971C18.8563 27.0971 18.8683 27.0971 18.8803 27.0971C18.8923 27.0971 18.9043 27.0971 18.9163 27.0971C18.9283 27.0971 18.9403 27.0971 18.9522 27.0971C18.9642 27.0971 18.9762 27.0971 18.9881 27.0971C19 27.0971 19.012 27.0971 19.0239 27.0971C19.0358 27.0971 19.0477 27.0971 19.0596 27.0971C19.0715 27.0971 19.0834 27.0971 19.0953 27.0971C19.1072 27.0971 19.1191 27.0971 19.1309 27.0971C19.1428 27.0971 19.1547 27.0971 19.1665 27.0971C19.1783 27.0971 19.1902 27.0971 19.202 27.0971C19.2138 27.0971 19.2256 27.0971 19.2374 27.0971C19.2492 27.0971 19.261 27.0971 19.2728 27.0971C19.2846 27.0971 19.2963 27.0971 19.3081 27.0971C19.3198 27.0971 19.3316 27.0971 19.3433 27.0971C19.3551 27.0971 19.3668 27.0971 19.3785 27.0971C19.3902 27.0971 19.4019 27.0971 19.4136 27.0971C19.4253 27.0971 19.437 27.0971 19.4486 27.0971C19.4603 27.0971 19.472 27.0971 19.4836 27.0971C19.4953 27.0971 19.5069 27.0971 19.5185 27.0971C19.5301 27.0971 19.5418 27.0971 19.5534 27.0971C19.565 27.0971 19.5765 27.0971 19.5881 27.0971C19.5997 27.0971 19.6113 27.0971 19.6228 27.0971C19.6344 27.0971 19.6459 27.0971 19.6575 27.0971C19.669 27.0971 19.6805 27.0971 19.692 27.0971C19.7035 27.0971 19.715 27.0971 19.7265 27.0971C19.738 27.0971 19.7495 27.0971 19.7609 27.0971C19.7724 27.0971 19.7838 27.0971 19.7953 27.0971C19.8067 27.0971 19.8181 27.0971 19.8295 27.0971C19.8409 27.0971 19.8523 27.0971 19.8637 27.0971C19.8751 27.0971 19.8865 27.0971 19.8979 27.0971C19.9092 27.0971 19.9206 27.0971 19.9319 27.0971C19.9432 27.0971 19.9546 27.0971 19.9659 27.0971C19.9772 27.0971 19.9885 27.0971 19.9998 27.0971C20.0111 27.0971 20.0223 27.0971 20.0336 27.0971C20.0449 27.0971 20.0561 27.0971 20.0674 27.0971C20.0786 27.0971 20.0898 27.0971 20.101 27.0971C20.1122 27.0971 20.1234 27.0971 20.1346 27.0971C20.1458 27.0971 20.157 27.0971 20.1681 27.0971C20.1793 27.0971 20.1904 27.0971 20.2016 27.0971C20.2127 27.0971 20.2238 27.0971 20.2349 27.0971C20.246 27.0971 20.2571 27.0971 20.2682 27.0971C20.2793 27.0971 20.2904 27.0971 20.3014 27.0971C20.3125 27.0971 20.3235 27.0971 20.3345 27.0971C20.3455 27.0971 20.3566 27.0971 20.3676 27.0971C20.3786 27.0971 20.3895 27.0971 20.4005 27.0971C20.4115 27.0971 20.4224 27.0971 20.4334 27.0971C20.4443 27.0971 20.4553 27.0971 20.4662 27.0971C20.4771 27.0971 20.488 27.0971 20.4989 27.0971C20.5098 27.0971 20.5206 27.0971 20.5315 27.0971C20.5424 27.0971 20.5532 27.0971 20.564 27.0971C20.5749 27.0971 20.5857 27.0971 20.5965 27.0971C20.6073 27.0971 20.6181 27.0971 20.6289 27.0971C20.6396 27.0971 20.6504 27.0971 20.6611 27.0971C20.6719 27.0971 20.6826 27.0971 20.6933 27.0971C20.704 27.0971 20.7147 27.0971 20.7254 27.0971C20.7361 27.0971 20.7468 27.0971 20.7574 27.0971C20.7681 27.0971 20.7787 27.0971 20.7894 27.0971C20.8 27.0971 20.8106 27.0971 20.8212 27.0971C20.8318 27.0971 20.8424 27.0971 20.853 27.0971C20.8635 27.0971 20.8741 27.0971 20.8846 27.0971C20.8952 27.0971 20.9057 27.0971 20.9162 27.0971C20.9267 27.0971 20.9372 27.0971 20.9477 27.0971C20.9581 27.0971 20.9686 27.0971 20.979 27.0971C20.9895 27.0971 20.9999 27.0971 21.0103 27.0971C21.0208 27.0971 21.0312 27.0971 21.0415 27.0971C21.0519 27.0971 21.0623 27.0971 21.0726 27.0971C21.083 27.0971 21.0933 27.0971 21.1037 27.0971C21.114 27.0971 21.1243 27.0971 21.1346 27.0971C21.1449 27.0971 21.1551 27.0971 21.1654 27.0971C21.1757 27.0971 21.1859 27.0971 21.1961 27.0971C21.2064 27.0971 21.2166 27.0971 21.2268 27.0971C21.237 27.0971 21.2471 27.0971 21.2573 27.0971C21.2675 27.0971 21.2776 27.0971 21.2877 27.0971C21.2979 27.0971 21.308 27.0971 21.3181 27.0971C21.3282 27.0971 21.3382 27.0971 21.3483 27.0971C21.3584 27.0971 21.3684 27.0971 21.3785 27.0971C21.3885 27.0971 21.3985 27.0971 21.4085 27.0971C21.4185 27.0971 21.4285 27.0971 21.4384 27.0971C21.4484 27.0971 21.4583 27.0971 21.4683 27.0971C21.4782 27.0971 21.4881 27.0971 21.498 27.0971C21.5079 27.0971 21.5178 27.0971 21.5277 27.0971C21.5375 27.0971 21.5474 27.0971 21.5572 27.0971C21.567 27.0971 21.5768 27.0971 21.5866 27.0971C21.5964 27.0971 21.6062 27.0971 21.616 27.0971C21.6257 27.0971 21.6355 27.0971 21.6452 27.0971C21.6549 27.0971 21.6646 27.0971 21.6743 27.0971C21.684 27.0971 21.6937 27.0971 21.7033 27.0971C21.713 27.0971 21.7226 27.0971 21.7322 27.0971C21.7418 27.0971 21.7515 27.0971 21.761 27.0971C21.7706 27.0971 21.7802 27.0971 21.7897 27.0971C21.7993 27.0971 21.8088 27.0971 21.8183 27.0971C21.8278 27.0971 21.8373 27.0971 21.8468 27.0971C21.8563 27.0971 21.8657 27.0971 21.8752 27.0971C21.8846 27.0971 21.894 27.0971 21.9034 27.0971C21.9128 27.0971 21.9222 27.0971 21.9316 27.0971C21.941 27.0971 21.9503 27.0971 21.9596 27.0971C21.969 27.0971 21.9783 27.0971 21.9876 27.0971C21.9969 27.0971 22.0062 27.0971 22.0154 27.0971C22.0247 27.0971 22.0339 27.0971 22.0431 27.0971C22.0523 27.0971 22.0615 27.0971 22.0707 27.0971C22.0799 27.0971 22.0891 27.0971 22.0982 27.0971C22.1074 27.0971 22.1165 27.0971 22.1256 27.0971C22.1347 27.0971 22.1438 27.0971 22.1528 27.0971C22.1619 27.0971 22.171 27.0971 22.18 27.0971C22.189 27.0971 22.198 27.0971 22.207 27.0971C22.216 27.0971 22.225 27.0971 22.2339 27.0971C22.2429 27.0971 22.2518 27.0971 22.2607 27.0971C22.2696 27.0971 22.2785 27.0971 22.2874 27.0971C22.2963 27.0971 22.3051 27.0971 22.314 27.0971C22.3228 27.0971 22.3316 27.0971 22.3404 27.0971C22.3492 27.0971 22.358 27.0971 22.3668 27.0971C22.3755 27.0971 22.3843 27.0971 22.393 27.0971C22.4017 27.0971 22.4104 27.0971 22.4191 27.0971C22.4277 27.0971 22.4364 27.0971 22.445 27.0971C22.4537 27.0971 22.4623 27.0971 22.4709 27.0971C22.4795 27.0971 22.4881 27.0971 22.4966 27.0971C22.5052 27.0971 22.5137 27.0971 22.5222 27.0971C22.5307 27.0971 22.5392 27.0971 22.5477 27.0971C22.5562 27.0971 22.5646 27.0971 22.5731 27.0971C22.5815 27.0971 22.5899 27.0971 22.5983 27.0971C22.6067 27.0971 22.6151 27.0971 22.6234 27.0971C22.6318 27.0971 22.6401 27.0971 22.6484 27.0971C22.6567 27.0971 22.665 27.0971 22.6733 27.0971C22.6816 27.0971 22.6898 27.0971 22.698 27.0971C22.7063 27.0971 22.7145 27.0971 22.7227 27.0971C22.7308 27.0971 22.739 27.0971 22.7471 27.0971C22.7553 27.0971 22.7634 27.0971 22.7715 27.0971C22.7796 27.0971 22.7877 27.0971 22.7957 27.0971C22.8038 27.0971 22.8118 27.0971 22.8198 27.0971C22.8279 27.0971 22.8359 27.0971 22.8438 27.0971C22.8518 27.0971 22.8597 27.0971 22.8677 27.0971C22.8756 27.0971 22.8835 27.0971 22.8914 27.0971C22.8993 27.0971 22.9071 27.0971 22.915 27.0971C22.9228 27.0971 22.9306 27.0971 22.9384 27.0971C22.9462 27.0971 22.954 27.0971 22.9618 27.0971C22.9695 27.0971 22.9773 27.0971 22.985 27.0971C22.9927 27.0971 23.0004 27.0971 23.008 27.0971C23.0157 27.0971 23.0233 27.0971 23.0309 27.0971C23.0386 27.0971 23.0462 27.0971 23.0537 27.0971C23.0613 27.0971 23.0689 27.0971 23.0764 27.0971C23.0839 27.0971 23.0914 27.0971 23.0989 27.0971C23.1064 27.0971 23.1139 27.0971 23.1213 27.0971C23.1288 27.0971 23.1362 27.0971 23.1436 27.0971C23.151 27.0971 23.1583 27.0971 23.1657 27.0971C23.173 27.0971 23.1804 27.0971 23.1877 27.0971C23.195 27.0971 23.2023 27.0971 23.2095 27.0971C23.2168 27.0971 23.224 27.0971 23.2312 27.0971C23.2384 27.0971 23.2456 27.0971 23.2528 27.0971C23.26 27.0971 23.2671 27.0971 23.2742 27.0971C23.2813 27.0971 23.2884 27.0971 23.2955 27.0971C23.3026 27.0971 23.3096 27.0971 23.3166 27.0971C23.3237 27.0971 23.3307 27.0971 23.3377 27.0971C23.3446 27.0971 23.3516 27.0971 23.3585 27.0971C23.3655 27.0971 23.3724 27.0971 23.3792 27.0971C23.3861 27.0971 23.393 27.0971 23.3998 27.0971C23.4067 27.0971 23.4135 27.0971 23.4203 27.0971C23.4271 27.0971 23.4338 27.0971 23.4406 27.0971C23.4473 27.0971 23.454 27.0971 23.4607 27.0971C23.4674 27.0971 23.4741 27.0971 23.4807 27.0971C23.4874 27.0971 23.494 27.0971 23.5006 27.0971C23.5072 27.0971 23.5137 27.0971 23.5203 27.0971C23.5268 27.0971 23.5334 27.0971 23.5399 27.0971C23.5463 27.0971 23.5528 27.0971 23.5593 27.0971C23.5657 27.0971 23.5721 27.0971 23.5785 27.0971C23.5849 27.0971 23.5913 27.0971 23.5977 27.0971C23.604 27.0971 23.6103 27.0971 23.6166 27.0971C23.6229 27.0971 23.6292 27.0971 23.6355 27.0971C23.6417 27.0971 23.648 27.0971 23.6542 27.0971C23.6604 27.0971 23.6665 27.0971 23.6727 27.0971C23.6788 27.0971 23.685 27.0971 23.6911 27.0971C23.6972 27.0971 23.7032 27.0971 23.7093 27.0971C23.7153 27.0971 23.7214 27.0971 23.7274 27.0971C23.7334 27.0971 23.7393 27.0971 23.7453 27.0971C23.7512 27.0971 23.7571 27.0971 23.763 27.0971C23.7689 27.0971 23.7748 27.0971 23.7807 27.0971C23.7865 27.0971 23.7923 27.0971 23.7981 27.0971C23.8039 27.0971 23.8097 27.0971 23.8154 27.0971C23.8212 27.0971 23.8269 27.0971 23.8326 27.0971C23.8383 27.0971 23.8439 27.0971 23.8496 27.0971C23.8552 27.0971 23.8608 27.0971 23.8664 27.0971C23.872 27.0971 23.8776 27.0971 23.8831 27.0971C23.8886 27.0971 23.8941 27.0971 23.8996 27.0971C23.9051 27.0971 23.9106 27.0971 23.916 27.0971C23.9214 27.0971 23.9268 27.0971 23.9322 27.0971C23.9376 27.0971 23.9429 27.0971 23.9482 27.0971C23.9536 27.0971 23.9589 27.0971 23.9641 27.0971C23.9694 27.0971 23.9746 27.0971 23.9799 27.0971C23.9851 27.0971 23.9903 27.0971 23.9954 27.0971C24.0006 27.0971 24.0057 27.0971 24.0108 27.0971C24.0159 27.0971 24.021 27.0971 24.0261 27.0971C24.0311 27.0971 24.0362 27.0971 24.0412 27.0971C24.0462 27.0971 24.0511 27.0971 24.0561 27.0971C24.061 27.0971 24.0659 27.0971 24.0708 27.0971C24.0757 27.0971 24.0806 27.0971 24.0854 27.0971C24.0903 27.0971 24.0951 27.0971 24.0999 27.0971C24.1046 27.0971 24.1094 27.0971 24.1141 27.0971C24.1188 27.0971 24.1235 27.0971 24.1282 27.0971C24.1329 27.0971 24.1375 27.0971 24.1422 27.0971C24.1468 27.0971 24.1514 27.0971 24.1559 27.0971C24.1605 27.0971 24.165 27.0971 24.1695 27.0971C24.174 27.0971 24.1785 27.0971 24.1829 27.0971C24.1874 27.0971 24.1918 27.0971 24.1962 27.0971C24.2006 27.0971 24.205 27.0971 24.2093 27.0971C24.2136 27.0971 24.2179 27.0971 24.2222 27.0971C24.2265 27.0971 24.2307 27.0971 24.235 27.0971C24.2392 27.0971 24.2434 27.0971 24.2476 27.0971C24.2517 27.0971 24.2559 27.0971 24.26 27.0971C24.2641 27.0971 24.2682 27.0971 24.2722 27.0971C24.2763 27.0971 24.2803 27.0971 24.2843 27.0971C24.2883 27.0971 24.2922 27.0971 24.2962 27.0971C24.3001 27.0971 24.304 27.0971 24.3079 27.0971C24.3118 27.0971 24.3156 27.0971 24.3194 27.0971C24.3233 27.0971 24.327 27.0971 24.3308 27.0971C24.3346 27.0971 24.3383 27.0971 24.342 27.0971C24.3457 27.0971 24.3494 27.0971 24.353 27.0971C24.3567 27.0971 24.3603 27.0971 24.3639 27.0971C24.3675 27.0971 24.371 27.0971 24.3745 27.0971C24.3781 27.0971 24.3816 27.0971 24.385 27.0971C24.3885 27.0971 24.3919 27.0971 24.3953 27.0971C24.3988 27.0971 24.4021 27.0971 24.4055 27.0971C24.4088 27.0971 24.4121 27.0971 24.4154 27.0971C24.4187 27.0971 24.422 27.0971 24.4252 27.0971C24.4284 27.0971 24.4316 27.0971 24.4348 27.0971C24.438 27.0971 24.4411 27.0971 24.4442 27.0971C24.4473 27.0971 24.4504 27.0971 24.4535 27.0971C24.4565 27.0971 24.4595 27.0971 24.4625 27.0971C24.4655 27.0971 24.4685 27.0971 24.4714 27.0971C24.4743 27.0971 24.4772 27.0971 24.4801 27.0971C24.4829 27.0971 24.4858 27.0971 24.4886 27.0971C24.4914 27.0971 24.4942 27.0971 24.4969 27.0971C24.4996 27.0971 24.5024 27.0971 24.505 27.0971C24.5077 27.0971 24.5104 27.0971 24.513 27.0971C24.5156 27.0971 24.5182 27.0971 24.5208 27.0971C24.5233 27.0971 24.5258 27.0971 24.5283 27.0971C24.5308 27.0971 24.5333 27.0971 24.5357 27.0971C24.5382 27.0971 24.5406 27.0971 24.5429 27.0971C24.5453 27.0971 24.5477 27.0971 24.55 27.0971C24.5523 27.0971 24.5546 27.0971 24.5568 27.0971C24.559 27.0971 24.5613 27.0971 24.5634 27.0971C24.5656 27.0971 24.5678 27.0971 24.5699 27.0971C24.572 27.0971 24.5741 27.0971 24.5762 27.0971C24.5782 27.0971 24.5802 27.0971 24.5822 27.0971C24.5842 27.0971 24.5862 27.0971 24.5881 27.0971C24.59 27.0971 24.5919 27.0971 24.5938 27.0971C24.5957 27.0971 24.5975 27.0971 24.5993 27.0971C24.6011 27.0971 24.6029 27.0971 24.6046 27.0971C24.6063 27.0971 24.608 27.0971 24.6097 27.0971C24.6114 27.0971 24.613 27.0971 24.6146 27.0971C24.6162 27.0971 24.6178 27.0971 24.6194 27.0971C24.6209 27.0971 24.6224 27.0971 24.6239 27.0971C24.6254 27.0971 24.6268 27.0971 24.6282 27.0971C24.6296 27.0971 24.631 27.0971 24.6324 27.0971C24.6337 27.0971 24.635 27.0971 24.6363 27.0971C24.6376 27.0971 24.6388 27.0971 24.6401 27.0971C24.6413 27.0971 24.6424 27.0971 24.6436 27.0971C24.6447 27.0971 24.6459 27.0971 24.6469 27.0971C24.648 27.0971 24.6491 27.0971 24.6501 27.0971C24.6511 27.0971 24.6521 27.0971 24.653 27.0971C24.654 27.0971 24.6549 27.0971 24.6558 27.0971C24.6567 27.0971 24.6575 27.0971 24.6584 27.0971C24.6592 27.0971 24.66 27.0971 24.6607 27.0971C24.6615 27.0971 24.6622 27.0971 24.6629 27.0971C24.6635 27.0971 24.6642 27.0971 24.6648 27.0971C24.6654 27.0971 24.666 27.0971 24.6665 27.0971C24.6671 27.0971 24.6676 27.0971 24.6681 27.0971C24.6686 27.0971 24.669 27.0971 24.6694 27.0971C24.6698 27.0971 24.6702 27.0971 24.6706 27.0971C24.6709 27.0971 24.6712 27.0971 24.6715 27.0971C24.6718 27.0971 24.672 27.0971 24.6722 27.0971C24.6724 27.0971 24.6726 27.0971 24.6727 27.0971C24.6729 27.0971 24.673 27.0971 24.673 27.0971C24.6731 27.0971 24.6731 27.0971 24.6731 26.7471C24.6731 26.3971 24.6731 26.3971 24.673 26.3971C24.673 26.3971 24.6729 26.3971 24.6727 26.3971C24.6726 26.3971 24.6724 26.3971 24.6722 26.3971C24.672 26.3971 24.6718 26.3971 24.6715 26.3971C24.6712 26.3971 24.6709 26.3971 24.6706 26.3971C24.6702 26.3971 24.6698 26.3971 24.6694 26.3971C24.669 26.3971 24.6686 26.3971 24.6681 26.3971C24.6676 26.3971 24.6671 26.3971 24.6665 26.3971C24.666 26.3971 24.6654 26.3971 24.6648 26.3971C24.6642 26.3971 24.6635 26.3971 24.6629 26.3971C24.6622 26.3971 24.6615 26.3971 24.6607 26.3971C24.66 26.3971 24.6592 26.3971 24.6584 26.3971C24.6575 26.3971 24.6567 26.3971 24.6558 26.3971C24.6549 26.3971 24.654 26.3971 24.653 26.3971C24.6521 26.3971 24.6511 26.3971 24.6501 26.3971C24.6491 26.3971 24.648 26.3971 24.6469 26.3971C24.6459 26.3971 24.6447 26.3971 24.6436 26.3971C24.6424 26.3971 24.6413 26.3971 24.6401 26.3971C24.6388 26.3971 24.6376 26.3971 24.6363 26.3971C24.635 26.3971 24.6337 26.3971 24.6324 26.3971C24.631 26.3971 24.6296 26.3971 24.6282 26.3971C24.6268 26.3971 24.6254 26.3971 24.6239 26.3971C24.6224 26.3971 24.6209 26.3971 24.6194 26.3971C24.6178 26.3971 24.6162 26.3971 24.6146 26.3971C24.613 26.3971 24.6114 26.3971 24.6097 26.3971C24.608 26.3971 24.6063 26.3971 24.6046 26.3971C24.6029 26.3971 24.6011 26.3971 24.5993 26.3971C24.5975 26.3971 24.5957 26.3971 24.5938 26.3971C24.5919 26.3971 24.59 26.3971 24.5881 26.3971C24.5862 26.3971 24.5842 26.3971 24.5822 26.3971C24.5802 26.3971 24.5782 26.3971 24.5762 26.3971C24.5741 26.3971 24.572 26.3971 24.5699 26.3971C24.5678 26.3971 24.5656 26.3971 24.5634 26.3971C24.5613 26.3971 24.559 26.3971 24.5568 26.3971C24.5546 26.3971 24.5523 26.3971 24.55 26.3971C24.5477 26.3971 24.5453 26.3971 24.5429 26.3971C24.5406 26.3971 24.5382 26.3971 24.5357 26.3971C24.5333 26.3971 24.5308 26.3971 24.5283 26.3971C24.5258 26.3971 24.5233 26.3971 24.5208 26.3971C24.5182 26.3971 24.5156 26.3971 24.513 26.3971C24.5104 26.3971 24.5077 26.3971 24.505 26.3971C24.5024 26.3971 24.4996 26.3971 24.4969 26.3971C24.4942 26.3971 24.4914 26.3971 24.4886 26.3971C24.4858 26.3971 24.4829 26.3971 24.4801 26.3971C24.4772 26.3971 24.4743 26.3971 24.4714 26.3971C24.4685 26.3971 24.4655 26.3971 24.4625 26.3971C24.4595 26.3971 24.4565 26.3971 24.4535 26.3971C24.4504 26.3971 24.4473 26.3971 24.4442 26.3971C24.4411 26.3971 24.438 26.3971 24.4348 26.3971C24.4316 26.3971 24.4284 26.3971 24.4252 26.3971C24.422 26.3971 24.4187 26.3971 24.4154 26.3971C24.4121 26.3971 24.4088 26.3971 24.4055 26.3971C24.4021 26.3971 24.3988 26.3971 24.3953 26.3971C24.3919 26.3971 24.3885 26.3971 24.385 26.3971C24.3816 26.3971 24.3781 26.3971 24.3745 26.3971C24.371 26.3971 24.3675 26.3971 24.3639 26.3971C24.3603 26.3971 24.3567 26.3971 24.353 26.3971C24.3494 26.3971 24.3457 26.3971 24.342 26.3971C24.3383 26.3971 24.3346 26.3971 24.3308 26.3971C24.327 26.3971 24.3233 26.3971 24.3194 26.3971C24.3156 26.3971 24.3118 26.3971 24.3079 26.3971C24.304 26.3971 24.3001 26.3971 24.2962 26.3971C24.2922 26.3971 24.2883 26.3971 24.2843 26.3971C24.2803 26.3971 24.2763 26.3971 24.2722 26.3971C24.2682 26.3971 24.2641 26.3971 24.26 26.3971C24.2559 26.3971 24.2517 26.3971 24.2476 26.3971C24.2434 26.3971 24.2392 26.3971 24.235 26.3971C24.2307 26.3971 24.2265 26.3971 24.2222 26.3971C24.2179 26.3971 24.2136 26.3971 24.2093 26.3971C24.205 26.3971 24.2006 26.3971 24.1962 26.3971C24.1918 26.3971 24.1874 26.3971 24.1829 26.3971C24.1785 26.3971 24.174 26.3971 24.1695 26.3971C24.165 26.3971 24.1605 26.3971 24.1559 26.3971C24.1514 26.3971 24.1468 26.3971 24.1422 26.3971C24.1375 26.3971 24.1329 26.3971 24.1282 26.3971C24.1235 26.3971 24.1188 26.3971 24.1141 26.3971C24.1094 26.3971 24.1046 26.3971 24.0999 26.3971C24.0951 26.3971 24.0903 26.3971 24.0854 26.3971C24.0806 26.3971 24.0757 26.3971 24.0708 26.3971C24.0659 26.3971 24.061 26.3971 24.0561 26.3971C24.0511 26.3971 24.0462 26.3971 24.0412 26.3971C24.0362 26.3971 24.0311 26.3971 24.0261 26.3971C24.021 26.3971 24.0159 26.3971 24.0108 26.3971C24.0057 26.3971 24.0006 26.3971 23.9954 26.3971C23.9903 26.3971 23.9851 26.3971 23.9799 26.3971C23.9746 26.3971 23.9694 26.3971 23.9641 26.3971C23.9589 26.3971 23.9536 26.3971 23.9482 26.3971C23.9429 26.3971 23.9376 26.3971 23.9322 26.3971C23.9268 26.3971 23.9214 26.3971 23.916 26.3971C23.9106 26.3971 23.9051 26.3971 23.8996 26.3971C23.8941 26.3971 23.8886 26.3971 23.8831 26.3971C23.8776 26.3971 23.872 26.3971 23.8664 26.3971C23.8608 26.3971 23.8552 26.3971 23.8496 26.3971C23.8439 26.3971 23.8383 26.3971 23.8326 26.3971C23.8269 26.3971 23.8212 26.3971 23.8154 26.3971C23.8097 26.3971 23.8039 26.3971 23.7981 26.3971C23.7923 26.3971 23.7865 26.3971 23.7807 26.3971C23.7748 26.3971 23.7689 26.3971 23.763 26.3971C23.7571 26.3971 23.7512 26.3971 23.7453 26.3971C23.7393 26.3971 23.7334 26.3971 23.7274 26.3971C23.7214 26.3971 23.7153 26.3971 23.7093 26.3971C23.7032 26.3971 23.6972 26.3971 23.6911 26.3971C23.685 26.3971 23.6788 26.3971 23.6727 26.3971C23.6665 26.3971 23.6604 26.3971 23.6542 26.3971C23.648 26.3971 23.6417 26.3971 23.6355 26.3971C23.6292 26.3971 23.6229 26.3971 23.6166 26.3971C23.6103 26.3971 23.604 26.3971 23.5977 26.3971C23.5913 26.3971 23.5849 26.3971 23.5785 26.3971C23.5721 26.3971 23.5657 26.3971 23.5593 26.3971C23.5528 26.3971 23.5463 26.3971 23.5399 26.3971C23.5334 26.3971 23.5268 26.3971 23.5203 26.3971C23.5137 26.3971 23.5072 26.3971 23.5006 26.3971C23.494 26.3971 23.4874 26.3971 23.4807 26.3971C23.4741 26.3971 23.4674 26.3971 23.4607 26.3971C23.454 26.3971 23.4473 26.3971 23.4406 26.3971C23.4338 26.3971 23.4271 26.3971 23.4203 26.3971C23.4135 26.3971 23.4067 26.3971 23.3998 26.3971C23.393 26.3971 23.3861 26.3971 23.3792 26.3971C23.3724 26.3971 23.3655 26.3971 23.3585 26.3971C23.3516 26.3971 23.3446 26.3971 23.3377 26.3971C23.3307 26.3971 23.3237 26.3971 23.3166 26.3971C23.3096 26.3971 23.3026 26.3971 23.2955 26.3971C23.2884 26.3971 23.2813 26.3971 23.2742 26.3971C23.2671 26.3971 23.26 26.3971 23.2528 26.3971C23.2456 26.3971 23.2384 26.3971 23.2312 26.3971C23.224 26.3971 23.2168 26.3971 23.2095 26.3971C23.2023 26.3971 23.195 26.3971 23.1877 26.3971C23.1804 26.3971 23.173 26.3971 23.1657 26.3971C23.1583 26.3971 23.151 26.3971 23.1436 26.3971C23.1362 26.3971 23.1288 26.3971 23.1213 26.3971C23.1139 26.3971 23.1064 26.3971 23.0989 26.3971C23.0914 26.3971 23.0839 26.3971 23.0764 26.3971C23.0689 26.3971 23.0613 26.3971 23.0537 26.3971C23.0462 26.3971 23.0386 26.3971 23.0309 26.3971C23.0233 26.3971 23.0157 26.3971 23.008 26.3971C23.0004 26.3971 22.9927 26.3971 22.985 26.3971C22.9773 26.3971 22.9695 26.3971 22.9618 26.3971C22.954 26.3971 22.9462 26.3971 22.9384 26.3971C22.9306 26.3971 22.9228 26.3971 22.915 26.3971C22.9071 26.3971 22.8993 26.3971 22.8914 26.3971C22.8835 26.3971 22.8756 26.3971 22.8677 26.3971C22.8597 26.3971 22.8518 26.3971 22.8438 26.3971C22.8359 26.3971 22.8279 26.3971 22.8198 26.3971C22.8118 26.3971 22.8038 26.3971 22.7957 26.3971C22.7877 26.3971 22.7796 26.3971 22.7715 26.3971C22.7634 26.3971 22.7553 26.3971 22.7471 26.3971C22.739 26.3971 22.7308 26.3971 22.7227 26.3971C22.7145 26.3971 22.7063 26.3971 22.698 26.3971C22.6898 26.3971 22.6816 26.3971 22.6733 26.3971C22.665 26.3971 22.6567 26.3971 22.6484 26.3971C22.6401 26.3971 22.6318 26.3971 22.6234 26.3971C22.6151 26.3971 22.6067 26.3971 22.5983 26.3971C22.5899 26.3971 22.5815 26.3971 22.5731 26.3971C22.5646 26.3971 22.5562 26.3971 22.5477 26.3971C22.5392 26.3971 22.5307 26.3971 22.5222 26.3971C22.5137 26.3971 22.5052 26.3971 22.4966 26.3971C22.4881 26.3971 22.4795 26.3971 22.4709 26.3971C22.4623 26.3971 22.4537 26.3971 22.445 26.3971C22.4364 26.3971 22.4277 26.3971 22.4191 26.3971C22.4104 26.3971 22.4017 26.3971 22.393 26.3971C22.3843 26.3971 22.3755 26.3971 22.3668 26.3971C22.358 26.3971 22.3492 26.3971 22.3404 26.3971C22.3316 26.3971 22.3228 26.3971 22.314 26.3971C22.3051 26.3971 22.2963 26.3971 22.2874 26.3971C22.2785 26.3971 22.2696 26.3971 22.2607 26.3971C22.2518 26.3971 22.2429 26.3971 22.2339 26.3971C22.225 26.3971 22.216 26.3971 22.207 26.3971C22.198 26.3971 22.189 26.3971 22.18 26.3971C22.171 26.3971 22.1619 26.3971 22.1528 26.3971C22.1438 26.3971 22.1347 26.3971 22.1256 26.3971C22.1165 26.3971 22.1074 26.3971 22.0982 26.3971C22.0891 26.3971 22.0799 26.3971 22.0707 26.3971C22.0615 26.3971 22.0523 26.3971 22.0431 26.3971C22.0339 26.3971 22.0247 26.3971 22.0154 26.3971C22.0062 26.3971 21.9969 26.3971 21.9876 26.3971C21.9783 26.3971 21.969 26.3971 21.9596 26.3971C21.9503 26.3971 21.941 26.3971 21.9316 26.3971C21.9222 26.3971 21.9128 26.3971 21.9034 26.3971C21.894 26.3971 21.8846 26.3971 21.8752 26.3971C21.8657 26.3971 21.8563 26.3971 21.8468 26.3971C21.8373 26.3971 21.8278 26.3971 21.8183 26.3971C21.8088 26.3971 21.7993 26.3971 21.7897 26.3971C21.7802 26.3971 21.7706 26.3971 21.761 26.3971C21.7515 26.3971 21.7418 26.3971 21.7322 26.3971C21.7226 26.3971 21.713 26.3971 21.7033 26.3971C21.6937 26.3971 21.684 26.3971 21.6743 26.3971C21.6646 26.3971 21.6549 26.3971 21.6452 26.3971C21.6355 26.3971 21.6257 26.3971 21.616 26.3971C21.6062 26.3971 21.5964 26.3971 21.5866 26.3971C21.5768 26.3971 21.567 26.3971 21.5572 26.3971C21.5474 26.3971 21.5375 26.3971 21.5277 26.3971C21.5178 26.3971 21.5079 26.3971 21.498 26.3971C21.4881 26.3971 21.4782 26.3971 21.4683 26.3971C21.4583 26.3971 21.4484 26.3971 21.4384 26.3971C21.4285 26.3971 21.4185 26.3971 21.4085 26.3971C21.3985 26.3971 21.3885 26.3971 21.3785 26.3971C21.3684 26.3971 21.3584 26.3971 21.3483 26.3971C21.3382 26.3971 21.3282 26.3971 21.3181 26.3971C21.308 26.3971 21.2979 26.3971 21.2877 26.3971C21.2776 26.3971 21.2675 26.3971 21.2573 26.3971C21.2471 26.3971 21.237 26.3971 21.2268 26.3971C21.2166 26.3971 21.2064 26.3971 21.1961 26.3971C21.1859 26.3971 21.1757 26.3971 21.1654 26.3971C21.1551 26.3971 21.1449 26.3971 21.1346 26.3971C21.1243 26.3971 21.114 26.3971 21.1037 26.3971C21.0933 26.3971 21.083 26.3971 21.0726 26.3971C21.0623 26.3971 21.0519 26.3971 21.0415 26.3971C21.0312 26.3971 21.0208 26.3971 21.0103 26.3971C20.9999 26.3971 20.9895 26.3971 20.979 26.3971C20.9686 26.3971 20.9581 26.3971 20.9477 26.3971C20.9372 26.3971 20.9267 26.3971 20.9162 26.3971C20.9057 26.3971 20.8952 26.3971 20.8846 26.3971C20.8741 26.3971 20.8635 26.3971 20.853 26.3971C20.8424 26.3971 20.8318 26.3971 20.8212 26.3971C20.8106 26.3971 20.8 26.3971 20.7894 26.3971C20.7787 26.3971 20.7681 26.3971 20.7574 26.3971C20.7468 26.3971 20.7361 26.3971 20.7254 26.3971C20.7147 26.3971 20.704 26.3971 20.6933 26.3971C20.6826 26.3971 20.6719 26.3971 20.6611 26.3971C20.6504 26.3971 20.6396 26.3971 20.6289 26.3971C20.6181 26.3971 20.6073 26.3971 20.5965 26.3971C20.5857 26.3971 20.5749 26.3971 20.564 26.3971C20.5532 26.3971 20.5424 26.3971 20.5315 26.3971C20.5206 26.3971 20.5098 26.3971 20.4989 26.3971C20.488 26.3971 20.4771 26.3971 20.4662 26.3971C20.4553 26.3971 20.4443 26.3971 20.4334 26.3971C20.4224 26.3971 20.4115 26.3971 20.4005 26.3971C20.3895 26.3971 20.3786 26.3971 20.3676 26.3971C20.3566 26.3971 20.3455 26.3971 20.3345 26.3971C20.3235 26.3971 20.3125 26.3971 20.3014 26.3971C20.2904 26.3971 20.2793 26.3971 20.2682 26.3971C20.2571 26.3971 20.246 26.3971 20.2349 26.3971C20.2238 26.3971 20.2127 26.3971 20.2016 26.3971C20.1904 26.3971 20.1793 26.3971 20.1681 26.3971C20.157 26.3971 20.1458 26.3971 20.1346 26.3971C20.1234 26.3971 20.1122 26.3971 20.101 26.3971C20.0898 26.3971 20.0786 26.3971 20.0674 26.3971C20.0561 26.3971 20.0449 26.3971 20.0336 26.3971C20.0223 26.3971 20.0111 26.3971 19.9998 26.3971C19.9885 26.3971 19.9772 26.3971 19.9659 26.3971C19.9546 26.3971 19.9432 26.3971 19.9319 26.3971C19.9206 26.3971 19.9092 26.3971 19.8979 26.3971C19.8865 26.3971 19.8751 26.3971 19.8637 26.3971C19.8523 26.3971 19.8409 26.3971 19.8295 26.3971C19.8181 26.3971 19.8067 26.3971 19.7953 26.3971C19.7838 26.3971 19.7724 26.3971 19.7609 26.3971C19.7495 26.3971 19.738 26.3971 19.7265 26.3971C19.715 26.3971 19.7035 26.3971 19.692 26.3971C19.6805 26.3971 19.669 26.3971 19.6575 26.3971C19.6459 26.3971 19.6344 26.3971 19.6228 26.3971C19.6113 26.3971 19.5997 26.3971 19.5881 26.3971C19.5765 26.3971 19.565 26.3971 19.5534 26.3971C19.5418 26.3971 19.5301 26.3971 19.5185 26.3971C19.5069 26.3971 19.4953 26.3971 19.4836 26.3971C19.472 26.3971 19.4603 26.3971 19.4486 26.3971C19.437 26.3971 19.4253 26.3971 19.4136 26.3971C19.4019 26.3971 19.3902 26.3971 19.3785 26.3971C19.3668 26.3971 19.3551 26.3971 19.3433 26.3971C19.3316 26.3971 19.3198 26.3971 19.3081 26.3971C19.2963 26.3971 19.2846 26.3971 19.2728 26.3971C19.261 26.3971 19.2492 26.3971 19.2374 26.3971C19.2256 26.3971 19.2138 26.3971 19.202 26.3971C19.1902 26.3971 19.1783 26.3971 19.1665 26.3971C19.1547 26.3971 19.1428 26.3971 19.1309 26.3971C19.1191 26.3971 19.1072 26.3971 19.0953 26.3971C19.0834 26.3971 19.0715 26.3971 19.0596 26.3971C19.0477 26.3971 19.0358 26.3971 19.0239 26.3971C19.012 26.3971 19 26.3971 18.9881 26.3971C18.9762 26.3971 18.9642 26.3971 18.9522 26.3971C18.9403 26.3971 18.9283 26.3971 18.9163 26.3971C18.9043 26.3971 18.8923 26.3971 18.8803 26.3971C18.8683 26.3971 18.8563 26.3971 18.8443 26.3971C18.8323 26.3971 18.8203 26.3971 18.8082 26.3971C18.7962 26.3971 18.7841 26.3971 18.7721 26.3971C18.76 26.3971 18.7479 26.3971 18.7359 26.3971C18.7238 26.3971 18.7117 26.3971 18.6996 26.3971C18.6875 26.3971 18.6754 26.3971 18.6633 26.3971C18.6512 26.3971 18.639 26.3971 18.6269 26.3971C18.6148 26.3971 18.6026 26.3971 18.5905 26.3971C18.5783 26.3971 18.5662 26.3971 18.554 26.3971C18.5418 26.3971 18.5296 26.3971 18.5174 26.3971C18.5053 26.3971 18.4931 26.3971 18.4809 26.3971C18.4687 26.3971 18.4564 26.3971 18.4442 26.3971C18.432 26.3971 18.4198 26.3971 18.4075 26.3971C18.3953 26.3971 18.383 26.3971 18.3708 26.3971C18.3585 26.3971 18.3463 26.3971 18.334 26.3971C18.3217 26.3971 18.3094 26.3971 18.2971 26.3971C18.2849 26.3971 18.2726 26.3971 18.2603 26.3971C18.2479 26.3971 18.2356 26.3971 18.2233 26.3971C18.211 26.3971 18.1987 26.3971 18.1863 26.3971C18.174 26.3971 18.1616 26.3971 18.1493 26.3971C18.1369 26.3971 18.1246 26.3971 18.1122 26.3971C18.0998 26.3971 18.0874 26.3971 18.0751 26.3971C18.0627 26.3971 18.0503 26.3971 18.0379 26.3971C18.0255 26.3971 18.0131 26.3971 18.0007 26.3971C17.9882 26.3971 17.9758 26.3971 17.9634 26.3971C17.951 26.3971 17.9385 26.3971 17.9261 26.3971C17.9136 26.3971 17.9012 26.3971 17.8887 26.3971C17.8763 26.3971 17.8638 26.3971 17.8513 26.3971C17.8388 26.3971 17.8264 26.3971 17.8139 26.3971C17.8014 26.3971 17.7889 26.3971 17.7764 26.3971C17.7639 26.3971 17.7514 26.3971 17.7389 26.3971C17.7263 26.3971 17.7138 26.3971 17.7013 26.3971C17.6888 26.3971 17.6762 26.3971 17.6637 26.3971C17.6511 26.3971 17.6386 26.3971 17.626 26.3971C17.6135 26.3971 17.6009 26.3971 17.5883 26.3971C17.5758 26.3971 17.5632 26.3971 17.5506 26.3971C17.538 26.3971 17.5254 26.3971 17.5129 26.3971C17.5003 26.3971 17.4877 26.3971 17.475 26.3971C17.4624 26.3971 17.4498 26.3971 17.4372 26.3971C17.4246 26.3971 17.412 26.3971 17.3993 26.3971C17.3867 26.3971 17.3741 26.3971 17.3614 26.3971C17.3488 26.3971 17.3361 26.3971 17.3235 26.3971C17.3108 26.3971 17.2981 26.3971 17.2855 26.3971C17.2728 26.3971 17.2601 26.3971 17.2475 26.3971C17.2348 26.3971 17.2221 26.3971 17.2094 26.3971C17.1967 26.3971 17.184 26.3971 17.1713 26.3971C17.1586 26.3971 17.1459 26.3971 17.1332 26.3971C17.1205 26.3971 17.1078 26.3971 17.0951 26.3971C17.0823 26.3971 17.0696 26.3971 17.0569 26.3971C17.0441 26.3971 17.0314 26.3971 17.0187 26.3971C17.0059 26.3971 16.9932 26.3971 16.9804 26.3971C16.9677 26.3971 16.9549 26.3971 16.9421 26.3971C16.9294 26.3971 16.9166 26.3971 16.9038 26.3971C16.8911 26.3971 16.8783 26.3971 16.8655 26.3971C16.8527 26.3971 16.8399 26.3971 16.8271 26.3971C16.8143 26.3971 16.8015 26.3971 16.7887 26.3971C16.7759 26.3971 16.7631 26.3971 16.7503 26.3971C16.7375 26.3971 16.7247 26.3971 16.7119 26.3971C16.6991 26.3971 16.6862 26.3971 16.6734 26.3971C16.6606 26.3971 16.6477 26.3971 16.6349 26.3971C16.6221 26.3971 16.6092 26.3971 16.5964 26.3971C16.5835 26.3971 16.5707 26.3971 16.5578 26.3971C16.545 26.3971 16.5321 26.3971 16.5193 26.3971C16.5064 26.3971 16.4935 26.3971 16.4807 26.3971C16.4678 26.3971 16.4549 26.3971 16.4421 26.3971C16.4292 26.3971 16.4163 26.3971 16.4034 26.3971C16.3905 26.3971 16.3776 26.3971 16.3648 26.3971C16.3519 26.3971 16.339 26.3971 16.3261 26.3971C16.3132 26.3971 16.3003 26.3971 16.2874 26.3971C16.2745 26.3971 16.2616 26.3971 16.2486 26.3971C16.2357 26.3971 16.2228 26.3971 16.2099 26.3971C16.197 26.3971 16.1841 26.3971 16.1711 26.3971C16.1582 26.3971 16.1453 26.3971 16.1324 26.3971C16.1194 26.3971 16.1065 26.3971 16.0936 26.3971C16.0806 26.3971 16.0677 26.3971 16.0547 26.3971C16.0418 26.3971 16.0289 26.3971 16.0159 26.3971C16.003 26.3971 15.99 26.3971 15.9771 26.3971C15.9641 26.3971 15.9512 26.3971 15.9382 26.3971C15.9252 26.3971 15.9123 26.3971 15.8993 26.3971C15.8864 26.3971 15.8734 26.3971 15.8604 26.3971C15.8475 26.3971 15.8345 26.3971 15.8215 26.3971C15.8085 26.3971 15.7956 26.3971 15.7826 26.3971C15.7696 26.3971 15.7566 26.3971 15.7437 26.3971C15.7307 26.3971 15.7177 26.3971 15.7047 26.3971C15.6917 26.3971 15.6787 26.3971 15.6657 26.3971C15.6528 26.3971 15.6398 26.3971 15.6268 26.3971C15.6138 26.3971 15.6008 26.3971 15.5878 26.3971C15.5748 26.3971 15.5618 26.3971 15.5488 26.3971C15.5358 26.3971 15.5228 26.3971 15.5098 26.3971C15.4968 26.3971 15.4838 26.3971 15.4708 26.3971C15.4578 26.3971 15.4448 26.3971 15.4318 26.3971C15.4188 26.3971 15.4057 26.3971 15.3927 26.3971C15.3797 26.3971 15.3667 26.3971 15.3537 26.3971C15.3407 26.3971 15.3277 26.3971 15.3147 26.3971C15.3016 26.3971 15.2886 26.3971 15.2756 26.3971C15.2626 26.3971 15.2496 26.3971 15.2365 26.3971C15.2235 26.3971 15.2105 26.3971 15.1975 26.3971C15.1845 26.3971 15.1714 26.3971 15.1584 26.3971C15.1454 26.3971 15.1324 26.3971 15.1193 26.3971C15.1063 26.3971 15.0933 26.3971 15.0803 26.3971C15.0672 26.3971 15.0542 26.3971 15.0412 26.3971C15.0282 26.3971 15.0151 26.3971 15.0021 26.3971C14.9891 26.3971 14.9761 26.3971 14.963 26.3971C14.95 26.3971 14.937 26.3971 14.924 26.3971C14.9109 26.3971 14.8979 26.3971 14.8849 26.3971C14.8718 26.3971 14.8588 26.3971 14.8458 26.3971C14.8328 26.3971 14.8197 26.3971 14.8067 26.3971C14.7937 26.3971 14.7806 26.3971 14.7676 26.3971C14.7546 26.3971 14.7416 26.3971 14.7285 26.3971C14.7155 26.3971 14.7025 26.3971 14.6895 26.3971C14.6764 26.3971 14.6634 26.3971 14.6504 26.3971C14.6374 26.3971 14.6243 26.3971 14.6113 26.3971C14.5983 26.3971 14.5853 26.3971 14.5722 26.3971C14.5592 26.3971 14.5462 26.3971 14.5332 26.3971C14.5201 26.3971 14.5071 26.3971 14.4941 26.3971C14.4811 26.3971 14.4681 26.3971 14.455 26.3971C14.442 26.3971 14.429 26.3971 14.416 26.3971C14.403 26.3971 14.39 26.3971 14.3769 26.3971C14.3639 26.3971 14.3509 26.3971 14.3379 26.3971C14.3249 26.3971 14.3119 26.3971 14.2989 26.3971C14.2859 26.3971 14.2729 26.3971 14.2599 26.3971C14.2468 26.3971 14.2338 26.3971 14.2208 26.3971C14.2078 26.3971 14.1948 26.3971 14.1818 26.3971C14.1688 26.3971 14.1558 26.3971 14.1428 26.3971C14.1298 26.3971 14.1168 26.3971 14.1038 26.3971C14.0909 26.3971 14.0779 26.3971 14.0649 26.3971C14.0519 26.3971 14.0389 26.3971 14.0259 26.3971C14.0129 26.3971 13.9999 26.3971 13.987 26.3971C13.974 26.3971 13.961 26.3971 13.948 26.3971C13.935 26.3971 13.9221 26.3971 13.9091 26.3971C13.8961 26.3971 13.8831 26.3971 13.8702 26.3971C13.8572 26.3971 13.8442 26.3971 13.8313 26.3971C13.8183 26.3971 13.8053 26.3971 13.7924 26.3971C13.7794 26.3971 13.7665 26.3971 13.7535 26.3971C13.7406 26.3971 13.7276 26.3971 13.7147 26.3971C13.7017 26.3971 13.6888 26.3971 13.6758 26.3971C13.6629 26.3971 13.6499 26.3971 13.637 26.3971C13.6241 26.3971 13.6111 26.3971 13.5982 26.3971C13.5853 26.3971 13.5723 26.3971 13.5594 26.3971C13.5465 26.3971 13.5336 26.3971 13.5206 26.3971C13.5077 26.3971 13.4948 26.3971 13.4819 26.3971C13.469 26.3971 13.4561 26.3971 13.4432 26.3971C13.4302 26.3971 13.4173 26.3971 13.4044 26.3971C13.3915 26.3971 13.3786 26.3971 13.3658 26.3971C13.3529 26.3971 13.34 26.3971 13.3271 26.3971C13.3142 26.3971 13.3013 26.3971 13.2884 26.3971C13.2756 26.3971 13.2627 26.3971 13.2498 26.3971C13.2369 26.3971 13.2241 26.3971 13.2112 26.3971C13.1983 26.3971 13.1855 26.3971 13.1726 26.3971C13.1598 26.3971 13.1469 26.3971 13.1341 26.3971C13.1212 26.3971 13.1084 26.3971 13.0955 26.3971C13.0827 26.3971 13.0699 26.3971 13.057 26.3971C13.0442 26.3971 13.0314 26.3971 13.0186 26.3971C13.0057 26.3971 12.9929 26.3971 12.9801 26.3971C12.9673 26.3971 12.9545 26.3971 12.9417 26.3971C12.9289 26.3971 12.9161 26.3971 12.9033 26.3971C12.8905 26.3971 12.8777 26.3971 12.8649 26.3971C12.8521 26.3971 12.8393 26.3971 12.8266 26.3971C12.8138 26.3971 12.801 26.3971 12.7882 26.3971C12.7755 26.3971 12.7627 26.3971 12.75 26.3971C12.7372 26.3971 12.7244 26.3971 12.7117 26.3971C12.699 26.3971 12.6862 26.3971 12.6735 26.3971C12.6607 26.3971 12.648 26.3971 12.6353 26.3971C12.6225 26.3971 12.6098 26.3971 12.5971 26.3971C12.5844 26.3971 12.5717 26.3971 12.559 26.3971C12.5463 26.3971 12.5336 26.3971 12.5209 26.3971C12.5082 26.3971 12.4955 26.3971 12.4828 26.3971C12.4701 26.3971 12.4575 26.3971 12.4448 26.3971C12.4321 26.3971 12.4194 26.3971 12.4068 26.3971C12.3941 26.3971 12.3815 26.3971 12.3688 26.3971C12.3562 26.3971 12.3435 26.3971 12.3309 26.3971C12.3183 26.3971 12.3056 26.3971 12.293 26.3971C12.2804 26.3971 12.2678 26.3971 12.2552 26.3971C12.2425 26.3971 12.2299 26.3971 12.2173 26.3971C12.2047 26.3971 12.1921 26.3971 12.1796 26.3971C12.167 26.3971 12.1544 26.3971 12.1418 26.3971C12.1292 26.3971 12.1167 26.3971 12.1041 26.3971C12.0916 26.3971 12.079 26.3971 12.0665 26.3971C12.0539 26.3971 12.0414 26.3971 12.0288 26.3971C12.0163 26.3971 12.0038 26.3971 11.9912 26.3971C11.9787 26.3971 11.9662 26.3971 11.9537 26.3971C11.9412 26.3971 11.9287 26.3971 11.9162 26.3971C11.9037 26.3971 11.8912 26.3971 11.8787 26.3971C11.8663 26.3971 11.8538 26.3971 11.8413 26.3971C11.8289 26.3971 11.8164 26.3971 11.804 26.3971C11.7915 26.3971 11.7791 26.3971 11.7666 26.3971C11.7542 26.3971 11.7418 26.3971 11.7293 26.3971C11.7169 26.3971 11.7045 26.3971 11.6921 26.3971C11.6797 26.3971 11.6673 26.3971 11.6549 26.3971C11.6425 26.3971 11.6301 26.3971 11.6178 26.3971C11.6054 26.3971 11.593 26.3971 11.5807 26.3971C11.5683 26.3971 11.5559 26.3971 11.5436 26.3971C11.5313 26.3971 11.5189 26.3971 11.5066 26.3971C11.4943 26.3971 11.4819 26.3971 11.4696 26.3971C11.4573 26.3971 11.445 26.3971 11.4327 26.3971C11.4204 26.3971 11.4081 26.3971 11.3959 26.3971C11.3836 26.3971 11.3713 26.3971 11.359 26.3971C11.3468 26.3971 11.3345 26.3971 11.3223 26.3971C11.31 26.3971 11.2978 26.3971 11.2856 26.3971C11.2733 26.3971 11.2611 26.3971 11.2489 26.3971C11.2367 26.3971 11.2245 26.3971 11.2123 26.3971C11.2001 26.3971 11.1879 26.3971 11.1758 26.3971C11.1636 26.3971 11.1514 26.3971 11.1392 26.3971C11.1271 26.3971 11.1149 26.3971 11.1028 26.3971C11.0907 26.3971 11.0785 26.3971 11.0664 26.3971C11.0543 26.3971 11.0422 26.3971 11.0301 26.3971C11.018 26.3971 11.0059 26.3971 10.9938 26.3971C10.9817 26.3971 10.9696 26.3971 10.9576 26.3971C10.9455 26.3971 10.9334 26.3971 10.9214 26.3971C10.9093 26.3971 10.8973 26.3971 10.8853 26.3971C10.8732 26.3971 10.8612 26.3971 10.8492 26.3971C10.8372 26.3971 10.8252 26.3971 10.8132 26.3971C10.8012 26.3971 10.7892 26.3971 10.7773 26.3971C10.7653 26.3971 10.7533 26.3971 10.7414 26.3971C10.7294 26.3971 10.7175 26.3971 10.7056 26.3971C10.6936 26.3971 10.6817 26.3971 10.6698 26.3971C10.6579 26.3971 10.646 26.3971 10.6341 26.3971C10.6222 26.3971 10.6103 26.3971 10.5985 26.3971C10.5866 26.3971 10.5747 26.3971 10.5629 26.3971C10.551 26.3971 10.5392 26.3971 10.5274 26.3971C10.5155 26.3971 10.5037 26.3971 10.4919 26.3971C10.4801 26.3971 10.4683 26.3971 10.4565 26.3971C10.4447 26.3971 10.433 26.3971 10.4212 26.3971C10.4094 26.3971 10.3977 26.3971 10.3859 26.3971C10.3742 26.3971 10.3625 26.3971 10.3507 26.3971C10.339 26.3971 10.3273 26.3971 10.3156 26.3971C10.3039 26.3971 10.2922 26.3971 10.2806 26.3971C10.2689 26.3971 10.2572 26.3971 10.2456 26.3971C10.2339 26.3971 10.2223 26.3971 10.2106 26.3971C10.199 26.3971 10.1874 26.3971 10.1758 26.3971C10.1642 26.3971 10.1526 26.3971 10.141 26.3971C10.1294 26.3971 10.1178 26.3971 10.1062 26.3971C10.0947 26.3971 10.0831 26.3971 10.0716 26.3971C10.0601 26.3971 10.0485 26.3971 10.037 26.3971C10.0255 26.3971 10.014 26.3971 10.0025 26.3971C9.99101 26.3971 9.97953 26.3971 9.96806 26.3971C9.95659 26.3971 9.94513 26.3971 9.93369 26.3971C9.92224 26.3971 9.91081 26.3971 9.89939 26.3971C9.88797 26.3971 9.87656 26.3971 9.86516 26.3971C9.85377 26.3971 9.84238 26.3971 9.83101 26.3971C9.81964 26.3971 9.80828 26.3971 9.79694 26.3971V27.0971Z" fill="#FFC107"/>
<path d="M9.22476 7.29395C3.1217 8.43827 -5.42258 11.5279 9.22476 14.732C27.5339 18.7372 40.6937 9.58259 27.534 7.86611" stroke="#FFC107" stroke-width="0.3"/>
<path d="M27.8792 17.078C27.911 16.8874 27.7822 16.707 27.5915 16.6753C27.4008 16.6435 27.2205 16.7723 27.1887 16.963L27.8792 17.078ZM22.1745 23.6064C22.0199 23.7224 21.9885 23.9418 22.1045 24.0964C22.2205 24.2511 22.4399 24.2824 22.5945 24.1664L22.1745 23.6064ZM27.1887 16.963C27.0155 18.0025 25.7785 20.9035 22.1745 23.6064L22.5945 24.1664C26.3142 21.3767 27.671 18.3272 27.8792 17.078L27.1887 16.963Z" fill="#FFC107"/>
</svg>
