<svg width="48" height="60" viewBox="0 0 48 60" fill="none" xmlns="http://www.w3.org/2000/svg">
<path fill-rule="evenodd" clip-rule="evenodd" d="M24.4616 11.9345C20.6495 11.9345 16.9936 13.4489 14.298 16.1444C11.6025 18.84 10.0882 22.4958 10.0882 26.3079C10.0882 30.12 11.6025 33.7759 14.298 36.4714C16.9936 39.167 20.6495 40.6814 24.4616 40.6814C28.2737 40.6814 31.9296 39.167 34.6252 36.4714C37.3207 33.7759 38.8351 30.12 38.8351 26.3079C38.8351 22.4958 37.3207 18.84 34.6252 16.1444C31.9296 13.4489 28.2737 11.9345 24.4616 11.9345ZM13.6918 15.5382C16.5481 12.6819 20.4221 11.0771 24.4616 11.0771C28.5011 11.0771 32.3751 12.6819 35.2314 15.5382C38.0877 18.3945 39.6924 22.2685 39.6924 26.3079C39.6924 30.3474 38.0877 34.2213 35.2314 37.0776C32.3751 39.934 28.5011 41.5387 24.4616 41.5387C20.4221 41.5387 16.5481 39.934 13.6918 37.0776C10.8355 34.2213 9.23083 30.3474 9.23083 26.3079C9.23083 22.2685 10.8355 18.3945 13.6918 15.5382Z" fill="#2B4255"/>
<path fill-rule="evenodd" clip-rule="evenodd" d="M12.4835 43.6312C12.5968 43.435 12.8357 43.35 13.0474 43.4307L20.1469 46.134C20.2733 46.1821 20.3722 46.2832 20.4175 46.4107C20.4629 46.5381 20.45 46.679 20.3824 46.7961L15.3323 55.5433C15.2389 55.7049 15.0574 55.7944 14.8723 55.7701C14.6872 55.7457 14.5351 55.6123 14.4867 55.4319L13.2336 50.7552L8.55683 52.0083C8.37651 52.0566 8.18485 51.9916 8.07121 51.8435C7.95757 51.6954 7.94433 51.4934 8.03766 51.3317L12.4835 43.6312ZM13.0863 44.4332L9.39419 50.8283L13.4405 49.7441C13.5587 49.7124 13.6847 49.729 13.7907 49.7902C13.8967 49.8514 13.9741 49.9522 14.0058 50.0704L15.09 54.1167L19.312 46.8038L13.0863 44.4332ZM36.1877 43.4948L40.7123 51.3317C40.8056 51.4934 40.7924 51.6954 40.6787 51.8435C40.5651 51.9916 40.3734 52.0566 40.1931 52.0083L35.5163 50.7552L34.2632 55.4319C34.2149 55.6123 34.0627 55.7457 33.8776 55.7701C33.6926 55.7944 33.511 55.7049 33.4177 55.5433L28.4011 46.8542L29.2005 46.3927L33.66 54.1167L34.7442 50.0704C34.7759 49.9522 34.8532 49.8514 34.9592 49.7902C35.0652 49.729 35.1912 49.7124 35.3094 49.7441L39.3558 50.8283L35.3883 43.9563L36.1877 43.4948Z" fill="#2B4255"/>
<path fill-rule="evenodd" clip-rule="evenodd" d="M36.4396 43.6312C36.3263 43.435 36.0874 43.35 35.8757 43.4307L28.7762 46.134C28.6498 46.1821 28.5509 46.2832 28.5056 46.4107C28.4602 46.5381 28.4731 46.679 28.5407 46.7961L33.5908 55.5433C33.6842 55.7049 33.8657 55.7944 34.0508 55.7701C34.2359 55.7457 34.388 55.6123 34.4363 55.4319L35.6895 50.7552L40.3663 52.0083C40.5466 52.0566 40.7382 51.9916 40.8519 51.8435C40.9655 51.6954 40.9788 51.4934 40.8854 51.3317L36.4396 43.6312ZM35.8368 44.4332L39.5289 50.8283L35.4826 49.7441C35.3643 49.7124 35.2384 49.729 35.1324 49.7902C35.0264 49.8514 34.949 49.9522 34.9173 50.0704L33.8331 54.1167L29.611 46.8038L35.8368 44.4332ZM12.7354 43.4948L8.21081 51.3317C8.11748 51.4934 8.13071 51.6954 8.24435 51.8435C8.358 51.9916 8.54966 52.0566 8.72997 52.0083L13.4068 50.7552L14.6599 55.4319C14.7082 55.6123 14.8604 55.7457 15.0455 55.7701C15.2305 55.7944 15.4121 55.7049 15.5054 55.5433L20.522 46.8542L19.7226 46.3927L15.2631 54.1167L14.1789 50.0704C14.1472 49.9522 14.0699 49.8514 13.9639 49.7902C13.8579 49.729 13.7319 49.7124 13.6137 49.7441L9.56734 50.8283L13.5348 43.9563L12.7354 43.4948Z" fill="#2B4255"/>
<path d="M29.6343 34.1702C29.0409 34.6061 25.1561 31.9515 24.4194 31.956C23.6827 31.9604 19.831 34.6628 19.2323 34.2342C18.6337 33.8056 19.9624 29.2972 19.7304 28.5993C19.4984 27.9012 15.7336 25.0796 15.9569 24.3788C16.1802 23.678 20.8862 23.5463 21.4796 23.1105C22.0729 22.6746 23.5978 18.2283 24.3344 18.2238C25.0711 18.2194 26.6509 22.6463 27.2496 23.0748C27.8482 23.5035 32.5555 23.5773 32.7875 24.2752C33.0195 24.9732 29.2898 27.841 29.0665 28.5417C28.8432 29.2425 30.2276 33.7343 29.6343 34.1702V34.1702Z" stroke="#2B4255" stroke-width="0.999727" stroke-linecap="round" stroke-linejoin="round"/>
<path d="M20.5339 3.69597C19.9764 3.79534 18.0191 6.64261 17.487 6.83817C16.9551 7.03373 13.6451 6.12377 13.1548 6.40971C12.6645 6.69564 11.7904 10.0486 11.3567 10.4161C10.923 10.7836 7.50185 11.069 7.13793 11.5074C6.77403 11.9454 7.08768 15.3993 6.80469 15.8943C6.52162 16.3897 3.40212 17.8435 3.20849 18.3809C3.01486 18.9183 4.47867 22.0513 4.38037 22.6145C4.28212 23.1778 1.84619 25.6205 1.84619 26.1924C1.84619 26.7643 4.28206 29.2071 4.38037 29.7703C4.47862 30.3336 3.01486 33.4663 3.20849 34.0037C3.40212 34.5411 6.52162 35.9951 6.80469 36.4903C7.08775 36.9855 6.77394 40.4395 7.13793 40.8775C7.50185 41.3157 10.923 41.6011 11.3567 41.9688C11.7904 42.3363 12.6645 45.6892 13.1548 45.9751C13.6451 46.2611 16.9551 45.3511 17.487 45.5467C18.0191 45.7422 19.9764 48.5896 20.5339 48.6888C21.0915 48.7881 23.8936 46.7881 24.4597 46.7881C25.0259 46.7881 27.8316 48.7881 28.3892 48.6888C28.9467 48.5894 30.904 45.7422 31.436 45.5467C31.968 45.3511 35.278 46.2611 35.7683 45.9751C36.2586 45.6892 37.1327 42.3363 37.5664 41.9688C38.0001 41.6011 41.4212 41.3157 41.7852 40.8775C42.1491 40.4395 41.8353 36.9855 42.1184 36.4903C42.4015 35.9951 45.5173 34.5411 45.7109 34.0037C45.9046 33.4663 44.4407 30.3336 44.5391 29.7703C44.6374 29.2071 47.0769 26.7643 47.0769 26.1924C47.0769 25.6205 44.6374 23.1778 44.5391 22.6145C44.4408 22.0513 45.9046 18.9185 45.7109 18.3809C45.5173 17.8435 42.4015 16.3895 42.1184 15.8943C41.8353 15.3993 42.1491 11.9454 41.7852 11.5074C41.4212 11.069 38.0001 10.7837 37.5664 10.4161C37.1327 10.0486 36.2586 6.69546 35.7683 6.40971C35.278 6.12358 31.968 7.03351 31.436 6.83794C30.904 6.64238 28.9467 3.79515 28.3892 3.69597C27.8316 3.59659 25.0259 5.59649 24.4597 5.59649C23.8936 5.59649 21.0915 3.59659 20.5339 3.69597V3.69597ZM24.3462 9.31742C33.6549 9.31742 41.2212 16.8838 41.2212 26.1924C41.2212 35.5012 33.6549 43.0674 24.3462 43.0674C15.0375 43.0674 7.47119 35.5012 7.47119 26.1924C7.47119 16.8838 15.0375 9.31742 24.3462 9.31742V9.31742Z" stroke="#F05542" stroke-width="1.3"/>
</svg>
