<svg width="38" height="30" viewBox="0 0 38 30" fill="none" xmlns="http://www.w3.org/2000/svg">
<path d="M15.5745 4.66375C15.916 4.66377 16.2435 4.50902 16.4861 4.23317C16.7287 3.95732 16.8667 3.58267 16.8699 3.19071C16.8732 2.79876 16.7413 2.42125 16.5033 2.1402C16.2653 1.85914 15.9404 1.69732 15.599 1.68994" stroke="#FFC107" stroke-width="0.7" stroke-linecap="round" stroke-linejoin="round"/>
<path d="M15.4632 7.62371C15.1218 7.62373 14.7942 7.46898 14.5516 7.19313C14.309 6.91728 14.171 6.54263 14.1678 6.15068C14.1646 5.75872 14.2964 5.38121 14.5344 5.10016C14.7724 4.8191 15.0973 4.65729 15.4387 4.6499" stroke="#FFC107" stroke-width="0.7" stroke-linecap="round" stroke-linejoin="round"/>
<path d="M20.7562 4.66375C21.0977 4.66377 21.4252 4.50902 21.6678 4.23317C21.9104 3.95732 22.0484 3.58267 22.0516 3.19071C22.0549 2.79876 21.923 2.42125 21.685 2.1402C21.447 1.85914 21.1221 1.69732 20.7807 1.68994M15.5745 10.5972C15.9159 10.5972 16.2435 10.4425 16.4861 10.1666C16.7287 9.89078 16.8667 9.51613 16.8699 9.12417C16.8731 8.73222 16.7413 8.35471 16.5033 8.07365C16.2653 7.7926 15.9404 7.63078 15.599 7.6234L15.5745 10.5972Z" stroke="#FFC107" stroke-width="0.7" stroke-linecap="round" stroke-linejoin="round"/>
<path d="M20.645 7.62371C20.3035 7.62373 19.976 7.46898 19.7334 7.19313C19.4908 6.91728 19.3528 6.54263 19.3495 6.15068C19.3463 5.75872 19.4782 5.38121 19.7162 5.10016C19.9542 4.8191 20.279 4.65729 20.6204 4.6499" stroke="#FFC107" stroke-width="0.7" stroke-linecap="round" stroke-linejoin="round"/>
<path d="M10.794 4.66375C11.1355 4.66377 11.463 4.50902 11.7056 4.23317C11.9482 3.95732 12.0862 3.58267 12.0894 3.19071C12.0927 2.79876 11.9608 2.42125 11.7228 2.1402C11.4848 1.85914 11.1599 1.69732 10.8185 1.68994M20.7562 10.5972C21.0977 10.5972 21.4252 10.4425 21.6678 10.1666C21.9104 9.89078 22.0484 9.51613 22.0516 9.12417C22.0549 8.73222 21.923 8.35471 21.685 8.07365C21.447 7.7926 21.1221 7.63078 20.7807 7.6234L20.7562 10.5972Z" stroke="#FFC107" stroke-width="0.7" stroke-linecap="round" stroke-linejoin="round"/>
<path d="M10.6831 7.62371C10.3416 7.6237 10.014 7.46891 9.77145 7.19306C9.52888 6.91722 9.39085 6.54261 9.38763 6.15068C9.38441 5.75872 9.51624 5.38121 9.75425 5.10016C9.99226 4.8191 10.3174 4.65729 10.6588 4.6499" stroke="#FFC107" stroke-width="0.7" stroke-linecap="round" stroke-linejoin="round"/>
<path d="M10.794 10.5978C11.1355 10.5978 11.4631 10.4431 11.7057 10.1673C11.9483 9.89141 12.0863 9.51675 12.0895 9.1248C12.0927 8.73285 11.9609 8.35533 11.7229 8.07428C11.4849 7.79322 11.16 7.63141 10.8186 7.62402" stroke="#FFC107" stroke-width="0.7" stroke-linecap="round" stroke-linejoin="round"/>
<path d="M26.3406 16.8682C25.4361 20.0338 23.0158 22.2343 20.2058 22.8319" stroke="#FFC107" stroke-width="0.7" stroke-linecap="round" stroke-linejoin="round"/>
<path d="M36.6847 5.83154C36.6847 7.70503 35.5519 9.22387 34.1547 9.22387C32.7575 9.22387 31.625 7.70503 31.625 5.83154C31.625 3.95792 32.7575 1 34.1547 1C35.5519 1 36.6847 3.95792 36.6847 5.83154Z" stroke="#FFC107" stroke-width="0.3" stroke-linecap="round" stroke-linejoin="round"/>
<path d="M35.2967 3.75976C35.9395 5.13012 35.8406 6.7091 35.158 7.89059" stroke="#FFC107" stroke-width="0.7" stroke-linecap="round" stroke-linejoin="round"/>
<path d="M9.98859 29.0001H21.4808V24.6377C19.0317 25.8782 17.6053 26.0717 15.621 26.1187C13.1393 26.1774 11.4571 25.6844 9.98859 25.2626V29.0001ZM34.1909 9.27881C32.9903 13.5383 33.3279 18.9748 32.9411 23.8569C32.9411 26.1035 35.4808 26.0282 35.4808 23.8569C35.09 19.0084 35.7006 14.2373 34.1909 9.27881Z" stroke="#FFC107" stroke-width="0.3" stroke-linecap="round" stroke-linejoin="round"/>
<path d="M29.9893 13.418C27.8423 22.6157 19.6064 28.0741 11.5938 25.6096C6.41057 24.0153 2.36216 19.3678 0.973389 13.418H29.9893Z" stroke="#FFC107" stroke-width="0.3" stroke-linecap="round" stroke-linejoin="round"/>
</svg>
