<svg width="38" height="28" viewBox="0 0 38 28" fill="none" xmlns="http://www.w3.org/2000/svg">
<path d="M15.8963 20.0496C12.3109 20.3776 4.62387 20.0496 2.55869 16.1131C-0.0227925 11.1925 0.837701 7.39659 3.41918 3.88187C5.48437 1.0701 9.82507 0.273425 11.7373 0.226562C13.3148 0.460877 16.6708 1.12633 17.4739 1.91363C18.4778 2.89775 19.6251 3.74128 19.7685 4.30364C20.2275 4.75352 21.0115 6.64679 21.3461 7.53718" stroke="#FFC107" stroke-width="0.3"/>
<path d="M33.8148 19.5394C33.8148 19.619 33.7375 19.7039 33.6153 19.7039C33.4931 19.7039 33.4158 19.619 33.4158 19.5394C33.4158 19.4599 33.4931 19.3749 33.6153 19.3749C33.7375 19.3749 33.8148 19.4599 33.8148 19.5394Z" stroke="#FFC107" stroke-width="0.2"/>
<path d="M30.0331 23.8617C30.0331 23.9412 29.9559 24.0262 29.8336 24.0262C29.7114 24.0262 29.6341 23.9412 29.6341 23.8617C29.6341 23.7821 29.7114 23.6972 29.8336 23.6972C29.9559 23.6972 30.0331 23.7821 30.0331 23.8617Z" stroke="#FFC107" stroke-width="0.2"/>
<path d="M25.171 17.1185C25.171 17.1981 25.0937 17.283 24.9715 17.283C24.8493 17.283 24.772 17.1981 24.772 17.1185C24.772 17.039 24.8493 16.954 24.9715 16.954C25.0937 16.954 25.171 17.039 25.171 17.1185Z" stroke="#FFC107" stroke-width="0.2"/>
<path d="M24.991 10.8939C24.991 10.9735 24.9137 11.0584 24.7915 11.0584C24.6692 11.0584 24.5919 10.9735 24.5919 10.8939C24.5919 10.8144 24.6692 10.7294 24.7915 10.7294C24.9137 10.7294 24.991 10.8144 24.991 10.8939Z" stroke="#FFC107" stroke-width="0.2"/>
<path d="M30.2132 20.577C30.2132 20.6566 30.1359 20.7415 30.0137 20.7415C29.8915 20.7415 29.8142 20.6566 29.8142 20.577C29.8142 20.4975 29.8915 20.4125 30.0137 20.4125C30.1359 20.4125 30.2132 20.4975 30.2132 20.577Z" stroke="#FFC107" stroke-width="0.2"/>
<mask id="path-7-inside-1" fill="white">
<ellipse cx="27.753" cy="11.4976" rx="0.199674" ry="0.176346"/>
</mask>
<path d="M27.7526 11.4976C27.7526 11.4909 27.7543 11.4847 27.7566 11.4799C27.7587 11.4754 27.761 11.4731 27.7618 11.4724C27.7631 11.4713 27.7605 11.474 27.753 11.474V11.874C27.9496 11.874 28.1526 11.7281 28.1526 11.4976H27.7526ZM27.753 11.474C27.7454 11.474 27.7428 11.4713 27.7442 11.4724C27.7449 11.4731 27.7472 11.4754 27.7494 11.4799C27.7516 11.4847 27.7533 11.4909 27.7533 11.4976H27.3533C27.3533 11.7281 27.5563 11.874 27.753 11.874V11.474ZM27.7533 11.4976C27.7533 11.5044 27.7516 11.5106 27.7494 11.5154C27.7472 11.5199 27.7449 11.5222 27.7442 11.5228C27.7428 11.524 27.7454 11.5213 27.753 11.5213V11.1213C27.5563 11.1213 27.3533 11.2672 27.3533 11.4976H27.7533ZM27.753 11.5213C27.7605 11.5213 27.7631 11.524 27.7618 11.5228C27.761 11.5222 27.7587 11.5199 27.7566 11.5154C27.7543 11.5106 27.7526 11.5044 27.7526 11.4976H28.1526C28.1526 11.2672 27.9496 11.1213 27.753 11.1213V11.5213Z" fill="#FFC107" mask="url(#path-7-inside-1)"/>
<mask id="path-9-inside-2" fill="white">
<ellipse cx="28.6579" cy="17.3204" rx="0.199674" ry="0.176346"/>
</mask>
<path d="M28.6576 17.3204C28.6576 17.3137 28.6592 17.3074 28.6615 17.3026C28.6637 17.2981 28.6659 17.2959 28.6667 17.2952C28.668 17.294 28.6655 17.2967 28.6579 17.2967V17.6967C28.8546 17.6967 29.0576 17.5509 29.0576 17.3204H28.6576ZM28.6579 17.2967C28.6503 17.2967 28.6478 17.294 28.6491 17.2952C28.6499 17.2959 28.6522 17.2981 28.6543 17.3026C28.6566 17.3074 28.6583 17.3137 28.6583 17.3204H28.2583C28.2583 17.5509 28.4613 17.6967 28.6579 17.6967V17.2967ZM28.6583 17.3204C28.6583 17.3271 28.6566 17.3334 28.6543 17.3381C28.6522 17.3427 28.6499 17.3449 28.6491 17.3456C28.6478 17.3468 28.6503 17.344 28.6579 17.344V16.944C28.4613 16.944 28.2583 17.0899 28.2583 17.3204H28.6583ZM28.6579 17.344C28.6655 17.344 28.668 17.3468 28.6667 17.3456C28.6659 17.3449 28.6637 17.3427 28.6615 17.3381C28.6592 17.3334 28.6576 17.3271 28.6576 17.3204H29.0576C29.0576 17.0899 28.8546 16.944 28.6579 16.944V17.344Z" fill="#FFC107" mask="url(#path-9-inside-2)"/>
<mask id="path-11-inside-3" fill="white">
<ellipse cx="19.6494" cy="13.2262" rx="0.199674" ry="0.176346"/>
</mask>
<path d="M19.6491 13.2262C19.6491 13.2194 19.6507 13.2132 19.653 13.2084C19.6552 13.2039 19.6574 13.2016 19.6582 13.2009C19.6595 13.1998 19.657 13.2025 19.6494 13.2025V13.6025C19.846 13.6025 20.0491 13.4566 20.0491 13.2262H19.6491ZM19.6494 13.2025C19.6418 13.2025 19.6393 13.1998 19.6406 13.2009C19.6414 13.2016 19.6436 13.2039 19.6458 13.2084C19.6481 13.2132 19.6497 13.2194 19.6497 13.2262H19.2497C19.2497 13.4566 19.4527 13.6025 19.6494 13.6025V13.2025ZM19.6497 13.2262C19.6497 13.2329 19.6481 13.2391 19.6458 13.2439C19.6436 13.2484 19.6414 13.2507 19.6406 13.2514C19.6393 13.2525 19.6418 13.2498 19.6494 13.2498V12.8498C19.4527 12.8498 19.2497 12.9957 19.2497 13.2262H19.6497ZM19.6494 13.2498C19.657 13.2498 19.6595 13.2525 19.6582 13.2514C19.6574 13.2507 19.6552 13.2484 19.653 13.2439C19.6507 13.2391 19.6491 13.2329 19.6491 13.2262H20.0491C20.0491 12.9957 19.846 12.8498 19.6494 12.8498V13.2498Z" fill="#FFC107" mask="url(#path-11-inside-3)"/>
<mask id="path-13-inside-4" fill="white">
<ellipse cx="22.2685" cy="11.3248" rx="0.199674" ry="0.176346"/>
</mask>
<path d="M22.2681 11.3248C22.2681 11.3181 22.2698 11.3118 22.2721 11.307C22.2742 11.3025 22.2765 11.3003 22.2773 11.2996C22.2786 11.2984 22.276 11.3011 22.2685 11.3011V11.7011C22.4651 11.7011 22.6681 11.5553 22.6681 11.3248H22.2681ZM22.2685 11.3011C22.2609 11.3011 22.2584 11.2984 22.2597 11.2996C22.2604 11.3003 22.2627 11.3025 22.2649 11.307C22.2671 11.3118 22.2688 11.3181 22.2688 11.3248H21.8688C21.8688 11.5553 22.0718 11.7011 22.2685 11.7011V11.3011ZM22.2688 11.3248C22.2688 11.3315 22.2671 11.3377 22.2649 11.3425C22.2627 11.3471 22.2604 11.3493 22.2597 11.35C22.2584 11.3512 22.2609 11.3484 22.2685 11.3484V10.9484C22.0718 10.9484 21.8688 11.0943 21.8688 11.3248H22.2688ZM22.2685 11.3484C22.276 11.3484 22.2786 11.3512 22.2773 11.35C22.2765 11.3493 22.2742 11.3471 22.2721 11.3425C22.2698 11.3377 22.2681 11.3315 22.2681 11.3248H22.6681C22.6681 11.0943 22.4651 10.9484 22.2685 10.9484V11.3484Z" fill="#FFC107" mask="url(#path-13-inside-4)"/>
<mask id="path-15-inside-5" fill="white">
<ellipse cx="21.2701" cy="12.3829" rx="0.199674" ry="0.176346"/>
</mask>
<path d="M21.2698 12.3829C21.2698 12.3762 21.2714 12.3699 21.2737 12.3651C21.2759 12.3606 21.2781 12.3584 21.2789 12.3577C21.2802 12.3565 21.2777 12.3592 21.2701 12.3592V12.7592C21.4668 12.7592 21.6698 12.6134 21.6698 12.3829H21.2698ZM21.2701 12.3592C21.2625 12.3592 21.26 12.3565 21.2613 12.3577C21.2621 12.3584 21.2643 12.3606 21.2665 12.3651C21.2688 12.3699 21.2704 12.3762 21.2704 12.3829H20.8704C20.8704 12.6134 21.0734 12.7592 21.2701 12.7592V12.3592ZM21.2704 12.3829C21.2704 12.3896 21.2688 12.3959 21.2665 12.4006C21.2643 12.4052 21.2621 12.4074 21.2613 12.4081C21.26 12.4093 21.2625 12.4065 21.2701 12.4065V12.0065C21.0734 12.0065 20.8704 12.1524 20.8704 12.3829H21.2704ZM21.2701 12.4065C21.2777 12.4065 21.2802 12.4093 21.2789 12.4081C21.2781 12.4074 21.2759 12.4052 21.2737 12.4006C21.2714 12.3959 21.2698 12.3896 21.2698 12.3829H21.6698C21.6698 12.1524 21.4668 12.0065 21.2701 12.0065V12.4065Z" fill="#FFC107" mask="url(#path-15-inside-5)"/>
<path d="M2.4393 13.2078C2.36475 13.1478 2.3479 13.0174 2.436 12.9123C2.52411 12.8072 2.65785 12.7981 2.73239 12.8581C2.80694 12.9181 2.8238 13.0485 2.73569 13.1536C2.64758 13.2588 2.51385 13.2679 2.4393 13.2078Z" stroke="#FFC107" stroke-width="0.2"/>
<path d="M2.37295 8.04426C2.2984 7.98423 2.28155 7.85385 2.36966 7.74872C2.45776 7.64358 2.5915 7.63448 2.66605 7.69452C2.7406 7.75456 2.75745 7.88493 2.66934 7.99006C2.58124 8.0952 2.4475 8.1043 2.37295 8.04426Z" stroke="#FFC107" stroke-width="0.2"/>
<path d="M11.5996 8.63606C11.525 8.57602 11.5082 8.44565 11.5963 8.34051C11.6844 8.23538 11.8181 8.22628 11.8927 8.28632C11.9672 8.34635 11.9841 8.47673 11.896 8.58186C11.8079 8.68699 11.6741 8.69609 11.5996 8.63606Z" stroke="#FFC107" stroke-width="0.2"/>
<path d="M7.3154 4.77229C7.24085 4.71225 7.224 4.58188 7.3121 4.47675C7.40021 4.37161 7.53394 4.36251 7.60849 4.42255C7.68304 4.48258 7.69989 4.61296 7.61179 4.71809C7.52368 4.82322 7.38995 4.83233 7.3154 4.77229Z" stroke="#FFC107" stroke-width="0.2"/>
<path d="M17.0853 12.8006C17.0107 12.7406 16.9939 12.6102 17.082 12.5051C17.1701 12.3999 17.3038 12.3908 17.3784 12.4509C17.4529 12.5109 17.4698 12.6413 17.3817 12.7464C17.2936 12.8515 17.1598 12.8606 17.0853 12.8006Z" stroke="#FFC107" stroke-width="0.2"/>
<path d="M5.07419 10.4725C4.99964 10.4124 4.98278 10.2821 5.07089 10.1769C5.159 10.0718 5.29273 10.0627 5.36728 10.1227C5.44183 10.1828 5.45868 10.3132 5.37058 10.4183C5.28247 10.5234 5.14873 10.5325 5.07419 10.4725Z" stroke="#FFC107" stroke-width="0.2"/>
<mask id="path-23-inside-6" fill="white">
<ellipse rx="0.109386" ry="0.0974642" transform="matrix(-0.642309 0.766446 -0.778841 -0.627221 5.65034 6.81763)"/>
</mask>
<path d="M5.70854 6.74818C5.73683 6.77096 5.74782 6.80159 5.74874 6.82537C5.74965 6.84867 5.74167 6.86826 5.7302 6.88194L5.41866 6.63105C5.32325 6.7449 5.30725 6.93849 5.45162 7.05476L5.70854 6.74818ZM5.7302 6.88194C5.71873 6.89562 5.70068 6.9071 5.67719 6.91075C5.65321 6.91448 5.62043 6.90986 5.59214 6.88708L5.84906 6.5805C5.7047 6.46424 5.51407 6.5172 5.41866 6.63105L5.7302 6.88194ZM5.59214 6.88708C5.56385 6.8643 5.55286 6.83367 5.55194 6.80989C5.55103 6.78659 5.55901 6.767 5.57048 6.75332L5.88202 7.0042C5.97743 6.89035 5.99343 6.69676 5.84906 6.5805L5.59214 6.88708ZM5.57048 6.75332C5.58195 6.73963 5.6 6.72815 5.62349 6.7245C5.64747 6.72078 5.68025 6.72539 5.70854 6.74818L5.45162 7.05476C5.59598 7.17102 5.78661 7.11806 5.88202 7.0042L5.57048 6.75332Z" fill="#FFC107" mask="url(#path-23-inside-6)"/>
<mask id="path-25-inside-7" fill="white">
<ellipse rx="0.109386" ry="0.0974642" transform="matrix(-0.642309 0.766446 -0.778841 -0.627221 17.0818 7.15845)"/>
</mask>
<path d="M17.14 7.089C17.1683 7.11178 17.1793 7.14241 17.1802 7.16619C17.1811 7.18949 17.1731 7.20908 17.1617 7.22276L16.8501 6.97187C16.7547 7.08572 16.7387 7.27932 16.8831 7.39558L17.14 7.089ZM17.1617 7.22276C17.1502 7.23644 17.1321 7.24792 17.1086 7.25157C17.0847 7.2553 17.0519 7.25068 17.0236 7.2279L17.2805 6.92132C17.1362 6.80506 16.9455 6.85802 16.8501 6.97187L17.1617 7.22276ZM17.0236 7.2279C16.9953 7.20512 16.9843 7.17449 16.9834 7.15071C16.9825 7.12741 16.9905 7.10782 17.0019 7.09414L17.3135 7.34503C17.4089 7.23117 17.4249 7.03758 17.2805 6.92132L17.0236 7.2279ZM17.0019 7.09414C17.0134 7.08045 17.0315 7.06897 17.055 7.06532C17.0789 7.0616 17.1117 7.06622 17.14 7.089L16.8831 7.39558C17.0274 7.51184 17.2181 7.45888 17.3135 7.34503L17.0019 7.09414Z" fill="#FFC107" mask="url(#path-25-inside-7)"/>
<mask id="path-27-inside-8" fill="white">
<ellipse rx="0.109386" ry="0.0974642" transform="matrix(-0.642309 0.766446 -0.778841 -0.627221 14.0653 6.1062)"/>
</mask>
<path d="M14.1235 6.03675C14.1517 6.05954 14.1627 6.09016 14.1637 6.11394C14.1646 6.13724 14.1566 6.15683 14.1451 6.17052L13.8336 5.91963C13.7382 6.03348 13.7222 6.22707 13.8665 6.34333L14.1235 6.03675ZM14.1451 6.17052C14.1336 6.1842 14.1156 6.19568 14.0921 6.19933C14.0681 6.20305 14.0353 6.19844 14.0071 6.17565L14.264 5.86908C14.1196 5.75281 13.929 5.80578 13.8336 5.91963L14.1451 6.17052ZM14.0071 6.17565C13.9788 6.15287 13.9678 6.12224 13.9669 6.09846C13.9659 6.07516 13.9739 6.05557 13.9854 6.04189L14.2969 6.29278C14.3923 6.17893 14.4083 5.98534 14.264 5.86908L14.0071 6.17565ZM13.9854 6.04189C13.9969 6.02821 14.0149 6.01673 14.0384 6.01308C14.0624 6.00935 14.0952 6.01397 14.1235 6.03675L13.8665 6.34333C14.0109 6.45959 14.2015 6.40663 14.2969 6.29278L13.9854 6.04189Z" fill="#FFC107" mask="url(#path-27-inside-8)"/>
<mask id="path-29-inside-9" fill="white">
<ellipse rx="0.109386" ry="0.0974642" transform="matrix(-0.642309 0.766446 -0.778841 -0.627221 9.96296 14.0359)"/>
</mask>
<path d="M10.0212 13.9664C10.0495 13.9892 10.0604 14.0199 10.0614 14.0436C10.0623 14.0669 10.0543 14.0865 10.0428 14.1002L9.73128 13.8493C9.63587 13.9632 9.61987 14.1568 9.76424 14.273L10.0212 13.9664ZM10.0428 14.1002C10.0314 14.1139 10.0133 14.1254 9.98981 14.129C9.96583 14.1327 9.93305 14.1281 9.90476 14.1053L10.1617 13.7988C10.0173 13.6825 9.8267 13.7355 9.73128 13.8493L10.0428 14.1002ZM9.90476 14.1053C9.87647 14.0826 9.86549 14.0519 9.86456 14.0282C9.86365 14.0048 9.87164 13.9853 9.8831 13.9716L10.1946 14.2225C10.2901 14.1086 10.306 13.915 10.1617 13.7988L9.90476 14.1053ZM9.8831 13.9716C9.89457 13.9579 9.91262 13.9464 9.93612 13.9428C9.96009 13.939 9.99287 13.9437 10.0212 13.9664L9.76424 14.273C9.90861 14.3893 10.0992 14.3363 10.1946 14.2225L9.8831 13.9716Z" fill="#FFC107" mask="url(#path-29-inside-9)"/>
<mask id="path-31-inside-10" fill="white">
<ellipse rx="0.109386" ry="0.0974642" transform="matrix(-0.642309 0.766446 -0.778841 -0.627221 12.8975 13.8713)"/>
</mask>
<path d="M12.9557 13.8019C12.984 13.8247 12.995 13.8553 12.9959 13.8791C12.9968 13.9024 12.9889 13.922 12.9774 13.9357L12.6659 13.6848C12.5704 13.7986 12.5544 13.9922 12.6988 14.1085L12.9557 13.8019ZM12.9774 13.9357C12.9659 13.9493 12.9479 13.9608 12.9244 13.9645C12.9004 13.9682 12.8676 13.9636 12.8393 13.9408L13.0963 13.6342C12.9519 13.518 12.7613 13.5709 12.6659 13.6848L12.9774 13.9357ZM12.8393 13.9408C12.811 13.918 12.8001 13.8874 12.7991 13.8636C12.7982 13.8403 12.8062 13.8207 12.8177 13.807L13.1292 14.0579C13.2246 13.9441 13.2406 13.7505 13.0963 13.6342L12.8393 13.9408ZM12.8177 13.807C12.8291 13.7933 12.8472 13.7819 12.8707 13.7782C12.8947 13.7745 12.9274 13.7791 12.9557 13.8019L12.6988 14.1085C12.8432 14.2247 13.0338 14.1718 13.1292 14.0579L12.8177 13.807Z" fill="#FFC107" mask="url(#path-31-inside-10)"/>
<mask id="path-33-inside-11" fill="white">
<ellipse rx="0.109386" ry="0.0974642" transform="matrix(-0.642309 0.766446 -0.778841 -0.627221 16.0677 12.2122)"/>
</mask>
<path d="M16.1259 12.1427C16.1542 12.1655 16.1652 12.1961 16.1661 12.2199C16.167 12.2432 16.159 12.2628 16.1476 12.2765L15.836 12.0256C15.7406 12.1394 15.7246 12.333 15.869 12.4493L16.1259 12.1427ZM16.1476 12.2765C16.1361 12.2902 16.118 12.3016 16.0945 12.3053C16.0706 12.309 16.0378 12.3044 16.0095 12.2816L16.2664 11.975C16.1221 11.8588 15.9314 11.9117 15.836 12.0256L16.1476 12.2765ZM16.0095 12.2816C15.9812 12.2588 15.9702 12.2282 15.9693 12.2044C15.9684 12.1811 15.9764 12.1615 15.9878 12.1478L16.2994 12.3987C16.3948 12.2849 16.4108 12.0913 16.2664 11.975L16.0095 12.2816ZM15.9878 12.1478C15.9993 12.1342 16.0174 12.1227 16.0409 12.119C16.0648 12.1153 16.0976 12.1199 16.1259 12.1427L15.869 12.4493C16.0133 12.5655 16.204 12.5126 16.2994 12.3987L15.9878 12.1478Z" fill="#FFC107" mask="url(#path-33-inside-11)"/>
<mask id="path-35-inside-12" fill="white">
<ellipse rx="0.109386" ry="0.0974642" transform="matrix(-0.642309 0.766446 -0.778841 -0.627221 10.0404 8.4812)"/>
</mask>
<path d="M10.0986 8.41175C10.1268 8.43454 10.1378 8.46516 10.1388 8.48894C10.1397 8.51224 10.1317 8.53183 10.1202 8.54552L9.80868 8.29463C9.71327 8.40848 9.69727 8.60207 9.84163 8.71833L10.0986 8.41175ZM10.1202 8.54552C10.1087 8.5592 10.0907 8.57068 10.0672 8.57433C10.0432 8.57805 10.0104 8.57344 9.98215 8.55065L10.2391 8.24408C10.0947 8.12781 9.90409 8.18078 9.80868 8.29463L10.1202 8.54552ZM9.98215 8.55065C9.95386 8.52787 9.94288 8.49724 9.94195 8.47346C9.94104 8.45016 9.94903 8.43057 9.9605 8.41689L10.272 8.66778C10.3674 8.55393 10.3834 8.36034 10.2391 8.24408L9.98215 8.55065ZM9.9605 8.41689C9.97196 8.40321 9.99001 8.39173 10.0135 8.38808C10.0375 8.38435 10.0703 8.38897 10.0986 8.41175L9.84163 8.71833C9.986 8.83459 10.1766 8.78163 10.272 8.66778L9.9605 8.41689Z" fill="#FFC107" mask="url(#path-35-inside-12)"/>
<mask id="path-37-inside-13" fill="white">
<ellipse rx="0.109386" ry="0.0974642" transform="matrix(-0.642309 0.766446 -0.778841 -0.627221 11.4595 6.42993)"/>
</mask>
<path d="M11.5177 6.36048C11.546 6.38327 11.557 6.41389 11.5579 6.43767C11.5589 6.46097 11.5509 6.48056 11.5394 6.49425L11.2279 6.24336C11.1325 6.35721 11.1165 6.5508 11.2608 6.66706L11.5177 6.36048ZM11.5394 6.49425C11.5279 6.50793 11.5099 6.51941 11.4864 6.52306C11.4624 6.52678 11.4296 6.52217 11.4013 6.49938L11.6583 6.19281C11.5139 6.07654 11.3233 6.12951 11.2279 6.24336L11.5394 6.49425ZM11.4013 6.49938C11.3731 6.4766 11.3621 6.44597 11.3611 6.42219C11.3602 6.39889 11.3682 6.3793 11.3797 6.36562L11.6912 6.61651C11.7866 6.50266 11.8026 6.30907 11.6583 6.19281L11.4013 6.49938ZM11.3797 6.36562C11.3912 6.35194 11.4092 6.34046 11.4327 6.33681C11.4567 6.33308 11.4895 6.3377 11.5177 6.36048L11.2608 6.66706C11.4052 6.78332 11.5958 6.73036 11.6912 6.61651L11.3797 6.36562Z" fill="#FFC107" mask="url(#path-37-inside-13)"/>
<mask id="path-39-inside-14" fill="white">
<ellipse rx="0.109386" ry="0.0974642" transform="matrix(-0.642309 0.766446 -0.778841 -0.627221 17.6134 10.3674)"/>
</mask>
<path d="M17.6716 10.298C17.6998 10.3208 17.7108 10.3514 17.7118 10.3752C17.7127 10.3985 17.7047 10.4181 17.6932 10.4317L17.3817 10.1809C17.2863 10.2947 17.2703 10.4883 17.4146 10.6046L17.6716 10.298ZM17.6932 10.4317C17.6817 10.4454 17.6637 10.4569 17.6402 10.4606C17.6162 10.4643 17.5834 10.4597 17.5552 10.4369L17.8121 10.1303C17.6677 10.014 17.4771 10.067 17.3817 10.1809L17.6932 10.4317ZM17.5552 10.4369C17.5269 10.4141 17.5159 10.3835 17.515 10.3597C17.514 10.3364 17.522 10.3168 17.5335 10.3031L17.845 10.554C17.9404 10.4402 17.9564 10.2466 17.8121 10.1303L17.5552 10.4369ZM17.5335 10.3031C17.545 10.2894 17.563 10.278 17.5865 10.2743C17.6105 10.2706 17.6433 10.2752 17.6716 10.298L17.4146 10.6046C17.559 10.7208 17.7496 10.6679 17.845 10.554L17.5335 10.3031Z" fill="#FFC107" mask="url(#path-39-inside-14)"/>
<mask id="path-41-inside-15" fill="white">
<ellipse rx="0.218773" ry="0.194928" transform="matrix(-0.642309 0.766446 -0.778841 -0.627221 14.6283 14.6943)"/>
</mask>
<path d="M14.6163 14.7087C14.6193 14.7112 14.6214 14.7141 14.6226 14.7166C14.6236 14.7188 14.6234 14.7195 14.6234 14.7181C14.6232 14.7152 14.6243 14.707 14.6323 14.6975L14.3207 14.4466C14.1865 14.6068 14.173 14.8653 14.3593 15.0153L14.6163 14.7087ZM14.6323 14.6975C14.6402 14.6881 14.6482 14.6854 14.6512 14.685C14.6525 14.6847 14.6518 14.6851 14.6494 14.6845C14.6468 14.6839 14.6434 14.6824 14.6404 14.68L14.8973 14.3734C14.711 14.2233 14.4549 14.2865 14.3207 14.4466L14.6323 14.6975ZM14.6404 14.68C14.6374 14.6775 14.6352 14.6745 14.634 14.6721C14.633 14.6699 14.6332 14.6692 14.6333 14.6705C14.6334 14.6735 14.6323 14.6817 14.6244 14.6912L14.9359 14.942C15.0701 14.7819 15.0836 14.5234 14.8973 14.3734L14.6404 14.68ZM14.6244 14.6912C14.6164 14.7006 14.6084 14.7033 14.6055 14.7037C14.6041 14.7039 14.6048 14.7036 14.6072 14.7042C14.6098 14.7048 14.6132 14.7063 14.6163 14.7087L14.3593 15.0153C14.5456 15.1653 14.8017 15.1022 14.9359 14.942L14.6244 14.6912Z" fill="#FFC107" mask="url(#path-41-inside-15)"/>
<mask id="path-43-inside-16" fill="white">
<ellipse rx="0.218773" ry="0.194928" transform="matrix(-0.642309 0.766446 -0.778841 -0.627221 8.97841 11.417)"/>
</mask>
<path d="M8.96636 11.4314C8.96938 11.4338 8.97153 11.4368 8.97269 11.4392C8.97374 11.4414 8.97351 11.4421 8.97346 11.4408C8.97334 11.4379 8.97443 11.4296 8.98236 11.4202L8.67083 11.1693C8.53661 11.3294 8.52314 11.5879 8.70943 11.738L8.96636 11.4314ZM8.98236 11.4202C8.9903 11.4107 8.99831 11.4081 9.00127 11.4076C9.0026 11.4074 9.00194 11.4078 8.99955 11.4072C8.99689 11.4065 8.99349 11.405 8.99047 11.4026L9.2474 11.096C9.06111 10.946 8.80504 11.0091 8.67083 11.1693L8.98236 11.4202ZM8.99047 11.4026C8.98745 11.4002 8.9853 11.3972 8.98414 11.3948C8.98309 11.3926 8.98332 11.3919 8.98337 11.3932C8.98348 11.3961 8.9824 11.4043 8.97446 11.4138L9.286 11.6647C9.42022 11.5045 9.43368 11.2461 9.2474 11.096L8.99047 11.4026ZM8.97446 11.4138C8.96653 11.4233 8.95852 11.4259 8.95556 11.4264C8.95423 11.4266 8.95489 11.4262 8.95728 11.4268C8.95994 11.4275 8.96334 11.429 8.96636 11.4314L8.70943 11.738C8.89572 11.888 9.15179 11.8249 9.286 11.6647L8.97446 11.4138Z" fill="#FFC107" mask="url(#path-43-inside-16)"/>
<mask id="path-45-inside-17" fill="white">
<ellipse rx="0.218773" ry="0.194928" transform="matrix(-0.642309 0.766446 -0.778841 -0.627221 9.61043 2.76465)"/>
</mask>
<path d="M9.59838 2.77904C9.60139 2.78147 9.60355 2.78445 9.60471 2.78688C9.60576 2.78907 9.60553 2.78977 9.60548 2.78845C9.60536 2.78552 9.60645 2.7773 9.61438 2.76783L9.30285 2.51694C9.16863 2.6771 9.15516 2.93559 9.34145 3.08562L9.59838 2.77904ZM9.61438 2.76783C9.62232 2.75836 9.63033 2.75573 9.63328 2.75527C9.63462 2.75506 9.63396 2.75542 9.63156 2.75484C9.62891 2.75419 9.62551 2.7527 9.62249 2.75026L9.87941 2.44369C9.69313 2.29366 9.43706 2.35679 9.30285 2.51694L9.61438 2.76783ZM9.62249 2.75026C9.61947 2.74783 9.61732 2.74485 9.61616 2.74243C9.61511 2.74024 9.61534 2.73954 9.61539 2.74086C9.6155 2.74379 9.61442 2.752 9.60648 2.76147L9.91802 3.01236C10.0522 2.85221 10.0657 2.59371 9.87941 2.44369L9.62249 2.75026ZM9.60648 2.76147C9.59855 2.77094 9.59054 2.77358 9.58758 2.77404C9.58625 2.77424 9.58691 2.77389 9.5893 2.77447C9.59196 2.77511 9.59536 2.77661 9.59838 2.77904L9.34145 3.08562C9.52774 3.23564 9.7838 3.17251 9.91802 3.01236L9.60648 2.76147Z" fill="#FFC107" mask="url(#path-45-inside-17)"/>
<mask id="path-47-inside-18" fill="white">
<ellipse rx="0.218773" ry="0.194928" transform="matrix(-0.642309 0.766446 -0.778841 -0.627221 18.8424 6.69092)"/>
</mask>
<path d="M18.8303 6.70531C18.8333 6.70774 18.8355 6.71072 18.8366 6.71315C18.8377 6.71534 18.8375 6.71604 18.8374 6.71472C18.8373 6.71178 18.8384 6.70357 18.8463 6.6941L18.5348 6.44321C18.4006 6.60337 18.3871 6.86186 18.5734 7.01189L18.8303 6.70531ZM18.8463 6.6941C18.8543 6.68463 18.8623 6.682 18.8652 6.68154C18.8665 6.68133 18.8659 6.68169 18.8635 6.6811C18.8608 6.68046 18.8574 6.67897 18.8544 6.67653L19.1113 6.36996C18.9251 6.21993 18.669 6.28306 18.5348 6.44321L18.8463 6.6941ZM18.8544 6.67653C18.8514 6.6741 18.8492 6.67112 18.8481 6.6687C18.847 6.66651 18.8473 6.66581 18.8473 6.66713C18.8474 6.67006 18.8464 6.67827 18.8384 6.68774L19.15 6.93863C19.2842 6.77848 19.2976 6.51998 19.1113 6.36996L18.8544 6.67653ZM18.8384 6.68774C18.8305 6.69721 18.8225 6.69985 18.8195 6.70031C18.8182 6.70051 18.8188 6.70016 18.8212 6.70074C18.8239 6.70138 18.8273 6.70288 18.8303 6.70531L18.5734 7.01189C18.7597 7.16191 19.0157 7.09878 19.15 6.93863L18.8384 6.68774Z" fill="#FFC107" mask="url(#path-47-inside-18)"/>
<mask id="path-49-inside-19" fill="white">
<ellipse rx="0.218773" ry="0.194928" transform="matrix(-0.642309 0.766446 -0.778841 -0.627221 18.6366 10.209)"/>
</mask>
<path d="M18.6246 10.2234C18.6276 10.2258 18.6297 10.2288 18.6309 10.2312C18.6319 10.2334 18.6317 10.2341 18.6317 10.2328C18.6315 10.2299 18.6326 10.2216 18.6406 10.2122L18.329 9.96128C18.1948 10.1214 18.1813 10.3799 18.3676 10.53L18.6246 10.2234ZM18.6406 10.2122C18.6485 10.2027 18.6565 10.2001 18.6595 10.1996C18.6608 10.1994 18.6601 10.1998 18.6577 10.1992C18.6551 10.1985 18.6517 10.197 18.6487 10.1946L18.9056 9.88802C18.7193 9.738 18.4632 9.80113 18.329 9.96128L18.6406 10.2122ZM18.6487 10.1946C18.6457 10.1922 18.6435 10.1892 18.6423 10.1868C18.6413 10.1846 18.6415 10.1839 18.6416 10.1852C18.6417 10.1881 18.6406 10.1963 18.6327 10.2058L18.9442 10.4567C19.0784 10.2965 19.0919 10.038 18.9056 9.88802L18.6487 10.1946ZM18.6327 10.2058C18.6247 10.2153 18.6167 10.2179 18.6138 10.2184C18.6124 10.2186 18.6131 10.2182 18.6155 10.2188C18.6181 10.2195 18.6215 10.2209 18.6246 10.2234L18.3676 10.53C18.5539 10.68 18.81 10.6168 18.9442 10.4567L18.6327 10.2058Z" fill="#FFC107" mask="url(#path-49-inside-19)"/>
<mask id="path-51-inside-20" fill="white">
<ellipse rx="0.218773" ry="0.194928" transform="matrix(-0.642309 0.766446 -0.778841 -0.627221 18.4283 8.63672)"/>
</mask>
<path d="M18.4162 8.65111C18.4193 8.65354 18.4214 8.65652 18.4226 8.65895C18.4236 8.66114 18.4234 8.66184 18.4233 8.66052C18.4232 8.65759 18.4243 8.64937 18.4323 8.6399L18.1207 8.38902C17.9865 8.54917 17.973 8.80767 18.1593 8.95769L18.4162 8.65111ZM18.4323 8.6399C18.4402 8.63044 18.4482 8.6278 18.4512 8.62734C18.4525 8.62713 18.4518 8.62749 18.4494 8.62691C18.4468 8.62626 18.4434 8.62477 18.4404 8.62233L18.6973 8.31576C18.511 8.16573 18.2549 8.22886 18.1207 8.38902L18.4323 8.6399ZM18.4404 8.62233C18.4373 8.6199 18.4352 8.61692 18.434 8.6145C18.433 8.61231 18.4332 8.61161 18.4333 8.61293C18.4334 8.61586 18.4323 8.62407 18.4244 8.63354L18.7359 8.88443C18.8701 8.72428 18.8836 8.46578 18.6973 8.31576L18.4404 8.62233ZM18.4244 8.63354C18.4164 8.64301 18.4084 8.64565 18.4055 8.64611C18.4041 8.64631 18.4048 8.64596 18.4072 8.64654C18.4098 8.64718 18.4132 8.64868 18.4162 8.65111L18.1593 8.95769C18.3456 9.10771 18.6017 9.04458 18.7359 8.88443L18.4244 8.63354Z" fill="#FFC107" mask="url(#path-51-inside-20)"/>
<path d="M21.2027 7.53748C13.9746 14.3982 15.8963 20.9871 17.7608 23.424C18.3533 24.6893 20.4856 24.9705 20.4856 25.3922C20.4856 25.814 22.2066 26.9387 25.9354 27.6417C29.6642 28.3446 34.2535 24.5487 36.4048 21.8775C38.556 19.2063 37.1219 12.8798 36.1179 11.6145C35.114 10.3492 33.1062 8.94337 29.8077 7.53748C26.5091 6.13159 22.2066 6.69395 21.2027 7.53748Z" stroke="#FFC107" stroke-width="0.3"/>
<path d="M11.6127 1.91794C14.1942 1.77735 17.4928 4.72972 16.6323 5.85443C15.7718 6.97914 13.1903 5.5732 13.4771 4.58908" stroke="#FFC107" stroke-width="0.7" stroke-linecap="round"/>
<path d="M24.1173 23.9524C23.5899 21.4712 19.8291 19.1088 18.9427 20.214C18.0562 21.3191 20.1078 23.4013 21.0037 22.8758" stroke="#FFC107" stroke-width="0.7" stroke-linecap="round"/>
<path d="M4.72877 6.41211C3.58145 9.36448 2.72095 12.4574 3.72486 13.5821C4.72877 14.7069 9.60491 14.5663 9.17466 16.1127C8.83046 17.3499 7.6927 17.378 7.16684 17.2375" stroke="#FFC107" stroke-width="0.7" stroke-linecap="round"/>
<path d="M27.827 9.70795C30.8232 10.8718 33.7315 12.338 33.9 13.8233C34.0684 15.3086 30.6702 18.7396 32.1244 19.4727C33.2877 20.0592 34.0771 19.2554 34.3264 18.7803" stroke="#FFC107" stroke-width="0.7" stroke-linecap="round"/>
</svg>
