<svg width="48" height="48" viewBox="0 0 48 48" fill="none" xmlns="http://www.w3.org/2000/svg">
<path d="M47.75 24C47.75 10.9051 37.0949 0.25 24 0.25C10.9051 0.25 0.25 10.9051 0.25 24C0.25 37.0949 10.9051 47.75 24 47.75C37.0949 47.75 47.75 37.0949 47.75 24ZM46.25 24C46.25 36.2691 36.2691 46.25 24 46.25C11.7309 46.25 1.75 36.2691 1.75 24C1.75 11.7309 11.7309 1.75 24 1.75C36.2691 1.75 46.25 11.7309 46.25 24Z" fill="#FFB053" stroke="#E0E0E0" stroke-width="0.5"/>
<path d="M16.2373 23.8232L29.3535 10.707L28.293 9.64652L13.9396 24L28.293 38.3534L29.3535 37.293L16.2373 24.1767L16.0605 24L16.2373 23.8232Z" fill="#FFB053" stroke="#E0E0E0" stroke-width="0.5"/>
</svg>
