<svg width="61" height="61" viewBox="0 0 61 61" fill="none" xmlns="http://www.w3.org/2000/svg">
<g opacity="0.8">
<path d="M21.3855 53.8467H18.7239C18.066 53.8467 17.5325 54.3802 17.5325 55.0381C17.5325 55.696 18.066 56.2295 18.7239 56.2295H21.3855C22.0434 56.2295 22.5769 55.696 22.5769 55.0381C22.5769 54.3802 22.0435 53.8467 21.3855 53.8467Z" fill="#181725"/>
<path d="M38.4186 5.88865C38.034 5.88865 37.652 5.89973 37.2729 5.92153C37.1917 2.64242 34.499 0 31.2009 0H8.90826C5.55922 0 2.83447 2.72475 2.83447 6.07391V54.926C2.83447 58.2751 5.55922 60.9999 8.90826 60.9999H31.2008C34.5498 60.9999 37.2746 58.2751 37.2746 54.926V45.3495C37.6546 45.3714 38.0361 45.3825 38.4184 45.3825C49.3071 45.3825 58.1654 36.524 58.1654 25.6355C58.1655 14.747 49.3071 5.88865 38.4186 5.88865ZM31.2009 58.6172H8.90826C6.87298 58.6172 5.21729 56.9614 5.21729 54.9261V51.6304H34.8919V54.9261C34.8919 56.9614 33.2362 58.6172 31.2009 58.6172ZM34.8919 49.2475H5.21729V6.07391C5.21729 4.03863 6.87298 2.38281 8.90826 2.38281H31.2008C33.2361 2.38281 34.8918 4.03863 34.8918 6.07391V6.20401C25.6802 7.87162 18.6717 15.9504 18.6717 25.6355C18.6717 30.5433 20.4581 35.1936 23.7196 38.8225L22.3847 41.577C22.196 41.9665 22.2333 42.4274 22.4818 42.7814C22.7306 43.1353 23.1513 43.3254 23.5817 43.2814L28.571 42.7552C30.5329 43.8856 32.6719 44.6649 34.8919 45.0664V49.2475ZM38.4186 42.9996C35.2501 42.9996 32.1502 42.1385 29.4536 40.5094C29.2671 40.3968 29.054 40.3378 28.8375 40.3378C28.7959 40.3378 28.7542 40.3401 28.7125 40.3444L25.4638 40.687L26.2208 39.1251C26.4399 38.6729 26.3519 38.1319 26.0007 37.7726C22.8111 34.5097 21.0544 30.1994 21.0544 25.6356C21.0544 16.0611 28.8439 8.27158 38.4184 8.27158C47.9931 8.27158 55.7826 16.0611 55.7826 25.6356C55.7827 35.2101 47.9932 42.9996 38.4186 42.9996Z" fill="#181725"/>
<path d="M43.6431 18.7026C43.5236 18.7026 43.4046 18.7074 43.2863 18.717C42.2713 17.0417 40.4235 15.9707 38.4186 15.9707C36.4137 15.9707 34.5658 17.0417 33.551 18.717C33.4327 18.7074 33.3136 18.7026 33.1941 18.7026C30.7947 18.7026 28.8427 20.6497 28.8427 23.0431C28.8427 24.9446 30.0749 26.5644 31.7846 27.15L32.159 32.0254C32.2067 32.6462 32.7244 33.1255 33.347 33.1255H43.4904C44.113 33.1255 44.6306 32.6462 44.6783 32.0255L45.0533 27.1499C46.7627 26.5642 47.9947 24.9446 47.9947 23.0432C47.9946 20.6497 46.0425 18.7026 43.6431 18.7026ZM34.4504 30.7427L34.1836 27.2701C34.7233 27.1444 35.2339 26.917 35.6879 26.6002C36.52 27.0545 37.4613 27.2981 38.4186 27.2981C39.376 27.2981 40.3173 27.0545 41.1494 26.6002C41.6034 26.917 42.1142 27.1445 42.654 27.2702L42.3869 30.7427H34.4504ZM43.6431 25.001C43.0703 25.001 42.5269 24.7534 42.152 24.3216C41.9168 24.0508 41.5855 23.9113 41.2517 23.9113C40.9874 23.9113 40.7217 23.9988 40.501 24.1779C39.9072 24.6605 39.187 24.9154 38.4185 24.9154C37.65 24.9154 36.9298 24.6603 36.336 24.1779C35.837 23.7726 35.1063 23.8362 34.6852 24.3216C34.3104 24.7534 33.7669 25.001 33.194 25.001C32.1085 25.001 31.2253 24.1227 31.2253 23.0431C31.2253 21.9636 32.1085 21.0854 33.194 21.0854C33.4131 21.0854 33.6279 21.1207 33.8323 21.1903C34.4406 21.397 35.104 21.0839 35.3307 20.4824C35.8105 19.2091 37.0513 18.3536 38.4185 18.3536C39.7856 18.3536 41.0266 19.2092 41.5063 20.4824C41.7329 21.084 42.3957 21.3974 43.0048 21.1903C43.2092 21.1207 43.424 21.0854 43.643 21.0854C44.7285 21.0854 45.6116 21.9636 45.6116 23.0431C45.6116 24.1227 44.7287 25.001 43.6431 25.001Z" fill="#181725"/>
</g>
</svg>
