<svg width="48" height="48" viewBox="0 0 48 48" fill="none" xmlns="http://www.w3.org/2000/svg">
<path d="M0.25 24C0.25 10.9051 10.9051 0.25 24 0.25C37.0949 0.25 47.75 10.9051 47.75 24C47.75 37.0949 37.0949 47.75 24 47.75C10.9051 47.75 0.25 37.0949 0.25 24ZM1.75 24C1.75 36.2691 11.7309 46.25 24 46.25C36.2691 46.25 46.25 36.2691 46.25 24C46.25 11.7309 36.2691 1.75 24 1.75C11.7309 1.75 1.75 11.7309 1.75 24Z" fill="#FFB053" stroke="#E0E0E0" stroke-width="0.5"/>
<path d="M31.7627 23.8232L18.6465 10.707L19.707 9.64652L34.0604 24L19.707 38.3534L18.6465 37.293L31.7627 24.1767L31.9395 24L31.7627 23.8232Z" fill="#FFB053" stroke="#E0E0E0" stroke-width="0.5"/>
</svg>
