<svg width="58" height="58" viewBox="0 0 58 58" fill="none" xmlns="http://www.w3.org/2000/svg">
<path d="M51.6562 25.374C51.4159 25.374 51.1854 25.4696 51.0155 25.6395C50.8455 25.8095 50.75 26.0399 50.75 26.2803V29.9053C50.75 30.1456 50.8455 30.3761 51.0155 30.546C51.1854 30.716 51.4159 30.8115 51.6562 30.8115H55.2812C55.5216 30.8115 55.7521 30.716 55.922 30.546C56.092 30.3761 56.1875 30.1456 56.1875 29.9053V26.2803C56.1875 26.0399 56.092 25.8095 55.922 25.6395C55.7521 25.4696 55.5216 25.374 55.2812 25.374H51.6562ZM52.5625 27.1865H54.375V28.999H52.5625V27.1865Z" fill="#2B4255"/>
<path fill-rule="evenodd" clip-rule="evenodd" d="M3.00204 28.9991C2.88195 28.9974 2.76273 29.0196 2.65129 29.0644C2.53985 29.1092 2.43842 29.1756 2.35289 29.26C2.26737 29.3443 2.19946 29.4448 2.15311 29.5556C2.10676 29.6664 2.08289 29.7853 2.08289 29.9054C2.08289 30.0255 2.10676 30.1444 2.15311 30.2552C2.19946 30.366 2.26737 30.4664 2.35289 30.5508C2.43842 30.6351 2.53985 30.7016 2.65129 30.7463C2.76273 30.7911 2.88195 30.8133 3.00204 30.8116H6.52438C6.64447 30.8133 6.7637 30.7911 6.87514 30.7463C6.98658 30.7016 7.08801 30.6351 7.17353 30.5508C7.25905 30.4664 7.32696 30.366 7.37332 30.2552C7.41967 30.1444 7.44354 30.0255 7.44354 29.9054C7.44354 29.7853 7.41967 29.6664 7.37332 29.5556C7.32696 29.4448 7.25905 29.3443 7.17353 29.26C7.08801 29.1756 6.98658 29.1092 6.87514 29.0644C6.7637 29.0196 6.64447 28.9974 6.52438 28.9991H3.00204Z" fill="#2B4255"/>
<path d="M31.8886 9.06161C31.7685 9.05992 31.6493 9.0821 31.5379 9.12688C31.4264 9.17166 31.325 9.23815 31.2395 9.32247C31.154 9.40679 31.0861 9.50727 31.0397 9.61806C30.9934 9.72886 30.9695 9.84776 30.9695 9.96786C30.9695 10.088 30.9934 10.2069 31.0397 10.3177C31.0861 10.4285 31.154 10.5289 31.2395 10.6133C31.325 10.6976 31.4264 10.7641 31.5379 10.8088C31.6493 10.8536 31.7685 10.8758 31.8886 10.8741H45.3125L54.4351 21.296C54.5118 21.3909 54.6069 21.4693 54.7147 21.5265C54.8224 21.5838 54.9406 21.6187 55.0622 21.6292C55.1837 21.6397 55.3062 21.6256 55.4221 21.5876C55.5381 21.5496 55.6452 21.4885 55.737 21.4082C55.8288 21.3278 55.9034 21.2298 55.9564 21.1199C56.0094 21.01 56.0397 20.8904 56.0454 20.7685C56.0511 20.6466 56.0321 20.5249 55.9896 20.4105C55.9471 20.2962 55.882 20.1916 55.7981 20.103L46.4063 9.37314C46.3213 9.2754 46.2164 9.197 46.0985 9.14326C45.9806 9.08951 45.8526 9.06171 45.7231 9.06161H31.8886Z" fill="#F05542"/>
<path d="M2.71886 7.24902C2.47852 7.24905 2.24802 7.34458 2.07807 7.51453C1.90812 7.68448 1.81263 7.91493 1.81261 8.15527V18.871C1.81091 18.9911 1.8331 19.1102 1.87788 19.2217C1.92266 19.3331 1.98915 19.4346 2.07347 19.5201C2.15779 19.6056 2.25827 19.6736 2.36906 19.7199C2.47986 19.7663 2.59876 19.7901 2.71886 19.7901C2.83896 19.7901 2.95786 19.7663 3.06866 19.7199C3.17945 19.6736 3.27993 19.6056 3.36425 19.5201C3.44857 19.4346 3.51506 19.3331 3.55984 19.2217C3.60462 19.1102 3.62681 18.9911 3.62511 18.871V9.06152H30.8126V34.4365H23.2971H19.6473C19.5272 34.4348 19.408 34.457 19.2966 34.5018C19.1851 34.5466 19.0837 34.6131 18.9982 34.6974C18.9127 34.7817 18.8448 34.8822 18.7984 34.993C18.7521 35.1038 18.7282 35.2227 18.7282 35.3428C18.7282 35.4629 18.7521 35.5818 18.7984 35.6926C18.8448 35.8034 18.9127 35.9038 18.9982 35.9882C19.0837 36.0725 19.1851 36.139 19.2966 36.1838C19.408 36.2285 19.5272 36.2507 19.6473 36.249H23.2971H31.7189C31.9592 36.249 32.1897 36.1535 32.3596 35.9835C32.5296 35.8136 32.6251 35.5831 32.6251 35.3428V8.15527C32.6251 7.91493 32.5296 7.68448 32.3596 7.51453C32.1897 7.34458 31.9592 7.24905 31.7189 7.24902H2.71886ZM2.7047 23.6111C2.5857 23.6129 2.46822 23.6382 2.35898 23.6854C2.24974 23.7327 2.15087 23.8011 2.06804 23.8865C1.9852 23.972 1.92 24.073 1.87618 24.1837C1.83235 24.2943 1.81075 24.4125 1.81261 24.5315V35.3428C1.81263 35.5831 1.90812 35.8136 2.07807 35.9835C2.24802 36.1535 2.47852 36.249 2.71886 36.249H8.22362C8.34371 36.2507 8.46294 36.2285 8.57438 36.1838C8.68581 36.139 8.78724 36.0725 8.87276 35.9882C8.95828 35.9038 9.02619 35.8034 9.07255 35.6926C9.1189 35.5818 9.14277 35.4629 9.14277 35.3428C9.14277 35.2227 9.1189 35.1038 9.07255 34.993C9.02619 34.8822 8.95828 34.7817 8.87276 34.6974C8.78724 34.6131 8.68581 34.5466 8.57438 34.5018C8.46294 34.457 8.34371 34.4348 8.22362 34.4365H3.62511V24.5315C3.62701 24.4101 3.6045 24.2896 3.55891 24.177C3.51333 24.0645 3.4456 23.9624 3.35975 23.8766C3.2739 23.7907 3.17168 23.7228 3.05916 23.6772C2.94663 23.6317 2.82609 23.6092 2.7047 23.6111H2.7047Z" fill="#F05542"/>
<path d="M31.7188 19.9365C31.4785 19.9365 31.248 20.0321 31.0781 20.202C30.9081 20.372 30.8126 20.6024 30.8126 20.8428V33.9303V35.3428C30.8109 35.4629 30.8331 35.582 30.8779 35.6935C30.9226 35.8049 30.9891 35.9064 31.0734 35.9919C31.1578 36.0774 31.2582 36.1454 31.369 36.1917C31.4798 36.2381 31.5987 36.2619 31.7188 36.2619C31.8389 36.2619 31.9578 36.2381 32.0686 36.1917C32.1794 36.1454 32.2799 36.0774 32.3642 35.9919C32.4486 35.9064 32.515 35.8049 32.5598 35.6935C32.6046 35.582 32.6268 35.4629 32.6251 35.3428V33.9303V21.749H54.3751V34.4365H51.3448C51.2247 34.4348 51.1055 34.457 50.9941 34.5018C50.8826 34.5466 50.7812 34.6131 50.6957 34.6974C50.6101 34.7817 50.5422 34.8822 50.4959 34.993C50.4495 35.1038 50.4257 35.2227 50.4257 35.3428C50.4257 35.4629 50.4495 35.5818 50.4959 35.6926C50.5422 35.8034 50.6101 35.9038 50.6957 35.9882C50.7812 36.0725 50.8826 36.139 50.9941 36.1838C51.1055 36.2285 51.2247 36.2507 51.3448 36.249H55.2813C55.5217 36.249 55.7522 36.1535 55.9221 35.9835C56.0921 35.8136 56.1876 35.5831 56.1876 35.3428V20.8428C56.1876 20.6024 56.0921 20.372 55.9221 20.202C55.7522 20.0321 55.5217 19.9365 55.2813 19.9365H31.7188Z" fill="#F05542"/>
<path d="M0.90625 34.4366C0.665905 34.4366 0.435411 34.5322 0.265461 34.7021C0.0955114 34.8721 2.40309e-05 35.1025 0 35.3429L0 38.9679C2.40309e-05 39.2082 0.0955114 39.4387 0.265461 39.6086C0.435411 39.7786 0.665905 39.8741 0.90625 39.8741H5.88C6.00009 39.8758 6.11932 39.8536 6.23076 39.8088C6.3422 39.7641 6.44363 39.6976 6.52915 39.6133C6.61468 39.5289 6.68259 39.4285 6.72894 39.3177C6.77529 39.2069 6.79916 39.088 6.79916 38.9679C6.79916 38.8478 6.77529 38.7289 6.72894 38.6181C6.68259 38.5073 6.61468 38.4068 6.52915 38.3225C6.44363 38.2382 6.3422 38.1717 6.23076 38.1269C6.11932 38.0821 6.00009 38.0599 5.88 38.0616H1.8125V36.2491H8.51025C8.63034 36.2508 8.74957 36.2286 8.86101 36.1838C8.97245 36.1391 9.07388 36.0726 9.1594 35.9883C9.24493 35.9039 9.31284 35.8035 9.35919 35.6927C9.40554 35.5819 9.42941 35.463 9.42941 35.3429C9.42941 35.2228 9.40554 35.1039 9.35919 34.9931C9.31284 34.8823 9.24493 34.7818 9.1594 34.6975C9.07388 34.6131 8.97245 34.5467 8.86101 34.5019C8.74957 34.4571 8.63034 34.4349 8.51025 34.4366H0.90625ZM18.6949 34.4366C18.5749 34.4349 18.4556 34.4571 18.3442 34.5019C18.2327 34.5467 18.1313 34.6131 18.0458 34.6975C17.9603 34.7818 17.8924 34.8823 17.846 34.9931C17.7997 35.1039 17.7758 35.2228 17.7758 35.3429C17.7758 35.463 17.7997 35.5819 17.846 35.6927C17.8924 35.8035 17.9603 35.9039 18.0458 35.9883C18.1313 36.0726 18.2327 36.1391 18.3442 36.1838C18.4556 36.2286 18.5749 36.2508 18.6949 36.2491H31.0107H38.0342C38.1543 36.2508 38.2735 36.2286 38.3849 36.1838C38.4964 36.1391 38.5978 36.0726 38.6833 35.9883C38.7688 35.9039 38.8368 35.8035 38.8831 35.6927C38.9295 35.5819 38.9533 35.463 38.9533 35.3429C38.9533 35.2228 38.9295 35.1039 38.8831 34.9931C38.8368 34.8823 38.7688 34.7818 38.6833 34.6975C38.5978 34.6131 38.4964 34.5467 38.3849 34.5019C38.2735 34.4571 38.1543 34.4349 38.0342 34.4366H31.0107H18.6949ZM48.849 34.4366C48.7289 34.4349 48.6097 34.4571 48.4982 34.5019C48.3868 34.5467 48.2854 34.6131 48.1999 34.6975C48.1143 34.7818 48.0464 34.8823 48.0001 34.9931C47.9537 35.1039 47.9298 35.2228 47.9298 35.3429C47.9298 35.463 47.9537 35.5819 48.0001 35.6927C48.0464 35.8035 48.1143 35.9039 48.1999 35.9883C48.2854 36.0726 48.3868 36.1391 48.4982 36.1838C48.6097 36.2286 48.7289 36.2508 48.849 36.2491H56.1875V38.0616H51.3093C51.1892 38.0599 51.07 38.0821 50.9586 38.1269C50.8471 38.1717 50.7457 38.2382 50.6602 38.3225C50.5747 38.4068 50.5067 38.5073 50.4604 38.6181C50.414 38.7289 50.3902 38.8478 50.3902 38.9679C50.3902 39.088 50.414 39.2069 50.4604 39.3177C50.5067 39.4285 50.5747 39.5289 50.6602 39.6133C50.7457 39.6976 50.8471 39.7641 50.9586 39.8088C51.07 39.8536 51.1892 39.8758 51.3093 39.8741H57.0938C57.3341 39.8741 57.5646 39.7786 57.7345 39.6086C57.9045 39.4387 58 39.2082 58 38.9679V35.3429C58 35.1025 57.9045 34.8721 57.7345 34.7021C57.5646 34.5322 57.3341 34.4366 57.0938 34.4366H48.849ZM21.6119 38.0616C21.4918 38.0599 21.3726 38.0821 21.2612 38.1269C21.1497 38.1717 21.0483 38.2382 20.9628 38.3225C20.8773 38.4068 20.8094 38.5073 20.763 38.6181C20.7167 38.7289 20.6928 38.8478 20.6928 38.9679C20.6928 39.088 20.7167 39.2069 20.763 39.3177C20.8094 39.4285 20.8773 39.5289 20.9628 39.6133C21.0483 39.6976 21.1497 39.7641 21.2612 39.8088C21.3726 39.8536 21.4918 39.8758 21.6119 39.8741H35.6588C35.7789 39.8758 35.8981 39.8536 36.0096 39.8088C36.121 39.7641 36.2224 39.6976 36.308 39.6133C36.3935 39.5289 36.4614 39.4285 36.5077 39.3177C36.5541 39.2069 36.578 39.088 36.578 38.9679C36.578 38.8478 36.5541 38.7289 36.5077 38.6181C36.4614 38.5073 36.3935 38.4068 36.308 38.3225C36.2224 38.2382 36.121 38.1717 36.0096 38.1269C35.8981 38.0821 35.7789 38.0599 35.6588 38.0616H21.6119Z" fill="#F05542"/>
<path d="M43.5 36.249C40.0072 36.249 37.1562 39.1001 37.1562 42.5928C37.1562 46.0856 40.0072 48.9365 43.5 48.9365C46.9928 48.9365 49.8438 46.0856 49.8438 42.5928C49.8438 39.1001 46.9928 36.249 43.5 36.249ZM43.5 38.0615C46.0133 38.0615 48.0312 40.0796 48.0312 42.5928C48.0312 45.1062 46.0133 47.124 43.5 47.124C40.9867 47.124 38.9688 45.1062 38.9688 42.5928C38.9688 40.0796 40.9867 38.0615 43.5 38.0615Z" fill="#2B4255"/>
<path d="M43.5001 32.624C39.5591 32.624 36.1932 35.1498 34.9509 38.6775C34.9104 38.79 34.8926 38.9094 34.8984 39.0288C34.9043 39.1483 34.9337 39.2653 34.985 39.3733C35.0363 39.4813 35.1085 39.5781 35.1973 39.6581C35.2862 39.7381 35.39 39.7996 35.5028 39.8393C35.6156 39.879 35.7351 39.896 35.8545 39.8893C35.9738 39.8826 36.0907 39.8524 36.1983 39.8003C36.306 39.7483 36.4022 39.6754 36.4816 39.586C36.5609 39.4965 36.6218 39.3924 36.6607 39.2793C37.6528 36.4621 40.332 34.4365 43.5001 34.4365C46.6784 34.4365 49.3658 36.4761 50.3501 39.3076C50.3891 39.4201 50.4499 39.5237 50.529 39.6127C50.6082 39.7017 50.7041 39.7743 50.8112 39.8262C50.9184 39.8782 51.0347 39.9086 51.1536 39.9156C51.2725 39.9226 51.3916 39.906 51.5041 39.8669C51.6166 39.8279 51.7203 39.7671 51.8093 39.6879C51.8983 39.6088 51.9709 39.513 52.0228 39.4059C52.0748 39.2987 52.1051 39.1822 52.1121 39.0634C52.119 38.9445 52.1025 38.8254 52.0634 38.7129C50.8309 35.1673 47.4539 32.624 43.5001 32.624Z" fill="#F05542"/>
<path d="M13.5938 36.249C10.1009 36.249 7.25 39.1001 7.25 42.5928C7.25 46.0856 10.1009 48.9365 13.5938 48.9365C17.0866 48.9365 19.9375 46.0856 19.9375 42.5928C19.9375 39.1001 17.0866 36.249 13.5938 36.249ZM13.5938 38.0615C16.107 38.0615 18.125 40.0796 18.125 42.5928C18.125 45.1062 16.107 47.124 13.5938 47.124C11.0805 47.124 9.0625 45.1062 9.0625 42.5928C9.0625 40.0796 11.0805 38.0615 13.5938 38.0615Z" fill="#2B4255"/>
<path d="M13.5937 32.624C9.65268 32.624 6.2868 35.1498 5.0445 38.6775C5.00402 38.79 4.98619 38.9094 4.99206 39.0288C4.99792 39.1483 5.02735 39.2653 5.07865 39.3733C5.12995 39.4813 5.20211 39.5781 5.29098 39.6581C5.37984 39.7381 5.48365 39.7996 5.59642 39.8393C5.7092 39.879 5.82872 39.896 5.94808 39.8893C6.06745 39.8826 6.18432 39.8524 6.29195 39.8003C6.39957 39.7483 6.49584 39.6754 6.5752 39.586C6.65455 39.4965 6.71544 39.3923 6.75433 39.2793C7.74645 36.4621 10.4256 34.4365 13.5937 34.4365C16.772 34.4365 19.4594 36.4761 20.4437 39.3076C20.4827 39.4201 20.5435 39.5237 20.6226 39.6127C20.7018 39.7017 20.7977 39.7743 20.9048 39.8262C21.012 39.8782 21.1283 39.9086 21.2472 39.9156C21.3661 39.9226 21.4852 39.906 21.5977 39.8669C21.7102 39.8279 21.814 39.7671 21.903 39.6879C21.992 39.6088 22.0645 39.513 22.1164 39.4059C22.1684 39.2987 22.1987 39.1822 22.2057 39.0634C22.2126 38.9445 22.1961 38.8254 22.157 38.7129C20.9245 35.1673 17.5475 32.624 13.5937 32.624Z" fill="#F05542"/>
<path d="M13.5938 39.874C12.103 39.874 10.875 41.102 10.875 42.5928C10.875 44.0836 12.103 45.3115 13.5938 45.3115C15.0845 45.3115 16.3125 44.0836 16.3125 42.5928C16.3125 41.102 15.0845 39.874 13.5938 39.874ZM13.5938 41.6865C14.105 41.6865 14.5 42.0816 14.5 42.5928C14.5 43.1041 14.105 43.499 13.5938 43.499C13.0825 43.499 12.6875 43.1041 12.6875 42.5928C12.6875 42.0816 13.0825 41.6865 13.5938 41.6865ZM43.5 39.874C42.0092 39.874 40.7813 41.102 40.7812 42.5928C40.7813 44.0836 42.0092 45.3115 43.5 45.3115C44.9908 45.3115 46.2188 44.0836 46.2188 42.5928C46.2188 41.102 44.9908 39.874 43.5 39.874ZM43.5 41.6865C44.0112 41.6865 44.4062 42.0816 44.4062 42.5928C44.4062 43.1041 44.0112 43.499 43.5 43.499C42.9888 43.499 42.5938 43.1041 42.5938 42.5928C42.5938 42.0816 42.9888 41.6865 43.5 41.6865Z" fill="#2B4255"/>
<path fill-rule="evenodd" clip-rule="evenodd" d="M36.9261 24.4679C36.806 24.4662 36.6868 24.4884 36.5754 24.5331C36.4639 24.5779 36.3625 24.6444 36.277 24.7287C36.1914 24.813 36.1235 24.9135 36.0772 25.0243C36.0308 25.1351 36.007 25.254 36.007 25.3741C36.007 25.4942 36.0308 25.6131 36.0772 25.7239C36.1235 25.8347 36.1914 25.9352 36.277 26.0195C36.3625 26.1038 36.4639 26.1703 36.5754 26.2151C36.6868 26.2599 36.806 26.2821 36.9261 26.2804H40.9972C41.1172 26.2821 41.2365 26.2599 41.3479 26.2151C41.4594 26.1703 41.5608 26.1038 41.6463 26.0195C41.7318 25.9352 41.7997 25.8347 41.8461 25.7239C41.8924 25.6131 41.9163 25.4942 41.9163 25.3741C41.9163 25.254 41.8924 25.1351 41.8461 25.0243C41.7997 24.9135 41.7318 24.813 41.6463 24.7287C41.5608 24.6444 41.4594 24.5779 41.3479 24.5331C41.2365 24.4884 41.1172 24.4662 40.9972 24.4679H36.9261Z" fill="#2B4255"/>
<path d="M16.7339 11.8669C16.5053 11.8821 16.291 11.9832 16.1341 12.1501C15.9771 12.3169 15.8891 12.537 15.8878 12.766L15.8701 16.8335L15.8559 17.3114H2.23741C2.11732 17.3097 1.99809 17.3319 1.88665 17.3767C1.77521 17.4215 1.67378 17.488 1.58825 17.5723C1.50273 17.6566 1.43481 17.7571 1.38846 17.8679C1.34211 17.9787 1.31824 18.0976 1.31824 18.2177C1.31824 18.3378 1.34211 18.4567 1.38846 18.5675C1.43481 18.6783 1.50273 18.7788 1.58825 18.8631C1.67378 18.9474 1.77521 19.0139 1.88665 19.0587C1.99809 19.1034 2.11732 19.1256 2.23741 19.1239H16.7339C16.97 19.124 17.1968 19.0319 17.366 18.8673C17.5353 18.7027 17.6336 18.4785 17.6401 18.2425L17.6826 16.876C17.6827 16.8688 17.6827 16.8616 17.6826 16.8543L17.6933 14.8011L24.4512 20.9041L17.6614 27.0355L17.6685 25.0106C17.6686 25.0021 17.6686 24.9936 17.6685 24.9851L17.6402 23.6258C17.6356 23.3885 17.538 23.1625 17.3686 22.9963C17.1991 22.8301 16.9713 22.7372 16.7339 22.7372H2.23747C2.11738 22.7355 1.99815 22.7577 1.88671 22.8025C1.77527 22.8473 1.67384 22.9137 1.58831 22.9981C1.50279 23.0824 1.43488 23.1829 1.38852 23.2937C1.34217 23.4045 1.3183 23.5234 1.3183 23.6435C1.3183 23.7636 1.34217 23.8825 1.38852 23.9933C1.43488 24.1041 1.50279 24.2045 1.58831 24.2889C1.67384 24.3732 1.77527 24.4397 1.88671 24.4844C1.99815 24.5292 2.11738 24.5514 2.23747 24.5497H15.8454L15.856 25.0099L15.8383 29.0774C15.8373 29.2529 15.8873 29.4249 15.9822 29.5726C16.0771 29.7202 16.2129 29.8371 16.3729 29.9091C16.533 29.9811 16.7105 30.0051 16.884 29.9781C17.0574 29.9512 17.2193 29.8743 17.3499 29.7571L26.4124 21.5761C26.5065 21.4911 26.5817 21.3873 26.6332 21.2714C26.6846 21.1556 26.7112 21.0303 26.7112 20.9035C26.7112 20.7767 26.6846 20.6514 26.6332 20.5355C26.5817 20.4197 26.5065 20.3158 26.4124 20.2309L17.3995 12.0959C17.3095 12.0151 17.2042 11.953 17.0899 11.9135C16.9756 11.874 16.8546 11.8577 16.7339 11.8658L16.7339 11.8669Z" fill="#F05542"/>
</svg>
