<svg width="51" height="16" viewBox="0 0 51 16" fill="none" xmlns="http://www.w3.org/2000/svg">
<path d="M19.363 0.284867L12.6862 15.7585H8.33L5.04475 3.40808C4.845 2.64843 4.67287 2.36976 4.06512 2.0498C3.07487 1.52754 1.43862 1.03832 0 0.73281L0.09775 0.284867H7.11025C7.5685 0.284421 8.01182 0.443122 8.36019 0.732323C8.70856 1.02152 8.93903 1.42217 9.01 1.86195L10.7461 10.8167L15.0344 0.284867H19.363ZM36.4331 10.7073C36.4501 6.62211 30.6191 6.39711 30.6595 4.57231C30.6723 4.01703 31.2162 3.42666 32.4062 3.27597C33.8009 3.1473 35.2054 3.38694 36.4714 3.96955L37.1939 0.687396C35.9613 0.237276 34.6559 0.00449308 33.3391 0C29.2655 0 26.3989 2.10554 26.3734 5.11728C26.3479 7.3446 28.4198 8.58521 29.9816 9.32834C31.5881 10.0859 32.1279 10.5731 32.1194 11.2502C32.1087 12.2905 30.8401 12.7467 29.6544 12.7653C27.5825 12.7963 26.3819 12.2224 25.4214 11.7889L24.6755 15.1784C25.6381 15.6078 27.4146 15.9835 29.257 16C33.5856 16 36.4183 13.9234 36.4331 10.7073ZM47.1877 15.7585H51L47.6744 0.284867H44.1554C43.7794 0.281483 43.411 0.387912 43.098 0.590352C42.7851 0.792793 42.5419 1.08191 42.4001 1.42021L36.2185 15.7585H40.545L41.4056 13.4465H46.6926L47.1877 15.7585ZM42.5914 10.2758L44.7589 4.46497L46.0084 10.2758H42.5914ZM25.2514 0.284867L21.845 15.7585H17.7225L21.1331 0.284867H25.2514Z" fill="white"/>
</svg>
