<svg width="41" height="40" viewBox="0 0 41 40" fill="none" xmlns="http://www.w3.org/2000/svg">
<rect width="41" height="40" rx="20" fill="#66FF00"/>
<path fill-rule="evenodd" clip-rule="evenodd" d="M19.656 27.536H21.096C21.096 27.536 21.528 27.464 21.744 27.248C21.96 27.032 21.96 26.6 21.96 26.6C21.96 26.6 21.96 24.728 22.824 24.44C23.688 24.152 24.84 26.312 25.992 27.104C26.856 27.752 27.504 27.608 27.504 27.608L30.672 27.536C30.672 27.536 32.328 27.464 31.536 26.096C31.464 26.024 31.104 25.16 29.16 23.36C27.144 21.488 27.432 21.848 29.808 18.608C31.248 16.664 31.824 15.512 31.68 14.936C31.536 14.432 30.456 14.576 30.456 14.576H26.856C26.856 14.576 26.568 14.504 26.424 14.648C26.208 14.792 26.136 15.008 26.136 15.008C26.136 15.008 25.56 16.52 24.84 17.816C23.256 20.48 22.608 20.624 22.392 20.48C21.816 20.12 21.96 18.896 21.96 18.104C21.96 15.512 22.392 14.432 21.168 14.144C20.808 14.072 20.52 14 19.512 14C18.216 14 17.136 14 16.56 14.288C16.128 14.504 15.84 14.936 16.056 14.936C16.272 14.936 16.848 15.08 17.136 15.44C17.424 16.088 17.424 17.168 17.424 17.168C17.424 17.168 17.64 20.264 16.92 20.624C16.416 20.912 15.768 20.336 14.328 17.888C13.608 16.664 13.032 15.224 13.032 15.224C13.032 15.224 12.96 14.936 12.744 14.792C12.528 14.648 12.168 14.576 12.168 14.576H8.784C8.784 14.576 8.28 14.576 8.064 14.792C7.92 15.008 8.064 15.368 8.064 15.368C8.064 15.368 10.728 21.56 13.752 24.728C16.56 27.752 19.656 27.536 19.656 27.536Z" fill="white"/>
</svg>
