<svg width="38" height="27" viewBox="0 0 38 27" fill="none" xmlns="http://www.w3.org/2000/svg">
<path d="M35.407 21.9458H0.50599C-0.0110616 25.1891 2.44493 25.9999 3.73756 25.9999H34.7606C37.8629 25.4594 37.7768 23.0719 37.3459 21.9458H35.407Z" stroke="#FFC107" stroke-width="0.3"/>
<path d="M2.31332 22.0184C2.35306 22.0911 2.44419 22.1178 2.51689 22.0781C2.58958 22.0384 2.6163 21.9472 2.57657 21.8745L2.31332 22.0184ZM27.189 12.869L27.0806 12.9726L27.1381 13.0328L27.2197 13.0158L27.189 12.869ZM31.0669 14.896L31.2115 14.8565L31.2096 14.8493L31.2069 14.8424L31.0669 14.896ZM18.1406 19.6258L18.0187 19.7132L18.0249 19.7218L18.0322 19.7295L18.1406 19.6258ZM30.4205 13.6626L30.5292 13.5591L30.4205 13.6626ZM2.57657 21.8745C1.72849 20.3229 1.10562 17.9876 1.58552 15.5106C2.06426 13.0396 3.6436 10.4107 7.23016 8.26811L7.0763 8.01056C3.42414 10.1923 1.78759 12.8904 1.29099 15.4536C0.795553 18.0108 1.4379 20.4168 2.31332 22.0184L2.57657 21.8745ZM7.23016 8.26811C10.808 6.13074 13.9905 6.24572 16.5179 7.24835C19.0531 8.25403 20.9373 10.1568 21.8934 11.6006L22.1435 11.4349C21.1607 9.95078 19.2316 8.00211 16.6286 6.96949C14.0178 5.9338 10.7372 5.82356 7.0763 8.01056L7.23016 8.26811ZM22.0492 11.6646C22.5707 11.5555 23.4566 11.4887 24.4009 11.6487C25.3449 11.8085 26.3343 12.1924 27.0806 12.9726L27.2974 12.7653C26.4925 11.9238 25.4353 11.5195 24.451 11.3529C23.4672 11.1863 22.5434 11.2547 21.9877 11.3709L22.0492 11.6646ZM31.0669 14.896C30.9222 14.9355 30.9221 14.9355 30.9221 14.9355C30.9222 14.9355 30.9222 14.9355 30.9222 14.9356C30.9222 14.9357 30.9222 14.9358 30.9223 14.936C30.9224 14.9365 30.9226 14.9372 30.9229 14.9382C30.9234 14.9403 30.9243 14.9434 30.9254 14.9476C30.9276 14.9561 30.9309 14.9688 30.9351 14.9856C30.9435 15.0191 30.9555 15.0687 30.9697 15.1321C30.9982 15.2589 31.0354 15.4405 31.0702 15.6586C31.1399 16.096 31.1989 16.6749 31.1596 17.2507C31.1201 17.8288 30.9825 18.3865 30.6743 18.7966C30.3722 19.1985 29.8937 19.4758 29.1279 19.4758V19.7758C29.9779 19.7758 30.5496 19.4618 30.9141 18.9769C31.2724 18.5002 31.4176 17.8754 31.4589 17.2711C31.5003 16.6644 31.4381 16.0609 31.3665 15.6114C31.3305 15.3861 31.292 15.1982 31.2624 15.0664C31.2476 15.0004 31.235 14.9484 31.2261 14.9127C31.2216 14.8948 31.218 14.881 31.2156 14.8715C31.2143 14.8668 31.2133 14.8631 31.2127 14.8606C31.2123 14.8594 31.2121 14.8584 31.2119 14.8577C31.2118 14.8573 31.2117 14.8571 31.2117 14.8569C31.2116 14.8568 31.2116 14.8567 31.2116 14.8566C31.2116 14.8565 31.2115 14.8565 31.0669 14.896ZM29.1279 19.4758C28.9083 19.4758 28.6539 19.576 28.3846 19.714C28.1105 19.8544 27.7954 20.0479 27.4506 20.2578C26.7561 20.6805 25.9248 21.1793 24.9814 21.5113C24.0401 21.8426 22.9927 22.0056 21.8674 21.7597C20.7425 21.5139 19.5252 20.8563 18.249 19.5221L18.0322 19.7295C19.3412 21.098 20.6092 21.7918 21.8034 22.0528C22.9971 22.3136 24.1025 22.1387 25.081 21.7943C26.0575 21.4506 26.9133 20.936 27.6065 20.5141C27.9556 20.3016 28.2595 20.1151 28.5213 19.981C28.7878 19.8445 28.9862 19.7758 29.1279 19.7758V19.4758ZM18.2624 19.5383C17.6323 18.66 17.0715 17.2173 17.4142 15.7409C17.7543 14.2755 18.9963 12.7298 22.0678 11.6594L21.9691 11.3761C18.836 12.468 17.4927 14.0755 17.1219 15.6731C16.7537 17.2597 17.3562 18.7898 18.0187 19.7132L18.2624 19.5383ZM27.2197 13.0158C27.6114 12.9339 28.1732 12.895 28.7449 12.992C29.3165 13.0889 29.8867 13.3195 30.3119 13.766L30.5292 13.5591C30.046 13.0517 29.4083 12.8002 28.7951 12.6962C28.1821 12.5922 27.5822 12.6335 27.1583 12.7221L27.2197 13.0158ZM30.3119 13.766C30.4379 13.8983 30.5902 14.1839 30.7168 14.457C30.7782 14.5896 30.8309 14.7131 30.8681 14.8035C30.8868 14.8486 30.9015 14.8854 30.9116 14.9108C30.9166 14.9235 30.9204 14.9333 30.923 14.9399C30.9243 14.9432 30.9252 14.9457 30.9259 14.9473C30.9262 14.9482 30.9264 14.9488 30.9266 14.9491C30.9266 14.9493 30.9267 14.9495 30.9267 14.9496C30.9268 14.9496 30.9268 14.9496 30.9268 14.9496C30.9268 14.9496 30.9268 14.9496 30.9268 14.9496C30.9268 14.9496 30.9268 14.9496 31.0669 14.896C31.2069 14.8424 31.2069 14.8424 31.2069 14.8423C31.2069 14.8423 31.2069 14.8423 31.2069 14.8423C31.2069 14.8422 31.2069 14.8422 31.2068 14.8421C31.2068 14.842 31.2067 14.8418 31.2066 14.8415C31.2064 14.841 31.2061 14.8403 31.2058 14.8393C31.205 14.8374 31.204 14.8347 31.2026 14.8311C31.1998 14.824 31.1957 14.8136 31.1905 14.8003C31.18 14.7738 31.1647 14.7357 31.1455 14.6891C31.1071 14.596 31.0527 14.4684 30.989 14.3309C30.8652 14.0637 30.6944 13.7327 30.5292 13.5591L30.3119 13.766Z" fill="#FFC107"/>
<path d="M32.3596 13.544L32.4419 13.6694C32.4841 13.6416 32.5096 13.5945 32.5096 13.544H32.3596ZM36.2375 12.1926L36.3458 12.0889L36.3458 12.0889L36.2375 12.1926ZM35.5911 14.7453C35.5083 14.7453 35.4411 14.8124 35.4411 14.8953C35.4411 14.9781 35.5083 15.0453 35.5911 15.0453V14.7453ZM30.9651 14.6394L32.4419 13.6694L32.2772 13.4186L30.8004 14.3886L30.9651 14.6394ZM32.5096 13.544C32.5096 13.2274 32.5859 12.8242 32.7411 12.439C32.8965 12.0533 33.1256 11.6986 33.4216 11.4665C33.7128 11.2382 34.0717 11.1253 34.509 11.2205C34.9533 11.3172 35.4937 11.6323 36.1291 12.2963L36.3458 12.0889C35.6886 11.402 35.0979 11.0416 34.5728 10.9273C34.0405 10.8115 33.5916 10.952 33.2365 11.2305C32.8861 11.5052 32.6306 11.9105 32.4628 12.3269C32.2948 12.7439 32.2096 13.1851 32.2096 13.544H32.5096ZM36.1291 12.2963C36.2833 12.4575 36.4784 12.7021 36.6442 12.9773C36.811 13.2543 36.9411 13.5508 36.9775 13.8176C37.0133 14.0798 36.9582 14.2968 36.7756 14.4545C36.5838 14.6202 36.2238 14.7453 35.5911 14.7453V15.0453C36.2511 15.0453 36.699 14.917 36.9717 14.6815C37.2537 14.438 37.3197 14.106 37.2748 13.777C37.2304 13.4526 37.0777 13.1156 36.9012 12.8225C36.7236 12.5277 36.5148 12.2655 36.3458 12.0889L36.1291 12.2963Z" fill="#FFC107"/>
<path d="M31.4267 16.8804C31.3439 16.8804 31.2767 16.8133 31.2767 16.7304C31.2767 16.6476 31.3439 16.5804 31.4267 16.5804V16.8804ZM32.639 16.7304L32.789 16.7305L32.789 16.8804H32.639V16.7304ZM36.5169 18.0818L36.6253 18.1855L36.6196 18.1915L36.6132 18.1969L36.5169 18.0818ZM35.591 15.0448C35.5081 15.0448 35.441 14.9777 35.441 14.8948C35.441 14.812 35.5081 14.7448 35.591 14.7448V15.0448ZM31.4267 16.5804H32.639V16.8804H31.4267V16.5804ZM32.489 16.7304C32.489 16.7206 32.4895 16.705 32.4932 16.6875C32.4958 16.6754 32.5055 16.6323 32.5456 16.5982C32.6007 16.5513 32.6653 16.5575 32.7033 16.5727C32.7334 16.5848 32.7528 16.6034 32.76 16.6106C32.7769 16.6274 32.7903 16.6471 32.7987 16.6599C32.8085 16.6749 32.819 16.6924 32.8296 16.7109C32.8508 16.7477 32.8771 16.7959 32.9068 16.85C32.937 16.9048 32.9718 16.9676 33.0114 17.0365C33.1707 17.3132 33.4053 17.6815 33.7147 17.9917C34.0244 18.3021 34.3981 18.5435 34.8358 18.5889C35.2697 18.6338 35.7963 18.489 36.4207 17.9667L36.6132 18.1969C35.9449 18.7557 35.3405 18.9427 34.8049 18.8873C34.2731 18.8322 33.839 18.541 33.5023 18.2035C33.1654 17.8658 32.9153 17.471 32.7514 17.1862C32.7103 17.1148 32.6744 17.0499 32.644 16.9945C32.6131 16.9384 32.5889 16.8941 32.5697 16.8607C32.5601 16.8441 32.5529 16.8322 32.5476 16.8241C32.5408 16.8137 32.5416 16.8165 32.5484 16.8232C32.5505 16.8254 32.5655 16.8407 32.5919 16.8513C32.626 16.8649 32.6875 16.8714 32.7401 16.8267C32.7776 16.7947 32.7854 16.7557 32.7867 16.7496C32.7881 16.7432 32.7886 16.7383 32.7888 16.7356C32.789 16.7328 32.789 16.731 32.789 16.7305L32.489 16.7304ZM36.4085 17.9781C36.5549 17.8251 36.7307 17.5576 36.8712 17.2384C37.0114 16.9198 37.1108 16.5627 37.1158 16.2327C37.1208 15.904 37.0329 15.615 36.8138 15.4065C36.5932 15.1965 36.2153 15.0448 35.591 15.0448V14.7448C36.2593 14.7448 36.7243 14.9071 37.0206 15.1891C37.3185 15.4726 37.4216 15.8536 37.4158 16.2373C37.4099 16.6195 37.2964 17.017 37.1458 17.3593C36.9954 17.7009 36.8021 18.0007 36.6253 18.1855L36.4085 17.9781Z" fill="#FFC107"/>
<path d="M19.572 14.9478C19.4384 15.0874 19.4433 15.309 19.583 15.4426C19.7227 15.5762 19.9443 15.5713 20.0779 15.4316L19.572 14.9478ZM24.2606 14.1769C24.4477 14.2258 24.6389 14.1138 24.6878 13.9268C24.7367 13.7398 24.6247 13.5486 24.4377 13.4997L24.2606 14.1769ZM20.0779 15.4316C20.6809 14.8012 22.3671 13.6821 24.2606 14.1769L24.4377 13.4997C22.1948 12.9135 20.2616 14.2268 19.572 14.9478L20.0779 15.4316Z" fill="#FFC107"/>
<path d="M22.4835 1C21.4527 1.51976 20.0097 2.87112 22.4835 4.11854C24.9572 5.36595 23.1019 7.06382 21.865 7.75683" stroke="#FFC107" stroke-width="0.7" stroke-linecap="round"/>
<path d="M26.3614 2.35205C25.3306 2.76786 23.8876 3.84895 26.3614 4.84688C28.8352 5.84481 26.9798 7.20311 25.7429 7.75751" stroke="#FFC107" stroke-width="0.7" stroke-linecap="round"/>
<path d="M8.98128 9.52228C8.98128 9.75959 8.7989 9.94046 8.5878 9.94046C8.37669 9.94046 8.19431 9.75959 8.19431 9.52228C8.19431 9.28498 8.37669 9.1041 8.5878 9.1041C8.7989 9.1041 8.98128 9.28498 8.98128 9.52228Z" stroke="#FFC107" stroke-width="0.3"/>
<path d="M7.8943 17.4774C7.8943 17.7147 7.71192 17.8955 7.50082 17.8955C7.28972 17.8955 7.10734 17.7147 7.10734 17.4774C7.10734 17.2401 7.28972 17.0592 7.50082 17.0592C7.71192 17.0592 7.8943 17.2401 7.8943 17.4774Z" stroke="#FFC107" stroke-width="0.3"/>
<path d="M24.1989 19.7498C24.1989 19.8228 24.1394 19.9254 23.961 20.0186C23.7898 20.1081 23.5429 20.168 23.2619 20.168C22.9809 20.168 22.734 20.1081 22.5628 20.0186C22.3844 19.9254 22.3249 19.8228 22.3249 19.7498C22.3249 19.6769 22.3844 19.5742 22.5628 19.481C22.734 19.3915 22.9809 19.3316 23.2619 19.3316C23.5429 19.3316 23.7898 19.3915 23.961 19.481C24.1394 19.5742 24.1989 19.6769 24.1989 19.7498Z" stroke="#FFC107" stroke-width="0.3"/>
<path d="M12.2422 19.7498C12.2422 19.8228 12.1827 19.9254 12.0043 20.0186C11.8331 20.1081 11.5862 20.168 11.3052 20.168C11.0243 20.168 10.7773 20.1081 10.6061 20.0186C10.4277 19.9254 10.3683 19.8228 10.3683 19.7498C10.3683 19.6769 10.4277 19.5742 10.6061 19.481C10.7773 19.3915 11.0243 19.3316 11.3052 19.3316C11.5862 19.3316 11.8331 19.3915 12.0043 19.481C12.1827 19.5742 12.2422 19.6769 12.2422 19.7498Z" stroke="#FFC107" stroke-width="0.3"/>
<path d="M3.54646 16.341C3.54646 16.1037 3.36408 15.9228 3.15298 15.9228C2.94188 15.9228 2.7595 16.1037 2.7595 16.341C2.7595 16.5783 2.94188 16.7592 3.15298 16.7592C3.36408 16.7592 3.54646 16.5783 3.54646 16.341Z" stroke="#FFC107" stroke-width="0.3"/>
<path d="M15.2313 14.3523C15.2313 14.1343 15.1888 13.9443 15.1266 13.8144C15.0592 13.6735 14.9953 13.6501 14.9737 13.6501C14.9521 13.6501 14.8882 13.6735 14.8208 13.8144C14.7587 13.9443 14.7161 14.1343 14.7161 14.3523C14.7161 14.5703 14.7587 14.7603 14.8208 14.8902C14.8882 15.0311 14.9521 15.0546 14.9737 15.0546C14.9953 15.0546 15.0592 15.0311 15.1266 14.8902C15.1888 14.7603 15.2313 14.5703 15.2313 14.3523Z" stroke="#FFC107" stroke-width="0.3"/>
<mask id="path-14-inside-1" fill="white">
<ellipse rx="0.271742" ry="0.28409" transform="matrix(1 0 0 -1 10.49 13.7838)"/>
</mask>
<path d="M10.4617 13.7838C10.4617 13.7836 10.4617 13.7844 10.4623 13.7857C10.4628 13.7869 10.4637 13.7885 10.4654 13.7903C10.4671 13.792 10.47 13.7944 10.4745 13.7964C10.4792 13.7985 10.4847 13.7997 10.49 13.7997V13.1997C10.8182 13.1997 11.0617 13.4739 11.0617 13.7838H10.4617ZM10.49 13.7997C10.4953 13.7997 10.5008 13.7985 10.5056 13.7964C10.51 13.7944 10.5129 13.792 10.5146 13.7903C10.5163 13.7885 10.5172 13.7869 10.5177 13.7857C10.5183 13.7844 10.5183 13.7836 10.5183 13.7838H9.91826C9.91826 13.4739 10.1618 13.1997 10.49 13.1997V13.7997ZM10.5183 13.7838C10.5183 13.784 10.5183 13.7832 10.5177 13.7818C10.5172 13.7807 10.5163 13.7791 10.5146 13.7773C10.5129 13.7755 10.51 13.7732 10.5056 13.7712C10.5008 13.7691 10.4953 13.7679 10.49 13.7679V14.3679C10.1618 14.3679 9.91826 14.0937 9.91826 13.7838H10.5183ZM10.49 13.7679C10.4847 13.7679 10.4792 13.7691 10.4745 13.7712C10.47 13.7732 10.4671 13.7755 10.4654 13.7773C10.4637 13.7791 10.4628 13.7807 10.4623 13.7818C10.4617 13.7832 10.4617 13.784 10.4617 13.7838H11.0617C11.0617 14.0937 10.8182 14.3679 10.49 14.3679V13.7679Z" fill="#FFC107" mask="url(#path-14-inside-1)"/>
<mask id="path-16-inside-2" fill="white">
<ellipse rx="0.271742" ry="0.28409" transform="matrix(1 0 0 -1 27.8815 16.0567)"/>
</mask>
<path d="M27.8532 16.0567C27.8532 16.0565 27.8532 16.0573 27.8538 16.0587C27.8542 16.0599 27.8551 16.0614 27.8568 16.0632C27.8585 16.065 27.8614 16.0674 27.8659 16.0693C27.8707 16.0714 27.8762 16.0726 27.8815 16.0726V15.4726C28.2097 15.4726 28.4532 15.7468 28.4532 16.0567H27.8532ZM27.8815 16.0726C27.8868 16.0726 27.8923 16.0714 27.897 16.0693C27.9015 16.0674 27.9044 16.065 27.9061 16.0632C27.9078 16.0614 27.9087 16.0599 27.9092 16.0587C27.9097 16.0573 27.9097 16.0565 27.9097 16.0567H27.3097C27.3097 15.7468 27.5533 15.4726 27.8815 15.4726V16.0726ZM27.9097 16.0567C27.9097 16.057 27.9097 16.0562 27.9092 16.0548C27.9087 16.0536 27.9078 16.052 27.9061 16.0502C27.9044 16.0485 27.9015 16.0461 27.897 16.0441C27.8923 16.042 27.8868 16.0408 27.8815 16.0408V16.6408C27.5533 16.6408 27.3097 16.3666 27.3097 16.0567H27.9097ZM27.8815 16.0408C27.8762 16.0408 27.8707 16.042 27.8659 16.0441C27.8614 16.0461 27.8585 16.0485 27.8568 16.0502C27.8551 16.052 27.8542 16.0536 27.8538 16.0548C27.8532 16.0562 27.8532 16.057 27.8532 16.0567H28.4532C28.4532 16.3666 28.2097 16.6408 27.8815 16.6408V16.0408Z" fill="#FFC107" mask="url(#path-16-inside-2)"/>
<mask id="path-18-inside-3" fill="white">
<ellipse rx="0.271742" ry="0.28409" transform="matrix(1 0 0 -1 20.2727 18.3292)"/>
</mask>
<path d="M20.2445 18.3292C20.2445 18.329 20.2445 18.3298 20.245 18.3311C20.2455 18.3323 20.2464 18.3339 20.2481 18.3357C20.2498 18.3375 20.2527 18.3398 20.2572 18.3418C20.2619 18.3439 20.2674 18.3451 20.2727 18.3451V17.7451C20.6009 17.7451 20.8445 18.0193 20.8445 18.3292H20.2445ZM20.2727 18.3451C20.278 18.3451 20.2835 18.3439 20.2883 18.3418C20.2928 18.3398 20.2957 18.3375 20.2974 18.3357C20.2991 18.3339 20.3 18.3323 20.3004 18.3311C20.301 18.3298 20.301 18.329 20.301 18.3292H19.701C19.701 18.0193 19.9445 17.7451 20.2727 17.7451V18.3451ZM20.301 18.3292C20.301 18.3294 20.301 18.3286 20.3004 18.3273C20.3 18.3261 20.2991 18.3245 20.2974 18.3227C20.2957 18.3209 20.2928 18.3186 20.2883 18.3166C20.2835 18.3145 20.278 18.3133 20.2727 18.3133V18.9133C19.9445 18.9133 19.701 18.6391 19.701 18.3292H20.301ZM20.2727 18.3133C20.2674 18.3133 20.2619 18.3145 20.2572 18.3166C20.2527 18.3186 20.2498 18.3209 20.2481 18.3227C20.2464 18.3245 20.2455 18.3261 20.245 18.3273C20.2445 18.3286 20.2445 18.3294 20.2445 18.3292H20.8445C20.8445 18.6391 20.6009 18.9133 20.2727 18.9133V18.3133Z" fill="#FFC107" mask="url(#path-18-inside-3)"/>
<mask id="path-20-inside-4" fill="white">
<ellipse rx="0.271742" ry="0.28409" transform="matrix(1 0 0 -1 3.96821 20.6026)"/>
</mask>
<path d="M3.93996 20.6026C3.93996 20.6024 3.93995 20.6032 3.9405 20.6046C3.94098 20.6058 3.94187 20.6073 3.94357 20.6091C3.94528 20.6109 3.94818 20.6133 3.95266 20.6152C3.9574 20.6173 3.9629 20.6185 3.96821 20.6185V20.0185C4.2964 20.0185 4.53996 20.2927 4.53996 20.6026H3.93996ZM3.96821 20.6185C3.97353 20.6185 3.97903 20.6173 3.98376 20.6152C3.98825 20.6133 3.99115 20.6109 3.99285 20.6091C3.99455 20.6073 3.99545 20.6058 3.99593 20.6046C3.99648 20.6032 3.99647 20.6024 3.99647 20.6026H3.39647C3.39647 20.2927 3.64003 20.0185 3.96821 20.0185V20.6185ZM3.99647 20.6026C3.99647 20.6029 3.99648 20.6021 3.99593 20.6007C3.99545 20.5995 3.99455 20.5979 3.99285 20.5961C3.99115 20.5944 3.98825 20.592 3.98376 20.59C3.97903 20.5879 3.97353 20.5867 3.96821 20.5867V21.1867C3.64003 21.1867 3.39647 20.9125 3.39647 20.6026H3.99647ZM3.96821 20.5867C3.9629 20.5867 3.9574 20.5879 3.95266 20.59C3.94818 20.592 3.94528 20.5944 3.94357 20.5961C3.94187 20.5979 3.94098 20.5995 3.9405 20.6007C3.93995 20.6021 3.93996 20.6029 3.93996 20.6026H4.53996C4.53996 20.9125 4.2964 21.1867 3.96821 21.1867V20.5867Z" fill="#FFC107" mask="url(#path-20-inside-4)"/>
<mask id="path-22-inside-5" fill="white">
<ellipse rx="0.271742" ry="0.28409" transform="matrix(1 0 0 -1 5.05519 12.6476)"/>
</mask>
<path d="M5.02693 12.6476C5.02693 12.6473 5.02693 12.6481 5.02747 12.6495C5.02796 12.6507 5.02885 12.6523 5.03055 12.654C5.03225 12.6558 5.03516 12.6582 5.03964 12.6602C5.04437 12.6623 5.04987 12.6635 5.05519 12.6635V12.0635C5.38338 12.0635 5.62693 12.3377 5.62693 12.6476H5.02693ZM5.05519 12.6635C5.0605 12.6635 5.06601 12.6623 5.07074 12.6602C5.07522 12.6582 5.07813 12.6558 5.07983 12.654C5.08153 12.6523 5.08242 12.6507 5.0829 12.6495C5.08345 12.6481 5.08345 12.6473 5.08345 12.6476H4.48345C4.48345 12.3377 4.727 12.0635 5.05519 12.0635V12.6635ZM5.08345 12.6476C5.08345 12.6478 5.08345 12.647 5.0829 12.6456C5.08242 12.6444 5.08153 12.6428 5.07983 12.6411C5.07813 12.6393 5.07522 12.6369 5.07074 12.6349C5.06601 12.6328 5.0605 12.6316 5.05519 12.6316V13.2316C4.727 13.2316 4.48345 12.9574 4.48345 12.6476H5.08345ZM5.05519 12.6316C5.04987 12.6316 5.04437 12.6328 5.03964 12.6349C5.03516 12.6369 5.03225 12.6393 5.03055 12.6411C5.02885 12.6428 5.02796 12.6444 5.02747 12.6456C5.02693 12.647 5.02693 12.6478 5.02693 12.6476H5.62693C5.62693 12.9574 5.38338 13.2316 5.05519 13.2316V12.6316Z" fill="#FFC107" mask="url(#path-22-inside-5)"/>
<mask id="path-24-inside-6" fill="white">
<ellipse rx="0.271742" ry="0.28409" transform="matrix(1 0 0 -1 12.664 9.23886)"/>
</mask>
<path d="M12.6357 9.23886C12.6357 9.23863 12.6357 9.23944 12.6362 9.24079C12.6367 9.24198 12.6376 9.24357 12.6393 9.24535C12.641 9.24713 12.6439 9.24948 12.6484 9.25147C12.6531 9.25356 12.6586 9.25477 12.664 9.25477V8.65477C12.9921 8.65477 13.2357 8.92898 13.2357 9.23886H12.6357ZM12.664 9.25477C12.6693 9.25477 12.6748 9.25356 12.6795 9.25147C12.684 9.24948 12.6869 9.24713 12.6886 9.24535C12.6903 9.24357 12.6912 9.24198 12.6917 9.24079C12.6922 9.23944 12.6922 9.23863 12.6922 9.23886H12.0922C12.0922 8.92898 12.3358 8.65477 12.664 8.65477V9.25477ZM12.6922 9.23886C12.6922 9.23909 12.6922 9.23828 12.6917 9.23693C12.6912 9.23574 12.6903 9.23415 12.6886 9.23237C12.6869 9.23059 12.684 9.22823 12.6795 9.22625C12.6748 9.22416 12.6693 9.22295 12.664 9.22295V9.82295C12.3358 9.82295 12.0922 9.54874 12.0922 9.23886H12.6922ZM12.664 9.22295C12.6586 9.22295 12.6531 9.22416 12.6484 9.22625C12.6439 9.22823 12.641 9.23059 12.6393 9.23237C12.6376 9.23415 12.6367 9.23574 12.6362 9.23693C12.6357 9.23828 12.6357 9.23909 12.6357 9.23886H13.2357C13.2357 9.54874 12.9921 9.82295 12.664 9.82295V9.22295Z" fill="#FFC107" mask="url(#path-24-inside-6)"/>
<mask id="path-26-inside-7" fill="white">
<ellipse rx="0.271742" ry="0.28409" transform="matrix(1 0 0 -1 18.0988 10.3751)"/>
</mask>
<path d="M18.0705 10.3751C18.0705 10.3749 18.0705 10.3757 18.0711 10.377C18.0715 10.3782 18.0724 10.3798 18.0741 10.3816C18.0758 10.3834 18.0787 10.3857 18.0832 10.3877C18.088 10.3898 18.0935 10.391 18.0988 10.391V9.791C18.427 9.791 18.6705 10.0652 18.6705 10.3751H18.0705ZM18.0988 10.391C18.1041 10.391 18.1096 10.3898 18.1143 10.3877C18.1188 10.3857 18.1217 10.3834 18.1234 10.3816C18.1251 10.3798 18.126 10.3782 18.1265 10.377C18.127 10.3757 18.127 10.3749 18.127 10.3751H17.527C17.527 10.0652 17.7706 9.791 18.0988 9.791V10.391ZM18.127 10.3751C18.127 10.3753 18.127 10.3745 18.1265 10.3732C18.126 10.372 18.1251 10.3704 18.1234 10.3686C18.1217 10.3668 18.1188 10.3645 18.1143 10.3625C18.1096 10.3604 18.1041 10.3592 18.0988 10.3592V10.9592C17.7706 10.9592 17.527 10.685 17.527 10.3751H18.127ZM18.0988 10.3592C18.0935 10.3592 18.088 10.3604 18.0832 10.3625C18.0787 10.3645 18.0758 10.3668 18.0741 10.3686C18.0724 10.3704 18.0715 10.372 18.0711 10.3732C18.0705 10.3745 18.0705 10.3753 18.0705 10.3751H18.6705C18.6705 10.685 18.427 10.9592 18.0988 10.9592V10.3592Z" fill="#FFC107" mask="url(#path-26-inside-7)"/>
</svg>
