<svg width="18" height="18" viewBox="0 0 18 18" fill="none" xmlns="http://www.w3.org/2000/svg">
<path d="M9.81317 9.81317C10.2623 9.36407 10.2623 8.63593 9.81317 8.18683L2.49462 0.868272C2.04551 0.419169 1.31738 0.419169 0.868272 0.868272C0.419169 1.31738 0.419169 2.04551 0.868272 2.49462L7.37365 9L0.868272 15.5054C0.419169 15.9545 0.419169 16.6826 0.868272 17.1317C1.31738 17.5808 2.04551 17.5808 2.49462 17.1317L9.81317 9.81317ZM7 10.15H9V7.85H7V10.15Z" fill="#CACACA"/>
<path d="M8.18683 8.18683C7.73772 8.63593 7.73772 9.36407 8.18683 9.81317L15.5054 17.1317C15.9545 17.5808 16.6826 17.5808 17.1317 17.1317C17.5808 16.6826 17.5808 15.9545 17.1317 15.5054L10.6263 9L17.1317 2.49462C17.5808 2.04552 17.5808 1.31738 17.1317 0.868272C16.6826 0.41917 15.9545 0.41917 15.5054 0.868272L8.18683 8.18683ZM10 7.85L9 7.85L9 10.15L10 10.15L10 7.85Z" fill="#CACACA"/>
</svg>
