<svg width="41" height="40" viewBox="0 0 41 40" fill="none" xmlns="http://www.w3.org/2000/svg">
<rect width="41" height="40" rx="20" fill="#66FF00"/>
<path d="M35 19.9138C35 19.8461 35 19.7692 34.9969 19.6799C34.9938 19.4306 34.9875 19.1505 34.9813 18.852C34.9563 17.9932 34.9125 17.1376 34.8438 16.3312C34.75 15.2201 34.6125 14.2936 34.425 13.598C34.2271 12.8721 33.8393 12.2101 33.3002 11.678C32.7612 11.146 32.0898 10.7627 31.3531 10.5663C30.4688 10.3324 28.7375 10.1877 26.3 10.0985C25.1406 10.0554 23.9 10.0277 22.6594 10.0123C22.225 10.0062 21.8219 10.0031 21.4594 10H20.5406C20.1781 10.0031 19.775 10.0062 19.3406 10.0123C18.1 10.0277 16.8594 10.0554 15.7 10.0985C13.2625 10.1908 11.5281 10.3355 10.6469 10.5663C9.91 10.7622 9.23834 11.1454 8.6992 11.6775C8.16006 12.2096 7.77238 12.8719 7.575 13.598C7.38438 14.2936 7.25 15.2201 7.15625 16.3312C7.0875 17.1376 7.04375 17.9932 7.01875 18.852C7.00937 19.1505 7.00625 19.4306 7.00312 19.6799C7.00312 19.7692 7 19.8461 7 19.9138V20.0862C7 20.1539 7 20.2308 7.00312 20.3201C7.00625 20.5694 7.0125 20.8495 7.01875 21.148C7.04375 22.0068 7.0875 22.8624 7.15625 23.6688C7.25 24.7799 7.3875 25.7064 7.575 26.402C7.975 27.8763 9.15 29.0397 10.6469 29.4337C11.5281 29.6676 13.2625 29.8122 15.7 29.9015C16.8594 29.9446 18.1 29.9723 19.3406 29.9877C19.775 29.9938 20.1781 29.9969 20.5406 30H21.4594C21.8219 29.9969 22.225 29.9938 22.6594 29.9877C23.9 29.9723 25.1406 29.9446 26.3 29.9015C28.7375 29.8092 30.4719 29.6645 31.3531 29.4337C32.85 29.0397 34.025 27.8793 34.425 26.402C34.6156 25.7064 34.75 24.7799 34.8438 23.6688C34.9125 22.8624 34.9563 22.0068 34.9813 21.148C34.9906 20.8495 34.9938 20.5694 34.9969 20.3201C34.9969 20.2308 35 20.1539 35 20.0862V19.9138ZM32.75 20.0739C32.75 20.1385 32.75 20.2093 32.7469 20.2924C32.7438 20.5325 32.7375 20.7972 32.7313 21.0834C32.7094 21.9021 32.6656 22.7208 32.6 23.4811C32.5156 24.4721 32.3969 25.2847 32.25 25.8295C32.0562 26.5405 31.4875 27.1037 30.7687 27.2915C30.1125 27.4638 28.4594 27.6023 26.2125 27.6854C25.075 27.7285 23.85 27.7562 22.6281 27.7716C22.2 27.7778 21.8031 27.7809 21.4469 27.7809H20.5531L19.3719 27.7716C18.15 27.7562 16.9281 27.7285 15.7875 27.6854C13.5406 27.5993 11.8844 27.4638 11.2312 27.2915C10.5125 27.1006 9.94375 26.5405 9.75 25.8295C9.60313 25.2847 9.48438 24.4721 9.4 23.4811C9.33438 22.7208 9.29375 21.9021 9.26875 21.0834C9.25938 20.7972 9.25625 20.5294 9.25313 20.2924C9.25313 20.2093 9.25 20.1354 9.25 20.0739V19.9261C9.25 19.8615 9.25 19.7907 9.25313 19.7076C9.25625 19.4675 9.2625 19.2028 9.26875 18.9166C9.29063 18.0979 9.33438 17.2792 9.4 16.5189C9.48438 15.5279 9.60313 14.7153 9.75 14.1705C9.94375 13.4595 10.5125 12.8963 11.2312 12.7085C11.8875 12.5362 13.5406 12.3977 15.7875 12.3146C16.925 12.2715 18.15 12.2438 19.3719 12.2284C19.8 12.2222 20.1969 12.2191 20.5531 12.2191H21.4469L22.6281 12.2284C23.85 12.2438 25.0719 12.2715 26.2125 12.3146C28.4594 12.4007 30.1156 12.5362 30.7687 12.7085C31.4875 12.8994 32.0562 13.4595 32.25 14.1705C32.3969 14.7153 32.5156 15.5279 32.6 16.5189C32.6656 17.2792 32.7063 18.0979 32.7313 18.9166C32.7406 19.2028 32.7438 19.4706 32.7469 19.7076C32.7469 19.7907 32.75 19.8646 32.75 19.9261V20.0739ZM18.2188 24.1243L25.4688 19.9692L18.2188 15.8757V24.1243Z" fill="white"/>
</svg>
