<svg width="39" height="28" viewBox="0 0 39 28" fill="none" xmlns="http://www.w3.org/2000/svg">
<g clip-path="url(#clip0)">
<path fill-rule="evenodd" clip-rule="evenodd" d="M28.5765 1.57409C26.4967 1.01723 20.3405 0.56117 12.5177 3.26788C4.80301 5.93721 1.74834 12.3782 1.16277 15.3299L6.21169 20.1539C9.1284 21.2218 13.501 22.7798 17.1787 23.9974C19.0242 24.6084 20.6924 25.133 21.9133 25.467C22.5245 25.6342 23.0194 25.7524 23.3668 25.8103C23.5418 25.8394 23.6719 25.852 23.7581 25.8499C23.7849 25.8492 23.8039 25.8472 23.8168 25.8451C23.8333 25.8139 23.8552 25.7791 23.8787 25.7435C23.9152 25.6885 23.9636 25.6203 24.0225 25.5404C24.1403 25.3804 24.3034 25.1691 24.5049 24.9139C24.9081 24.4035 25.4683 23.7139 26.1345 22.9022C26.9941 21.8547 28.0316 20.6022 29.1382 19.2662C29.7467 18.5315 30.3762 17.7716 31.0085 17.0067C32.791 14.8502 34.5964 12.6533 36.022 10.8661C36.7349 9.97248 37.3521 9.18214 37.8238 8.55095C38.2513 7.97886 38.553 7.54559 38.7002 7.28559C35.7101 3.16876 30.7266 1.76377 28.6023 1.57862L28.5892 1.57748L28.5765 1.57409ZM28.6414 1.28091C26.4842 0.708104 20.2754 0.266235 12.4196 2.98437C4.51041 5.721 1.41337 12.3602 0.852553 15.3542L0.837585 15.4341L6.04973 20.4141L6.07913 20.4248C8.9974 21.4936 13.3903 23.0591 17.0844 24.2822C18.9311 24.8936 20.6054 25.4202 21.8341 25.7564C22.4478 25.9242 22.9545 26.0458 23.3176 26.1062C23.4979 26.1363 23.6503 26.1526 23.7653 26.1498C23.8221 26.1484 23.8792 26.1423 23.9291 26.1257C23.9767 26.1098 24.0453 26.0745 24.0766 25.9962C24.0763 25.9968 24.0768 25.9958 24.0766 25.9962L24.0775 25.9942L24.0802 25.9886C24.0827 25.9838 24.0861 25.9775 24.0907 25.9697C24.0999 25.954 24.1124 25.934 24.1288 25.9093C24.1614 25.8601 24.2066 25.7963 24.264 25.7183C24.3788 25.5624 24.5395 25.3541 24.7403 25.0999C25.1417 24.5918 25.7004 23.904 26.3664 23.0925C27.2256 22.0455 28.2623 20.7939 29.3686 19.4584C29.9772 18.7236 30.6069 17.9634 31.2397 17.1978C33.0223 15.0413 34.8292 12.8426 36.2566 11.0532C36.9702 10.1586 37.5897 9.36542 38.0641 8.73053C38.5356 8.09955 38.8716 7.61492 39.0105 7.34221L39.0518 7.26104L38.9988 7.18692C35.9524 2.92379 30.8374 1.47627 28.6414 1.28091ZM33.1059 9.25669L22.4762 21.7792L7.13794 16.4662L7.23613 16.1827L22.3804 21.4285L32.8772 9.06255L33.1059 9.25669Z" fill="#FFC107"/>
<path fill-rule="evenodd" clip-rule="evenodd" d="M23.562 5.41162L23.653 5.41617C24.9195 5.47947 26.8024 5.65041 28.3303 5.96007C29.0895 6.11395 29.7881 6.30721 30.2816 6.55154C30.5262 6.67268 30.7515 6.82112 30.903 7.00945C31.066 7.21195 31.1479 7.46986 31.0632 7.75183L30.3928 7.55061C30.3987 7.5309 30.4054 7.50756 30.3577 7.44835C30.2987 7.37497 30.1778 7.28124 29.971 7.17887C29.5616 6.97618 28.936 6.79706 28.1912 6.64612C26.7464 6.3533 24.9544 6.18581 23.7085 6.11994C22.4827 6.72055 20.5537 7.5433 18.6348 8.11391C17.6537 8.40565 16.6659 8.63433 15.7707 8.73149C14.8834 8.82778 14.0484 8.79955 13.3965 8.54235C12.9535 8.36753 12.4089 8.44029 11.7689 8.75578C11.132 9.06981 10.4507 9.601 9.77643 10.2506C8.42978 11.548 7.17169 13.2581 6.42661 14.4373L5.83484 14.0634C6.59879 12.8543 7.89097 11.0951 9.29077 9.7465C9.98971 9.07314 10.7307 8.48718 11.4594 8.12793C12.1852 7.77014 12.9497 7.6135 13.6535 7.8912C14.1485 8.08652 14.8489 8.12742 15.6951 8.03558C16.5335 7.94459 17.4772 7.72784 18.4352 7.44295C20.3511 6.87324 22.2865 6.04244 23.4804 5.452L23.562 5.41162Z" fill="#FFC107"/>
<path fill-rule="evenodd" clip-rule="evenodd" d="M22.2466 17.3771C22.2429 17.3682 22.2246 17.3331 22.137 17.2894C22.0337 17.2377 21.877 17.2 21.6929 17.2C21.5089 17.2 21.3521 17.2377 21.2488 17.2894C21.1613 17.3331 21.143 17.3682 21.1393 17.3771C21.143 17.386 21.1613 17.4211 21.2488 17.4648C21.3521 17.5165 21.5089 17.5542 21.6929 17.5542C21.877 17.5542 22.0337 17.5165 22.137 17.4648C22.2246 17.4211 22.2429 17.386 22.2466 17.3771ZM21.6929 17.7542C22.1096 17.7542 22.4475 17.5854 22.4475 17.3771C22.4475 17.1688 22.1096 17 21.6929 17C21.2762 17 20.9384 17.1688 20.9384 17.3771C20.9384 17.5854 21.2762 17.7542 21.6929 17.7542Z" fill="#FFC107"/>
<path fill-rule="evenodd" clip-rule="evenodd" d="M8.77065 20.199C8.77067 20.199 8.77052 20.1993 8.77011 20.1998L8.77065 20.199ZM8.76439 20.2055C8.76133 20.197 8.75408 20.1819 8.73718 20.1592C8.69855 20.1074 8.62728 20.0419 8.51837 19.9699C8.30239 19.8272 7.9764 19.6838 7.59198 19.5808C7.20756 19.4778 6.85354 19.439 6.59511 19.4546C6.4648 19.4625 6.37033 19.4836 6.31097 19.5091C6.28501 19.5203 6.2712 19.5297 6.26427 19.5356C6.26734 19.5441 6.27459 19.5592 6.29148 19.5819C6.33012 19.6337 6.40138 19.6992 6.51029 19.7711C6.72628 19.9139 7.05227 20.0573 7.43669 20.1603C7.82111 20.2633 8.17513 20.3021 8.43356 20.2865C8.56387 20.2786 8.65834 20.2575 8.7177 20.232C8.74366 20.2208 8.75746 20.2114 8.76439 20.2055ZM6.2621 19.5269C6.26212 19.5269 6.26217 19.5272 6.26216 19.5278L6.2621 19.5269ZM6.25802 19.5421C6.258 19.5421 6.25815 19.5418 6.25856 19.5413L6.25802 19.5421ZM8.76651 20.2133C8.7666 20.2139 8.76659 20.2142 8.76657 20.2142L8.76651 20.2133ZM7.38492 20.3535C8.18379 20.5676 8.88934 20.5249 8.96081 20.2581C9.03228 19.9914 8.44261 19.6016 7.64374 19.3876C6.84488 19.1735 6.13933 19.2162 6.06786 19.483C5.99639 19.7497 6.58606 20.1395 7.38492 20.3535Z" fill="#FFC107"/>
<path fill-rule="evenodd" clip-rule="evenodd" d="M13.3911 19.5542C13.5665 19.5542 13.6438 19.4422 13.6438 19.3771C13.6438 19.312 13.5665 19.2 13.3911 19.2C13.2158 19.2 13.1384 19.312 13.1384 19.3771C13.1384 19.4422 13.2158 19.5542 13.3911 19.5542ZM13.3911 19.7542C13.6412 19.7542 13.8438 19.5854 13.8438 19.3771C13.8438 19.1688 13.6412 19 13.3911 19C13.1411 19 12.9384 19.1688 12.9384 19.3771C12.9384 19.5854 13.1411 19.7542 13.3911 19.7542Z" fill="#FFC107"/>
<path fill-rule="evenodd" clip-rule="evenodd" d="M29.3558 15.4513C29.4931 15.5412 29.7041 15.6341 29.9561 15.7016C30.208 15.7691 30.4372 15.7942 30.601 15.785C30.6474 15.7824 30.6849 15.7772 30.7141 15.7709C30.6919 15.7509 30.662 15.7277 30.6232 15.7022C30.486 15.6123 30.2749 15.5195 30.023 15.4519C29.771 15.3844 29.5418 15.3593 29.378 15.3686C29.3317 15.3712 29.2942 15.3764 29.2649 15.3826C29.2871 15.4027 29.317 15.4259 29.3558 15.4513ZM29.2164 15.3268C29.2165 15.3268 29.2167 15.3274 29.2171 15.3283L29.2164 15.3268ZM29.1964 15.4057C29.1956 15.4064 29.1951 15.4067 29.195 15.4067L29.1964 15.4057ZM30.7626 15.8267C30.7626 15.8267 30.7623 15.8262 30.7619 15.8252L30.7626 15.8267ZM30.7827 15.7478C30.7835 15.7472 30.784 15.7469 30.784 15.7469L30.7827 15.7478ZM29.0236 15.318C28.9765 15.4936 29.3708 15.7518 29.9043 15.8948C30.4378 16.0377 30.9084 16.0112 30.9554 15.8356C31.0025 15.66 30.6082 15.4017 30.0747 15.2588C29.5413 15.1158 29.0706 15.1423 29.0236 15.318Z" fill="#FFC107"/>
<path fill-rule="evenodd" clip-rule="evenodd" d="M21.2211 24.2324C21.3964 24.2324 21.4738 24.1205 21.4738 24.0553C21.4738 23.9902 21.3964 23.8782 21.2211 23.8782C21.0457 23.8782 20.9684 23.9902 20.9684 24.0553C20.9684 24.1205 21.0457 24.2324 21.2211 24.2324ZM21.2211 24.4324C21.4711 24.4324 21.6738 24.2636 21.6738 24.0553C21.6738 23.8471 21.4711 23.6782 21.2211 23.6782C20.9711 23.6782 20.7684 23.8471 20.7684 24.0553C20.7684 24.2636 20.9711 24.4324 21.2211 24.4324Z" fill="#FFC107"/>
<path fill-rule="evenodd" clip-rule="evenodd" d="M34.3911 10.5542C34.5665 10.5542 34.6438 10.4422 34.6438 10.3771C34.6438 10.312 34.5665 10.2 34.3911 10.2C34.2158 10.2 34.1384 10.312 34.1384 10.3771C34.1384 10.4422 34.2158 10.5542 34.3911 10.5542ZM34.3911 10.7542C34.6412 10.7542 34.8438 10.5854 34.8438 10.3771C34.8438 10.1688 34.6412 10 34.3911 10C34.1411 10 33.9384 10.1688 33.9384 10.3771C33.9384 10.5854 34.1411 10.7542 34.3911 10.7542Z" fill="#FFC107"/>
<path fill-rule="evenodd" clip-rule="evenodd" d="M26.7971 19.8326C26.7972 19.8325 26.7971 19.8337 26.7965 19.8364C26.7967 19.834 26.797 19.8327 26.7971 19.8326ZM26.7528 19.9322C26.7097 19.9421 26.6549 19.96 26.5888 19.9882C26.3875 20.074 26.1201 20.2373 25.8381 20.4609C25.5561 20.6845 25.324 20.9172 25.1762 21.1083C25.1276 21.171 25.0913 21.2253 25.0658 21.2698C25.1089 21.2599 25.1636 21.242 25.2298 21.2138C25.431 21.1281 25.6984 20.9647 25.9804 20.7411C26.2624 20.5175 26.4946 20.2848 26.6424 20.0938C26.691 20.031 26.7273 19.9768 26.7528 19.9322ZM24.9747 21.2775C24.9748 21.2774 24.9759 21.2776 24.9778 21.2784C24.9756 21.278 24.9747 21.2776 24.9747 21.2775ZM25.0214 21.3694C25.0213 21.3695 25.0214 21.3683 25.0221 21.3656C25.0218 21.368 25.0215 21.3694 25.0214 21.3694ZM26.8408 19.9236C26.843 19.924 26.8439 19.9244 26.8438 19.9245C26.8437 19.9246 26.8426 19.9244 26.8408 19.9236ZM26.071 20.9194C26.654 20.4571 27.0543 19.9398 26.965 19.764C26.8756 19.5881 26.3306 19.8203 25.7476 20.2826C25.1645 20.7449 24.7643 21.2622 24.8536 21.438C24.9429 21.6139 25.488 21.3817 26.071 20.9194Z" fill="#FFC107"/>
<path fill-rule="evenodd" clip-rule="evenodd" d="M34.5555 6.85409C34.5555 6.85416 34.5548 6.85396 34.5536 6.85332C34.5549 6.8537 34.5555 6.85402 34.5555 6.85409ZM34.5331 6.83788C34.5365 6.83096 34.5401 6.8216 34.5437 6.80906C34.5597 6.75236 34.5611 6.66186 34.5319 6.55304C34.5027 6.44422 34.4537 6.35682 34.4083 6.30389C34.3983 6.29219 34.3898 6.28357 34.3829 6.27727C34.3796 6.2842 34.3759 6.29356 34.3724 6.3061C34.3563 6.3628 34.355 6.45329 34.3841 6.56212C34.4133 6.67094 34.4623 6.75834 34.5077 6.81126C34.5178 6.82297 34.5263 6.83158 34.5331 6.83788ZM34.396 6.25889C34.396 6.25895 34.3956 6.25934 34.3946 6.25986C34.3955 6.25909 34.396 6.25883 34.396 6.25889ZM34.3606 6.26106C34.3606 6.261 34.3612 6.26119 34.3625 6.26183C34.3612 6.26145 34.3606 6.26113 34.3606 6.26106ZM34.5215 6.85529C34.5206 6.85607 34.5201 6.85633 34.5201 6.85627C34.52 6.8562 34.5205 6.85582 34.5215 6.85529ZM34.1845 6.57438C34.2567 6.84365 34.4376 7.05441 34.5887 7.04513C34.7397 7.03585 34.8037 6.81005 34.7315 6.54078C34.6594 6.27151 34.4784 6.06074 34.3274 6.07002C34.1763 6.0793 34.1124 6.30511 34.1845 6.57438Z" fill="#FFC107"/>
<path fill-rule="evenodd" clip-rule="evenodd" d="M16.0976 21.9535C16.0695 22.0562 16.0521 22.1995 16.0521 22.3581C16.0521 22.5167 16.0695 22.6601 16.0976 22.7628C16.0979 22.7638 16.0981 22.7647 16.0984 22.7657C16.1255 22.8636 16.1624 22.9238 16.203 22.9238C16.2437 22.9238 16.2805 22.8636 16.3077 22.7657C16.3079 22.7647 16.3082 22.7638 16.3085 22.7628C16.3365 22.6601 16.3539 22.5167 16.3539 22.3581C16.3539 22.1995 16.3365 22.0562 16.3085 21.9535C16.3082 21.9525 16.3079 21.9515 16.3077 21.9505C16.2805 21.8527 16.2437 21.7925 16.203 21.7925C16.1624 21.7925 16.1255 21.8527 16.0984 21.9505C16.0981 21.9515 16.0979 21.9525 16.0976 21.9535Z" fill="#FFC107"/>
<path fill-rule="evenodd" clip-rule="evenodd" d="M12.9839 12.161C12.9558 12.2637 12.9384 12.4071 12.9384 12.5656C12.9384 12.7242 12.9558 12.8676 12.9839 12.9703C12.9841 12.9713 12.9844 12.9723 12.9847 12.9733C13.0118 13.0711 13.0487 13.1313 13.0893 13.1313C13.1299 13.1313 13.1668 13.0711 13.1939 12.9733C13.1942 12.9723 13.1945 12.9713 13.1948 12.9703C13.2228 12.8676 13.2402 12.7242 13.2402 12.5656C13.2402 12.4071 13.2228 12.2637 13.1948 12.161C13.1945 12.16 13.1942 12.159 13.1939 12.158C13.1668 12.0602 13.1299 12 13.0893 12C13.0487 12 13.0118 12.0602 12.9847 12.158C12.9844 12.159 12.9841 12.16 12.9839 12.161Z" fill="#FFC107"/>
<path fill-rule="evenodd" clip-rule="evenodd" d="M26.2557 2.36813C26.3375 2.43567 26.4689 2.5092 26.6301 2.5632C26.7914 2.61719 26.9346 2.63555 27.0325 2.62821C27.0414 2.62754 27.0496 2.62668 27.0571 2.62569C27.051 2.62013 27.0442 2.61428 27.0368 2.60815C26.9549 2.54061 26.8236 2.46708 26.6623 2.41308C26.501 2.35909 26.3579 2.34073 26.26 2.34807C26.2511 2.34874 26.2429 2.34959 26.2354 2.35059C26.2415 2.35615 26.2482 2.362 26.2557 2.36813ZM25.9965 2.27061C25.9644 2.42006 26.2294 2.63861 26.5882 2.75875C26.947 2.87889 27.2639 2.85512 27.296 2.70567C27.328 2.55621 27.0631 2.33767 26.7043 2.21753C26.3454 2.09739 26.0285 2.12116 25.9965 2.27061Z" fill="#FFC107"/>
<path fill-rule="evenodd" clip-rule="evenodd" d="M7.24852 8.85932C7.3456 8.82856 7.47385 8.76086 7.6022 8.65842C7.73056 8.55598 7.82026 8.44974 7.86537 8.36701C7.86711 8.36383 7.86875 8.36074 7.8703 8.35774C7.86678 8.35877 7.86316 8.35988 7.85943 8.36106C7.76235 8.39183 7.6341 8.45953 7.50575 8.56197C7.37739 8.66441 7.28769 8.77065 7.24258 8.85338C7.24084 8.85655 7.2392 8.85965 7.23765 8.86265C7.24117 8.86161 7.24479 8.86051 7.24852 8.85932ZM7.035 9.02439C7.13974 9.12913 7.457 9.0286 7.74362 8.79984C8.03024 8.57109 8.17769 8.30074 8.07295 8.196C7.96821 8.09126 7.65095 8.19179 7.36433 8.42055C7.0777 8.6493 6.93026 8.91965 7.035 9.02439Z" fill="#FFC107"/>
</g>
<defs>
<clipPath id="clip0">
<rect width="39" height="28" fill="white"/>
</clipPath>
</defs>
</svg>
